G75*
%MOIN*%
%OFA0B0*%
%FSLAX25Y25*%
%IPPOS*%
%LPD*%
%AMOC8*
5,1,8,0,0,1.08239X$1,22.5*
%
%ADD10C,0.00500*%
%ADD11C,0.00000*%
D10*
X0011677Y0014054D02*
X0192780Y0014054D01*
X0192970Y0014056D01*
X0193160Y0014063D01*
X0193350Y0014075D01*
X0193540Y0014091D01*
X0193729Y0014111D01*
X0193918Y0014137D01*
X0194106Y0014166D01*
X0194293Y0014201D01*
X0194479Y0014240D01*
X0194664Y0014283D01*
X0194849Y0014331D01*
X0195032Y0014383D01*
X0195213Y0014439D01*
X0195393Y0014500D01*
X0195572Y0014566D01*
X0195749Y0014635D01*
X0195925Y0014709D01*
X0196098Y0014787D01*
X0196270Y0014870D01*
X0196439Y0014956D01*
X0196607Y0015046D01*
X0196772Y0015141D01*
X0196935Y0015239D01*
X0197095Y0015342D01*
X0197253Y0015448D01*
X0197408Y0015558D01*
X0197561Y0015671D01*
X0197711Y0015789D01*
X0197857Y0015910D01*
X0198001Y0016034D01*
X0198142Y0016162D01*
X0198280Y0016293D01*
X0198415Y0016428D01*
X0198546Y0016566D01*
X0198674Y0016707D01*
X0198798Y0016851D01*
X0198919Y0016997D01*
X0199037Y0017147D01*
X0199150Y0017300D01*
X0199260Y0017455D01*
X0199366Y0017613D01*
X0199469Y0017773D01*
X0199567Y0017936D01*
X0199662Y0018101D01*
X0199752Y0018269D01*
X0199838Y0018438D01*
X0199921Y0018610D01*
X0199999Y0018783D01*
X0200073Y0018959D01*
X0200142Y0019136D01*
X0200208Y0019315D01*
X0200269Y0019495D01*
X0200325Y0019676D01*
X0200377Y0019859D01*
X0200425Y0020044D01*
X0200468Y0020229D01*
X0200507Y0020415D01*
X0200542Y0020602D01*
X0200571Y0020790D01*
X0200597Y0020979D01*
X0200617Y0021168D01*
X0200633Y0021358D01*
X0200645Y0021548D01*
X0200652Y0021738D01*
X0200654Y0021928D01*
X0200654Y0210905D01*
X0200652Y0211095D01*
X0200645Y0211285D01*
X0200633Y0211475D01*
X0200617Y0211665D01*
X0200597Y0211854D01*
X0200571Y0212043D01*
X0200542Y0212231D01*
X0200507Y0212418D01*
X0200468Y0212604D01*
X0200425Y0212789D01*
X0200377Y0212974D01*
X0200325Y0213157D01*
X0200269Y0213338D01*
X0200208Y0213518D01*
X0200142Y0213697D01*
X0200073Y0213874D01*
X0199999Y0214050D01*
X0199921Y0214223D01*
X0199838Y0214395D01*
X0199752Y0214564D01*
X0199662Y0214732D01*
X0199567Y0214897D01*
X0199469Y0215060D01*
X0199366Y0215220D01*
X0199260Y0215378D01*
X0199150Y0215533D01*
X0199037Y0215686D01*
X0198919Y0215836D01*
X0198798Y0215982D01*
X0198674Y0216126D01*
X0198546Y0216267D01*
X0198415Y0216405D01*
X0198280Y0216540D01*
X0198142Y0216671D01*
X0198001Y0216799D01*
X0197857Y0216923D01*
X0197711Y0217044D01*
X0197561Y0217162D01*
X0197408Y0217275D01*
X0197253Y0217385D01*
X0197095Y0217491D01*
X0196935Y0217594D01*
X0196772Y0217692D01*
X0196607Y0217787D01*
X0196439Y0217877D01*
X0196270Y0217963D01*
X0196098Y0218046D01*
X0195925Y0218124D01*
X0195749Y0218198D01*
X0195572Y0218267D01*
X0195393Y0218333D01*
X0195213Y0218394D01*
X0195032Y0218450D01*
X0194849Y0218502D01*
X0194664Y0218550D01*
X0194479Y0218593D01*
X0194293Y0218632D01*
X0194106Y0218667D01*
X0193918Y0218696D01*
X0193729Y0218722D01*
X0193540Y0218742D01*
X0193350Y0218758D01*
X0193160Y0218770D01*
X0192970Y0218777D01*
X0192780Y0218779D01*
X0011677Y0218779D01*
X0011487Y0218777D01*
X0011297Y0218770D01*
X0011107Y0218758D01*
X0010917Y0218742D01*
X0010728Y0218722D01*
X0010539Y0218696D01*
X0010351Y0218667D01*
X0010164Y0218632D01*
X0009978Y0218593D01*
X0009793Y0218550D01*
X0009608Y0218502D01*
X0009425Y0218450D01*
X0009244Y0218394D01*
X0009064Y0218333D01*
X0008885Y0218267D01*
X0008708Y0218198D01*
X0008532Y0218124D01*
X0008359Y0218046D01*
X0008187Y0217963D01*
X0008018Y0217877D01*
X0007850Y0217787D01*
X0007685Y0217692D01*
X0007522Y0217594D01*
X0007362Y0217491D01*
X0007204Y0217385D01*
X0007049Y0217275D01*
X0006896Y0217162D01*
X0006746Y0217044D01*
X0006600Y0216923D01*
X0006456Y0216799D01*
X0006315Y0216671D01*
X0006177Y0216540D01*
X0006042Y0216405D01*
X0005911Y0216267D01*
X0005783Y0216126D01*
X0005659Y0215982D01*
X0005538Y0215836D01*
X0005420Y0215686D01*
X0005307Y0215533D01*
X0005197Y0215378D01*
X0005091Y0215220D01*
X0004988Y0215060D01*
X0004890Y0214897D01*
X0004795Y0214732D01*
X0004705Y0214564D01*
X0004619Y0214395D01*
X0004536Y0214223D01*
X0004458Y0214050D01*
X0004384Y0213874D01*
X0004315Y0213697D01*
X0004249Y0213518D01*
X0004188Y0213338D01*
X0004132Y0213157D01*
X0004080Y0212974D01*
X0004032Y0212789D01*
X0003989Y0212604D01*
X0003950Y0212418D01*
X0003915Y0212231D01*
X0003886Y0212043D01*
X0003860Y0211854D01*
X0003840Y0211665D01*
X0003824Y0211475D01*
X0003812Y0211285D01*
X0003805Y0211095D01*
X0003803Y0210905D01*
X0003803Y0021928D01*
X0003805Y0021738D01*
X0003812Y0021548D01*
X0003824Y0021358D01*
X0003840Y0021168D01*
X0003860Y0020979D01*
X0003886Y0020790D01*
X0003915Y0020602D01*
X0003950Y0020415D01*
X0003989Y0020229D01*
X0004032Y0020044D01*
X0004080Y0019859D01*
X0004132Y0019676D01*
X0004188Y0019495D01*
X0004249Y0019315D01*
X0004315Y0019136D01*
X0004384Y0018959D01*
X0004458Y0018783D01*
X0004536Y0018610D01*
X0004619Y0018438D01*
X0004705Y0018269D01*
X0004795Y0018101D01*
X0004890Y0017936D01*
X0004988Y0017773D01*
X0005091Y0017613D01*
X0005197Y0017455D01*
X0005307Y0017300D01*
X0005420Y0017147D01*
X0005538Y0016997D01*
X0005659Y0016851D01*
X0005783Y0016707D01*
X0005911Y0016566D01*
X0006042Y0016428D01*
X0006177Y0016293D01*
X0006315Y0016162D01*
X0006456Y0016034D01*
X0006600Y0015910D01*
X0006746Y0015789D01*
X0006896Y0015671D01*
X0007049Y0015558D01*
X0007204Y0015448D01*
X0007362Y0015342D01*
X0007522Y0015239D01*
X0007685Y0015141D01*
X0007850Y0015046D01*
X0008018Y0014956D01*
X0008187Y0014870D01*
X0008359Y0014787D01*
X0008532Y0014709D01*
X0008708Y0014635D01*
X0008885Y0014566D01*
X0009064Y0014500D01*
X0009244Y0014439D01*
X0009425Y0014383D01*
X0009608Y0014331D01*
X0009793Y0014283D01*
X0009978Y0014240D01*
X0010164Y0014201D01*
X0010351Y0014166D01*
X0010539Y0014137D01*
X0010728Y0014111D01*
X0010917Y0014091D01*
X0011107Y0014075D01*
X0011297Y0014063D01*
X0011487Y0014056D01*
X0011677Y0014054D01*
D11*
X0011381Y0007106D02*
X0011383Y0007259D01*
X0011389Y0007413D01*
X0011399Y0007566D01*
X0011413Y0007718D01*
X0011431Y0007871D01*
X0011453Y0008022D01*
X0011478Y0008173D01*
X0011508Y0008324D01*
X0011542Y0008474D01*
X0011579Y0008622D01*
X0011620Y0008770D01*
X0011665Y0008916D01*
X0011714Y0009062D01*
X0011767Y0009206D01*
X0011823Y0009348D01*
X0011883Y0009489D01*
X0011947Y0009629D01*
X0012014Y0009767D01*
X0012085Y0009903D01*
X0012160Y0010037D01*
X0012237Y0010169D01*
X0012319Y0010299D01*
X0012403Y0010427D01*
X0012491Y0010553D01*
X0012582Y0010676D01*
X0012676Y0010797D01*
X0012774Y0010915D01*
X0012874Y0011031D01*
X0012978Y0011144D01*
X0013084Y0011255D01*
X0013193Y0011363D01*
X0013305Y0011468D01*
X0013419Y0011569D01*
X0013537Y0011668D01*
X0013656Y0011764D01*
X0013778Y0011857D01*
X0013903Y0011946D01*
X0014030Y0012033D01*
X0014159Y0012115D01*
X0014290Y0012195D01*
X0014423Y0012271D01*
X0014558Y0012344D01*
X0014695Y0012413D01*
X0014834Y0012478D01*
X0014974Y0012540D01*
X0015116Y0012598D01*
X0015259Y0012653D01*
X0015404Y0012704D01*
X0015550Y0012751D01*
X0015697Y0012794D01*
X0015845Y0012833D01*
X0015994Y0012869D01*
X0016144Y0012900D01*
X0016295Y0012928D01*
X0016446Y0012952D01*
X0016599Y0012972D01*
X0016751Y0012988D01*
X0016904Y0013000D01*
X0017057Y0013008D01*
X0017210Y0013012D01*
X0017364Y0013012D01*
X0017517Y0013008D01*
X0017670Y0013000D01*
X0017823Y0012988D01*
X0017975Y0012972D01*
X0018128Y0012952D01*
X0018279Y0012928D01*
X0018430Y0012900D01*
X0018580Y0012869D01*
X0018729Y0012833D01*
X0018877Y0012794D01*
X0019024Y0012751D01*
X0019170Y0012704D01*
X0019315Y0012653D01*
X0019458Y0012598D01*
X0019600Y0012540D01*
X0019740Y0012478D01*
X0019879Y0012413D01*
X0020016Y0012344D01*
X0020151Y0012271D01*
X0020284Y0012195D01*
X0020415Y0012115D01*
X0020544Y0012033D01*
X0020671Y0011946D01*
X0020796Y0011857D01*
X0020918Y0011764D01*
X0021037Y0011668D01*
X0021155Y0011569D01*
X0021269Y0011468D01*
X0021381Y0011363D01*
X0021490Y0011255D01*
X0021596Y0011144D01*
X0021700Y0011031D01*
X0021800Y0010915D01*
X0021898Y0010797D01*
X0021992Y0010676D01*
X0022083Y0010553D01*
X0022171Y0010427D01*
X0022255Y0010299D01*
X0022337Y0010169D01*
X0022414Y0010037D01*
X0022489Y0009903D01*
X0022560Y0009767D01*
X0022627Y0009629D01*
X0022691Y0009489D01*
X0022751Y0009348D01*
X0022807Y0009206D01*
X0022860Y0009062D01*
X0022909Y0008916D01*
X0022954Y0008770D01*
X0022995Y0008622D01*
X0023032Y0008474D01*
X0023066Y0008324D01*
X0023096Y0008173D01*
X0023121Y0008022D01*
X0023143Y0007871D01*
X0023161Y0007718D01*
X0023175Y0007566D01*
X0023185Y0007413D01*
X0023191Y0007259D01*
X0023193Y0007106D01*
X0023191Y0006953D01*
X0023185Y0006799D01*
X0023175Y0006646D01*
X0023161Y0006494D01*
X0023143Y0006341D01*
X0023121Y0006190D01*
X0023096Y0006039D01*
X0023066Y0005888D01*
X0023032Y0005738D01*
X0022995Y0005590D01*
X0022954Y0005442D01*
X0022909Y0005296D01*
X0022860Y0005150D01*
X0022807Y0005006D01*
X0022751Y0004864D01*
X0022691Y0004723D01*
X0022627Y0004583D01*
X0022560Y0004445D01*
X0022489Y0004309D01*
X0022414Y0004175D01*
X0022337Y0004043D01*
X0022255Y0003913D01*
X0022171Y0003785D01*
X0022083Y0003659D01*
X0021992Y0003536D01*
X0021898Y0003415D01*
X0021800Y0003297D01*
X0021700Y0003181D01*
X0021596Y0003068D01*
X0021490Y0002957D01*
X0021381Y0002849D01*
X0021269Y0002744D01*
X0021155Y0002643D01*
X0021037Y0002544D01*
X0020918Y0002448D01*
X0020796Y0002355D01*
X0020671Y0002266D01*
X0020544Y0002179D01*
X0020415Y0002097D01*
X0020284Y0002017D01*
X0020151Y0001941D01*
X0020016Y0001868D01*
X0019879Y0001799D01*
X0019740Y0001734D01*
X0019600Y0001672D01*
X0019458Y0001614D01*
X0019315Y0001559D01*
X0019170Y0001508D01*
X0019024Y0001461D01*
X0018877Y0001418D01*
X0018729Y0001379D01*
X0018580Y0001343D01*
X0018430Y0001312D01*
X0018279Y0001284D01*
X0018128Y0001260D01*
X0017975Y0001240D01*
X0017823Y0001224D01*
X0017670Y0001212D01*
X0017517Y0001204D01*
X0017364Y0001200D01*
X0017210Y0001200D01*
X0017057Y0001204D01*
X0016904Y0001212D01*
X0016751Y0001224D01*
X0016599Y0001240D01*
X0016446Y0001260D01*
X0016295Y0001284D01*
X0016144Y0001312D01*
X0015994Y0001343D01*
X0015845Y0001379D01*
X0015697Y0001418D01*
X0015550Y0001461D01*
X0015404Y0001508D01*
X0015259Y0001559D01*
X0015116Y0001614D01*
X0014974Y0001672D01*
X0014834Y0001734D01*
X0014695Y0001799D01*
X0014558Y0001868D01*
X0014423Y0001941D01*
X0014290Y0002017D01*
X0014159Y0002097D01*
X0014030Y0002179D01*
X0013903Y0002266D01*
X0013778Y0002355D01*
X0013656Y0002448D01*
X0013537Y0002544D01*
X0013419Y0002643D01*
X0013305Y0002744D01*
X0013193Y0002849D01*
X0013084Y0002957D01*
X0012978Y0003068D01*
X0012874Y0003181D01*
X0012774Y0003297D01*
X0012676Y0003415D01*
X0012582Y0003536D01*
X0012491Y0003659D01*
X0012403Y0003785D01*
X0012319Y0003913D01*
X0012237Y0004043D01*
X0012160Y0004175D01*
X0012085Y0004309D01*
X0012014Y0004445D01*
X0011947Y0004583D01*
X0011883Y0004723D01*
X0011823Y0004864D01*
X0011767Y0005006D01*
X0011714Y0005150D01*
X0011665Y0005296D01*
X0011620Y0005442D01*
X0011579Y0005590D01*
X0011542Y0005738D01*
X0011508Y0005888D01*
X0011478Y0006039D01*
X0011453Y0006190D01*
X0011431Y0006341D01*
X0011413Y0006494D01*
X0011399Y0006646D01*
X0011389Y0006799D01*
X0011383Y0006953D01*
X0011381Y0007106D01*
X0011381Y0226003D02*
X0011383Y0226156D01*
X0011389Y0226310D01*
X0011399Y0226463D01*
X0011413Y0226615D01*
X0011431Y0226768D01*
X0011453Y0226919D01*
X0011478Y0227070D01*
X0011508Y0227221D01*
X0011542Y0227371D01*
X0011579Y0227519D01*
X0011620Y0227667D01*
X0011665Y0227813D01*
X0011714Y0227959D01*
X0011767Y0228103D01*
X0011823Y0228245D01*
X0011883Y0228386D01*
X0011947Y0228526D01*
X0012014Y0228664D01*
X0012085Y0228800D01*
X0012160Y0228934D01*
X0012237Y0229066D01*
X0012319Y0229196D01*
X0012403Y0229324D01*
X0012491Y0229450D01*
X0012582Y0229573D01*
X0012676Y0229694D01*
X0012774Y0229812D01*
X0012874Y0229928D01*
X0012978Y0230041D01*
X0013084Y0230152D01*
X0013193Y0230260D01*
X0013305Y0230365D01*
X0013419Y0230466D01*
X0013537Y0230565D01*
X0013656Y0230661D01*
X0013778Y0230754D01*
X0013903Y0230843D01*
X0014030Y0230930D01*
X0014159Y0231012D01*
X0014290Y0231092D01*
X0014423Y0231168D01*
X0014558Y0231241D01*
X0014695Y0231310D01*
X0014834Y0231375D01*
X0014974Y0231437D01*
X0015116Y0231495D01*
X0015259Y0231550D01*
X0015404Y0231601D01*
X0015550Y0231648D01*
X0015697Y0231691D01*
X0015845Y0231730D01*
X0015994Y0231766D01*
X0016144Y0231797D01*
X0016295Y0231825D01*
X0016446Y0231849D01*
X0016599Y0231869D01*
X0016751Y0231885D01*
X0016904Y0231897D01*
X0017057Y0231905D01*
X0017210Y0231909D01*
X0017364Y0231909D01*
X0017517Y0231905D01*
X0017670Y0231897D01*
X0017823Y0231885D01*
X0017975Y0231869D01*
X0018128Y0231849D01*
X0018279Y0231825D01*
X0018430Y0231797D01*
X0018580Y0231766D01*
X0018729Y0231730D01*
X0018877Y0231691D01*
X0019024Y0231648D01*
X0019170Y0231601D01*
X0019315Y0231550D01*
X0019458Y0231495D01*
X0019600Y0231437D01*
X0019740Y0231375D01*
X0019879Y0231310D01*
X0020016Y0231241D01*
X0020151Y0231168D01*
X0020284Y0231092D01*
X0020415Y0231012D01*
X0020544Y0230930D01*
X0020671Y0230843D01*
X0020796Y0230754D01*
X0020918Y0230661D01*
X0021037Y0230565D01*
X0021155Y0230466D01*
X0021269Y0230365D01*
X0021381Y0230260D01*
X0021490Y0230152D01*
X0021596Y0230041D01*
X0021700Y0229928D01*
X0021800Y0229812D01*
X0021898Y0229694D01*
X0021992Y0229573D01*
X0022083Y0229450D01*
X0022171Y0229324D01*
X0022255Y0229196D01*
X0022337Y0229066D01*
X0022414Y0228934D01*
X0022489Y0228800D01*
X0022560Y0228664D01*
X0022627Y0228526D01*
X0022691Y0228386D01*
X0022751Y0228245D01*
X0022807Y0228103D01*
X0022860Y0227959D01*
X0022909Y0227813D01*
X0022954Y0227667D01*
X0022995Y0227519D01*
X0023032Y0227371D01*
X0023066Y0227221D01*
X0023096Y0227070D01*
X0023121Y0226919D01*
X0023143Y0226768D01*
X0023161Y0226615D01*
X0023175Y0226463D01*
X0023185Y0226310D01*
X0023191Y0226156D01*
X0023193Y0226003D01*
X0023191Y0225850D01*
X0023185Y0225696D01*
X0023175Y0225543D01*
X0023161Y0225391D01*
X0023143Y0225238D01*
X0023121Y0225087D01*
X0023096Y0224936D01*
X0023066Y0224785D01*
X0023032Y0224635D01*
X0022995Y0224487D01*
X0022954Y0224339D01*
X0022909Y0224193D01*
X0022860Y0224047D01*
X0022807Y0223903D01*
X0022751Y0223761D01*
X0022691Y0223620D01*
X0022627Y0223480D01*
X0022560Y0223342D01*
X0022489Y0223206D01*
X0022414Y0223072D01*
X0022337Y0222940D01*
X0022255Y0222810D01*
X0022171Y0222682D01*
X0022083Y0222556D01*
X0021992Y0222433D01*
X0021898Y0222312D01*
X0021800Y0222194D01*
X0021700Y0222078D01*
X0021596Y0221965D01*
X0021490Y0221854D01*
X0021381Y0221746D01*
X0021269Y0221641D01*
X0021155Y0221540D01*
X0021037Y0221441D01*
X0020918Y0221345D01*
X0020796Y0221252D01*
X0020671Y0221163D01*
X0020544Y0221076D01*
X0020415Y0220994D01*
X0020284Y0220914D01*
X0020151Y0220838D01*
X0020016Y0220765D01*
X0019879Y0220696D01*
X0019740Y0220631D01*
X0019600Y0220569D01*
X0019458Y0220511D01*
X0019315Y0220456D01*
X0019170Y0220405D01*
X0019024Y0220358D01*
X0018877Y0220315D01*
X0018729Y0220276D01*
X0018580Y0220240D01*
X0018430Y0220209D01*
X0018279Y0220181D01*
X0018128Y0220157D01*
X0017975Y0220137D01*
X0017823Y0220121D01*
X0017670Y0220109D01*
X0017517Y0220101D01*
X0017364Y0220097D01*
X0017210Y0220097D01*
X0017057Y0220101D01*
X0016904Y0220109D01*
X0016751Y0220121D01*
X0016599Y0220137D01*
X0016446Y0220157D01*
X0016295Y0220181D01*
X0016144Y0220209D01*
X0015994Y0220240D01*
X0015845Y0220276D01*
X0015697Y0220315D01*
X0015550Y0220358D01*
X0015404Y0220405D01*
X0015259Y0220456D01*
X0015116Y0220511D01*
X0014974Y0220569D01*
X0014834Y0220631D01*
X0014695Y0220696D01*
X0014558Y0220765D01*
X0014423Y0220838D01*
X0014290Y0220914D01*
X0014159Y0220994D01*
X0014030Y0221076D01*
X0013903Y0221163D01*
X0013778Y0221252D01*
X0013656Y0221345D01*
X0013537Y0221441D01*
X0013419Y0221540D01*
X0013305Y0221641D01*
X0013193Y0221746D01*
X0013084Y0221854D01*
X0012978Y0221965D01*
X0012874Y0222078D01*
X0012774Y0222194D01*
X0012676Y0222312D01*
X0012582Y0222433D01*
X0012491Y0222556D01*
X0012403Y0222682D01*
X0012319Y0222810D01*
X0012237Y0222940D01*
X0012160Y0223072D01*
X0012085Y0223206D01*
X0012014Y0223342D01*
X0011947Y0223480D01*
X0011883Y0223620D01*
X0011823Y0223761D01*
X0011767Y0223903D01*
X0011714Y0224047D01*
X0011665Y0224193D01*
X0011620Y0224339D01*
X0011579Y0224487D01*
X0011542Y0224635D01*
X0011508Y0224785D01*
X0011478Y0224936D01*
X0011453Y0225087D01*
X0011431Y0225238D01*
X0011413Y0225391D01*
X0011399Y0225543D01*
X0011389Y0225696D01*
X0011383Y0225850D01*
X0011381Y0226003D01*
M02*
