G75*
%MOIN*%
%OFA0B0*%
%FSLAX24Y24*%
%IPPOS*%
%LPD*%
%AMOC8*
5,1,8,0,0,1.08239X$1,22.5*
%
%ADD10C,0.0050*%
%ADD11C,0.0040*%
%ADD12R,0.1500X0.0250*%
%ADD13C,0.0030*%
%ADD14C,0.0080*%
%ADD15R,0.0300X0.0340*%
%ADD16R,0.1102X0.0354*%
%ADD17C,0.0060*%
%ADD18C,0.0100*%
%ADD19C,0.0000*%
D10*
X001168Y001405D02*
X019278Y001405D01*
X019278Y001406D02*
X019332Y001408D01*
X019385Y001413D01*
X019438Y001422D01*
X019490Y001435D01*
X019542Y001451D01*
X019592Y001471D01*
X019640Y001494D01*
X019687Y001521D01*
X019732Y001550D01*
X019775Y001583D01*
X019815Y001618D01*
X019853Y001656D01*
X019888Y001696D01*
X019921Y001739D01*
X019950Y001784D01*
X019977Y001831D01*
X020000Y001879D01*
X020020Y001929D01*
X020036Y001981D01*
X020049Y002033D01*
X020058Y002086D01*
X020063Y002139D01*
X020065Y002193D01*
X020065Y021090D01*
X020063Y021144D01*
X020058Y021197D01*
X020049Y021250D01*
X020036Y021302D01*
X020020Y021354D01*
X020000Y021404D01*
X019977Y021452D01*
X019950Y021499D01*
X019921Y021544D01*
X019888Y021587D01*
X019853Y021627D01*
X019815Y021665D01*
X019775Y021700D01*
X019732Y021733D01*
X019687Y021762D01*
X019640Y021789D01*
X019592Y021812D01*
X019542Y021832D01*
X019490Y021848D01*
X019438Y021861D01*
X019385Y021870D01*
X019332Y021875D01*
X019278Y021877D01*
X019278Y021878D02*
X001168Y021878D01*
X001168Y021877D02*
X001114Y021875D01*
X001061Y021870D01*
X001008Y021861D01*
X000956Y021848D01*
X000904Y021832D01*
X000854Y021812D01*
X000806Y021789D01*
X000759Y021762D01*
X000714Y021733D01*
X000671Y021700D01*
X000631Y021665D01*
X000593Y021627D01*
X000558Y021587D01*
X000525Y021544D01*
X000496Y021499D01*
X000469Y021452D01*
X000446Y021404D01*
X000426Y021354D01*
X000410Y021302D01*
X000397Y021250D01*
X000388Y021197D01*
X000383Y021144D01*
X000381Y021090D01*
X000380Y021090D02*
X000380Y002193D01*
X000381Y002193D02*
X000383Y002139D01*
X000388Y002086D01*
X000397Y002033D01*
X000410Y001981D01*
X000426Y001929D01*
X000446Y001879D01*
X000469Y001831D01*
X000496Y001784D01*
X000525Y001739D01*
X000558Y001696D01*
X000593Y001656D01*
X000631Y001618D01*
X000671Y001583D01*
X000714Y001550D01*
X000759Y001521D01*
X000806Y001494D01*
X000854Y001471D01*
X000904Y001451D01*
X000956Y001435D01*
X001008Y001422D01*
X001061Y001413D01*
X001114Y001408D01*
X001168Y001406D01*
X009224Y010555D02*
X009299Y010555D01*
X009374Y010630D01*
X009374Y011006D01*
X009299Y011006D02*
X009449Y011006D01*
X009610Y011006D02*
X009835Y011006D01*
X009910Y010931D01*
X009910Y010781D01*
X009835Y010706D01*
X009610Y010706D01*
X009610Y010555D02*
X009610Y011006D01*
X010070Y010931D02*
X010145Y011006D01*
X010295Y011006D01*
X010370Y010931D01*
X010370Y010856D01*
X010070Y010555D01*
X010370Y010555D01*
X009224Y010555D02*
X009149Y010630D01*
X008793Y013463D02*
X007218Y013463D01*
X007218Y016848D01*
X008793Y016848D01*
X008793Y013463D01*
X007343Y016612D02*
X007345Y016632D01*
X007350Y016652D01*
X007360Y016670D01*
X007372Y016687D01*
X007387Y016701D01*
X007405Y016711D01*
X007424Y016719D01*
X007444Y016723D01*
X007464Y016723D01*
X007484Y016719D01*
X007503Y016711D01*
X007521Y016701D01*
X007536Y016687D01*
X007548Y016670D01*
X007558Y016652D01*
X007563Y016632D01*
X007565Y016612D01*
X007563Y016592D01*
X007558Y016572D01*
X007548Y016554D01*
X007536Y016537D01*
X007521Y016523D01*
X007503Y016513D01*
X007484Y016505D01*
X007464Y016501D01*
X007444Y016501D01*
X007424Y016505D01*
X007405Y016513D01*
X007387Y016523D01*
X007372Y016537D01*
X007360Y016554D01*
X007350Y016572D01*
X007345Y016592D01*
X007343Y016612D01*
X007029Y017032D02*
X007029Y018528D01*
X004982Y018528D01*
X004982Y017032D01*
X007029Y017032D01*
X007029Y017308D02*
X007108Y017308D01*
X007108Y018253D01*
X007029Y018253D01*
X007029Y017308D01*
X007029Y017314D02*
X007108Y017314D01*
X007108Y017362D02*
X007029Y017362D01*
X007029Y017411D02*
X007108Y017411D01*
X007108Y017459D02*
X007029Y017459D01*
X007029Y017508D02*
X007108Y017508D01*
X007108Y017556D02*
X007029Y017556D01*
X007029Y017605D02*
X007108Y017605D01*
X007108Y017653D02*
X007029Y017653D01*
X007029Y017702D02*
X007108Y017702D01*
X007108Y017750D02*
X007029Y017750D01*
X007029Y017799D02*
X007108Y017799D01*
X007108Y017847D02*
X007029Y017847D01*
X007029Y017896D02*
X007108Y017896D01*
X007108Y017944D02*
X007029Y017944D01*
X007029Y017993D02*
X007108Y017993D01*
X007108Y018041D02*
X007029Y018041D01*
X007029Y018090D02*
X007108Y018090D01*
X007108Y018138D02*
X007029Y018138D01*
X007029Y018187D02*
X007108Y018187D01*
X007108Y018235D02*
X007029Y018235D01*
X006675Y018235D02*
X006438Y018235D01*
X006438Y018187D02*
X006675Y018187D01*
X006675Y018138D02*
X006438Y018138D01*
X006438Y018090D02*
X006675Y018090D01*
X006675Y018041D02*
X006438Y018041D01*
X006438Y017993D02*
X006675Y017993D01*
X006675Y017944D02*
X006438Y017944D01*
X006438Y017896D02*
X006675Y017896D01*
X006675Y017847D02*
X006438Y017847D01*
X006438Y017799D02*
X006675Y017799D01*
X006675Y017750D02*
X006438Y017750D01*
X006438Y017780D02*
X006005Y018095D01*
X006005Y017465D01*
X006438Y017780D01*
X006438Y017702D02*
X006675Y017702D01*
X006675Y017653D02*
X006438Y017653D01*
X006438Y017605D02*
X006675Y017605D01*
X006675Y017556D02*
X006438Y017556D01*
X006438Y017508D02*
X006675Y017508D01*
X006675Y017459D02*
X006438Y017459D01*
X006438Y017411D02*
X006675Y017411D01*
X006675Y017362D02*
X006438Y017362D01*
X006438Y017314D02*
X006675Y017314D01*
X006675Y017265D02*
X006438Y017265D01*
X006438Y017217D02*
X006675Y017217D01*
X006675Y017168D02*
X006438Y017168D01*
X006438Y017120D02*
X006675Y017120D01*
X006675Y017071D02*
X006438Y017071D01*
X006438Y017032D02*
X006675Y017032D01*
X006675Y018528D01*
X006438Y018528D01*
X006438Y017032D01*
X006438Y018284D02*
X006675Y018284D01*
X006675Y018332D02*
X006438Y018332D01*
X006438Y018381D02*
X006675Y018381D01*
X006675Y018429D02*
X006438Y018429D01*
X006438Y018478D02*
X006675Y018478D01*
X006675Y018526D02*
X006438Y018526D01*
X007130Y019655D02*
X006630Y020155D01*
X007630Y020155D01*
X007130Y019655D01*
X004982Y018253D02*
X004982Y017308D01*
X004903Y017308D01*
X004903Y018253D01*
X004982Y018253D01*
X004982Y018235D02*
X004903Y018235D01*
X004903Y018187D02*
X004982Y018187D01*
X004982Y018138D02*
X004903Y018138D01*
X004903Y018090D02*
X004982Y018090D01*
X004982Y018041D02*
X004903Y018041D01*
X004903Y017993D02*
X004982Y017993D01*
X004982Y017944D02*
X004903Y017944D01*
X004903Y017896D02*
X004982Y017896D01*
X004982Y017847D02*
X004903Y017847D01*
X004903Y017799D02*
X004982Y017799D01*
X004982Y017750D02*
X004903Y017750D01*
X004903Y017702D02*
X004982Y017702D01*
X004982Y017653D02*
X004903Y017653D01*
X004903Y017605D02*
X004982Y017605D01*
X004982Y017556D02*
X004903Y017556D01*
X004903Y017508D02*
X004982Y017508D01*
X004982Y017459D02*
X004903Y017459D01*
X004903Y017411D02*
X004982Y017411D01*
X004982Y017362D02*
X004903Y017362D01*
X004903Y017314D02*
X004982Y017314D01*
X017872Y011421D02*
X017947Y011496D01*
X018023Y011496D01*
X018098Y011421D01*
X018173Y011496D01*
X018248Y011496D01*
X018323Y011421D01*
X018323Y011271D01*
X018248Y011196D01*
X018098Y011346D02*
X018098Y011421D01*
X017872Y011421D02*
X017872Y011271D01*
X017947Y011196D01*
X017947Y011036D02*
X018098Y011036D01*
X018173Y010961D01*
X018173Y010736D01*
X018323Y010736D02*
X017872Y010736D01*
X017872Y010961D01*
X017947Y011036D01*
X017872Y010576D02*
X017872Y010426D01*
X017872Y010501D02*
X018248Y010501D01*
X018323Y010426D01*
X018323Y010350D01*
X018248Y010275D01*
X018248Y009496D02*
X018173Y009496D01*
X018098Y009421D01*
X018098Y009196D01*
X018248Y009196D01*
X018323Y009271D01*
X018323Y009421D01*
X018248Y009496D01*
X018098Y009196D02*
X017947Y009346D01*
X017872Y009496D01*
X017947Y009036D02*
X018098Y009036D01*
X018173Y008961D01*
X018173Y008736D01*
X018323Y008736D02*
X017872Y008736D01*
X017872Y008961D01*
X017947Y009036D01*
X017872Y008576D02*
X017872Y008426D01*
X017872Y008501D02*
X018248Y008501D01*
X018323Y008426D01*
X018323Y008350D01*
X018248Y008275D01*
D11*
X017878Y007886D02*
X017571Y007886D01*
X017571Y007656D01*
X017725Y007732D01*
X017801Y007732D01*
X017878Y007656D01*
X017878Y007502D01*
X017801Y007425D01*
X017648Y007425D01*
X017571Y007502D01*
X017418Y007502D02*
X017341Y007425D01*
X017187Y007425D01*
X017111Y007502D01*
X016957Y007425D02*
X016804Y007579D01*
X016881Y007579D02*
X016650Y007579D01*
X016710Y007675D02*
X016556Y007675D01*
X016480Y007752D01*
X016326Y007752D02*
X016249Y007675D01*
X016096Y007675D01*
X016019Y007752D01*
X016019Y008059D01*
X016096Y008136D01*
X016249Y008136D01*
X016326Y008059D01*
X016480Y008059D02*
X016556Y008136D01*
X016710Y008136D01*
X016786Y008059D01*
X016786Y007982D01*
X016710Y007906D01*
X016786Y007829D01*
X016786Y007752D01*
X016710Y007675D01*
X016881Y007579D02*
X016957Y007656D01*
X016957Y007809D01*
X016881Y007886D01*
X016650Y007886D01*
X016650Y007425D01*
X016710Y007261D02*
X016786Y007184D01*
X016786Y007107D01*
X016710Y007031D01*
X016786Y006954D01*
X016786Y006877D01*
X016710Y006800D01*
X016556Y006800D01*
X016480Y006877D01*
X016326Y006877D02*
X016249Y006800D01*
X016096Y006800D01*
X016019Y006877D01*
X016019Y007184D01*
X016096Y007261D01*
X016249Y007261D01*
X016326Y007184D01*
X016480Y007184D02*
X016556Y007261D01*
X016710Y007261D01*
X016710Y007031D02*
X016633Y007031D01*
X016940Y007031D02*
X016940Y006877D01*
X017017Y006800D01*
X017170Y006800D01*
X017247Y006877D01*
X017247Y006954D01*
X017170Y007031D01*
X016940Y007031D01*
X017093Y007184D01*
X017247Y007261D01*
X017418Y007502D02*
X017418Y007579D01*
X017341Y007656D01*
X017264Y007656D01*
X017341Y007656D02*
X017418Y007732D01*
X017418Y007809D01*
X017341Y007886D01*
X017187Y007886D01*
X017111Y007809D01*
X017170Y007675D02*
X017017Y007675D01*
X016940Y007752D01*
X017247Y008059D01*
X017247Y007752D01*
X017170Y007675D01*
X016940Y007752D02*
X016940Y008059D01*
X017017Y008136D01*
X017170Y008136D01*
X017247Y008059D01*
X017170Y008550D02*
X017017Y008550D01*
X016940Y008627D01*
X016940Y008704D01*
X017017Y008781D01*
X017170Y008781D01*
X017247Y008704D01*
X017247Y008627D01*
X017170Y008550D01*
X017170Y008781D02*
X017247Y008857D01*
X017247Y008934D01*
X017170Y009011D01*
X017017Y009011D01*
X016940Y008934D01*
X016940Y008857D01*
X017017Y008781D01*
X016786Y008934D02*
X016710Y009011D01*
X016556Y009011D01*
X016480Y008934D01*
X016480Y008627D01*
X016556Y008550D01*
X016710Y008550D01*
X016786Y008627D01*
X016710Y007906D02*
X016633Y007906D01*
X017769Y007198D02*
X017769Y006738D01*
X017769Y006891D02*
X017999Y006891D01*
X018076Y006968D01*
X018076Y007122D01*
X017999Y007198D01*
X017769Y007198D01*
X017923Y006891D02*
X018076Y006738D01*
X018230Y006738D02*
X018536Y006738D01*
X018383Y006738D02*
X018383Y007198D01*
X018230Y007045D01*
X018690Y007122D02*
X018767Y007198D01*
X018920Y007198D01*
X018997Y007122D01*
X018997Y007045D01*
X018690Y006738D01*
X018997Y006738D01*
X017170Y009425D02*
X017017Y009425D01*
X016940Y009502D01*
X016940Y009579D01*
X017017Y009656D01*
X017170Y009656D01*
X017247Y009579D01*
X017247Y009502D01*
X017170Y009425D01*
X017170Y009656D02*
X017247Y009732D01*
X017247Y009809D01*
X017170Y009886D01*
X017017Y009886D01*
X016940Y009809D01*
X016940Y009732D01*
X017017Y009656D01*
X016786Y009732D02*
X016786Y009809D01*
X016710Y009886D01*
X016556Y009886D01*
X016480Y009809D01*
X016326Y009809D02*
X016249Y009886D01*
X016096Y009886D01*
X016019Y009809D01*
X016019Y009502D01*
X016096Y009425D01*
X016249Y009425D01*
X016326Y009502D01*
X016480Y009425D02*
X016786Y009732D01*
X016786Y009425D02*
X016480Y009425D01*
X016045Y010488D02*
X015892Y010488D01*
X015815Y010565D01*
X015661Y010488D02*
X015355Y010488D01*
X015661Y010795D01*
X015661Y010872D01*
X015585Y010948D01*
X015431Y010948D01*
X015355Y010872D01*
X015201Y010872D02*
X015124Y010948D01*
X014971Y010948D01*
X014894Y010872D01*
X014894Y010565D01*
X014971Y010488D01*
X015124Y010488D01*
X015201Y010565D01*
X015815Y010872D02*
X015892Y010948D01*
X016045Y010948D01*
X016122Y010872D01*
X016122Y010795D01*
X016045Y010718D01*
X016122Y010641D01*
X016122Y010565D01*
X016045Y010488D01*
X016045Y010718D02*
X015968Y010718D01*
X015122Y009809D02*
X015122Y009502D01*
X015045Y009425D01*
X014892Y009425D01*
X014815Y009502D01*
X015122Y009809D01*
X015045Y009886D01*
X014892Y009886D01*
X014815Y009809D01*
X014815Y009502D01*
X014661Y009502D02*
X014661Y009579D01*
X014585Y009656D01*
X014508Y009656D01*
X014585Y009656D02*
X014661Y009732D01*
X014661Y009809D01*
X014585Y009886D01*
X014431Y009886D01*
X014355Y009809D01*
X014201Y009809D02*
X014201Y009656D01*
X014124Y009579D01*
X013894Y009579D01*
X013894Y009425D02*
X013894Y009886D01*
X014124Y009886D01*
X014201Y009809D01*
X014048Y009579D02*
X014201Y009425D01*
X014355Y009502D02*
X014431Y009425D01*
X014585Y009425D01*
X014661Y009502D01*
X014508Y009011D02*
X014508Y008550D01*
X014355Y008550D02*
X014661Y008550D01*
X014815Y008627D02*
X014815Y008704D01*
X014892Y008781D01*
X015045Y008781D01*
X015122Y008704D01*
X015122Y008627D01*
X015045Y008550D01*
X014892Y008550D01*
X014815Y008627D01*
X014892Y008781D02*
X014815Y008857D01*
X014815Y008934D01*
X014892Y009011D01*
X015045Y009011D01*
X015122Y008934D01*
X015122Y008857D01*
X015045Y008781D01*
X014508Y009011D02*
X014355Y008857D01*
X014201Y008781D02*
X014201Y008934D01*
X014124Y009011D01*
X013894Y009011D01*
X013894Y008550D01*
X013894Y008704D02*
X014124Y008704D01*
X014201Y008781D01*
X014048Y008704D02*
X014201Y008550D01*
X014124Y008136D02*
X013894Y008136D01*
X013894Y007675D01*
X013894Y007829D02*
X014124Y007829D01*
X014201Y007906D01*
X014201Y008059D01*
X014124Y008136D01*
X014048Y007829D02*
X014201Y007675D01*
X014355Y007675D02*
X014661Y007675D01*
X014508Y007675D02*
X014508Y008136D01*
X014355Y007982D01*
X014815Y008059D02*
X014892Y008136D01*
X015045Y008136D01*
X015122Y008059D01*
X015122Y007982D01*
X015045Y007906D01*
X015122Y007829D01*
X015122Y007752D01*
X015045Y007675D01*
X014892Y007675D01*
X014815Y007752D01*
X014968Y007906D02*
X015045Y007906D01*
X015122Y007261D02*
X014815Y007261D01*
X014815Y007031D01*
X014968Y007107D01*
X015045Y007107D01*
X015122Y007031D01*
X015122Y006877D01*
X015045Y006800D01*
X014892Y006800D01*
X014815Y006877D01*
X014661Y006800D02*
X014508Y006954D01*
X014585Y006954D02*
X014355Y006954D01*
X014355Y006800D02*
X014355Y007261D01*
X014585Y007261D01*
X014661Y007184D01*
X014661Y007031D01*
X014585Y006954D01*
X014585Y006386D02*
X014431Y006386D01*
X014355Y006309D01*
X014201Y006309D02*
X014201Y006156D01*
X014124Y006079D01*
X013894Y006079D01*
X013894Y005925D02*
X013894Y006386D01*
X014124Y006386D01*
X014201Y006309D01*
X014048Y006079D02*
X014201Y005925D01*
X014355Y006002D02*
X014431Y005925D01*
X014585Y005925D01*
X014661Y006002D01*
X014661Y006079D01*
X014585Y006156D01*
X014508Y006156D01*
X014585Y006156D02*
X014661Y006232D01*
X014661Y006309D01*
X014585Y006386D01*
X014815Y006156D02*
X015122Y006156D01*
X015045Y006386D02*
X015045Y005925D01*
X014815Y006156D02*
X015045Y006386D01*
X013920Y004211D02*
X013767Y004211D01*
X013690Y004134D01*
X013690Y004057D01*
X013767Y003981D01*
X013997Y003981D01*
X013997Y004134D02*
X013920Y004211D01*
X013997Y004134D02*
X013997Y003827D01*
X013920Y003750D01*
X013767Y003750D01*
X013690Y003827D01*
X013536Y003827D02*
X013460Y003750D01*
X013306Y003750D01*
X013230Y003827D01*
X013230Y004134D01*
X013306Y004211D01*
X013460Y004211D01*
X013536Y004134D01*
X013076Y004211D02*
X012923Y004211D01*
X012999Y004211D02*
X012999Y003750D01*
X012923Y003750D02*
X013076Y003750D01*
X013076Y002086D02*
X012923Y002086D01*
X012999Y002086D02*
X012999Y001625D01*
X012923Y001625D02*
X013076Y001625D01*
X013230Y001702D02*
X013306Y001625D01*
X013460Y001625D01*
X013536Y001702D01*
X013690Y001702D02*
X013767Y001625D01*
X013920Y001625D01*
X013997Y001702D01*
X013997Y001779D01*
X013920Y001856D01*
X013843Y001856D01*
X013920Y001856D02*
X013997Y001932D01*
X013997Y002009D01*
X013920Y002086D01*
X013767Y002086D01*
X013690Y002009D01*
X013536Y002009D02*
X013460Y002086D01*
X013306Y002086D01*
X013230Y002009D01*
X013230Y001702D01*
X011122Y002531D02*
X010815Y002531D01*
X011045Y002761D01*
X011045Y002300D01*
X010920Y002011D02*
X010690Y001781D01*
X010997Y001781D01*
X010920Y002011D02*
X010920Y001550D01*
X010536Y001550D02*
X010230Y001550D01*
X010536Y001857D01*
X010536Y001934D01*
X010460Y002011D01*
X010306Y002011D01*
X010230Y001934D01*
X010076Y001934D02*
X010076Y001781D01*
X009999Y001704D01*
X009769Y001704D01*
X009769Y001550D02*
X009769Y002011D01*
X009999Y002011D01*
X010076Y001934D01*
X009923Y001704D02*
X010076Y001550D01*
X010048Y002300D02*
X010201Y002300D01*
X010124Y002300D02*
X010124Y002761D01*
X010048Y002761D02*
X010201Y002761D01*
X010355Y002684D02*
X010355Y002377D01*
X010431Y002300D01*
X010585Y002300D01*
X010661Y002377D01*
X010661Y002684D02*
X010585Y002761D01*
X010431Y002761D01*
X010355Y002684D01*
X010383Y003300D02*
X010383Y003761D01*
X010230Y003607D01*
X010076Y003531D02*
X009999Y003454D01*
X009769Y003454D01*
X009769Y003300D02*
X009769Y003761D01*
X009999Y003761D01*
X010076Y003684D01*
X010076Y003531D01*
X009923Y003454D02*
X010076Y003300D01*
X010230Y003300D02*
X010536Y003300D01*
X010690Y003377D02*
X010997Y003684D01*
X010997Y003377D01*
X010920Y003300D01*
X010767Y003300D01*
X010690Y003377D01*
X010690Y003684D01*
X010767Y003761D01*
X010920Y003761D01*
X010997Y003684D01*
X010690Y005050D02*
X010690Y005127D01*
X010997Y005434D01*
X010997Y005511D01*
X010690Y005511D01*
X010383Y005511D02*
X010383Y005050D01*
X010230Y005050D02*
X010536Y005050D01*
X010230Y005357D02*
X010383Y005511D01*
X010076Y005434D02*
X010076Y005281D01*
X009999Y005204D01*
X009769Y005204D01*
X009769Y005050D02*
X009769Y005511D01*
X009999Y005511D01*
X010076Y005434D01*
X009923Y005204D02*
X010076Y005050D01*
X008920Y003761D02*
X008767Y003761D01*
X008690Y003684D01*
X008536Y003684D02*
X008536Y003531D01*
X008460Y003454D01*
X008230Y003454D01*
X008383Y003454D02*
X008536Y003300D01*
X008690Y003300D02*
X008997Y003607D01*
X008997Y003684D01*
X008920Y003761D01*
X008536Y003684D02*
X008460Y003761D01*
X008230Y003761D01*
X008230Y003300D01*
X008690Y003300D02*
X008997Y003300D01*
X009346Y006613D02*
X009269Y006690D01*
X009269Y006997D01*
X009346Y007073D01*
X009499Y007073D01*
X009576Y006997D01*
X009730Y006920D02*
X009883Y007073D01*
X009883Y006613D01*
X009730Y006613D02*
X010036Y006613D01*
X010190Y006843D02*
X010497Y006843D01*
X010420Y006613D02*
X010420Y007073D01*
X010190Y006843D01*
X010212Y007209D02*
X010212Y007439D01*
X010289Y007516D01*
X010443Y007516D01*
X010519Y007439D01*
X010519Y007209D01*
X010519Y007362D02*
X010673Y007516D01*
X010673Y007669D02*
X010673Y007976D01*
X010673Y007823D02*
X010212Y007823D01*
X010366Y007669D01*
X010366Y008130D02*
X010212Y008283D01*
X010673Y008283D01*
X010712Y008377D02*
X010712Y008531D01*
X010789Y008607D01*
X010673Y008667D02*
X010596Y008590D01*
X010289Y008897D01*
X010596Y008897D01*
X010673Y008820D01*
X010673Y008667D01*
X010596Y008590D02*
X010289Y008590D01*
X010212Y008667D01*
X010212Y008820D01*
X010289Y008897D01*
X010048Y008857D02*
X009894Y008704D01*
X009894Y008781D02*
X009894Y008550D01*
X010048Y008550D02*
X009587Y008550D01*
X009587Y008781D01*
X009664Y008857D01*
X009818Y008857D01*
X009894Y008781D01*
X009741Y009011D02*
X009587Y009164D01*
X010048Y009164D01*
X010048Y009011D02*
X010048Y009318D01*
X009971Y009471D02*
X009664Y009778D01*
X009971Y009778D01*
X010048Y009701D01*
X010048Y009548D01*
X009971Y009471D01*
X009664Y009471D01*
X009587Y009548D01*
X009587Y009701D01*
X009664Y009778D01*
X009664Y009932D02*
X009587Y010008D01*
X009587Y010162D01*
X009664Y010239D01*
X009741Y010239D01*
X009818Y010162D01*
X009894Y010239D01*
X009971Y010239D01*
X010048Y010162D01*
X010048Y010008D01*
X009971Y009932D01*
X009818Y010085D02*
X009818Y010162D01*
X010164Y011050D02*
X010087Y011127D01*
X010087Y011281D01*
X010164Y011357D01*
X010164Y011511D02*
X010087Y011588D01*
X010087Y011741D01*
X010164Y011818D01*
X010241Y011818D01*
X010318Y011741D01*
X010394Y011818D01*
X010471Y011818D01*
X010548Y011741D01*
X010548Y011588D01*
X010471Y011511D01*
X010471Y011357D02*
X010548Y011281D01*
X010548Y011127D01*
X010471Y011050D01*
X010164Y011050D01*
X010318Y011664D02*
X010318Y011741D01*
X010318Y011971D02*
X010318Y012278D01*
X010548Y012201D02*
X010087Y012201D01*
X010318Y011971D01*
X010900Y012048D02*
X010900Y012201D01*
X010977Y012278D01*
X011284Y011971D01*
X011360Y012048D01*
X011360Y012201D01*
X011284Y012278D01*
X010977Y012278D01*
X010900Y012048D02*
X010977Y011971D01*
X011284Y011971D01*
X011360Y011818D02*
X011360Y011511D01*
X011053Y011818D01*
X010977Y011818D01*
X010900Y011741D01*
X010900Y011588D01*
X010977Y011511D01*
X010977Y011357D02*
X010900Y011281D01*
X010900Y011127D01*
X010977Y011050D01*
X011284Y011050D01*
X011360Y011127D01*
X011360Y011281D01*
X011284Y011357D01*
X011096Y009528D02*
X011173Y009451D01*
X011173Y009298D01*
X011096Y009221D01*
X010943Y009221D02*
X010866Y009375D01*
X010866Y009451D01*
X010943Y009528D01*
X011096Y009528D01*
X010943Y009221D02*
X010712Y009221D01*
X010712Y009528D01*
X010943Y009068D02*
X010943Y008761D01*
X010712Y008991D01*
X011173Y008991D01*
X011096Y008607D02*
X011173Y008531D01*
X011173Y008377D01*
X011096Y008300D01*
X010789Y008300D01*
X010712Y008377D01*
X010673Y008437D02*
X010673Y008130D01*
X010673Y007209D02*
X010212Y007209D01*
X009576Y006690D02*
X009499Y006613D01*
X009346Y006613D01*
X011587Y008377D02*
X011664Y008300D01*
X011971Y008300D01*
X012048Y008377D01*
X012048Y008531D01*
X011971Y008607D01*
X011971Y008761D02*
X011894Y008761D01*
X011818Y008838D01*
X011818Y008991D01*
X011894Y009068D01*
X011971Y009068D01*
X012048Y008991D01*
X012048Y008838D01*
X011971Y008761D01*
X011818Y008838D02*
X011741Y008761D01*
X011664Y008761D01*
X011587Y008838D01*
X011587Y008991D01*
X011664Y009068D01*
X011741Y009068D01*
X011818Y008991D01*
X011664Y009221D02*
X011587Y009298D01*
X011587Y009451D01*
X011664Y009528D01*
X011741Y009528D01*
X012048Y009221D01*
X012048Y009528D01*
X011664Y008607D02*
X011587Y008531D01*
X011587Y008377D01*
X012369Y006323D02*
X012292Y006247D01*
X012292Y005940D01*
X012369Y005863D01*
X012522Y005863D01*
X012599Y005940D01*
X012752Y005940D02*
X012752Y006093D01*
X012983Y006093D01*
X013059Y006016D01*
X013059Y005940D01*
X012983Y005863D01*
X012829Y005863D01*
X012752Y005940D01*
X012752Y006093D02*
X012906Y006247D01*
X013059Y006323D01*
X012599Y006247D02*
X012522Y006323D01*
X012369Y006323D01*
X006985Y011880D02*
X006525Y011880D01*
X006525Y012110D01*
X006602Y012187D01*
X006755Y012187D01*
X006832Y012110D01*
X006832Y011880D01*
X006832Y012033D02*
X006985Y012187D01*
X006985Y012340D02*
X006909Y012340D01*
X006602Y012647D01*
X006525Y012647D01*
X006525Y012340D01*
X006110Y012417D02*
X006034Y012340D01*
X006110Y012417D02*
X006110Y012570D01*
X006034Y012647D01*
X005957Y012647D01*
X005880Y012570D01*
X005880Y012494D01*
X005880Y012570D02*
X005803Y012647D01*
X005727Y012647D01*
X005650Y012570D01*
X005650Y012417D01*
X005727Y012340D01*
X005727Y012187D02*
X005880Y012187D01*
X005957Y012110D01*
X005957Y011880D01*
X005957Y012033D02*
X006110Y012187D01*
X006110Y011880D02*
X005650Y011880D01*
X005650Y012110D01*
X005727Y012187D01*
X005627Y012800D02*
X005627Y012877D01*
X005934Y013184D01*
X005934Y013261D01*
X005627Y013261D01*
X005474Y013184D02*
X005397Y013261D01*
X005244Y013261D01*
X005167Y013184D01*
X005167Y012877D01*
X005244Y012800D01*
X005397Y012800D01*
X005474Y012877D01*
X008275Y017130D02*
X008275Y017360D01*
X008352Y017437D01*
X008505Y017437D01*
X008582Y017360D01*
X008582Y017130D01*
X008582Y017283D02*
X008735Y017437D01*
X008735Y017590D02*
X008735Y017897D01*
X008735Y017744D02*
X008275Y017744D01*
X008428Y017590D01*
X008275Y017130D02*
X008735Y017130D01*
X009227Y017675D02*
X009381Y017675D01*
X009457Y017752D01*
X009611Y017752D02*
X009687Y017675D01*
X009841Y017675D01*
X009918Y017752D01*
X009918Y017829D01*
X009841Y017906D01*
X009764Y017906D01*
X009841Y017906D02*
X009918Y017982D01*
X009918Y018059D01*
X009841Y018136D01*
X009687Y018136D01*
X009611Y018059D01*
X009457Y018059D02*
X009381Y018136D01*
X009227Y018136D01*
X009150Y018059D01*
X009150Y017752D01*
X009227Y017675D01*
X007886Y019024D02*
X007886Y020787D01*
X006576Y020483D02*
X006576Y020329D01*
X006499Y020252D01*
X006576Y020099D02*
X006576Y019792D01*
X006269Y020099D01*
X006192Y020099D01*
X006115Y020022D01*
X006115Y019869D01*
X006192Y019792D01*
X006192Y019639D02*
X006346Y019639D01*
X006422Y019562D01*
X006422Y019332D01*
X006422Y019485D02*
X006576Y019639D01*
X006576Y019332D02*
X006115Y019332D01*
X006115Y019562D01*
X006192Y019639D01*
X006110Y019636D02*
X005803Y019943D01*
X005727Y019943D01*
X005650Y019866D01*
X005650Y019713D01*
X005727Y019636D01*
X005727Y019482D02*
X005650Y019406D01*
X005650Y019175D01*
X006110Y019175D01*
X006110Y019406D01*
X006034Y019482D01*
X005727Y019482D01*
X006110Y019636D02*
X006110Y019943D01*
X006192Y020252D02*
X006115Y020329D01*
X006115Y020483D01*
X006192Y020559D01*
X006269Y020559D01*
X006346Y020483D01*
X006422Y020559D01*
X006499Y020559D01*
X006576Y020483D01*
X006346Y020483D02*
X006346Y020406D01*
X006374Y020787D02*
X006374Y019024D01*
X005360Y019675D02*
X004900Y019982D01*
X005053Y020136D02*
X004900Y020289D01*
X005360Y020289D01*
X005360Y020136D02*
X005360Y020443D01*
X005360Y019982D02*
X004900Y019675D01*
X011525Y020081D02*
X011602Y020005D01*
X011909Y020005D01*
X011985Y020081D01*
X011985Y020235D01*
X011909Y020312D01*
X011755Y020465D02*
X011755Y020772D01*
X011525Y020695D02*
X011755Y020465D01*
X011602Y020312D02*
X011525Y020235D01*
X011525Y020081D01*
X011713Y020078D02*
X011866Y020078D01*
X011790Y020078D02*
X011790Y019618D01*
X011866Y019618D02*
X011713Y019618D01*
X012020Y019695D02*
X012096Y019618D01*
X012250Y019618D01*
X012327Y019695D01*
X012480Y019618D02*
X012787Y019618D01*
X012634Y019618D02*
X012634Y020078D01*
X012480Y019925D01*
X012539Y020005D02*
X012462Y020081D01*
X012462Y020235D01*
X012539Y020312D01*
X012539Y020465D02*
X012462Y020542D01*
X012462Y020695D01*
X012539Y020772D01*
X012616Y020772D01*
X012923Y020465D01*
X012923Y020772D01*
X012900Y020866D02*
X013130Y020636D01*
X013130Y020943D01*
X013284Y021096D02*
X013360Y021096D01*
X013284Y021096D02*
X012977Y021403D01*
X012900Y021403D01*
X012900Y021096D01*
X012900Y020866D02*
X013360Y020866D01*
X013525Y020522D02*
X013602Y020522D01*
X013909Y020215D01*
X013985Y020215D01*
X013909Y020062D02*
X013985Y019985D01*
X013985Y019831D01*
X013909Y019755D01*
X013985Y019601D02*
X013832Y019448D01*
X013832Y019524D02*
X013832Y019294D01*
X013985Y019294D02*
X013525Y019294D01*
X013525Y019524D01*
X013602Y019601D01*
X013755Y019601D01*
X013832Y019524D01*
X013602Y019755D02*
X013525Y019831D01*
X013525Y019985D01*
X013602Y020062D01*
X013678Y020062D01*
X013755Y019985D01*
X013832Y020062D01*
X013909Y020062D01*
X013755Y019985D02*
X013755Y019908D01*
X013525Y020215D02*
X013525Y020522D01*
X013360Y020482D02*
X013207Y020329D01*
X013207Y020406D02*
X013207Y020175D01*
X013360Y020175D02*
X012900Y020175D01*
X012900Y020406D01*
X012977Y020482D01*
X013130Y020482D01*
X013207Y020406D01*
X012923Y020235D02*
X012846Y020312D01*
X012923Y020235D02*
X012923Y020081D01*
X012846Y020005D01*
X012539Y020005D01*
X012327Y020002D02*
X012250Y020078D01*
X012096Y020078D01*
X012020Y020002D01*
X012020Y019695D01*
X011985Y020695D02*
X011525Y020695D01*
X015650Y020619D02*
X016110Y020619D01*
X016110Y020772D02*
X016110Y020465D01*
X016034Y020312D02*
X016110Y020235D01*
X016110Y020081D01*
X016034Y020005D01*
X015727Y020005D01*
X015650Y020081D01*
X015650Y020235D01*
X015727Y020312D01*
X015803Y020465D02*
X015650Y020619D01*
X016400Y020693D02*
X016400Y020386D01*
X016630Y020386D01*
X016553Y020539D01*
X016553Y020616D01*
X016630Y020693D01*
X016784Y020693D01*
X016860Y020616D01*
X016860Y020463D01*
X016784Y020386D01*
X016925Y020419D02*
X017385Y020419D01*
X017385Y020572D02*
X017385Y020265D01*
X017385Y020112D02*
X017385Y019805D01*
X016925Y019805D01*
X016784Y019925D02*
X016860Y020002D01*
X016860Y020156D01*
X016784Y020232D01*
X016925Y020419D02*
X017078Y020265D01*
X016784Y019925D02*
X016477Y019925D01*
X016400Y020002D01*
X016400Y020156D01*
X016477Y020232D01*
X016477Y020846D02*
X016400Y020923D01*
X016400Y021076D01*
X016477Y021153D01*
X016784Y020846D01*
X016860Y020923D01*
X016860Y021076D01*
X016784Y021153D01*
X016477Y021153D01*
X016477Y020846D02*
X016784Y020846D01*
X003747Y006175D02*
X003440Y006175D01*
X003593Y006175D02*
X003593Y006636D01*
X003440Y006482D01*
X003286Y006175D02*
X002980Y006175D01*
X002980Y006636D01*
X002826Y006636D02*
X002519Y006329D01*
X002596Y006406D02*
X002826Y006175D01*
X002519Y006175D02*
X002519Y006636D01*
D12*
X007130Y019530D03*
D13*
X007745Y019404D02*
X007745Y019157D01*
X007807Y019036D02*
X007745Y018974D01*
X007745Y018850D01*
X007807Y018789D01*
X007807Y018667D02*
X007745Y018606D01*
X007745Y018482D01*
X007807Y018420D01*
X008054Y018420D01*
X008115Y018482D01*
X008115Y018606D01*
X008054Y018667D01*
X008115Y018789D02*
X007868Y019036D01*
X007807Y019036D01*
X008054Y019157D02*
X008115Y019157D01*
X008054Y019157D02*
X007807Y019404D01*
X007745Y019404D01*
X008115Y019036D02*
X008115Y018789D01*
D14*
X008979Y006216D02*
X005434Y006216D01*
X005434Y002345D02*
X008979Y002345D01*
X008979Y006216D01*
D15*
X009146Y004280D03*
D16*
X009570Y003280D03*
X009570Y005280D03*
D17*
X009755Y011280D02*
X009505Y011530D01*
X009505Y013030D01*
X009255Y013280D01*
X008755Y013280D01*
X008505Y013030D01*
X008505Y011530D01*
X008255Y011280D01*
X007755Y011280D01*
X007505Y011530D01*
X007255Y011280D01*
X006755Y011280D01*
X006505Y011530D01*
X006505Y013030D01*
X006755Y013280D01*
X007255Y013280D01*
X007505Y013030D01*
X007505Y011530D01*
X008505Y011530D02*
X008755Y011280D01*
X009255Y011280D01*
X009505Y011530D01*
X009755Y011280D02*
X010255Y011280D01*
X010505Y011530D01*
X010505Y013030D01*
X010255Y013280D01*
X009755Y013280D01*
X009505Y013030D01*
X008505Y013030D02*
X008255Y013280D01*
X007755Y013280D01*
X007505Y013030D01*
X011173Y013323D02*
X011173Y018693D01*
X011343Y018863D01*
X016713Y018863D01*
X016713Y013323D01*
X011173Y013323D01*
X011408Y018408D02*
X011410Y018437D01*
X011416Y018466D01*
X011425Y018494D01*
X011439Y018520D01*
X011455Y018544D01*
X011475Y018566D01*
X011498Y018585D01*
X011522Y018601D01*
X011549Y018613D01*
X011577Y018622D01*
X011606Y018627D01*
X011635Y018628D01*
X011665Y018625D01*
X011693Y018618D01*
X011721Y018608D01*
X011746Y018593D01*
X011770Y018576D01*
X011791Y018556D01*
X011809Y018533D01*
X011824Y018507D01*
X011836Y018480D01*
X011844Y018452D01*
X011848Y018423D01*
X011848Y018393D01*
X011844Y018364D01*
X011836Y018336D01*
X011824Y018309D01*
X011809Y018283D01*
X011791Y018260D01*
X011770Y018240D01*
X011746Y018223D01*
X011721Y018208D01*
X011693Y018198D01*
X011665Y018191D01*
X011635Y018188D01*
X011606Y018189D01*
X011577Y018194D01*
X011549Y018203D01*
X011522Y018215D01*
X011498Y018231D01*
X011475Y018250D01*
X011455Y018272D01*
X011439Y018296D01*
X011425Y018322D01*
X011416Y018350D01*
X011410Y018379D01*
X011408Y018408D01*
X018568Y015030D02*
X018568Y014530D01*
X018818Y014280D01*
X019318Y014280D01*
X019568Y014530D01*
X019568Y015030D01*
X019318Y015280D01*
X018818Y015280D01*
X018568Y015030D01*
X018818Y014280D02*
X018568Y014030D01*
X018568Y013530D01*
X018818Y013280D01*
X019318Y013280D01*
X019568Y013530D01*
X019568Y014030D01*
X019318Y014280D01*
X019318Y013280D02*
X019568Y013030D01*
X019568Y012530D01*
X019318Y012280D01*
X019568Y012030D01*
X019568Y011530D01*
X019318Y011280D01*
X019568Y011030D01*
X019568Y010530D01*
X019318Y010280D01*
X018818Y010280D01*
X018568Y010530D01*
X018568Y011030D01*
X018818Y011280D01*
X018568Y011530D01*
X018568Y012030D01*
X018818Y012280D01*
X019318Y012280D01*
X018818Y012280D02*
X018568Y012530D01*
X018568Y013030D01*
X018818Y013280D01*
X018818Y011280D02*
X019318Y011280D01*
X019318Y010280D02*
X018818Y010280D01*
X018568Y010030D01*
X018568Y009530D01*
X018818Y009280D01*
X019318Y009280D01*
X019568Y009530D01*
X019568Y010030D01*
X019318Y010280D01*
X019318Y009280D02*
X019568Y009030D01*
X019568Y008530D01*
X019318Y008280D01*
X018818Y008280D01*
X018568Y008530D01*
X018568Y009030D01*
X018818Y009280D01*
D18*
X002079Y000159D02*
X001370Y000159D01*
X002079Y000160D02*
X002120Y000189D01*
X002159Y000221D01*
X002196Y000256D01*
X002229Y000293D01*
X002260Y000333D01*
X002287Y000375D01*
X002312Y000419D01*
X002332Y000465D01*
X002349Y000513D01*
X002363Y000561D01*
X002372Y000611D01*
X002378Y000661D01*
X002380Y000711D01*
X002378Y000761D01*
X002372Y000811D01*
X002363Y000861D01*
X002349Y000909D01*
X002332Y000957D01*
X002312Y001003D01*
X002287Y001047D01*
X002260Y001089D01*
X002229Y001129D01*
X002196Y001166D01*
X002159Y001201D01*
X002120Y001233D01*
X002079Y001262D01*
X002119Y001222D02*
X002119Y001498D01*
X001371Y001262D02*
X001330Y001233D01*
X001291Y001201D01*
X001254Y001166D01*
X001221Y001129D01*
X001190Y001089D01*
X001163Y001047D01*
X001138Y001003D01*
X001118Y000957D01*
X001101Y000909D01*
X001087Y000861D01*
X001078Y000811D01*
X001072Y000761D01*
X001070Y000711D01*
X001072Y000661D01*
X001078Y000611D01*
X001087Y000561D01*
X001101Y000513D01*
X001118Y000465D01*
X001138Y000419D01*
X001163Y000375D01*
X001190Y000333D01*
X001221Y000293D01*
X001254Y000256D01*
X001291Y000221D01*
X001330Y000189D01*
X001371Y000160D01*
X001331Y001222D02*
X001331Y001498D01*
X000859Y001537D02*
X004559Y001537D01*
X004559Y021774D01*
X003930Y021774D01*
X003928Y021802D01*
X003923Y021830D01*
X003913Y021857D01*
X003901Y021883D01*
X003885Y021906D01*
X003866Y021927D01*
X003845Y021946D01*
X003822Y021962D01*
X003796Y021974D01*
X003769Y021984D01*
X003741Y021989D01*
X003713Y021991D01*
X003685Y021989D01*
X003657Y021984D01*
X003630Y021974D01*
X003605Y021962D01*
X003581Y021946D01*
X003560Y021927D01*
X003541Y021906D01*
X003525Y021883D01*
X003513Y021857D01*
X003503Y021830D01*
X003498Y021802D01*
X003496Y021774D01*
X000859Y021774D01*
X000859Y001537D01*
X001331Y021813D02*
X001331Y022089D01*
X002079Y022049D02*
X002120Y022078D01*
X002159Y022110D01*
X002196Y022145D01*
X002229Y022182D01*
X002260Y022222D01*
X002287Y022264D01*
X002312Y022308D01*
X002332Y022354D01*
X002349Y022402D01*
X002363Y022450D01*
X002372Y022500D01*
X002378Y022550D01*
X002380Y022600D01*
X002378Y022650D01*
X002372Y022700D01*
X002363Y022750D01*
X002349Y022798D01*
X002332Y022846D01*
X002312Y022892D01*
X002287Y022936D01*
X002260Y022978D01*
X002229Y023018D01*
X002196Y023055D01*
X002159Y023090D01*
X002120Y023122D01*
X002079Y023151D01*
X001370Y023151D01*
X001371Y023151D02*
X001330Y023122D01*
X001291Y023090D01*
X001254Y023055D01*
X001221Y023018D01*
X001190Y022978D01*
X001163Y022936D01*
X001138Y022892D01*
X001118Y022846D01*
X001101Y022798D01*
X001087Y022750D01*
X001078Y022700D01*
X001072Y022650D01*
X001070Y022600D01*
X001072Y022550D01*
X001078Y022500D01*
X001087Y022450D01*
X001101Y022402D01*
X001118Y022354D01*
X001138Y022308D01*
X001163Y022264D01*
X001190Y022222D01*
X001221Y022182D01*
X001254Y022145D01*
X001291Y022110D01*
X001330Y022078D01*
X001371Y022049D01*
X002119Y022089D02*
X002119Y021813D01*
D19*
X001138Y022600D02*
X001140Y022648D01*
X001146Y022696D01*
X001156Y022743D01*
X001169Y022789D01*
X001187Y022834D01*
X001207Y022878D01*
X001232Y022920D01*
X001260Y022959D01*
X001290Y022996D01*
X001324Y023030D01*
X001361Y023062D01*
X001399Y023091D01*
X001440Y023116D01*
X001483Y023138D01*
X001528Y023156D01*
X001574Y023170D01*
X001621Y023181D01*
X001669Y023188D01*
X001717Y023191D01*
X001765Y023190D01*
X001813Y023185D01*
X001861Y023176D01*
X001907Y023164D01*
X001952Y023147D01*
X001996Y023127D01*
X002038Y023104D01*
X002078Y023077D01*
X002116Y023047D01*
X002151Y023014D01*
X002183Y022978D01*
X002213Y022940D01*
X002239Y022899D01*
X002261Y022856D01*
X002281Y022812D01*
X002296Y022767D01*
X002308Y022720D01*
X002316Y022672D01*
X002320Y022624D01*
X002320Y022576D01*
X002316Y022528D01*
X002308Y022480D01*
X002296Y022433D01*
X002281Y022388D01*
X002261Y022344D01*
X002239Y022301D01*
X002213Y022260D01*
X002183Y022222D01*
X002151Y022186D01*
X002116Y022153D01*
X002078Y022123D01*
X002038Y022096D01*
X001996Y022073D01*
X001952Y022053D01*
X001907Y022036D01*
X001861Y022024D01*
X001813Y022015D01*
X001765Y022010D01*
X001717Y022009D01*
X001669Y022012D01*
X001621Y022019D01*
X001574Y022030D01*
X001528Y022044D01*
X001483Y022062D01*
X001440Y022084D01*
X001399Y022109D01*
X001361Y022138D01*
X001324Y022170D01*
X001290Y022204D01*
X001260Y022241D01*
X001232Y022280D01*
X001207Y022322D01*
X001187Y022366D01*
X001169Y022411D01*
X001156Y022457D01*
X001146Y022504D01*
X001140Y022552D01*
X001138Y022600D01*
X001138Y000711D02*
X001140Y000759D01*
X001146Y000807D01*
X001156Y000854D01*
X001169Y000900D01*
X001187Y000945D01*
X001207Y000989D01*
X001232Y001031D01*
X001260Y001070D01*
X001290Y001107D01*
X001324Y001141D01*
X001361Y001173D01*
X001399Y001202D01*
X001440Y001227D01*
X001483Y001249D01*
X001528Y001267D01*
X001574Y001281D01*
X001621Y001292D01*
X001669Y001299D01*
X001717Y001302D01*
X001765Y001301D01*
X001813Y001296D01*
X001861Y001287D01*
X001907Y001275D01*
X001952Y001258D01*
X001996Y001238D01*
X002038Y001215D01*
X002078Y001188D01*
X002116Y001158D01*
X002151Y001125D01*
X002183Y001089D01*
X002213Y001051D01*
X002239Y001010D01*
X002261Y000967D01*
X002281Y000923D01*
X002296Y000878D01*
X002308Y000831D01*
X002316Y000783D01*
X002320Y000735D01*
X002320Y000687D01*
X002316Y000639D01*
X002308Y000591D01*
X002296Y000544D01*
X002281Y000499D01*
X002261Y000455D01*
X002239Y000412D01*
X002213Y000371D01*
X002183Y000333D01*
X002151Y000297D01*
X002116Y000264D01*
X002078Y000234D01*
X002038Y000207D01*
X001996Y000184D01*
X001952Y000164D01*
X001907Y000147D01*
X001861Y000135D01*
X001813Y000126D01*
X001765Y000121D01*
X001717Y000120D01*
X001669Y000123D01*
X001621Y000130D01*
X001574Y000141D01*
X001528Y000155D01*
X001483Y000173D01*
X001440Y000195D01*
X001399Y000220D01*
X001361Y000249D01*
X001324Y000281D01*
X001290Y000315D01*
X001260Y000352D01*
X001232Y000391D01*
X001207Y000433D01*
X001187Y000477D01*
X001169Y000522D01*
X001156Y000568D01*
X001146Y000615D01*
X001140Y000663D01*
X001138Y000711D01*
M02*
