%
M48
M72
T01C0.0120
T02C0.0200
T03C0.0315
T04C0.0400
T05C0.0433
T06C0.0551
T07C0.1181
%
T01
X5193Y6218
X5568Y6530
X5193Y6905
X4818Y7405
X4943Y8155
X4880Y9405
X6505Y9093
X7693Y9155
X8193Y9530
X8568Y9530
X8505Y8780
X8005Y8093
X8630Y7780
X8880Y7468
X8630Y6843
X8255Y6468
X9005Y6468
X9255Y5968
X10943Y6968
X11318Y7343
X11880Y7905
X12630Y7905
X13193Y8155
X13505Y8655
X13818Y9218
X13693Y9593
X13193Y10718
X12818Y10718
X12443Y10718
X11130Y9218
X9880Y11030
X11005Y12593
X10755Y13405
X10005Y14343
X9693Y14093
X9505Y13405
X10318Y15093
X11630Y15405
X12005Y15405
X12505Y15905
X12568Y16780
X12068Y16905
X11818Y17405
X12505Y17530
X12505Y17905
X12505Y18280
X12505Y18655
X11818Y18530
X11005Y18905
X10318Y17718
X8193Y19905
X8193Y20655
X8193Y21405
X8943Y21405
X9693Y21405
X10443Y21405
X11193Y21405
X11943Y21405
X12693Y21405
X13443Y21405
X14193Y21405
X14943Y21405
X15693Y21405
X16443Y21405
X17318Y21405
X18068Y21405
X18068Y20655
X18818Y20655
X18818Y19905
X19568Y20655
X19568Y21405
X18818Y21405
X17755Y18218
X17755Y17843
X16005Y17593
X16005Y18155
X14505Y18155
X14255Y18655
X13880Y18655
X14443Y19593
X14505Y20405
X15880Y19905
X13255Y16780
X13255Y14530
X13568Y14280
X12755Y14405
X12818Y13780
X12005Y13780
X12005Y14405
X13130Y12530
X12818Y12280
X15943Y10405
X15943Y9530
X15943Y8655
X15943Y7780
X15318Y6343
X15755Y6030
X15943Y5593
X16380Y5030
X16818Y4655
X16380Y4030
X16693Y3405
X17693Y3468
X18443Y3405
X18568Y6530
X19068Y6530
X18568Y7030
X15568Y3280
X13568Y3530
X13005Y2905
X13568Y2780
X13568Y5655
X13693Y6530
X14068Y6843
X13818Y8155
X16693Y11280
X16755Y11843
X17193Y11280
X18193Y12218
X17255Y13343
X17505Y13593
X17693Y13905
X18005Y13655
X18943Y15780
X19693Y15780
X15880Y14905
X7443Y21405
X6693Y21405
X5943Y21405
X5193Y21405
X5818Y2030
X6568Y2030
X7318Y2030
X8068Y2030
X8818Y2030
X9568Y2030
T02
X10380Y5280
X10880Y5280
X11318Y5280
X13630Y7468
X9005Y8093
X5943Y9405
X7755Y14155
X8255Y14155
X8255Y14655
X7755Y14655
X7755Y15155
X8255Y15155
X8255Y15655
X7755Y15655
X7755Y16155
X8255Y16155
X6255Y16593
T03
X18443Y17046
X18443Y19015
T04
X19068Y14780
X19068Y13780
X19068Y12780
X19068Y11780
X19068Y10780
X19068Y9780
X19068Y8780
X10005Y11780
X10005Y12780
X9005Y12780
X9005Y11780
X8005Y11780
X8005Y12780
X7005Y12780
X7005Y11780
T05
X19506Y16652
X19506Y19408
T06
X3713Y19096
X3713Y17443
X3713Y15789
X3713Y14136
X3713Y12482
X3713Y10829
X3713Y9175
X3713Y7522
X3713Y5868
X3713Y4214
X3713Y2561
X1548Y2561
X1548Y4214
X1548Y5868
X1548Y7522
X1548Y9175
X1548Y10829
X1548Y12482
X1548Y14136
X1548Y15789
X1548Y17443
X1548Y19096
X1548Y20750
X3713Y20750
T07
X1729Y711
X1729Y22600
M30
