%
M48
M72
T01C0.01200
T02C0.02000
T03C0.03150
T04C0.04000
T05C0.04331
T06C0.05512
T07C0.11811
%
T01
X58178Y20304
X65678Y20304
X73178Y20304
X80678Y20304
X88178Y20304
X95678Y20304
X130678Y27804
X135678Y27804
X135678Y34054
X155678Y32804
X163803Y40304
X166928Y34054
X176928Y34679
X184428Y34054
X184428Y27804
X191928Y27804
X195678Y32804
X173803Y51554
X168178Y46554
X163803Y50304
X159428Y55929
X157553Y60304
X153178Y63429
X140678Y68429
X136928Y65304
X135678Y56554
X125678Y79054
X131928Y81554
X135053Y86554
X138178Y81554
X138178Y92179
X136928Y95929
X131303Y106554
X126303Y106554
X128178Y122804
X131303Y125304
X126303Y139054
X120053Y139054
X120053Y145304
X126303Y145304
X132553Y145304
X135678Y142804
X125053Y159054
X119428Y162804
X120678Y169054
X118178Y174054
X118178Y179054
X118178Y185304
X125053Y186554
X125053Y182804
X125053Y179054
X125053Y175304
X125678Y167804
X132553Y167804
X120053Y154054
X116303Y154054
X103178Y150929
X100053Y143429
X96928Y140929
X95053Y134054
X107553Y134054
X110678Y126554
X98803Y110304
X85678Y95304
X81928Y95304
X76928Y91554
X85053Y87804
X80053Y80929
X86303Y77804
X88803Y74679
X86303Y68429
X82553Y64679
X90053Y64679
X92553Y59679
X109428Y69679
X113178Y73429
X118803Y79054
X111303Y92179
X65053Y90929
X49428Y81554
X48178Y74054
X53178Y69054
X58178Y65304
X48803Y94054
X100678Y160929
X103178Y177179
X110053Y189054
X111928Y214054
X104428Y214054
X96928Y214054
X89428Y214054
X81928Y214054
X81928Y206554
X81928Y199054
X74428Y214054
X66928Y214054
X59428Y214054
X51928Y214054
X119428Y214054
X126928Y214054
X134428Y214054
X141928Y214054
X149428Y214054
X156928Y214054
X164428Y214054
X173178Y214054
X180678Y214054
X180678Y206554
X188178Y206554
X188178Y199054
X195678Y206554
X195678Y214054
X188178Y214054
X177553Y182179
X177553Y178429
X188178Y157804
X195678Y157804
X180053Y136554
X176928Y138429
X175053Y135304
X172553Y132804
X165053Y140304
X158803Y149054
X160053Y175929
X160053Y181554
X145053Y181554
X142553Y186554
X138803Y186554
X144428Y195929
X145053Y204054
X158803Y199054
X181928Y122179
X171303Y117804
X167553Y117804
X159428Y109679
X159428Y104054
X159428Y95304
X159428Y86554
X159428Y77804
X174428Y63429
X185678Y63429
X188178Y63429
T02
X136303Y74679
X113178Y52804
X108803Y52804
X103803Y52804
X90053Y80929
X59428Y94054
X77553Y141554
X77553Y146554
X77553Y151554
X77553Y156554
X77553Y161554
X82553Y161554
X82553Y156554
X82553Y151554
X82553Y146554
X82553Y141554
X63803Y164054
T03
X184428Y170462
X184428Y190147
T04
X190678Y149054
X190678Y139054
X190678Y129054
X190678Y119054
X190678Y109054
X190678Y99054
X190678Y89054
X190678Y79054
X100053Y117804
X100053Y127804
X90053Y127804
X90053Y117804
X80053Y117804
X70053Y117804
X70053Y127804
X80053Y127804
T05
X195058Y166525
X195058Y194084
T06
X37130Y190964
X37130Y207499
X15476Y207499
X15476Y190964
X15476Y174428
X15476Y157893
X15476Y141357
X15476Y124822
X15476Y108287
X15476Y91751
X15476Y75216
X15476Y58680
X15476Y42145
X15476Y25609
X37130Y25609
X37130Y42145
X37130Y58680
X37130Y75216
X37130Y91751
X37130Y108287
X37130Y124822
X37130Y141357
X37130Y157893
X37130Y174428
T07
X17287Y7106
X17287Y226003
M30
