G75*
%MOIN*%
%OFA0B0*%
%FSLAX24Y24*%
%IPPOS*%
%LPD*%
%AMOC8*
5,1,8,0,0,1.08239X$1,22.5*
%
%ADD10R,0.0592X0.0671*%
%ADD11R,0.0671X0.0592*%
%ADD12R,0.0946X0.0316*%
%ADD13OC8,0.0680*%
%ADD14R,0.0316X0.0946*%
%ADD15R,0.0580X0.0300*%
%ADD16R,0.0300X0.0580*%
%ADD17C,0.0680*%
%ADD18R,0.0356X0.0474*%
%ADD19C,0.0595*%
%ADD20C,0.0730*%
%ADD21R,0.2521X0.2206*%
%ADD22R,0.0710X0.0474*%
%ADD23R,0.0560X0.0960*%
%ADD24R,0.1497X0.0946*%
%ADD25R,0.0907X0.0907*%
%ADD26C,0.1261*%
%ADD27C,0.0440*%
%ADD28C,0.0360*%
D10*
G36*
X005982Y006918D02*
X006401Y007337D01*
X006874Y006864D01*
X006455Y006445D01*
X005982Y006918D01*
G37*
G36*
X006312Y007426D02*
X005893Y007007D01*
X005420Y007480D01*
X005839Y007899D01*
X006312Y007426D01*
G37*
G36*
X006841Y007955D02*
X006422Y007536D01*
X005949Y008009D01*
X006368Y008428D01*
X006841Y007955D01*
G37*
G36*
X006511Y007447D02*
X006930Y007866D01*
X007403Y007393D01*
X006984Y006974D01*
X006511Y007447D01*
G37*
G36*
X007499Y006301D02*
X007080Y005882D01*
X006607Y006355D01*
X007026Y006774D01*
X007499Y006301D01*
G37*
G36*
X008028Y006830D02*
X007609Y006411D01*
X007136Y006884D01*
X007555Y007303D01*
X008028Y006830D01*
G37*
G36*
X010124Y006426D02*
X009705Y006007D01*
X009232Y006480D01*
X009651Y006899D01*
X010124Y006426D01*
G37*
G36*
X010653Y006955D02*
X010234Y006536D01*
X009761Y007009D01*
X010180Y007428D01*
X010653Y006955D01*
G37*
G36*
X010482Y007730D02*
X010901Y008149D01*
X011374Y007676D01*
X010955Y007257D01*
X010482Y007730D01*
G37*
G36*
X011011Y008259D02*
X011430Y008678D01*
X011903Y008205D01*
X011484Y007786D01*
X011011Y008259D01*
G37*
G36*
X011607Y008855D02*
X012026Y009274D01*
X012499Y008801D01*
X012080Y008382D01*
X011607Y008855D01*
G37*
G36*
X012124Y009676D02*
X011705Y009257D01*
X011232Y009730D01*
X011651Y010149D01*
X012124Y009676D01*
G37*
G36*
X012136Y009384D02*
X012555Y009803D01*
X013028Y009330D01*
X012609Y008911D01*
X012136Y009384D01*
G37*
G36*
X012653Y010205D02*
X012234Y009786D01*
X011761Y010259D01*
X012180Y010678D01*
X012653Y010205D01*
G37*
G36*
X012028Y010830D02*
X011609Y010411D01*
X011136Y010884D01*
X011555Y011303D01*
X012028Y010830D01*
G37*
G36*
X011499Y010301D02*
X011080Y009882D01*
X010607Y010355D01*
X011026Y010774D01*
X011499Y010301D01*
G37*
G36*
X010937Y010989D02*
X010518Y010570D01*
X010045Y011043D01*
X010464Y011462D01*
X010937Y010989D01*
G37*
G36*
X011466Y011518D02*
X011047Y011099D01*
X010574Y011572D01*
X010993Y011991D01*
X011466Y011518D01*
G37*
X009817Y014905D03*
X009069Y014905D03*
G36*
X006455Y011678D02*
X006874Y011259D01*
X006401Y010786D01*
X005982Y011205D01*
X006455Y011678D01*
G37*
G36*
X006984Y011149D02*
X007403Y010730D01*
X006930Y010257D01*
X006511Y010676D01*
X006984Y011149D01*
G37*
G36*
X006359Y010524D02*
X006778Y010105D01*
X006305Y009632D01*
X005886Y010051D01*
X006359Y010524D01*
G37*
G36*
X005830Y011053D02*
X006249Y010634D01*
X005776Y010161D01*
X005357Y010580D01*
X005830Y011053D01*
G37*
G36*
X005214Y008599D02*
X004795Y009018D01*
X005268Y009491D01*
X005687Y009072D01*
X005214Y008599D01*
G37*
G36*
X005743Y008070D02*
X005324Y008489D01*
X005797Y008962D01*
X006216Y008543D01*
X005743Y008070D01*
G37*
X010506Y002530D03*
X011254Y002530D03*
G36*
X011232Y006980D02*
X011651Y007399D01*
X012124Y006926D01*
X011705Y006507D01*
X011232Y006980D01*
G37*
G36*
X011761Y007509D02*
X012180Y007928D01*
X012653Y007455D01*
X012234Y007036D01*
X011761Y007509D01*
G37*
X016506Y007780D03*
X017254Y007780D03*
X017254Y006905D03*
X016506Y006905D03*
X016506Y005780D03*
X017254Y005780D03*
X017881Y004905D03*
X018256Y005780D03*
X018629Y004905D03*
X019004Y005780D03*
X017254Y008655D03*
X017254Y009530D03*
X016506Y009530D03*
X016506Y008655D03*
X016506Y010405D03*
X017254Y010405D03*
X017254Y015093D03*
X016506Y015093D03*
X016506Y015905D03*
X017254Y015905D03*
X017129Y019905D03*
X016381Y019905D03*
D11*
X015130Y020029D03*
X015130Y019281D03*
X018068Y015842D03*
X018068Y015094D03*
X015880Y014217D03*
X015880Y013469D03*
X015005Y013469D03*
X015005Y014217D03*
X015005Y012592D03*
X015005Y011844D03*
X015880Y011844D03*
X015880Y012592D03*
X010318Y018219D03*
X010318Y018967D03*
X009505Y018967D03*
X009505Y018219D03*
X005505Y015842D03*
X005505Y015094D03*
D12*
X013169Y014905D03*
X013169Y015405D03*
X013169Y015905D03*
X013169Y016405D03*
X013169Y017155D03*
X013169Y017655D03*
X013169Y018155D03*
X013169Y018655D03*
X015216Y018655D03*
X015216Y018155D03*
X015216Y017655D03*
X015216Y017155D03*
X015216Y016405D03*
X015216Y015905D03*
X015216Y015405D03*
X015216Y014905D03*
D13*
X010005Y012780D03*
X010005Y011780D03*
X009005Y011780D03*
X009005Y012780D03*
X008005Y012780D03*
X008005Y011780D03*
X007005Y011780D03*
X007005Y012780D03*
D14*
X016255Y016882D03*
X016755Y016882D03*
X017255Y016882D03*
X017755Y016882D03*
X017755Y018929D03*
X017255Y018929D03*
X016755Y018929D03*
X016255Y018929D03*
D15*
G36*
X009482Y011103D02*
X009073Y010694D01*
X008860Y010907D01*
X009269Y011316D01*
X009482Y011103D01*
G37*
G36*
X009705Y010880D02*
X009296Y010471D01*
X009083Y010684D01*
X009492Y011093D01*
X009705Y010880D01*
G37*
G36*
X009927Y010658D02*
X009518Y010249D01*
X009305Y010462D01*
X009714Y010871D01*
X009927Y010658D01*
G37*
G36*
X010150Y010435D02*
X009741Y010026D01*
X009528Y010239D01*
X009937Y010648D01*
X010150Y010435D01*
G37*
G36*
X010373Y010212D02*
X009964Y009803D01*
X009751Y010016D01*
X010160Y010425D01*
X010373Y010212D01*
G37*
G36*
X010595Y009989D02*
X010186Y009580D01*
X009973Y009793D01*
X010382Y010202D01*
X010595Y009989D01*
G37*
G36*
X010818Y009767D02*
X010409Y009358D01*
X010196Y009571D01*
X010605Y009980D01*
X010818Y009767D01*
G37*
G36*
X011041Y009544D02*
X010632Y009135D01*
X010419Y009348D01*
X010828Y009757D01*
X011041Y009544D01*
G37*
G36*
X008651Y007154D02*
X008242Y006745D01*
X008029Y006958D01*
X008438Y007367D01*
X008651Y007154D01*
G37*
G36*
X008428Y007377D02*
X008019Y006968D01*
X007806Y007181D01*
X008215Y007590D01*
X008428Y007377D01*
G37*
G36*
X008205Y007599D02*
X007796Y007190D01*
X007583Y007403D01*
X007992Y007812D01*
X008205Y007599D01*
G37*
G36*
X007983Y007822D02*
X007574Y007413D01*
X007361Y007626D01*
X007770Y008035D01*
X007983Y007822D01*
G37*
G36*
X007760Y008045D02*
X007351Y007636D01*
X007138Y007849D01*
X007547Y008258D01*
X007760Y008045D01*
G37*
G36*
X007537Y008267D02*
X007128Y007858D01*
X006915Y008071D01*
X007324Y008480D01*
X007537Y008267D01*
G37*
G36*
X007315Y008490D02*
X006906Y008081D01*
X006693Y008294D01*
X007102Y008703D01*
X007315Y008490D01*
G37*
G36*
X007092Y008713D02*
X006683Y008304D01*
X006470Y008517D01*
X006879Y008926D01*
X007092Y008713D01*
G37*
D16*
G36*
X007092Y009348D02*
X006879Y009135D01*
X006470Y009544D01*
X006683Y009757D01*
X007092Y009348D01*
G37*
G36*
X007315Y009571D02*
X007102Y009358D01*
X006693Y009767D01*
X006906Y009980D01*
X007315Y009571D01*
G37*
G36*
X007537Y009793D02*
X007324Y009580D01*
X006915Y009989D01*
X007128Y010202D01*
X007537Y009793D01*
G37*
G36*
X007760Y010016D02*
X007547Y009803D01*
X007138Y010212D01*
X007351Y010425D01*
X007760Y010016D01*
G37*
G36*
X007983Y010239D02*
X007770Y010026D01*
X007361Y010435D01*
X007574Y010648D01*
X007983Y010239D01*
G37*
G36*
X008205Y010462D02*
X007992Y010249D01*
X007583Y010658D01*
X007796Y010871D01*
X008205Y010462D01*
G37*
G36*
X008428Y010684D02*
X008215Y010471D01*
X007806Y010880D01*
X008019Y011093D01*
X008428Y010684D01*
G37*
G36*
X008651Y010907D02*
X008438Y010694D01*
X008029Y011103D01*
X008242Y011316D01*
X008651Y010907D01*
G37*
G36*
X011041Y008517D02*
X010828Y008304D01*
X010419Y008713D01*
X010632Y008926D01*
X011041Y008517D01*
G37*
G36*
X010818Y008294D02*
X010605Y008081D01*
X010196Y008490D01*
X010409Y008703D01*
X010818Y008294D01*
G37*
G36*
X010595Y008071D02*
X010382Y007858D01*
X009973Y008267D01*
X010186Y008480D01*
X010595Y008071D01*
G37*
G36*
X010373Y007849D02*
X010160Y007636D01*
X009751Y008045D01*
X009964Y008258D01*
X010373Y007849D01*
G37*
G36*
X010150Y007626D02*
X009937Y007413D01*
X009528Y007822D01*
X009741Y008035D01*
X010150Y007626D01*
G37*
G36*
X009927Y007403D02*
X009714Y007190D01*
X009305Y007599D01*
X009518Y007812D01*
X009927Y007403D01*
G37*
G36*
X009705Y007181D02*
X009492Y006968D01*
X009083Y007377D01*
X009296Y007590D01*
X009705Y007181D01*
G37*
G36*
X009482Y006958D02*
X009269Y006745D01*
X008860Y007154D01*
X009073Y007367D01*
X009482Y006958D01*
G37*
D17*
X018768Y008780D02*
X019368Y008780D01*
X019368Y009780D02*
X018768Y009780D01*
X018768Y010780D02*
X019368Y010780D01*
X019368Y011780D02*
X018768Y011780D01*
X018768Y012780D02*
X019368Y012780D01*
X019368Y013780D02*
X018768Y013780D01*
X018768Y014780D02*
X019368Y014780D01*
D18*
X014004Y019472D03*
X013256Y019472D03*
X013630Y020339D03*
D19*
X018443Y019015D03*
X018443Y017046D03*
D20*
X019506Y016652D03*
X019506Y019408D03*
D21*
X005771Y018030D03*
D22*
X008645Y017133D03*
X008645Y018928D03*
D23*
G36*
X014136Y007333D02*
X013740Y006937D01*
X013062Y007615D01*
X013458Y008011D01*
X014136Y007333D01*
G37*
G36*
X013492Y006690D02*
X013096Y006294D01*
X012418Y006972D01*
X012814Y007368D01*
X013492Y006690D01*
G37*
G36*
X012849Y006046D02*
X012453Y005650D01*
X011775Y006328D01*
X012171Y006724D01*
X012849Y006046D01*
G37*
D24*
G36*
X015544Y005299D02*
X014487Y004242D01*
X013818Y004911D01*
X014875Y005968D01*
X015544Y005299D01*
G37*
D25*
X003713Y005868D03*
X003713Y004214D03*
X003713Y002561D03*
X001548Y002561D03*
X001548Y004214D03*
X001548Y005868D03*
X001548Y007522D03*
X001548Y009175D03*
X001548Y010829D03*
X001548Y012482D03*
X001548Y014136D03*
X001548Y015789D03*
X001548Y017443D03*
X001548Y019096D03*
X001548Y020750D03*
X003713Y020750D03*
X003713Y019096D03*
X003713Y017443D03*
X003713Y015789D03*
X003713Y014136D03*
X003713Y012482D03*
X003713Y010829D03*
X003713Y009175D03*
X003713Y007522D03*
D26*
X001729Y000711D03*
X001729Y022600D03*
D27*
X006255Y016593D03*
X007755Y016155D03*
X007755Y015655D03*
X008255Y015655D03*
X008255Y016155D03*
X008255Y015155D03*
X008255Y014655D03*
X008255Y014155D03*
X007755Y014155D03*
X007755Y014655D03*
X007755Y015155D03*
X005943Y009405D03*
X009005Y008093D03*
X010380Y005280D03*
X010880Y005280D03*
X011318Y005280D03*
X013630Y007468D03*
D28*
X013818Y008155D03*
X013505Y008655D03*
X013818Y009218D03*
X013693Y009593D03*
X013193Y010718D03*
X012818Y010718D03*
X012443Y010718D03*
X011130Y009218D03*
X011880Y007905D03*
X011318Y007343D03*
X010943Y006968D03*
X012630Y007905D03*
X013193Y008155D03*
X014068Y006843D03*
X013693Y006530D03*
X013568Y005655D03*
X015318Y006343D03*
X015755Y006030D03*
X015943Y005593D03*
X016380Y005030D03*
X016818Y004655D03*
X016380Y004030D03*
X016693Y003405D03*
X017693Y003468D03*
X018443Y003405D03*
X018568Y006530D03*
X019068Y006530D03*
X018568Y007030D03*
X015943Y007780D03*
X015943Y008655D03*
X015943Y009530D03*
X015943Y010405D03*
X016693Y011280D03*
X016755Y011843D03*
X017193Y011280D03*
X018193Y012218D03*
X017255Y013343D03*
X017505Y013593D03*
X017693Y013905D03*
X018005Y013655D03*
X018943Y015780D03*
X019693Y015780D03*
X017755Y017843D03*
X017755Y018218D03*
X018818Y019905D03*
X018818Y020655D03*
X019568Y020655D03*
X019568Y021405D03*
X018818Y021405D03*
X018068Y021405D03*
X018068Y020655D03*
X017318Y021405D03*
X016443Y021405D03*
X015693Y021405D03*
X014943Y021405D03*
X014193Y021405D03*
X013443Y021405D03*
X012693Y021405D03*
X011943Y021405D03*
X011193Y021405D03*
X010443Y021405D03*
X009693Y021405D03*
X008943Y021405D03*
X008193Y021405D03*
X008193Y020655D03*
X008193Y019905D03*
X007443Y021405D03*
X006693Y021405D03*
X005943Y021405D03*
X005193Y021405D03*
X010318Y017718D03*
X011005Y018905D03*
X011818Y018530D03*
X012505Y018655D03*
X012505Y018280D03*
X012505Y017905D03*
X012505Y017530D03*
X011818Y017405D03*
X012068Y016905D03*
X012568Y016780D03*
X013255Y016780D03*
X012505Y015905D03*
X012005Y015405D03*
X011630Y015405D03*
X012005Y014405D03*
X012005Y013780D03*
X012818Y013780D03*
X012755Y014405D03*
X013255Y014530D03*
X013568Y014280D03*
X013130Y012530D03*
X012818Y012280D03*
X011005Y012593D03*
X010755Y013405D03*
X010005Y014343D03*
X009693Y014093D03*
X009505Y013405D03*
X010318Y015093D03*
X009880Y011030D03*
X008568Y009530D03*
X008193Y009530D03*
X007693Y009155D03*
X008505Y008780D03*
X008005Y008093D03*
X008630Y007780D03*
X008880Y007468D03*
X008630Y006843D03*
X008255Y006468D03*
X009005Y006468D03*
X009255Y005968D03*
X006505Y009093D03*
X004880Y009405D03*
X004943Y008155D03*
X004818Y007405D03*
X005193Y006905D03*
X005568Y006530D03*
X005193Y006218D03*
X005818Y002030D03*
X006568Y002030D03*
X007318Y002030D03*
X008068Y002030D03*
X008818Y002030D03*
X009568Y002030D03*
X013005Y002905D03*
X013568Y002780D03*
X013568Y003530D03*
X015568Y003280D03*
X015880Y014905D03*
X016005Y017593D03*
X016005Y018155D03*
X014505Y018155D03*
X014255Y018655D03*
X013880Y018655D03*
X014443Y019593D03*
X014505Y020405D03*
X015880Y019905D03*
M02*
