G75*
%MOIN*%
%OFA0B0*%
%FSLAX24Y24*%
%IPPOS*%
%LPD*%
%AMOC8*
5,1,8,0,0,1.08239X$1,22.5*
%
%ADD10C,0.0050*%
%ADD11C,0.0000*%
D10*
X001168Y001405D02*
X019278Y001405D01*
X019278Y001406D02*
X019332Y001408D01*
X019385Y001413D01*
X019438Y001422D01*
X019490Y001435D01*
X019542Y001451D01*
X019592Y001471D01*
X019640Y001494D01*
X019687Y001521D01*
X019732Y001550D01*
X019775Y001583D01*
X019815Y001618D01*
X019853Y001656D01*
X019888Y001696D01*
X019921Y001739D01*
X019950Y001784D01*
X019977Y001831D01*
X020000Y001879D01*
X020020Y001929D01*
X020036Y001981D01*
X020049Y002033D01*
X020058Y002086D01*
X020063Y002139D01*
X020065Y002193D01*
X020065Y021090D01*
X020063Y021144D01*
X020058Y021197D01*
X020049Y021250D01*
X020036Y021302D01*
X020020Y021354D01*
X020000Y021404D01*
X019977Y021452D01*
X019950Y021499D01*
X019921Y021544D01*
X019888Y021587D01*
X019853Y021627D01*
X019815Y021665D01*
X019775Y021700D01*
X019732Y021733D01*
X019687Y021762D01*
X019640Y021789D01*
X019592Y021812D01*
X019542Y021832D01*
X019490Y021848D01*
X019438Y021861D01*
X019385Y021870D01*
X019332Y021875D01*
X019278Y021877D01*
X019278Y021878D02*
X001168Y021878D01*
X001168Y021877D02*
X001114Y021875D01*
X001061Y021870D01*
X001008Y021861D01*
X000956Y021848D01*
X000904Y021832D01*
X000854Y021812D01*
X000806Y021789D01*
X000759Y021762D01*
X000714Y021733D01*
X000671Y021700D01*
X000631Y021665D01*
X000593Y021627D01*
X000558Y021587D01*
X000525Y021544D01*
X000496Y021499D01*
X000469Y021452D01*
X000446Y021404D01*
X000426Y021354D01*
X000410Y021302D01*
X000397Y021250D01*
X000388Y021197D01*
X000383Y021144D01*
X000381Y021090D01*
X000380Y021090D02*
X000380Y002193D01*
X000381Y002193D02*
X000383Y002139D01*
X000388Y002086D01*
X000397Y002033D01*
X000410Y001981D01*
X000426Y001929D01*
X000446Y001879D01*
X000469Y001831D01*
X000496Y001784D01*
X000525Y001739D01*
X000558Y001696D01*
X000593Y001656D01*
X000631Y001618D01*
X000671Y001583D01*
X000714Y001550D01*
X000759Y001521D01*
X000806Y001494D01*
X000854Y001471D01*
X000904Y001451D01*
X000956Y001435D01*
X001008Y001422D01*
X001061Y001413D01*
X001114Y001408D01*
X001168Y001406D01*
D11*
X001138Y000711D02*
X001140Y000759D01*
X001146Y000807D01*
X001156Y000854D01*
X001169Y000900D01*
X001187Y000945D01*
X001207Y000989D01*
X001232Y001031D01*
X001260Y001070D01*
X001290Y001107D01*
X001324Y001141D01*
X001361Y001173D01*
X001399Y001202D01*
X001440Y001227D01*
X001483Y001249D01*
X001528Y001267D01*
X001574Y001281D01*
X001621Y001292D01*
X001669Y001299D01*
X001717Y001302D01*
X001765Y001301D01*
X001813Y001296D01*
X001861Y001287D01*
X001907Y001275D01*
X001952Y001258D01*
X001996Y001238D01*
X002038Y001215D01*
X002078Y001188D01*
X002116Y001158D01*
X002151Y001125D01*
X002183Y001089D01*
X002213Y001051D01*
X002239Y001010D01*
X002261Y000967D01*
X002281Y000923D01*
X002296Y000878D01*
X002308Y000831D01*
X002316Y000783D01*
X002320Y000735D01*
X002320Y000687D01*
X002316Y000639D01*
X002308Y000591D01*
X002296Y000544D01*
X002281Y000499D01*
X002261Y000455D01*
X002239Y000412D01*
X002213Y000371D01*
X002183Y000333D01*
X002151Y000297D01*
X002116Y000264D01*
X002078Y000234D01*
X002038Y000207D01*
X001996Y000184D01*
X001952Y000164D01*
X001907Y000147D01*
X001861Y000135D01*
X001813Y000126D01*
X001765Y000121D01*
X001717Y000120D01*
X001669Y000123D01*
X001621Y000130D01*
X001574Y000141D01*
X001528Y000155D01*
X001483Y000173D01*
X001440Y000195D01*
X001399Y000220D01*
X001361Y000249D01*
X001324Y000281D01*
X001290Y000315D01*
X001260Y000352D01*
X001232Y000391D01*
X001207Y000433D01*
X001187Y000477D01*
X001169Y000522D01*
X001156Y000568D01*
X001146Y000615D01*
X001140Y000663D01*
X001138Y000711D01*
X001138Y022600D02*
X001140Y022648D01*
X001146Y022696D01*
X001156Y022743D01*
X001169Y022789D01*
X001187Y022834D01*
X001207Y022878D01*
X001232Y022920D01*
X001260Y022959D01*
X001290Y022996D01*
X001324Y023030D01*
X001361Y023062D01*
X001399Y023091D01*
X001440Y023116D01*
X001483Y023138D01*
X001528Y023156D01*
X001574Y023170D01*
X001621Y023181D01*
X001669Y023188D01*
X001717Y023191D01*
X001765Y023190D01*
X001813Y023185D01*
X001861Y023176D01*
X001907Y023164D01*
X001952Y023147D01*
X001996Y023127D01*
X002038Y023104D01*
X002078Y023077D01*
X002116Y023047D01*
X002151Y023014D01*
X002183Y022978D01*
X002213Y022940D01*
X002239Y022899D01*
X002261Y022856D01*
X002281Y022812D01*
X002296Y022767D01*
X002308Y022720D01*
X002316Y022672D01*
X002320Y022624D01*
X002320Y022576D01*
X002316Y022528D01*
X002308Y022480D01*
X002296Y022433D01*
X002281Y022388D01*
X002261Y022344D01*
X002239Y022301D01*
X002213Y022260D01*
X002183Y022222D01*
X002151Y022186D01*
X002116Y022153D01*
X002078Y022123D01*
X002038Y022096D01*
X001996Y022073D01*
X001952Y022053D01*
X001907Y022036D01*
X001861Y022024D01*
X001813Y022015D01*
X001765Y022010D01*
X001717Y022009D01*
X001669Y022012D01*
X001621Y022019D01*
X001574Y022030D01*
X001528Y022044D01*
X001483Y022062D01*
X001440Y022084D01*
X001399Y022109D01*
X001361Y022138D01*
X001324Y022170D01*
X001290Y022204D01*
X001260Y022241D01*
X001232Y022280D01*
X001207Y022322D01*
X001187Y022366D01*
X001169Y022411D01*
X001156Y022457D01*
X001146Y022504D01*
X001140Y022552D01*
X001138Y022600D01*
M02*
