G75*
%MOIN*%
%OFA0B0*%
%FSLAX25Y25*%
%IPPOS*%
%LPD*%
%AMOC8*
5,1,8,0,0,1.08239X$1,22.5*
%
%ADD10C,0.00600*%
%ADD11R,0.05118X0.05906*%
%ADD12R,0.08661X0.02362*%
%ADD13R,0.05906X0.05118*%
%ADD14OC8,0.06000*%
%ADD15R,0.02362X0.08661*%
%ADD16R,0.05000X0.02200*%
%ADD17R,0.02200X0.05000*%
%ADD18R,0.02756X0.03937*%
%ADD19C,0.05150*%
%ADD20C,0.06496*%
%ADD21C,0.06000*%
%ADD22R,0.24409X0.21260*%
%ADD23R,0.06299X0.03937*%
%ADD24R,0.04800X0.08800*%
%ADD25R,0.14173X0.08661*%
%ADD26R,0.08268X0.08268*%
%ADD27C,0.01600*%
%ADD28C,0.03600*%
%ADD29C,0.00800*%
%ADD30C,0.02800*%
%ADD31C,0.01200*%
%ADD32C,0.10000*%
%ADD33C,0.08000*%
%ADD34C,0.05000*%
D10*
X0125678Y0017297D02*
X0126746Y0016229D01*
X0128881Y0016229D01*
X0129949Y0017297D01*
X0129949Y0021567D01*
X0128881Y0022635D01*
X0126746Y0022635D01*
X0125678Y0021567D01*
X0125678Y0019432D02*
X0127814Y0019432D01*
X0125678Y0019432D02*
X0125678Y0017297D01*
X0132124Y0016229D02*
X0134259Y0018364D01*
X0133192Y0018364D02*
X0132124Y0019432D01*
X0132124Y0021567D01*
X0133192Y0022635D01*
X0136394Y0022635D01*
X0136394Y0016229D01*
X0136394Y0018364D02*
X0133192Y0018364D01*
X0138569Y0017297D02*
X0139637Y0016229D01*
X0141772Y0016229D01*
X0142840Y0017297D01*
X0142840Y0021567D01*
X0141772Y0022635D01*
X0139637Y0022635D01*
X0138569Y0021567D01*
X0138569Y0017297D01*
X0144995Y0017297D02*
X0144995Y0016229D01*
X0146063Y0016229D01*
X0146063Y0017297D01*
X0144995Y0017297D01*
X0148238Y0016229D02*
X0152508Y0016229D01*
X0152508Y0017297D01*
X0148238Y0021567D01*
X0148238Y0022635D01*
X0152508Y0022635D01*
X0154683Y0022635D02*
X0154683Y0016229D01*
X0158954Y0022635D01*
X0158954Y0016229D01*
X0161115Y0016229D02*
X0163251Y0016229D01*
X0162183Y0016229D02*
X0162183Y0022635D01*
X0163251Y0022635D02*
X0161115Y0022635D01*
X0165426Y0021567D02*
X0165426Y0019432D01*
X0166493Y0018364D01*
X0169696Y0018364D01*
X0169696Y0016229D02*
X0169696Y0022635D01*
X0166493Y0022635D01*
X0165426Y0021567D01*
X0167561Y0018364D02*
X0165426Y0016229D01*
X0171871Y0019432D02*
X0171871Y0021567D01*
X0172939Y0022635D01*
X0176141Y0022635D01*
X0176141Y0016229D01*
X0176141Y0018364D02*
X0172939Y0018364D01*
X0171871Y0019432D01*
X0178317Y0016229D02*
X0182587Y0016229D01*
X0182587Y0022635D01*
X0184762Y0022635D02*
X0189032Y0022635D01*
X0189032Y0016229D01*
X0184762Y0016229D01*
X0186897Y0019432D02*
X0189032Y0019432D01*
X0191208Y0017297D02*
X0192275Y0016229D01*
X0194410Y0016229D01*
X0195478Y0017297D01*
X0195478Y0021567D01*
X0194410Y0022635D01*
X0192275Y0022635D01*
X0191208Y0021567D01*
X0191208Y0017297D01*
D11*
X0187543Y0049054D03*
X0180063Y0049054D03*
X0182563Y0057804D03*
X0190043Y0057804D03*
X0172543Y0057804D03*
X0165063Y0057804D03*
X0165063Y0069054D03*
X0172543Y0069054D03*
X0172543Y0077804D03*
X0165063Y0077804D03*
X0165063Y0086554D03*
X0172543Y0086554D03*
X0172543Y0095304D03*
X0165063Y0095304D03*
X0165063Y0104054D03*
X0172543Y0104054D03*
X0171918Y0112179D03*
X0164438Y0112179D03*
X0154418Y0112179D03*
X0154418Y0120304D03*
X0146938Y0120304D03*
X0146938Y0112179D03*
G36*
X0121926Y0093852D02*
X0125545Y0097471D01*
X0129720Y0093296D01*
X0126101Y0089677D01*
X0121926Y0093852D01*
G37*
G36*
X0116636Y0088563D02*
X0120255Y0092182D01*
X0124430Y0088007D01*
X0120811Y0084388D01*
X0116636Y0088563D01*
G37*
G36*
X0110676Y0082602D02*
X0114295Y0086221D01*
X0118470Y0082046D01*
X0114851Y0078427D01*
X0110676Y0082602D01*
G37*
G36*
X0105386Y0077313D02*
X0109005Y0080932D01*
X0113180Y0076757D01*
X0109561Y0073138D01*
X0105386Y0077313D01*
G37*
G36*
X0105970Y0069546D02*
X0102351Y0065927D01*
X0098176Y0070102D01*
X0101795Y0073721D01*
X0105970Y0069546D01*
G37*
G36*
X0100680Y0064257D02*
X0097061Y0060638D01*
X0092886Y0064813D01*
X0096505Y0068432D01*
X0100680Y0064257D01*
G37*
G36*
X0112886Y0069813D02*
X0116505Y0073432D01*
X0120680Y0069257D01*
X0117061Y0065638D01*
X0112886Y0069813D01*
G37*
G36*
X0118176Y0075102D02*
X0121795Y0078721D01*
X0125970Y0074546D01*
X0122351Y0070927D01*
X0118176Y0075102D01*
G37*
G36*
X0120680Y0096757D02*
X0117061Y0093138D01*
X0112886Y0097313D01*
X0116505Y0100932D01*
X0120680Y0096757D01*
G37*
G36*
X0125970Y0102046D02*
X0122351Y0098427D01*
X0118176Y0102602D01*
X0121795Y0106221D01*
X0125970Y0102046D01*
G37*
G36*
X0119720Y0108296D02*
X0116101Y0104677D01*
X0111926Y0108852D01*
X0115545Y0112471D01*
X0119720Y0108296D01*
G37*
G36*
X0114430Y0103007D02*
X0110811Y0099388D01*
X0106636Y0103563D01*
X0110255Y0107182D01*
X0114430Y0103007D01*
G37*
G36*
X0108805Y0109882D02*
X0105186Y0106263D01*
X0101011Y0110438D01*
X0104630Y0114057D01*
X0108805Y0109882D01*
G37*
G36*
X0114095Y0115171D02*
X0110476Y0111552D01*
X0106301Y0115727D01*
X0109920Y0119346D01*
X0114095Y0115171D01*
G37*
X0098168Y0149054D03*
X0090688Y0149054D03*
G36*
X0064561Y0116221D02*
X0068180Y0112602D01*
X0064005Y0108427D01*
X0060386Y0112046D01*
X0064561Y0116221D01*
G37*
G36*
X0069851Y0110932D02*
X0073470Y0107313D01*
X0069295Y0103138D01*
X0065676Y0106757D01*
X0069851Y0110932D01*
G37*
G36*
X0063601Y0104682D02*
X0067220Y0101063D01*
X0063045Y0096888D01*
X0059426Y0100507D01*
X0063601Y0104682D01*
G37*
G36*
X0058311Y0109971D02*
X0061930Y0106352D01*
X0057755Y0102177D01*
X0054136Y0105796D01*
X0058311Y0109971D01*
G37*
G36*
X0052130Y0086552D02*
X0048511Y0090171D01*
X0052686Y0094346D01*
X0056305Y0090727D01*
X0052130Y0086552D01*
G37*
G36*
X0057420Y0081263D02*
X0053801Y0084882D01*
X0057976Y0089057D01*
X0061595Y0085438D01*
X0057420Y0081263D01*
G37*
G36*
X0062555Y0074257D02*
X0058936Y0070638D01*
X0054761Y0074813D01*
X0058380Y0078432D01*
X0062555Y0074257D01*
G37*
G36*
X0067845Y0079546D02*
X0064226Y0075927D01*
X0060051Y0080102D01*
X0063670Y0083721D01*
X0067845Y0079546D01*
G37*
G36*
X0065676Y0074477D02*
X0069295Y0078096D01*
X0073470Y0073921D01*
X0069851Y0070302D01*
X0065676Y0074477D01*
G37*
G36*
X0060386Y0069188D02*
X0064005Y0072807D01*
X0068180Y0068632D01*
X0064561Y0065013D01*
X0060386Y0069188D01*
G37*
G36*
X0074430Y0063007D02*
X0070811Y0059388D01*
X0066636Y0063563D01*
X0070255Y0067182D01*
X0074430Y0063007D01*
G37*
G36*
X0079720Y0068296D02*
X0076101Y0064677D01*
X0071926Y0068852D01*
X0075545Y0072471D01*
X0079720Y0068296D01*
G37*
X0105063Y0025304D03*
X0112543Y0025304D03*
X0151313Y0141554D03*
X0158793Y0141554D03*
X0163813Y0150929D03*
X0163813Y0159054D03*
X0171293Y0159054D03*
X0171293Y0150929D03*
X0171293Y0199054D03*
X0163813Y0199054D03*
D12*
X0152164Y0186554D03*
X0152164Y0181554D03*
X0152164Y0176554D03*
X0152164Y0171554D03*
X0152164Y0164054D03*
X0152164Y0159054D03*
X0152164Y0154054D03*
X0152164Y0149054D03*
X0131692Y0149054D03*
X0131692Y0154054D03*
X0131692Y0159054D03*
X0131692Y0164054D03*
X0131692Y0171554D03*
X0131692Y0176554D03*
X0131692Y0181554D03*
X0131692Y0186554D03*
D13*
X0151303Y0192814D03*
X0151303Y0200294D03*
X0179428Y0158419D03*
X0179428Y0150939D03*
X0103178Y0182189D03*
X0103178Y0189669D03*
X0095053Y0189669D03*
X0095053Y0182189D03*
X0055053Y0158419D03*
X0055053Y0150939D03*
X0046303Y0066544D03*
X0046303Y0059064D03*
D14*
X0070053Y0117804D03*
X0080053Y0117804D03*
X0080053Y0127804D03*
X0070053Y0127804D03*
X0090053Y0127804D03*
X0090053Y0117804D03*
X0100053Y0117804D03*
X0100053Y0127804D03*
D15*
X0162553Y0168818D03*
X0167553Y0168818D03*
X0172553Y0168818D03*
X0177553Y0168818D03*
X0177553Y0189291D03*
X0172553Y0189291D03*
X0167553Y0189291D03*
X0162553Y0189291D03*
D16*
G36*
X0096480Y0108811D02*
X0092946Y0105277D01*
X0091390Y0106833D01*
X0094924Y0110367D01*
X0096480Y0108811D01*
G37*
G36*
X0098708Y0106584D02*
X0095174Y0103050D01*
X0093618Y0104606D01*
X0097152Y0108140D01*
X0098708Y0106584D01*
G37*
G36*
X0100935Y0104357D02*
X0097401Y0100823D01*
X0095845Y0102379D01*
X0099379Y0105913D01*
X0100935Y0104357D01*
G37*
G36*
X0103162Y0102130D02*
X0099628Y0098596D01*
X0098072Y0100152D01*
X0101606Y0103686D01*
X0103162Y0102130D01*
G37*
G36*
X0105389Y0099903D02*
X0101855Y0096369D01*
X0100299Y0097925D01*
X0103833Y0101459D01*
X0105389Y0099903D01*
G37*
G36*
X0107616Y0097676D02*
X0104082Y0094142D01*
X0102526Y0095698D01*
X0106060Y0099232D01*
X0107616Y0097676D01*
G37*
G36*
X0109843Y0095449D02*
X0106309Y0091915D01*
X0104753Y0093471D01*
X0108287Y0097005D01*
X0109843Y0095449D01*
G37*
G36*
X0094253Y0111038D02*
X0090719Y0107504D01*
X0089163Y0109060D01*
X0092697Y0112594D01*
X0094253Y0111038D01*
G37*
G36*
X0072580Y0084911D02*
X0069046Y0081377D01*
X0067490Y0082933D01*
X0071024Y0086467D01*
X0072580Y0084911D01*
G37*
G36*
X0074807Y0082684D02*
X0071273Y0079150D01*
X0069717Y0080706D01*
X0073251Y0084240D01*
X0074807Y0082684D01*
G37*
G36*
X0077034Y0080457D02*
X0073500Y0076923D01*
X0071944Y0078479D01*
X0075478Y0082013D01*
X0077034Y0080457D01*
G37*
G36*
X0079262Y0078230D02*
X0075728Y0074696D01*
X0074172Y0076252D01*
X0077706Y0079786D01*
X0079262Y0078230D01*
G37*
G36*
X0081489Y0076003D02*
X0077955Y0072469D01*
X0076399Y0074025D01*
X0079933Y0077559D01*
X0081489Y0076003D01*
G37*
G36*
X0083716Y0073775D02*
X0080182Y0070241D01*
X0078626Y0071797D01*
X0082160Y0075331D01*
X0083716Y0073775D01*
G37*
G36*
X0085943Y0071548D02*
X0082409Y0068014D01*
X0080853Y0069570D01*
X0084387Y0073104D01*
X0085943Y0071548D01*
G37*
G36*
X0070353Y0087138D02*
X0066819Y0083604D01*
X0065263Y0085160D01*
X0068797Y0088694D01*
X0070353Y0087138D01*
G37*
D17*
G36*
X0070353Y0093471D02*
X0068797Y0091915D01*
X0065263Y0095449D01*
X0066819Y0097005D01*
X0070353Y0093471D01*
G37*
G36*
X0072580Y0095698D02*
X0071024Y0094142D01*
X0067490Y0097676D01*
X0069046Y0099232D01*
X0072580Y0095698D01*
G37*
G36*
X0074807Y0097925D02*
X0073251Y0096369D01*
X0069717Y0099903D01*
X0071273Y0101459D01*
X0074807Y0097925D01*
G37*
G36*
X0077034Y0100152D02*
X0075478Y0098596D01*
X0071944Y0102130D01*
X0073500Y0103686D01*
X0077034Y0100152D01*
G37*
G36*
X0079262Y0102379D02*
X0077706Y0100823D01*
X0074172Y0104357D01*
X0075728Y0105913D01*
X0079262Y0102379D01*
G37*
G36*
X0081489Y0104606D02*
X0079933Y0103050D01*
X0076399Y0106584D01*
X0077955Y0108140D01*
X0081489Y0104606D01*
G37*
G36*
X0083716Y0106833D02*
X0082160Y0105277D01*
X0078626Y0108811D01*
X0080182Y0110367D01*
X0083716Y0106833D01*
G37*
G36*
X0085943Y0109060D02*
X0084387Y0107504D01*
X0080853Y0111038D01*
X0082409Y0112594D01*
X0085943Y0109060D01*
G37*
G36*
X0107616Y0082933D02*
X0106060Y0081377D01*
X0102526Y0084911D01*
X0104082Y0086467D01*
X0107616Y0082933D01*
G37*
G36*
X0109843Y0085160D02*
X0108287Y0083604D01*
X0104753Y0087138D01*
X0106309Y0088694D01*
X0109843Y0085160D01*
G37*
G36*
X0105389Y0080706D02*
X0103833Y0079150D01*
X0100299Y0082684D01*
X0101855Y0084240D01*
X0105389Y0080706D01*
G37*
G36*
X0103162Y0078479D02*
X0101606Y0076923D01*
X0098072Y0080457D01*
X0099628Y0082013D01*
X0103162Y0078479D01*
G37*
G36*
X0100935Y0076252D02*
X0099379Y0074696D01*
X0095845Y0078230D01*
X0097401Y0079786D01*
X0100935Y0076252D01*
G37*
G36*
X0098708Y0074025D02*
X0097152Y0072469D01*
X0093618Y0076003D01*
X0095174Y0077559D01*
X0098708Y0074025D01*
G37*
G36*
X0096480Y0071797D02*
X0094924Y0070241D01*
X0091390Y0073775D01*
X0092946Y0075331D01*
X0096480Y0071797D01*
G37*
G36*
X0094253Y0069570D02*
X0092697Y0068014D01*
X0089163Y0071548D01*
X0090719Y0073104D01*
X0094253Y0069570D01*
G37*
D18*
X0132563Y0194724D03*
X0140043Y0194724D03*
X0136303Y0203385D03*
D19*
X0184428Y0190147D03*
X0184428Y0170462D03*
D20*
X0195058Y0166525D03*
X0195058Y0194084D03*
D21*
X0193678Y0149054D02*
X0187678Y0149054D01*
X0187678Y0139054D02*
X0193678Y0139054D01*
X0193678Y0129054D02*
X0187678Y0129054D01*
X0187678Y0119054D02*
X0193678Y0119054D01*
X0193678Y0109054D02*
X0187678Y0109054D01*
X0187678Y0099054D02*
X0193678Y0099054D01*
X0193678Y0089054D02*
X0187678Y0089054D01*
X0187678Y0079054D02*
X0193678Y0079054D01*
D22*
X0057711Y0180304D03*
D23*
X0086451Y0171328D03*
X0086451Y0189281D03*
D24*
G36*
X0140794Y0073327D02*
X0137400Y0069933D01*
X0131178Y0076155D01*
X0134572Y0079549D01*
X0140794Y0073327D01*
G37*
G36*
X0134359Y0066892D02*
X0130965Y0063498D01*
X0124743Y0069720D01*
X0128137Y0073114D01*
X0134359Y0066892D01*
G37*
G36*
X0127925Y0060457D02*
X0124531Y0057063D01*
X0118309Y0063285D01*
X0121703Y0066679D01*
X0127925Y0060457D01*
G37*
D25*
G36*
X0154877Y0053000D02*
X0144857Y0042980D01*
X0138733Y0049104D01*
X0148753Y0059124D01*
X0154877Y0053000D01*
G37*
D26*
X0037130Y0058680D03*
X0037130Y0042145D03*
X0037130Y0025609D03*
X0015476Y0025609D03*
X0015476Y0042145D03*
X0015476Y0058680D03*
X0015476Y0075216D03*
X0015476Y0091751D03*
X0015476Y0108287D03*
X0015476Y0124822D03*
X0015476Y0141357D03*
X0015476Y0157893D03*
X0015476Y0174428D03*
X0015476Y0190964D03*
X0015476Y0207499D03*
X0037130Y0207499D03*
X0037130Y0190964D03*
X0037130Y0174428D03*
X0037130Y0157893D03*
X0037130Y0141357D03*
X0037130Y0124822D03*
X0037130Y0108287D03*
X0037130Y0091751D03*
X0037130Y0075216D03*
D27*
X0059428Y0094054D02*
X0050053Y0103429D01*
X0050053Y0108429D01*
X0060053Y0118429D01*
X0060053Y0160304D01*
X0063803Y0164054D01*
X0090053Y0080929D02*
X0095969Y0075014D01*
X0096163Y0075014D01*
X0101352Y0069824D01*
X0102073Y0069824D01*
X0105343Y0066554D01*
X0113803Y0066554D01*
X0116783Y0069535D01*
X0116783Y0068205D01*
X0123117Y0061871D01*
X0135986Y0074741D02*
X0136242Y0074741D01*
X0136303Y0074679D01*
X0130678Y0027804D02*
X0115053Y0027804D01*
X0112553Y0025304D01*
X0112543Y0025304D01*
X0105063Y0025304D02*
X0105063Y0020314D01*
X0101303Y0016554D01*
X0028803Y0016554D01*
X0023803Y0021554D01*
X0023803Y0033818D01*
X0015476Y0042145D01*
X0158803Y0199054D02*
X0162563Y0199054D01*
X0163813Y0199054D01*
X0162563Y0199054D02*
X0162553Y0197794D01*
X0162553Y0189291D01*
D28*
X0082553Y0161554D03*
X0082553Y0156554D03*
X0082553Y0151554D03*
X0082553Y0146554D03*
X0082553Y0141554D03*
X0077553Y0141554D03*
X0077553Y0146554D03*
X0077553Y0151554D03*
X0077553Y0156554D03*
X0077553Y0161554D03*
X0063803Y0164054D03*
X0059428Y0094054D03*
X0090053Y0080929D03*
X0103803Y0052804D03*
X0108803Y0052804D03*
X0113178Y0052804D03*
X0136303Y0074679D03*
D29*
X0008852Y0016383D02*
X0007276Y0017527D01*
X0006132Y0019103D01*
X0005530Y0020955D01*
X0005453Y0021928D01*
X0005453Y0210905D01*
X0005530Y0211878D01*
X0006132Y0213730D01*
X0007276Y0215306D01*
X0008852Y0216450D01*
X0010704Y0217052D01*
X0011677Y0217129D01*
X0192780Y0217129D01*
X0193753Y0217052D01*
X0195605Y0216450D01*
X0197181Y0215306D01*
X0198325Y0213730D01*
X0198927Y0211878D01*
X0199004Y0210905D01*
X0199004Y0196138D01*
X0198862Y0196415D01*
X0198451Y0196982D01*
X0197956Y0197477D01*
X0197389Y0197888D01*
X0196766Y0198206D01*
X0196100Y0198422D01*
X0195458Y0198524D01*
X0195458Y0194484D01*
X0194658Y0194484D01*
X0194658Y0198524D01*
X0194016Y0198422D01*
X0193351Y0198206D01*
X0192727Y0197888D01*
X0192160Y0197477D01*
X0191665Y0196982D01*
X0191254Y0196415D01*
X0190936Y0195791D01*
X0190720Y0195125D01*
X0190618Y0194484D01*
X0194658Y0194484D01*
X0194658Y0193684D01*
X0190618Y0193684D01*
X0190720Y0193042D01*
X0190936Y0192376D01*
X0191254Y0191753D01*
X0191665Y0191186D01*
X0192160Y0190691D01*
X0192727Y0190280D01*
X0193351Y0189962D01*
X0194016Y0189745D01*
X0194658Y0189644D01*
X0194658Y0193684D01*
X0195458Y0193684D01*
X0195458Y0189644D01*
X0196100Y0189745D01*
X0196766Y0189962D01*
X0197389Y0190280D01*
X0197956Y0190691D01*
X0198451Y0191186D01*
X0198862Y0191753D01*
X0199004Y0192030D01*
X0199004Y0168579D01*
X0198862Y0168856D01*
X0198451Y0169422D01*
X0197956Y0169918D01*
X0197389Y0170329D01*
X0196766Y0170647D01*
X0196100Y0170863D01*
X0195458Y0170965D01*
X0195458Y0166925D01*
X0194658Y0166925D01*
X0194658Y0170965D01*
X0194016Y0170863D01*
X0193351Y0170647D01*
X0192727Y0170329D01*
X0192160Y0169918D01*
X0191665Y0169422D01*
X0191254Y0168856D01*
X0190936Y0168232D01*
X0190720Y0167566D01*
X0190618Y0166925D01*
X0194658Y0166925D01*
X0194658Y0166125D01*
X0190618Y0166125D01*
X0190720Y0165483D01*
X0190936Y0164817D01*
X0191254Y0164194D01*
X0191665Y0163627D01*
X0192160Y0163132D01*
X0192727Y0162721D01*
X0193351Y0162403D01*
X0194016Y0162186D01*
X0194658Y0162085D01*
X0194658Y0166125D01*
X0195458Y0166125D01*
X0195458Y0162085D01*
X0196100Y0162186D01*
X0196766Y0162403D01*
X0197389Y0162721D01*
X0197956Y0163132D01*
X0198451Y0163627D01*
X0198862Y0164194D01*
X0199004Y0164471D01*
X0199004Y0021928D01*
X0198927Y0020955D01*
X0198325Y0019103D01*
X0197181Y0017527D01*
X0196778Y0017235D01*
X0196778Y0022106D01*
X0196016Y0022867D01*
X0195710Y0023173D01*
X0194949Y0023935D01*
X0191737Y0023935D01*
X0190975Y0023173D01*
X0190669Y0022867D01*
X0190526Y0022724D01*
X0190332Y0022530D01*
X0190332Y0023173D01*
X0189571Y0023935D01*
X0184224Y0023935D01*
X0183675Y0023386D01*
X0183125Y0023935D01*
X0182049Y0023935D01*
X0181287Y0023173D01*
X0181287Y0017529D01*
X0177778Y0017529D01*
X0177441Y0017193D01*
X0177441Y0023173D01*
X0176680Y0023935D01*
X0172400Y0023935D01*
X0171799Y0023334D01*
X0171333Y0022867D01*
X0171333Y0022867D01*
X0171172Y0022707D01*
X0170996Y0022530D01*
X0170996Y0023173D01*
X0170234Y0023935D01*
X0165955Y0023935D01*
X0165354Y0023334D01*
X0164887Y0022867D01*
X0164727Y0022707D01*
X0164550Y0022530D01*
X0164550Y0023173D01*
X0163789Y0023935D01*
X0160577Y0023935D01*
X0160085Y0023443D01*
X0159782Y0023645D01*
X0159492Y0023935D01*
X0159347Y0023935D01*
X0159227Y0024015D01*
X0158825Y0023935D01*
X0158415Y0023935D01*
X0158313Y0023832D01*
X0158171Y0023804D01*
X0157943Y0023463D01*
X0157654Y0023173D01*
X0157654Y0023028D01*
X0155983Y0020523D01*
X0155983Y0023173D01*
X0155222Y0023935D01*
X0154145Y0023935D01*
X0153596Y0023386D01*
X0153046Y0023935D01*
X0147699Y0023935D01*
X0146938Y0023173D01*
X0146938Y0021029D01*
X0150437Y0017529D01*
X0147699Y0017529D01*
X0147363Y0017193D01*
X0147363Y0017835D01*
X0146601Y0018597D01*
X0144456Y0018597D01*
X0144140Y0018280D01*
X0144140Y0022106D01*
X0143378Y0022867D01*
X0142311Y0023935D01*
X0139099Y0023935D01*
X0138551Y0023387D01*
X0138031Y0022867D01*
X0137888Y0022724D01*
X0137694Y0022530D01*
X0137694Y0023173D01*
X0136933Y0023935D01*
X0132653Y0023935D01*
X0132052Y0023334D01*
X0131585Y0022867D01*
X0131425Y0022707D01*
X0131036Y0022318D01*
X0130487Y0022867D01*
X0129420Y0023935D01*
X0126208Y0023935D01*
X0125589Y0023316D01*
X0124378Y0022106D01*
X0124378Y0021029D01*
X0124908Y0020500D01*
X0124378Y0019971D01*
X0124378Y0016758D01*
X0124979Y0016158D01*
X0125140Y0015997D01*
X0125433Y0015704D01*
X0102999Y0015704D01*
X0105809Y0018514D01*
X0106863Y0019569D01*
X0106863Y0021352D01*
X0108036Y0021352D01*
X0108622Y0021937D01*
X0108622Y0028671D01*
X0108036Y0029257D01*
X0102090Y0029257D01*
X0101504Y0028671D01*
X0101504Y0021937D01*
X0102090Y0021352D01*
X0103263Y0021352D01*
X0103263Y0021060D01*
X0100558Y0018354D01*
X0029549Y0018354D01*
X0025603Y0022300D01*
X0025603Y0034564D01*
X0020610Y0039557D01*
X0020610Y0046693D01*
X0020024Y0047279D01*
X0010928Y0047279D01*
X0010343Y0046693D01*
X0010343Y0037597D01*
X0010928Y0037011D01*
X0018065Y0037011D01*
X0022003Y0033073D01*
X0022003Y0020809D01*
X0023058Y0019754D01*
X0027108Y0015704D01*
X0011677Y0015704D01*
X0010704Y0015781D01*
X0008852Y0016383D01*
X0008759Y0016450D02*
X0026362Y0016450D01*
X0025564Y0017248D02*
X0007660Y0017248D01*
X0006899Y0018047D02*
X0024765Y0018047D01*
X0023966Y0018845D02*
X0006318Y0018845D01*
X0005956Y0019644D02*
X0023168Y0019644D01*
X0022369Y0020442D02*
X0005696Y0020442D01*
X0005507Y0021241D02*
X0010343Y0021241D01*
X0010343Y0021061D02*
X0010928Y0020476D01*
X0020024Y0020476D01*
X0020610Y0021061D01*
X0020610Y0030158D01*
X0020024Y0030743D01*
X0010928Y0030743D01*
X0010343Y0030158D01*
X0010343Y0021061D01*
X0010343Y0022039D02*
X0005453Y0022039D01*
X0005453Y0022838D02*
X0010343Y0022838D01*
X0010343Y0023636D02*
X0005453Y0023636D01*
X0005453Y0024435D02*
X0010343Y0024435D01*
X0010343Y0025233D02*
X0005453Y0025233D01*
X0005453Y0026032D02*
X0010343Y0026032D01*
X0010343Y0026831D02*
X0005453Y0026831D01*
X0005453Y0027629D02*
X0010343Y0027629D01*
X0010343Y0028428D02*
X0005453Y0028428D01*
X0005453Y0029226D02*
X0010343Y0029226D01*
X0010343Y0030025D02*
X0005453Y0030025D01*
X0005453Y0030823D02*
X0022003Y0030823D01*
X0022003Y0030025D02*
X0020610Y0030025D01*
X0020610Y0029226D02*
X0022003Y0029226D01*
X0022003Y0028428D02*
X0020610Y0028428D01*
X0020610Y0027629D02*
X0022003Y0027629D01*
X0022003Y0026831D02*
X0020610Y0026831D01*
X0020610Y0026032D02*
X0022003Y0026032D01*
X0022003Y0025233D02*
X0020610Y0025233D01*
X0020610Y0024435D02*
X0022003Y0024435D01*
X0022003Y0023636D02*
X0020610Y0023636D01*
X0020610Y0022838D02*
X0022003Y0022838D01*
X0022003Y0022039D02*
X0020610Y0022039D01*
X0020610Y0021241D02*
X0022003Y0021241D01*
X0025603Y0022838D02*
X0031996Y0022838D01*
X0031996Y0023636D02*
X0025603Y0023636D01*
X0025603Y0024435D02*
X0031996Y0024435D01*
X0031996Y0025233D02*
X0025603Y0025233D01*
X0025603Y0026032D02*
X0031996Y0026032D01*
X0031996Y0026831D02*
X0025603Y0026831D01*
X0025603Y0027629D02*
X0031996Y0027629D01*
X0031996Y0028428D02*
X0025603Y0028428D01*
X0025603Y0029226D02*
X0031996Y0029226D01*
X0031996Y0030025D02*
X0025603Y0030025D01*
X0025603Y0030823D02*
X0199004Y0030823D01*
X0199004Y0030025D02*
X0131590Y0030025D01*
X0131156Y0030204D02*
X0132038Y0029839D01*
X0132713Y0029164D01*
X0133078Y0028282D01*
X0133078Y0027327D01*
X0132713Y0026445D01*
X0132038Y0025770D01*
X0131156Y0025404D01*
X0130201Y0025404D01*
X0129319Y0025770D01*
X0129084Y0026004D01*
X0116102Y0026004D01*
X0116102Y0021937D01*
X0115517Y0021352D01*
X0109570Y0021352D01*
X0108984Y0021937D01*
X0108984Y0028671D01*
X0109570Y0029257D01*
X0113960Y0029257D01*
X0114308Y0029604D01*
X0129084Y0029604D01*
X0129319Y0029839D01*
X0130201Y0030204D01*
X0131156Y0030204D01*
X0129767Y0030025D02*
X0042264Y0030025D01*
X0042264Y0030158D02*
X0041678Y0030743D01*
X0032582Y0030743D01*
X0031996Y0030158D01*
X0031996Y0021061D01*
X0032582Y0020476D01*
X0041678Y0020476D01*
X0042264Y0021061D01*
X0042264Y0030158D01*
X0042264Y0029226D02*
X0102059Y0029226D01*
X0101504Y0028428D02*
X0042264Y0028428D01*
X0042264Y0027629D02*
X0101504Y0027629D01*
X0101504Y0026831D02*
X0042264Y0026831D01*
X0042264Y0026032D02*
X0101504Y0026032D01*
X0101504Y0025233D02*
X0042264Y0025233D01*
X0042264Y0024435D02*
X0101504Y0024435D01*
X0101504Y0023636D02*
X0042264Y0023636D01*
X0042264Y0022838D02*
X0101504Y0022838D01*
X0101504Y0022039D02*
X0042264Y0022039D01*
X0042264Y0021241D02*
X0103263Y0021241D01*
X0102646Y0020442D02*
X0027461Y0020442D01*
X0028259Y0019644D02*
X0101847Y0019644D01*
X0101049Y0018845D02*
X0029058Y0018845D01*
X0026662Y0021241D02*
X0031996Y0021241D01*
X0031996Y0022039D02*
X0025864Y0022039D01*
X0025603Y0031622D02*
X0199004Y0031622D01*
X0199004Y0032420D02*
X0177745Y0032420D01*
X0177406Y0032279D02*
X0178288Y0032645D01*
X0178963Y0033320D01*
X0179328Y0034202D01*
X0179328Y0035099D01*
X0184383Y0040154D01*
X0185203Y0040974D01*
X0185203Y0044902D01*
X0187143Y0044902D01*
X0187143Y0048654D01*
X0187943Y0048654D01*
X0187943Y0044902D01*
X0190260Y0044902D01*
X0190566Y0044983D01*
X0190839Y0045141D01*
X0191063Y0045365D01*
X0191221Y0045638D01*
X0191302Y0045944D01*
X0191302Y0048654D01*
X0187943Y0048654D01*
X0187943Y0049454D01*
X0191302Y0049454D01*
X0191302Y0052165D01*
X0191221Y0052470D01*
X0191063Y0052744D01*
X0190839Y0052967D01*
X0190566Y0053125D01*
X0190260Y0053207D01*
X0187943Y0053207D01*
X0187943Y0049454D01*
X0187143Y0049454D01*
X0187143Y0053207D01*
X0185203Y0053207D01*
X0185203Y0053852D01*
X0185536Y0053852D01*
X0186122Y0054437D01*
X0186122Y0061171D01*
X0185536Y0061757D01*
X0183953Y0061757D01*
X0183953Y0077595D01*
X0184287Y0076789D01*
X0185412Y0075663D01*
X0186882Y0075054D01*
X0194474Y0075054D01*
X0195944Y0075663D01*
X0197069Y0076789D01*
X0197678Y0078259D01*
X0197678Y0079850D01*
X0197069Y0081320D01*
X0195944Y0082445D01*
X0194474Y0083054D01*
X0186882Y0083054D01*
X0185412Y0082445D01*
X0184287Y0081320D01*
X0183953Y0080514D01*
X0183953Y0087595D01*
X0184287Y0086789D01*
X0185412Y0085663D01*
X0186882Y0085054D01*
X0194474Y0085054D01*
X0195944Y0085663D01*
X0197069Y0086789D01*
X0197678Y0088259D01*
X0197678Y0089850D01*
X0197069Y0091320D01*
X0195944Y0092445D01*
X0194474Y0093054D01*
X0186882Y0093054D01*
X0185412Y0092445D01*
X0184287Y0091320D01*
X0183953Y0090514D01*
X0183953Y0097595D01*
X0184287Y0096789D01*
X0185412Y0095663D01*
X0186882Y0095054D01*
X0194474Y0095054D01*
X0195944Y0095663D01*
X0197069Y0096789D01*
X0197678Y0098259D01*
X0197678Y0099850D01*
X0197069Y0101320D01*
X0195944Y0102445D01*
X0194474Y0103054D01*
X0186882Y0103054D01*
X0185412Y0102445D01*
X0184287Y0101320D01*
X0183953Y0100514D01*
X0183953Y0107595D01*
X0184287Y0106789D01*
X0185412Y0105663D01*
X0186882Y0105054D01*
X0194474Y0105054D01*
X0195944Y0105663D01*
X0197069Y0106789D01*
X0197678Y0108259D01*
X0197678Y0109850D01*
X0197069Y0111320D01*
X0195944Y0112445D01*
X0194474Y0113054D01*
X0188065Y0113054D01*
X0184578Y0115960D01*
X0184578Y0116497D01*
X0185412Y0115663D01*
X0186882Y0115054D01*
X0194474Y0115054D01*
X0195944Y0115663D01*
X0197069Y0116789D01*
X0197678Y0118259D01*
X0197678Y0119850D01*
X0197069Y0121320D01*
X0195944Y0122445D01*
X0194474Y0123054D01*
X0186882Y0123054D01*
X0185412Y0122445D01*
X0184527Y0121560D01*
X0184328Y0121759D01*
X0184328Y0122657D01*
X0183963Y0123539D01*
X0183288Y0124214D01*
X0182406Y0124579D01*
X0181451Y0124579D01*
X0180828Y0124321D01*
X0180828Y0134278D01*
X0181413Y0134520D01*
X0182088Y0135195D01*
X0182453Y0136077D01*
X0182453Y0137032D01*
X0182088Y0137914D01*
X0181413Y0138589D01*
X0180531Y0138954D01*
X0179576Y0138954D01*
X0179328Y0138852D01*
X0179328Y0138907D01*
X0178963Y0139789D01*
X0178288Y0140464D01*
X0177406Y0140829D01*
X0176451Y0140829D01*
X0175569Y0140464D01*
X0174894Y0139789D01*
X0174528Y0138907D01*
X0174528Y0137952D01*
X0174631Y0137704D01*
X0174576Y0137704D01*
X0173694Y0137339D01*
X0173019Y0136664D01*
X0172653Y0135782D01*
X0172653Y0135204D01*
X0172076Y0135204D01*
X0171194Y0134839D01*
X0170519Y0134164D01*
X0170153Y0133282D01*
X0170153Y0132327D01*
X0170519Y0131445D01*
X0171194Y0130770D01*
X0172076Y0130404D01*
X0172403Y0130404D01*
X0172403Y0118474D01*
X0174278Y0116599D01*
X0174278Y0116332D01*
X0172318Y0116332D01*
X0172318Y0112579D01*
X0171518Y0112579D01*
X0171518Y0111779D01*
X0172318Y0111779D01*
X0172318Y0108027D01*
X0172943Y0108027D01*
X0172943Y0104454D01*
X0172143Y0104454D01*
X0172143Y0103654D01*
X0172943Y0103654D01*
X0172943Y0099902D01*
X0175260Y0099902D01*
X0175528Y0099973D01*
X0175528Y0099385D01*
X0175260Y0099457D01*
X0172943Y0099457D01*
X0172943Y0095704D01*
X0172143Y0095704D01*
X0172143Y0094904D01*
X0172943Y0094904D01*
X0172943Y0091152D01*
X0175260Y0091152D01*
X0175528Y0091223D01*
X0175528Y0090635D01*
X0175260Y0090707D01*
X0172943Y0090707D01*
X0172943Y0086954D01*
X0172143Y0086954D01*
X0172143Y0086154D01*
X0172943Y0086154D01*
X0172943Y0082402D01*
X0175260Y0082402D01*
X0175528Y0082473D01*
X0175528Y0081885D01*
X0175260Y0081957D01*
X0172943Y0081957D01*
X0172943Y0078204D01*
X0172143Y0078204D01*
X0172143Y0077404D01*
X0172943Y0077404D01*
X0172943Y0073652D01*
X0175161Y0073652D01*
X0174516Y0073007D01*
X0169570Y0073007D01*
X0168984Y0072421D01*
X0168984Y0065687D01*
X0169570Y0065102D01*
X0170371Y0065102D01*
X0170098Y0064829D01*
X0160098Y0064829D01*
X0159278Y0064009D01*
X0157973Y0062704D01*
X0157076Y0062704D01*
X0156194Y0062339D01*
X0155519Y0061664D01*
X0155153Y0060782D01*
X0155153Y0059827D01*
X0155519Y0058945D01*
X0156194Y0058270D01*
X0157076Y0057904D01*
X0158031Y0057904D01*
X0158913Y0058270D01*
X0159588Y0058945D01*
X0159953Y0059827D01*
X0159953Y0060724D01*
X0161258Y0062029D01*
X0171258Y0062029D01*
X0173123Y0063894D01*
X0173943Y0064715D01*
X0173943Y0065102D01*
X0175517Y0065102D01*
X0176102Y0065687D01*
X0176102Y0070633D01*
X0177403Y0071934D01*
X0177403Y0064644D01*
X0174516Y0061757D01*
X0169570Y0061757D01*
X0168984Y0061171D01*
X0168984Y0054437D01*
X0169570Y0053852D01*
X0170371Y0053852D01*
X0168223Y0051704D01*
X0165797Y0051704D01*
X0165163Y0052339D01*
X0164281Y0052704D01*
X0163326Y0052704D01*
X0162444Y0052339D01*
X0161769Y0051664D01*
X0161403Y0050782D01*
X0161403Y0049827D01*
X0161769Y0048945D01*
X0162444Y0048270D01*
X0163326Y0047904D01*
X0164281Y0047904D01*
X0165163Y0048270D01*
X0165797Y0048904D01*
X0169383Y0048904D01*
X0173123Y0052644D01*
X0173943Y0053465D01*
X0173943Y0053852D01*
X0175517Y0053852D01*
X0176102Y0054437D01*
X0176102Y0059383D01*
X0176778Y0060059D01*
X0176778Y0052696D01*
X0176504Y0052421D01*
X0176504Y0047475D01*
X0170733Y0041704D01*
X0165797Y0041704D01*
X0165163Y0042339D01*
X0164281Y0042704D01*
X0163326Y0042704D01*
X0162444Y0042339D01*
X0161769Y0041664D01*
X0161403Y0040782D01*
X0161403Y0039827D01*
X0161769Y0038945D01*
X0162444Y0038270D01*
X0163326Y0037904D01*
X0164281Y0037904D01*
X0165163Y0038270D01*
X0165797Y0038904D01*
X0171893Y0038904D01*
X0178090Y0045102D01*
X0182403Y0045102D01*
X0182403Y0042134D01*
X0177348Y0037079D01*
X0176451Y0037079D01*
X0175569Y0036714D01*
X0174894Y0036039D01*
X0174528Y0035157D01*
X0174528Y0034202D01*
X0174894Y0033320D01*
X0175569Y0032645D01*
X0176451Y0032279D01*
X0177406Y0032279D01*
X0176111Y0032420D02*
X0025603Y0032420D01*
X0025603Y0033219D02*
X0174995Y0033219D01*
X0174605Y0034017D02*
X0025603Y0034017D01*
X0025351Y0034816D02*
X0174528Y0034816D01*
X0174718Y0035614D02*
X0024553Y0035614D01*
X0023754Y0036413D02*
X0035290Y0036413D01*
X0035936Y0036145D02*
X0091212Y0036145D01*
X0093417Y0037058D01*
X0095105Y0038746D01*
X0103163Y0046804D01*
X0114372Y0046804D01*
X0116577Y0047718D01*
X0118265Y0049406D01*
X0119178Y0051611D01*
X0119178Y0053998D01*
X0118265Y0056203D01*
X0116577Y0057891D01*
X0114372Y0058804D01*
X0099485Y0058804D01*
X0097279Y0057891D01*
X0087533Y0048145D01*
X0035936Y0048145D01*
X0033845Y0047279D01*
X0032582Y0047279D01*
X0031996Y0046693D01*
X0031996Y0045429D01*
X0031130Y0043338D01*
X0031130Y0040951D01*
X0031996Y0038860D01*
X0031996Y0037597D01*
X0032582Y0037011D01*
X0033845Y0037011D01*
X0035936Y0036145D01*
X0032382Y0037211D02*
X0022956Y0037211D01*
X0022157Y0038010D02*
X0031996Y0038010D01*
X0031996Y0038808D02*
X0021359Y0038808D01*
X0020610Y0039607D02*
X0031687Y0039607D01*
X0031356Y0040405D02*
X0020610Y0040405D01*
X0020610Y0041204D02*
X0031130Y0041204D01*
X0031130Y0042002D02*
X0020610Y0042002D01*
X0020610Y0042801D02*
X0031130Y0042801D01*
X0031238Y0043599D02*
X0020610Y0043599D01*
X0020610Y0044398D02*
X0031569Y0044398D01*
X0031900Y0045196D02*
X0020610Y0045196D01*
X0020610Y0045995D02*
X0031996Y0045995D01*
X0032096Y0046793D02*
X0020510Y0046793D01*
X0020024Y0053546D02*
X0020610Y0054132D01*
X0020610Y0063228D01*
X0020024Y0063814D01*
X0010928Y0063814D01*
X0010343Y0063228D01*
X0010343Y0054132D01*
X0010928Y0053546D01*
X0020024Y0053546D01*
X0020458Y0053980D02*
X0032148Y0053980D01*
X0031996Y0054132D02*
X0032582Y0053546D01*
X0041678Y0053546D01*
X0042264Y0054132D01*
X0042264Y0055564D01*
X0042877Y0055564D01*
X0042936Y0055505D01*
X0049670Y0055505D01*
X0050256Y0056091D01*
X0050256Y0062037D01*
X0049670Y0062623D01*
X0042936Y0062623D01*
X0042877Y0062564D01*
X0042264Y0062564D01*
X0042264Y0063228D01*
X0041678Y0063814D01*
X0032582Y0063814D01*
X0031996Y0063228D01*
X0031996Y0054132D01*
X0031996Y0054778D02*
X0020610Y0054778D01*
X0020610Y0055577D02*
X0031996Y0055577D01*
X0031996Y0056375D02*
X0020610Y0056375D01*
X0020610Y0057174D02*
X0031996Y0057174D01*
X0031996Y0057972D02*
X0020610Y0057972D01*
X0020610Y0058771D02*
X0031996Y0058771D01*
X0031996Y0059569D02*
X0020610Y0059569D01*
X0020610Y0060368D02*
X0031996Y0060368D01*
X0031996Y0061166D02*
X0020610Y0061166D01*
X0020610Y0061965D02*
X0031996Y0061965D01*
X0031996Y0062764D02*
X0020610Y0062764D01*
X0020277Y0063562D02*
X0032330Y0063562D01*
X0032582Y0070082D02*
X0041678Y0070082D01*
X0042264Y0070668D01*
X0042264Y0079764D01*
X0041678Y0080350D01*
X0032582Y0080350D01*
X0031996Y0079764D01*
X0031996Y0070668D01*
X0032582Y0070082D01*
X0031996Y0070749D02*
X0020610Y0070749D01*
X0020610Y0070668D02*
X0020610Y0079764D01*
X0020024Y0080350D01*
X0010928Y0080350D01*
X0010343Y0079764D01*
X0010343Y0070668D01*
X0010928Y0070082D01*
X0020024Y0070082D01*
X0020610Y0070668D01*
X0020610Y0071547D02*
X0031996Y0071547D01*
X0031996Y0072346D02*
X0020610Y0072346D01*
X0020610Y0073144D02*
X0031996Y0073144D01*
X0031996Y0073943D02*
X0020610Y0073943D01*
X0020610Y0074741D02*
X0031996Y0074741D01*
X0031996Y0075540D02*
X0020610Y0075540D01*
X0020610Y0076338D02*
X0031996Y0076338D01*
X0031996Y0077137D02*
X0020610Y0077137D01*
X0020610Y0077935D02*
X0031996Y0077935D01*
X0031996Y0078734D02*
X0020610Y0078734D01*
X0020610Y0079532D02*
X0031996Y0079532D01*
X0032563Y0080331D02*
X0020043Y0080331D01*
X0020024Y0086617D02*
X0020610Y0087203D01*
X0020610Y0096299D01*
X0020024Y0096885D01*
X0010928Y0096885D01*
X0010343Y0096299D01*
X0010343Y0087203D01*
X0010928Y0086617D01*
X0020024Y0086617D01*
X0020126Y0086719D02*
X0032480Y0086719D01*
X0032582Y0086617D02*
X0041678Y0086617D01*
X0042264Y0087203D01*
X0042264Y0096299D01*
X0041678Y0096885D01*
X0032582Y0096885D01*
X0031996Y0096299D01*
X0031996Y0087203D01*
X0032582Y0086617D01*
X0031996Y0087517D02*
X0020610Y0087517D01*
X0020610Y0088316D02*
X0031996Y0088316D01*
X0031996Y0089114D02*
X0020610Y0089114D01*
X0020610Y0089913D02*
X0031996Y0089913D01*
X0031996Y0090711D02*
X0020610Y0090711D01*
X0020610Y0091510D02*
X0031996Y0091510D01*
X0031996Y0092308D02*
X0020610Y0092308D01*
X0020610Y0093107D02*
X0031996Y0093107D01*
X0031996Y0093905D02*
X0020610Y0093905D01*
X0020610Y0094704D02*
X0031996Y0094704D01*
X0031996Y0095502D02*
X0020610Y0095502D01*
X0020608Y0096301D02*
X0031998Y0096301D01*
X0032582Y0103153D02*
X0041678Y0103153D01*
X0042264Y0103739D01*
X0042264Y0112835D01*
X0041678Y0113420D01*
X0032582Y0113420D01*
X0031996Y0112835D01*
X0031996Y0103739D01*
X0032582Y0103153D01*
X0032247Y0103488D02*
X0020359Y0103488D01*
X0020610Y0103739D02*
X0020024Y0103153D01*
X0010928Y0103153D01*
X0010343Y0103739D01*
X0010343Y0112835D01*
X0010928Y0113420D01*
X0020024Y0113420D01*
X0020610Y0112835D01*
X0020610Y0103739D01*
X0020610Y0104286D02*
X0031996Y0104286D01*
X0031996Y0105085D02*
X0020610Y0105085D01*
X0020610Y0105883D02*
X0031996Y0105883D01*
X0031996Y0106682D02*
X0020610Y0106682D01*
X0020610Y0107480D02*
X0031996Y0107480D01*
X0031996Y0108279D02*
X0020610Y0108279D01*
X0020610Y0109077D02*
X0031996Y0109077D01*
X0031996Y0109876D02*
X0020610Y0109876D01*
X0020610Y0110674D02*
X0031996Y0110674D01*
X0031996Y0111473D02*
X0020610Y0111473D01*
X0020610Y0112271D02*
X0031996Y0112271D01*
X0032231Y0113070D02*
X0020375Y0113070D01*
X0020024Y0119688D02*
X0020610Y0120274D01*
X0020610Y0129370D01*
X0020024Y0129956D01*
X0010928Y0129956D01*
X0010343Y0129370D01*
X0010343Y0120274D01*
X0010928Y0119688D01*
X0020024Y0119688D01*
X0020593Y0120256D02*
X0032014Y0120256D01*
X0031996Y0120274D02*
X0032582Y0119688D01*
X0041678Y0119688D01*
X0042264Y0120274D01*
X0042264Y0129370D01*
X0041678Y0129956D01*
X0032582Y0129956D01*
X0031996Y0129370D01*
X0031996Y0120274D01*
X0031996Y0121055D02*
X0020610Y0121055D01*
X0020610Y0121853D02*
X0031996Y0121853D01*
X0031996Y0122652D02*
X0020610Y0122652D01*
X0020610Y0123450D02*
X0031996Y0123450D01*
X0031996Y0124249D02*
X0020610Y0124249D01*
X0020610Y0125047D02*
X0031996Y0125047D01*
X0031996Y0125846D02*
X0020610Y0125846D01*
X0020610Y0126644D02*
X0031996Y0126644D01*
X0031996Y0127443D02*
X0020610Y0127443D01*
X0020610Y0128241D02*
X0031996Y0128241D01*
X0031996Y0129040D02*
X0020610Y0129040D01*
X0020142Y0129838D02*
X0032464Y0129838D01*
X0032582Y0136224D02*
X0041678Y0136224D01*
X0042264Y0136809D01*
X0042264Y0145906D01*
X0041678Y0146491D01*
X0032582Y0146491D01*
X0031996Y0145906D01*
X0031996Y0136809D01*
X0032582Y0136224D01*
X0032579Y0136227D02*
X0020027Y0136227D01*
X0020024Y0136224D02*
X0020610Y0136809D01*
X0020610Y0145906D01*
X0020024Y0146491D01*
X0010928Y0146491D01*
X0010343Y0145906D01*
X0010343Y0136809D01*
X0010928Y0136224D01*
X0020024Y0136224D01*
X0020610Y0137025D02*
X0031996Y0137025D01*
X0031996Y0137824D02*
X0020610Y0137824D01*
X0020610Y0138622D02*
X0031996Y0138622D01*
X0031996Y0139421D02*
X0020610Y0139421D01*
X0020610Y0140219D02*
X0031996Y0140219D01*
X0031996Y0141018D02*
X0020610Y0141018D01*
X0020610Y0141816D02*
X0031996Y0141816D01*
X0031996Y0142615D02*
X0020610Y0142615D01*
X0020610Y0143413D02*
X0031996Y0143413D01*
X0031996Y0144212D02*
X0020610Y0144212D01*
X0020610Y0145010D02*
X0031996Y0145010D01*
X0031996Y0145809D02*
X0020610Y0145809D01*
X0020024Y0152759D02*
X0020610Y0153345D01*
X0020610Y0162441D01*
X0020024Y0163027D01*
X0010928Y0163027D01*
X0010343Y0162441D01*
X0010343Y0153345D01*
X0010928Y0152759D01*
X0020024Y0152759D01*
X0020261Y0152995D02*
X0032346Y0152995D01*
X0032582Y0152759D02*
X0041678Y0152759D01*
X0042264Y0153345D01*
X0042264Y0162441D01*
X0041678Y0163027D01*
X0032582Y0163027D01*
X0031996Y0162441D01*
X0031996Y0153345D01*
X0032582Y0152759D01*
X0031996Y0153794D02*
X0020610Y0153794D01*
X0020610Y0154592D02*
X0031996Y0154592D01*
X0031996Y0155391D02*
X0020610Y0155391D01*
X0020610Y0156189D02*
X0031996Y0156189D01*
X0031996Y0156988D02*
X0020610Y0156988D01*
X0020610Y0157786D02*
X0031996Y0157786D01*
X0031996Y0158585D02*
X0020610Y0158585D01*
X0020610Y0159383D02*
X0031996Y0159383D01*
X0031996Y0160182D02*
X0020610Y0160182D01*
X0020610Y0160980D02*
X0031996Y0160980D01*
X0031996Y0161779D02*
X0020610Y0161779D01*
X0020474Y0162577D02*
X0032133Y0162577D01*
X0032582Y0169294D02*
X0041678Y0169294D01*
X0042264Y0169880D01*
X0042264Y0178976D01*
X0041678Y0179562D01*
X0032582Y0179562D01*
X0031996Y0178976D01*
X0031996Y0169880D01*
X0032582Y0169294D01*
X0032112Y0169764D02*
X0020494Y0169764D01*
X0020610Y0169880D02*
X0020024Y0169294D01*
X0010928Y0169294D01*
X0010343Y0169880D01*
X0010343Y0178976D01*
X0010928Y0179562D01*
X0020024Y0179562D01*
X0020610Y0178976D01*
X0020610Y0169880D01*
X0020610Y0170563D02*
X0031996Y0170563D01*
X0031996Y0171361D02*
X0020610Y0171361D01*
X0020610Y0172160D02*
X0031996Y0172160D01*
X0031996Y0172958D02*
X0020610Y0172958D01*
X0020610Y0173757D02*
X0031996Y0173757D01*
X0031996Y0174555D02*
X0020610Y0174555D01*
X0020610Y0175354D02*
X0031996Y0175354D01*
X0031996Y0176152D02*
X0020610Y0176152D01*
X0020610Y0176951D02*
X0031996Y0176951D01*
X0031996Y0177749D02*
X0020610Y0177749D01*
X0020610Y0178548D02*
X0031996Y0178548D01*
X0032366Y0179346D02*
X0020240Y0179346D01*
X0020024Y0185830D02*
X0020610Y0186416D01*
X0020610Y0195512D01*
X0020024Y0196098D01*
X0010928Y0196098D01*
X0010343Y0195512D01*
X0010343Y0186416D01*
X0010928Y0185830D01*
X0020024Y0185830D01*
X0020610Y0186533D02*
X0031996Y0186533D01*
X0031996Y0186416D02*
X0032582Y0185830D01*
X0041678Y0185830D01*
X0041812Y0185964D01*
X0044506Y0185964D01*
X0044506Y0169260D01*
X0045092Y0168674D01*
X0055586Y0168674D01*
X0055586Y0161979D01*
X0051686Y0161979D01*
X0051100Y0161393D01*
X0051100Y0155446D01*
X0051686Y0154860D01*
X0058253Y0154860D01*
X0058253Y0154498D01*
X0051686Y0154498D01*
X0051100Y0153912D01*
X0051100Y0147966D01*
X0051686Y0147380D01*
X0056153Y0147380D01*
X0056153Y0120259D01*
X0046973Y0111079D01*
X0046153Y0110259D01*
X0046153Y0100974D01*
X0046973Y0100154D01*
X0046973Y0100154D01*
X0052027Y0095101D01*
X0051203Y0094277D01*
X0051203Y0094532D01*
X0050838Y0095414D01*
X0050163Y0096089D01*
X0049281Y0096454D01*
X0048326Y0096454D01*
X0047444Y0096089D01*
X0046769Y0095414D01*
X0046403Y0094532D01*
X0046403Y0093577D01*
X0046769Y0092695D01*
X0047444Y0092020D01*
X0048326Y0091654D01*
X0048581Y0091654D01*
X0047511Y0090585D01*
X0047511Y0089756D01*
X0051716Y0085552D01*
X0052544Y0085552D01*
X0057060Y0090067D01*
X0057316Y0089811D01*
X0052800Y0085295D01*
X0052800Y0084467D01*
X0057005Y0080262D01*
X0057834Y0080262D01*
X0061331Y0083760D01*
X0062293Y0083760D01*
X0059050Y0080517D01*
X0059050Y0079688D01*
X0062804Y0075935D01*
X0062292Y0075935D01*
X0058794Y0079432D01*
X0057966Y0079432D01*
X0053761Y0075227D01*
X0053761Y0074399D01*
X0058523Y0069637D01*
X0059264Y0069637D01*
X0059186Y0069346D01*
X0059186Y0069030D01*
X0059268Y0068725D01*
X0059426Y0068451D01*
X0061343Y0066534D01*
X0063718Y0068910D01*
X0064283Y0068344D01*
X0061908Y0065969D01*
X0063825Y0064052D01*
X0064099Y0063894D01*
X0064404Y0063812D01*
X0064720Y0063812D01*
X0065025Y0063894D01*
X0065299Y0064052D01*
X0066937Y0065690D01*
X0064283Y0068344D01*
X0064849Y0068910D01*
X0064283Y0069475D01*
X0066659Y0071850D01*
X0065375Y0073135D01*
X0065604Y0073135D01*
X0069437Y0069302D01*
X0070265Y0069302D01*
X0074470Y0073506D01*
X0074470Y0074335D01*
X0073045Y0075760D01*
X0073171Y0075887D01*
X0073171Y0075836D01*
X0075312Y0073695D01*
X0075398Y0073695D01*
X0075398Y0073609D01*
X0075479Y0073529D01*
X0075422Y0073471D01*
X0075130Y0073471D01*
X0070925Y0069267D01*
X0070925Y0068438D01*
X0075687Y0063677D01*
X0076515Y0063677D01*
X0080720Y0067881D01*
X0080720Y0068287D01*
X0081994Y0067014D01*
X0082822Y0067014D01*
X0086944Y0071135D01*
X0086944Y0071963D01*
X0084802Y0074105D01*
X0084716Y0074105D01*
X0084716Y0074191D01*
X0084636Y0074271D01*
X0085203Y0074839D01*
X0085203Y0075662D01*
X0085826Y0075404D01*
X0086506Y0075404D01*
X0086403Y0075157D01*
X0086403Y0074202D01*
X0086769Y0073320D01*
X0087444Y0072645D01*
X0087784Y0072504D01*
X0088244Y0072044D01*
X0088163Y0071963D01*
X0088163Y0071135D01*
X0092284Y0067014D01*
X0093113Y0067014D01*
X0095254Y0069155D01*
X0095254Y0069241D01*
X0095340Y0069241D01*
X0097365Y0071266D01*
X0097645Y0070986D01*
X0097175Y0070517D01*
X0097175Y0069688D01*
X0101937Y0064927D01*
X0102765Y0064927D01*
X0103595Y0065756D01*
X0104597Y0064754D01*
X0114549Y0064754D01*
X0115540Y0065745D01*
X0116648Y0064637D01*
X0117476Y0064637D01*
X0117641Y0064802D01*
X0118026Y0064417D01*
X0117308Y0063700D01*
X0117308Y0062871D01*
X0124117Y0056063D01*
X0124945Y0056063D01*
X0128925Y0060043D01*
X0128925Y0060871D01*
X0122117Y0067680D01*
X0121288Y0067680D01*
X0120571Y0066963D01*
X0120186Y0067347D01*
X0121681Y0068842D01*
X0121681Y0069670D01*
X0116919Y0074432D01*
X0116091Y0074432D01*
X0111886Y0070227D01*
X0111886Y0069399D01*
X0112931Y0068354D01*
X0106193Y0068354D01*
X0106970Y0069131D01*
X0106970Y0069960D01*
X0102209Y0074721D01*
X0101380Y0074721D01*
X0100190Y0073531D01*
X0100034Y0073687D01*
X0100116Y0073735D01*
X0100900Y0074518D01*
X0098390Y0077028D01*
X0098602Y0077241D01*
X0098390Y0077453D01*
X0099910Y0078973D01*
X0099910Y0078973D01*
X0100405Y0079468D01*
X0097894Y0081978D01*
X0097111Y0081195D01*
X0096953Y0080921D01*
X0096950Y0080908D01*
X0096937Y0080904D01*
X0096663Y0080746D01*
X0095879Y0079963D01*
X0098390Y0077453D01*
X0098177Y0077241D01*
X0095667Y0079751D01*
X0094884Y0078967D01*
X0094766Y0078762D01*
X0092853Y0080675D01*
X0092853Y0081486D01*
X0092427Y0082515D01*
X0091639Y0083303D01*
X0090610Y0083729D01*
X0089496Y0083729D01*
X0088467Y0083303D01*
X0087703Y0082539D01*
X0087703Y0084099D01*
X0092508Y0088904D01*
X0105104Y0088904D01*
X0103753Y0087553D01*
X0103753Y0087468D01*
X0103667Y0087468D01*
X0101525Y0085326D01*
X0101525Y0085240D01*
X0101440Y0085240D01*
X0099392Y0083193D01*
X0099164Y0083132D01*
X0098890Y0082974D01*
X0098107Y0082190D01*
X0100617Y0079680D01*
X0100405Y0079468D01*
X0100617Y0079256D01*
X0100829Y0079468D01*
X0103339Y0076958D01*
X0104123Y0077741D01*
X0104281Y0078015D01*
X0104336Y0078223D01*
X0104609Y0077950D01*
X0104386Y0077727D01*
X0104386Y0076899D01*
X0109148Y0072137D01*
X0109976Y0072137D01*
X0114181Y0076342D01*
X0114181Y0077170D01*
X0110427Y0080924D01*
X0110940Y0080924D01*
X0114437Y0077427D01*
X0115265Y0077427D01*
X0119470Y0081631D01*
X0119470Y0082460D01*
X0118079Y0083851D01*
X0119007Y0084778D01*
X0120398Y0083387D01*
X0121226Y0083387D01*
X0125431Y0087592D01*
X0125431Y0088420D01*
X0120669Y0093182D01*
X0119841Y0093182D01*
X0115636Y0088977D01*
X0115636Y0088149D01*
X0117027Y0086758D01*
X0116100Y0085831D01*
X0114709Y0087221D01*
X0113880Y0087221D01*
X0110383Y0083724D01*
X0109823Y0083724D01*
X0110844Y0084745D01*
X0110844Y0085573D01*
X0107513Y0088904D01*
X0108848Y0088904D01*
X0109473Y0088279D01*
X0113133Y0088279D01*
X0113953Y0089099D01*
X0113953Y0089099D01*
X0116991Y0092137D01*
X0117476Y0092137D01*
X0121681Y0096342D01*
X0121681Y0097170D01*
X0117556Y0101295D01*
X0118115Y0101249D01*
X0121937Y0097427D01*
X0122765Y0097427D01*
X0126970Y0101631D01*
X0126970Y0102460D01*
X0122209Y0107221D01*
X0121380Y0107221D01*
X0118209Y0104050D01*
X0116991Y0104152D01*
X0120720Y0107881D01*
X0120720Y0108710D01*
X0115959Y0113471D01*
X0115130Y0113471D01*
X0111633Y0109974D01*
X0109806Y0109974D01*
X0109806Y0110295D01*
X0105290Y0114811D01*
X0105405Y0114926D01*
X0107257Y0113074D01*
X0109632Y0115449D01*
X0106979Y0118103D01*
X0105828Y0116952D01*
X0105828Y0119724D01*
X0110258Y0124154D01*
X0111156Y0124154D01*
X0112038Y0124520D01*
X0112713Y0125195D01*
X0113078Y0126077D01*
X0113078Y0127032D01*
X0112713Y0127914D01*
X0112038Y0128589D01*
X0111156Y0128954D01*
X0110201Y0128954D01*
X0109319Y0128589D01*
X0108644Y0127914D01*
X0108278Y0127032D01*
X0108278Y0126134D01*
X0103028Y0120884D01*
X0103028Y0120486D01*
X0101710Y0121804D01*
X0098396Y0121804D01*
X0096053Y0119461D01*
X0096053Y0116147D01*
X0097371Y0114829D01*
X0095324Y0114829D01*
X0094766Y0114846D01*
X0094748Y0114829D01*
X0094723Y0114829D01*
X0094328Y0114434D01*
X0093269Y0113438D01*
X0093113Y0113595D01*
X0092284Y0113595D01*
X0088953Y0110264D01*
X0088953Y0110884D01*
X0088133Y0111704D01*
X0083872Y0115966D01*
X0084053Y0116147D01*
X0084053Y0119461D01*
X0081710Y0121804D01*
X0079783Y0121804D01*
X0081453Y0123474D01*
X0081453Y0123804D01*
X0081710Y0123804D01*
X0083653Y0125748D01*
X0083653Y0122224D01*
X0086235Y0119643D01*
X0086053Y0119461D01*
X0086053Y0116147D01*
X0088396Y0113804D01*
X0091710Y0113804D01*
X0094053Y0116147D01*
X0094053Y0119461D01*
X0091710Y0121804D01*
X0088396Y0121804D01*
X0088215Y0121623D01*
X0086453Y0123384D01*
X0086453Y0125465D01*
X0088313Y0123604D01*
X0089653Y0123604D01*
X0089653Y0127404D01*
X0090453Y0127404D01*
X0090453Y0123604D01*
X0091793Y0123604D01*
X0094253Y0126065D01*
X0094253Y0127404D01*
X0090453Y0127404D01*
X0090453Y0128204D01*
X0094253Y0128204D01*
X0094253Y0129544D01*
X0091793Y0132004D01*
X0090453Y0132004D01*
X0090453Y0128204D01*
X0089653Y0128204D01*
X0089653Y0131674D01*
X0092754Y0134775D01*
X0092653Y0134532D01*
X0092653Y0133577D01*
X0093019Y0132695D01*
X0093694Y0132020D01*
X0094576Y0131654D01*
X0095531Y0131654D01*
X0096413Y0132020D01*
X0097047Y0132654D01*
X0099383Y0132654D01*
X0100203Y0133474D01*
X0105828Y0139099D01*
X0105828Y0145884D01*
X0105008Y0146704D01*
X0104578Y0147134D01*
X0104578Y0148935D01*
X0105213Y0149570D01*
X0105578Y0150452D01*
X0105578Y0151407D01*
X0105213Y0152289D01*
X0104538Y0152964D01*
X0103656Y0153329D01*
X0102701Y0153329D01*
X0101819Y0152964D01*
X0101502Y0152647D01*
X0101142Y0153007D01*
X0099568Y0153007D01*
X0099568Y0157840D01*
X0100258Y0158529D01*
X0101156Y0158529D01*
X0102038Y0158895D01*
X0102713Y0159570D01*
X0103078Y0160452D01*
X0103078Y0161407D01*
X0102713Y0162289D01*
X0102038Y0162964D01*
X0101156Y0163329D01*
X0100201Y0163329D01*
X0099319Y0162964D01*
X0098644Y0162289D01*
X0098278Y0161407D01*
X0098278Y0160509D01*
X0096768Y0158999D01*
X0096768Y0153007D01*
X0095195Y0153007D01*
X0094609Y0152421D01*
X0094609Y0145687D01*
X0095195Y0145102D01*
X0098331Y0145102D01*
X0098019Y0144789D01*
X0097653Y0143907D01*
X0097653Y0143227D01*
X0097406Y0143329D01*
X0096451Y0143329D01*
X0095569Y0142964D01*
X0094934Y0142329D01*
X0092088Y0142329D01*
X0092088Y0145102D01*
X0093661Y0145102D01*
X0094247Y0145687D01*
X0094247Y0152421D01*
X0093661Y0153007D01*
X0087715Y0153007D01*
X0087129Y0152421D01*
X0087129Y0145687D01*
X0087715Y0145102D01*
X0089288Y0145102D01*
X0089288Y0142769D01*
X0081973Y0135454D01*
X0075723Y0135454D01*
X0071892Y0131623D01*
X0071710Y0131804D01*
X0068396Y0131804D01*
X0066053Y0129461D01*
X0066053Y0126147D01*
X0068396Y0123804D01*
X0071710Y0123804D01*
X0073653Y0125748D01*
X0073653Y0123384D01*
X0071892Y0121623D01*
X0071710Y0121804D01*
X0068396Y0121804D01*
X0066053Y0119461D01*
X0066053Y0116147D01*
X0068396Y0113804D01*
X0071710Y0113804D01*
X0071892Y0113986D01*
X0074903Y0110974D01*
X0074903Y0107656D01*
X0075479Y0107080D01*
X0075398Y0106999D01*
X0075398Y0106914D01*
X0075312Y0106914D01*
X0073171Y0104772D01*
X0073171Y0104686D01*
X0073085Y0104686D01*
X0070973Y0102574D01*
X0070973Y0103401D01*
X0074470Y0106899D01*
X0074470Y0107727D01*
X0070265Y0111932D01*
X0069437Y0111932D01*
X0064675Y0107170D01*
X0064675Y0106342D01*
X0068173Y0102845D01*
X0068173Y0101525D01*
X0064015Y0105682D01*
X0063187Y0105682D01*
X0058671Y0101166D01*
X0058415Y0101422D01*
X0062931Y0105938D01*
X0062931Y0106767D01*
X0061818Y0107879D01*
X0062478Y0108539D01*
X0063591Y0107427D01*
X0064419Y0107427D01*
X0069181Y0112188D01*
X0069181Y0113017D01*
X0064976Y0117221D01*
X0064148Y0117221D01*
X0063953Y0117027D01*
X0063953Y0157224D01*
X0071258Y0164529D01*
X0092508Y0164529D01*
X0102758Y0174779D01*
X0103656Y0174779D01*
X0104538Y0175145D01*
X0105213Y0175820D01*
X0105578Y0176702D01*
X0105578Y0177657D01*
X0105213Y0178539D01*
X0105121Y0178630D01*
X0106545Y0178630D01*
X0107131Y0179216D01*
X0107131Y0185162D01*
X0106545Y0185748D01*
X0099811Y0185748D01*
X0099225Y0185162D01*
X0099225Y0179216D01*
X0099811Y0178630D01*
X0101235Y0178630D01*
X0101144Y0178539D01*
X0100778Y0177657D01*
X0100778Y0176759D01*
X0091348Y0167329D01*
X0070098Y0167329D01*
X0069278Y0166509D01*
X0066603Y0163834D01*
X0066603Y0164611D01*
X0066177Y0165640D01*
X0065389Y0166428D01*
X0064360Y0166854D01*
X0063246Y0166854D01*
X0062217Y0166428D01*
X0061429Y0165640D01*
X0061003Y0164611D01*
X0061003Y0163800D01*
X0059308Y0162104D01*
X0058801Y0161598D01*
X0058420Y0161979D01*
X0058386Y0161979D01*
X0058386Y0168674D01*
X0070330Y0168674D01*
X0070915Y0169260D01*
X0070915Y0191348D01*
X0070330Y0191934D01*
X0053152Y0191934D01*
X0049883Y0195203D01*
X0048046Y0195964D01*
X0041812Y0195964D01*
X0041678Y0196098D01*
X0032582Y0196098D01*
X0031996Y0195512D01*
X0031996Y0186416D01*
X0031996Y0187331D02*
X0020610Y0187331D01*
X0020610Y0188130D02*
X0031996Y0188130D01*
X0031996Y0188928D02*
X0020610Y0188928D01*
X0020610Y0189727D02*
X0031996Y0189727D01*
X0031996Y0190525D02*
X0020610Y0190525D01*
X0020610Y0191324D02*
X0031996Y0191324D01*
X0031996Y0192122D02*
X0020610Y0192122D01*
X0020610Y0192921D02*
X0031996Y0192921D01*
X0031996Y0193719D02*
X0020610Y0193719D01*
X0020610Y0194518D02*
X0031996Y0194518D01*
X0031996Y0195316D02*
X0020610Y0195316D01*
X0019768Y0202165D02*
X0020073Y0202247D01*
X0020347Y0202405D01*
X0020570Y0202629D01*
X0020728Y0202902D01*
X0020810Y0203207D01*
X0020810Y0207099D01*
X0015876Y0207099D01*
X0015876Y0202165D01*
X0019768Y0202165D01*
X0020445Y0202503D02*
X0032444Y0202503D01*
X0032582Y0202365D02*
X0041678Y0202365D01*
X0042264Y0202951D01*
X0042264Y0212047D01*
X0041678Y0212633D01*
X0032582Y0212633D01*
X0031996Y0212047D01*
X0031996Y0202951D01*
X0032582Y0202365D01*
X0031996Y0203302D02*
X0020810Y0203302D01*
X0020810Y0204100D02*
X0031996Y0204100D01*
X0031996Y0204899D02*
X0020810Y0204899D01*
X0020810Y0205697D02*
X0031996Y0205697D01*
X0031996Y0206496D02*
X0020810Y0206496D01*
X0020810Y0207899D02*
X0020810Y0211791D01*
X0020728Y0212096D01*
X0020570Y0212370D01*
X0020347Y0212593D01*
X0020073Y0212751D01*
X0019768Y0212833D01*
X0015876Y0212833D01*
X0015876Y0207899D01*
X0015076Y0207899D01*
X0015076Y0207099D01*
X0010143Y0207099D01*
X0010143Y0203207D01*
X0010224Y0202902D01*
X0010382Y0202629D01*
X0010606Y0202405D01*
X0010879Y0202247D01*
X0011185Y0202165D01*
X0015076Y0202165D01*
X0015076Y0207099D01*
X0015876Y0207099D01*
X0015876Y0207899D01*
X0020810Y0207899D01*
X0020810Y0208093D02*
X0031996Y0208093D01*
X0031996Y0208891D02*
X0020810Y0208891D01*
X0020810Y0209690D02*
X0031996Y0209690D01*
X0031996Y0210488D02*
X0020810Y0210488D01*
X0020810Y0211287D02*
X0031996Y0211287D01*
X0032034Y0212085D02*
X0020731Y0212085D01*
X0015876Y0212085D02*
X0015076Y0212085D01*
X0015076Y0212833D02*
X0011185Y0212833D01*
X0010879Y0212751D01*
X0010606Y0212593D01*
X0010382Y0212370D01*
X0010224Y0212096D01*
X0010143Y0211791D01*
X0010143Y0207899D01*
X0015076Y0207899D01*
X0015076Y0212833D01*
X0015076Y0211287D02*
X0015876Y0211287D01*
X0015876Y0210488D02*
X0015076Y0210488D01*
X0015076Y0209690D02*
X0015876Y0209690D01*
X0015876Y0208891D02*
X0015076Y0208891D01*
X0015076Y0208093D02*
X0015876Y0208093D01*
X0015876Y0207294D02*
X0031996Y0207294D01*
X0042264Y0207294D02*
X0199004Y0207294D01*
X0199004Y0206496D02*
X0042264Y0206496D01*
X0042264Y0205697D02*
X0133925Y0205697D01*
X0133925Y0205768D02*
X0134511Y0206354D01*
X0138095Y0206354D01*
X0138681Y0205768D01*
X0138681Y0201002D01*
X0138095Y0200417D01*
X0134511Y0200417D01*
X0133925Y0201002D01*
X0133925Y0205768D01*
X0133925Y0204899D02*
X0042264Y0204899D01*
X0042264Y0204100D02*
X0133925Y0204100D01*
X0133925Y0203302D02*
X0042264Y0203302D01*
X0041816Y0202503D02*
X0133925Y0202503D01*
X0133925Y0201704D02*
X0005453Y0201704D01*
X0005453Y0200906D02*
X0134022Y0200906D01*
X0134099Y0197892D02*
X0132852Y0197892D01*
X0132852Y0195013D01*
X0132274Y0195013D01*
X0132274Y0197892D01*
X0131027Y0197892D01*
X0130722Y0197810D01*
X0130448Y0197652D01*
X0130225Y0197429D01*
X0130067Y0197155D01*
X0129985Y0196850D01*
X0129985Y0195013D01*
X0132274Y0195013D01*
X0132274Y0194435D01*
X0129985Y0194435D01*
X0129985Y0192597D01*
X0130067Y0192292D01*
X0130225Y0192018D01*
X0130448Y0191795D01*
X0130722Y0191637D01*
X0131027Y0191555D01*
X0132274Y0191555D01*
X0132274Y0194435D01*
X0132852Y0194435D01*
X0132852Y0195013D01*
X0135141Y0195013D01*
X0135141Y0196850D01*
X0135059Y0197155D01*
X0134901Y0197429D01*
X0134678Y0197652D01*
X0134404Y0197810D01*
X0134099Y0197892D01*
X0134575Y0197712D02*
X0142817Y0197712D01*
X0143038Y0197933D02*
X0142434Y0197329D01*
X0142198Y0197329D01*
X0141835Y0197692D01*
X0138251Y0197692D01*
X0137665Y0197106D01*
X0137665Y0192341D01*
X0138251Y0191755D01*
X0141835Y0191755D01*
X0142421Y0192341D01*
X0142421Y0194529D01*
X0142434Y0194529D01*
X0143069Y0193895D01*
X0143951Y0193529D01*
X0144906Y0193529D01*
X0145788Y0193895D01*
X0146463Y0194570D01*
X0146828Y0195452D01*
X0146828Y0196407D01*
X0146463Y0197289D01*
X0145865Y0197886D01*
X0146873Y0198894D01*
X0147350Y0198894D01*
X0147350Y0197321D01*
X0147936Y0196735D01*
X0154670Y0196735D01*
X0155256Y0197321D01*
X0155256Y0203268D01*
X0154670Y0203854D01*
X0147936Y0203854D01*
X0147350Y0203268D01*
X0147350Y0201694D01*
X0145713Y0201694D01*
X0144893Y0200874D01*
X0143858Y0199839D01*
X0143038Y0199019D01*
X0143038Y0197933D01*
X0143038Y0198510D02*
X0005453Y0198510D01*
X0005453Y0197712D02*
X0130551Y0197712D01*
X0130002Y0196913D02*
X0005453Y0196913D01*
X0005453Y0196115D02*
X0129985Y0196115D01*
X0129985Y0195316D02*
X0049609Y0195316D01*
X0050568Y0194518D02*
X0132274Y0194518D01*
X0132852Y0194518D02*
X0137665Y0194518D01*
X0137665Y0195316D02*
X0135141Y0195316D01*
X0135141Y0196115D02*
X0137665Y0196115D01*
X0137665Y0196913D02*
X0135124Y0196913D01*
X0132852Y0196913D02*
X0132274Y0196913D01*
X0132274Y0196115D02*
X0132852Y0196115D01*
X0132852Y0195316D02*
X0132274Y0195316D01*
X0132852Y0194435D02*
X0135141Y0194435D01*
X0135141Y0192597D01*
X0135059Y0192292D01*
X0134901Y0192018D01*
X0134678Y0191795D01*
X0134404Y0191637D01*
X0134099Y0191555D01*
X0132852Y0191555D01*
X0132852Y0194435D01*
X0132852Y0193719D02*
X0132274Y0193719D01*
X0132274Y0192921D02*
X0132852Y0192921D01*
X0132852Y0192122D02*
X0132274Y0192122D01*
X0130165Y0192122D02*
X0107131Y0192122D01*
X0107131Y0192643D02*
X0106545Y0193229D01*
X0099811Y0193229D01*
X0099225Y0192643D01*
X0099225Y0191069D01*
X0099006Y0191069D01*
X0099006Y0192643D01*
X0098420Y0193229D01*
X0091686Y0193229D01*
X0091100Y0192643D01*
X0091100Y0190681D01*
X0090600Y0190681D01*
X0090600Y0191663D01*
X0090015Y0192249D01*
X0082887Y0192249D01*
X0082301Y0191663D01*
X0082301Y0186898D01*
X0082887Y0186312D01*
X0090015Y0186312D01*
X0090600Y0186898D01*
X0090600Y0187881D01*
X0091100Y0187881D01*
X0091100Y0186696D01*
X0091686Y0186110D01*
X0098420Y0186110D01*
X0099006Y0186696D01*
X0099006Y0188269D01*
X0099225Y0188269D01*
X0099225Y0186696D01*
X0099811Y0186110D01*
X0106545Y0186110D01*
X0107131Y0186696D01*
X0107131Y0192643D01*
X0106853Y0192921D02*
X0129985Y0192921D01*
X0129985Y0193719D02*
X0051367Y0193719D01*
X0052165Y0192921D02*
X0091379Y0192921D01*
X0091100Y0192122D02*
X0090141Y0192122D01*
X0090600Y0191324D02*
X0091100Y0191324D01*
X0094039Y0189281D02*
X0095053Y0189669D01*
X0103178Y0189669D01*
X0106559Y0185734D02*
X0122795Y0185734D01*
X0122653Y0186077D02*
X0123019Y0185195D01*
X0123534Y0184679D01*
X0123019Y0184164D01*
X0122653Y0183282D01*
X0122653Y0182327D01*
X0123019Y0181445D01*
X0123534Y0180929D01*
X0123019Y0180414D01*
X0122653Y0179532D01*
X0122653Y0178577D01*
X0123019Y0177695D01*
X0123534Y0177179D01*
X0123019Y0176664D01*
X0122653Y0175782D01*
X0122653Y0174827D01*
X0123019Y0173945D01*
X0123653Y0173310D01*
X0123653Y0172224D01*
X0124473Y0171404D01*
X0125723Y0170154D01*
X0126361Y0170154D01*
X0126361Y0169959D01*
X0126947Y0169373D01*
X0135254Y0169373D01*
X0136778Y0167849D01*
X0136778Y0165894D01*
X0136437Y0166235D01*
X0126947Y0166235D01*
X0126361Y0165650D01*
X0126361Y0165454D01*
X0125723Y0165454D01*
X0116723Y0156454D01*
X0115826Y0156454D01*
X0114944Y0156089D01*
X0114269Y0155414D01*
X0113903Y0154532D01*
X0113903Y0153577D01*
X0114269Y0152695D01*
X0114944Y0152020D01*
X0115826Y0151654D01*
X0116781Y0151654D01*
X0117663Y0152020D01*
X0118178Y0152535D01*
X0118694Y0152020D01*
X0119576Y0151654D01*
X0120531Y0151654D01*
X0121413Y0152020D01*
X0122047Y0152654D01*
X0126361Y0152654D01*
X0126361Y0152459D01*
X0126947Y0151873D01*
X0136437Y0151873D01*
X0136778Y0152215D01*
X0136778Y0151177D01*
X0136759Y0151196D01*
X0136486Y0151354D01*
X0136181Y0151435D01*
X0131882Y0151435D01*
X0131882Y0149245D01*
X0131501Y0149245D01*
X0131501Y0148864D01*
X0126161Y0148864D01*
X0126161Y0147715D01*
X0126243Y0147410D01*
X0126401Y0147136D01*
X0126624Y0146913D01*
X0126898Y0146755D01*
X0127203Y0146673D01*
X0130528Y0146673D01*
X0130519Y0146664D01*
X0130153Y0145782D01*
X0130153Y0144827D01*
X0130519Y0143945D01*
X0131153Y0143310D01*
X0131153Y0141599D01*
X0133028Y0139724D01*
X0133028Y0094099D01*
X0135528Y0091599D01*
X0136027Y0091100D01*
X0136144Y0090820D01*
X0136819Y0090145D01*
X0137701Y0089779D01*
X0138656Y0089779D01*
X0139538Y0090145D01*
X0140213Y0090820D01*
X0140578Y0091702D01*
X0140578Y0092657D01*
X0140213Y0093539D01*
X0139538Y0094214D01*
X0138879Y0094487D01*
X0138963Y0094570D01*
X0139328Y0095452D01*
X0139328Y0095924D01*
X0157028Y0078224D01*
X0157028Y0077327D01*
X0157394Y0076445D01*
X0158069Y0075770D01*
X0158951Y0075404D01*
X0159906Y0075404D01*
X0160788Y0075770D01*
X0161422Y0076404D01*
X0161504Y0076404D01*
X0161504Y0074437D01*
X0162090Y0073852D01*
X0168036Y0073852D01*
X0168622Y0074437D01*
X0168622Y0081171D01*
X0168036Y0081757D01*
X0162090Y0081757D01*
X0161504Y0081171D01*
X0161504Y0079204D01*
X0161422Y0079204D01*
X0160788Y0079839D01*
X0159906Y0080204D01*
X0159008Y0080204D01*
X0154058Y0085154D01*
X0157434Y0085154D01*
X0158069Y0084520D01*
X0158951Y0084154D01*
X0159906Y0084154D01*
X0160788Y0084520D01*
X0161422Y0085154D01*
X0161504Y0085154D01*
X0161504Y0083187D01*
X0162090Y0082602D01*
X0168036Y0082602D01*
X0168622Y0083187D01*
X0168622Y0089921D01*
X0168036Y0090507D01*
X0162090Y0090507D01*
X0161504Y0089921D01*
X0161504Y0087954D01*
X0161422Y0087954D01*
X0160788Y0088589D01*
X0159906Y0088954D01*
X0158951Y0088954D01*
X0158069Y0088589D01*
X0157434Y0087954D01*
X0153758Y0087954D01*
X0141141Y0100572D01*
X0141141Y0104737D01*
X0151973Y0093904D01*
X0157434Y0093904D01*
X0158069Y0093270D01*
X0158951Y0092904D01*
X0159906Y0092904D01*
X0160788Y0093270D01*
X0161422Y0093904D01*
X0161504Y0093904D01*
X0161504Y0091937D01*
X0162090Y0091352D01*
X0168036Y0091352D01*
X0168622Y0091937D01*
X0168622Y0098671D01*
X0168036Y0099257D01*
X0162090Y0099257D01*
X0161504Y0098671D01*
X0161504Y0096704D01*
X0161422Y0096704D01*
X0160788Y0097339D01*
X0159906Y0097704D01*
X0158951Y0097704D01*
X0158069Y0097339D01*
X0157434Y0096704D01*
X0153133Y0096704D01*
X0147183Y0102654D01*
X0157434Y0102654D01*
X0158069Y0102020D01*
X0158951Y0101654D01*
X0159906Y0101654D01*
X0160788Y0102020D01*
X0161422Y0102654D01*
X0161504Y0102654D01*
X0161504Y0100687D01*
X0162090Y0100102D01*
X0168036Y0100102D01*
X0168622Y0100687D01*
X0168622Y0107421D01*
X0168036Y0108007D01*
X0162090Y0108007D01*
X0161504Y0107421D01*
X0161504Y0105454D01*
X0161422Y0105454D01*
X0160788Y0106089D01*
X0159906Y0106454D01*
X0158951Y0106454D01*
X0158069Y0106089D01*
X0157434Y0105454D01*
X0146883Y0105454D01*
X0144266Y0108072D01*
X0144266Y0108227D01*
X0149911Y0108227D01*
X0150497Y0108812D01*
X0150497Y0115546D01*
X0149911Y0116132D01*
X0145828Y0116132D01*
X0145828Y0116352D01*
X0149911Y0116352D01*
X0150497Y0116937D01*
X0150497Y0123671D01*
X0149911Y0124257D01*
X0145828Y0124257D01*
X0145828Y0153204D01*
X0146578Y0152454D01*
X0146838Y0152454D01*
X0147419Y0151873D01*
X0156909Y0151873D01*
X0157495Y0152459D01*
X0157495Y0155258D01*
X0160254Y0152499D01*
X0160254Y0150998D01*
X0160163Y0151089D01*
X0159281Y0151454D01*
X0158326Y0151454D01*
X0157444Y0151089D01*
X0157250Y0150895D01*
X0156909Y0151235D01*
X0147419Y0151235D01*
X0146834Y0150650D01*
X0146834Y0147459D01*
X0147419Y0146873D01*
X0156909Y0146873D01*
X0157201Y0147165D01*
X0157198Y0145507D01*
X0155820Y0145507D01*
X0155234Y0144921D01*
X0155234Y0138187D01*
X0155820Y0137602D01*
X0161767Y0137602D01*
X0162352Y0138187D01*
X0162352Y0143133D01*
X0163748Y0144529D01*
X0179383Y0144529D01*
X0181453Y0146599D01*
X0181453Y0147380D01*
X0182795Y0147380D01*
X0183381Y0147966D01*
X0183381Y0153912D01*
X0182795Y0154498D01*
X0176061Y0154498D01*
X0175475Y0153912D01*
X0175475Y0147966D01*
X0176061Y0147380D01*
X0178274Y0147380D01*
X0178223Y0147329D01*
X0174619Y0147329D01*
X0174852Y0147562D01*
X0174852Y0154296D01*
X0174267Y0154882D01*
X0169955Y0154882D01*
X0169736Y0155102D01*
X0174267Y0155102D01*
X0174852Y0155687D01*
X0174852Y0157654D01*
X0175475Y0157654D01*
X0175475Y0155446D01*
X0176061Y0154860D01*
X0182795Y0154860D01*
X0183381Y0155446D01*
X0183381Y0161393D01*
X0182795Y0161979D01*
X0176061Y0161979D01*
X0175475Y0161393D01*
X0175475Y0160454D01*
X0174852Y0160454D01*
X0174852Y0162421D01*
X0174267Y0163007D01*
X0173953Y0163007D01*
X0173953Y0163487D01*
X0174148Y0163487D01*
X0174734Y0164073D01*
X0174734Y0173563D01*
X0174148Y0174149D01*
X0170958Y0174149D01*
X0170372Y0173563D01*
X0170372Y0164073D01*
X0170958Y0163487D01*
X0171153Y0163487D01*
X0171153Y0163007D01*
X0168953Y0163007D01*
X0168953Y0163487D01*
X0169148Y0163487D01*
X0169734Y0164073D01*
X0169734Y0173563D01*
X0169148Y0174149D01*
X0165958Y0174149D01*
X0165372Y0173563D01*
X0165372Y0164073D01*
X0165958Y0163487D01*
X0166153Y0163487D01*
X0166153Y0163007D01*
X0161830Y0163007D01*
X0161350Y0163487D01*
X0164148Y0163487D01*
X0164734Y0164073D01*
X0164734Y0173563D01*
X0164148Y0174149D01*
X0160958Y0174149D01*
X0160372Y0173563D01*
X0160372Y0168154D01*
X0146578Y0168154D01*
X0145828Y0167405D01*
X0145828Y0174724D01*
X0146258Y0175154D01*
X0146834Y0175154D01*
X0146834Y0174959D01*
X0147419Y0174373D01*
X0156909Y0174373D01*
X0157495Y0174959D01*
X0157495Y0178150D01*
X0156909Y0178735D01*
X0147419Y0178735D01*
X0146834Y0178150D01*
X0146834Y0177954D01*
X0146258Y0177954D01*
X0145058Y0179154D01*
X0145531Y0179154D01*
X0146413Y0179520D01*
X0146843Y0179950D01*
X0147419Y0179373D01*
X0156909Y0179373D01*
X0157495Y0179959D01*
X0157495Y0181391D01*
X0159578Y0183474D01*
X0159578Y0191509D01*
X0158758Y0192329D01*
X0156873Y0194214D01*
X0155256Y0194214D01*
X0155256Y0195787D01*
X0154670Y0196373D01*
X0147936Y0196373D01*
X0147350Y0195787D01*
X0147350Y0189841D01*
X0147936Y0189255D01*
X0154670Y0189255D01*
X0155256Y0189841D01*
X0155256Y0191414D01*
X0155713Y0191414D01*
X0156778Y0190349D01*
X0156778Y0188735D01*
X0147419Y0188735D01*
X0146834Y0188150D01*
X0146834Y0187954D01*
X0144547Y0187954D01*
X0143913Y0188589D01*
X0143031Y0188954D01*
X0142076Y0188954D01*
X0141194Y0188589D01*
X0140678Y0188073D01*
X0140163Y0188589D01*
X0139281Y0188954D01*
X0138326Y0188954D01*
X0137444Y0188589D01*
X0137013Y0188159D01*
X0136437Y0188735D01*
X0126947Y0188735D01*
X0126607Y0188395D01*
X0126413Y0188589D01*
X0125531Y0188954D01*
X0124576Y0188954D01*
X0123694Y0188589D01*
X0123019Y0187914D01*
X0122653Y0187032D01*
X0122653Y0186077D01*
X0122653Y0186533D02*
X0106967Y0186533D01*
X0107131Y0187331D02*
X0122777Y0187331D01*
X0123235Y0188130D02*
X0107131Y0188130D01*
X0107131Y0188928D02*
X0124513Y0188928D01*
X0125593Y0188928D02*
X0138263Y0188928D01*
X0139343Y0188928D02*
X0142013Y0188928D01*
X0143093Y0188928D02*
X0156778Y0188928D01*
X0156778Y0189727D02*
X0155142Y0189727D01*
X0155256Y0190525D02*
X0156602Y0190525D01*
X0155804Y0191324D02*
X0155256Y0191324D01*
X0156293Y0192814D02*
X0158178Y0190929D01*
X0158178Y0184054D01*
X0155678Y0181554D01*
X0152164Y0181554D01*
X0152164Y0176554D02*
X0145678Y0176554D01*
X0139428Y0182804D01*
X0139428Y0185929D01*
X0138803Y0186554D01*
X0140622Y0188130D02*
X0140735Y0188130D01*
X0142553Y0186554D02*
X0152164Y0186554D01*
X0157845Y0181742D02*
X0167886Y0181742D01*
X0167087Y0182540D02*
X0158644Y0182540D01*
X0159442Y0183339D02*
X0166289Y0183339D01*
X0166153Y0183474D02*
X0166973Y0182654D01*
X0172598Y0177029D01*
X0175559Y0177029D01*
X0176194Y0176395D01*
X0177076Y0176029D01*
X0178031Y0176029D01*
X0178913Y0176395D01*
X0179588Y0177070D01*
X0179953Y0177952D01*
X0179953Y0178907D01*
X0179588Y0179789D01*
X0179072Y0180304D01*
X0179588Y0180820D01*
X0179953Y0181702D01*
X0179953Y0182657D01*
X0179588Y0183539D01*
X0179253Y0183874D01*
X0179471Y0184000D01*
X0179694Y0184223D01*
X0179852Y0184497D01*
X0179934Y0184802D01*
X0179934Y0189100D01*
X0177744Y0189100D01*
X0177744Y0189481D01*
X0179934Y0189481D01*
X0179934Y0193779D01*
X0179852Y0194084D01*
X0179694Y0194358D01*
X0179471Y0194581D01*
X0179197Y0194739D01*
X0178892Y0194821D01*
X0177744Y0194821D01*
X0177744Y0189481D01*
X0177363Y0189481D01*
X0177363Y0194821D01*
X0176214Y0194821D01*
X0175909Y0194739D01*
X0175635Y0194581D01*
X0175412Y0194358D01*
X0175254Y0194084D01*
X0175172Y0193779D01*
X0175172Y0189481D01*
X0177363Y0189481D01*
X0177363Y0189100D01*
X0175172Y0189100D01*
X0175172Y0184802D01*
X0175254Y0184497D01*
X0175412Y0184223D01*
X0175635Y0184000D01*
X0175853Y0183874D01*
X0175559Y0183579D01*
X0175008Y0183579D01*
X0174388Y0184199D01*
X0174734Y0184546D01*
X0174734Y0194035D01*
X0174148Y0194621D01*
X0170958Y0194621D01*
X0170372Y0194035D01*
X0170372Y0184546D01*
X0170958Y0183960D01*
X0171153Y0183960D01*
X0171153Y0183474D01*
X0171973Y0182654D01*
X0173848Y0180779D01*
X0175559Y0180779D01*
X0176034Y0180304D01*
X0175559Y0179829D01*
X0173758Y0179829D01*
X0169388Y0184199D01*
X0169734Y0184546D01*
X0169734Y0194035D01*
X0169148Y0194621D01*
X0165958Y0194621D01*
X0165372Y0194035D01*
X0165372Y0184546D01*
X0165958Y0183960D01*
X0166153Y0183960D01*
X0166153Y0183474D01*
X0165780Y0184137D02*
X0164326Y0184137D01*
X0164148Y0183960D02*
X0164734Y0184546D01*
X0164734Y0194035D01*
X0164353Y0194417D01*
X0164353Y0195102D01*
X0166786Y0195102D01*
X0167372Y0195687D01*
X0167372Y0202421D01*
X0166786Y0203007D01*
X0160840Y0203007D01*
X0160254Y0202421D01*
X0160254Y0200998D01*
X0160163Y0201089D01*
X0159281Y0201454D01*
X0158326Y0201454D01*
X0157444Y0201089D01*
X0156769Y0200414D01*
X0156403Y0199532D01*
X0156403Y0198577D01*
X0156769Y0197695D01*
X0157444Y0197020D01*
X0158326Y0196654D01*
X0159281Y0196654D01*
X0160163Y0197020D01*
X0160254Y0197111D01*
X0160254Y0195687D01*
X0160753Y0195188D01*
X0160753Y0194417D01*
X0160372Y0194035D01*
X0160372Y0184546D01*
X0160958Y0183960D01*
X0164148Y0183960D01*
X0164734Y0184936D02*
X0165372Y0184936D01*
X0165372Y0185734D02*
X0164734Y0185734D01*
X0164734Y0186533D02*
X0165372Y0186533D01*
X0165372Y0187331D02*
X0164734Y0187331D01*
X0164734Y0188130D02*
X0165372Y0188130D01*
X0165372Y0188928D02*
X0164734Y0188928D01*
X0164734Y0189727D02*
X0165372Y0189727D01*
X0165372Y0190525D02*
X0164734Y0190525D01*
X0164734Y0191324D02*
X0165372Y0191324D01*
X0165372Y0192122D02*
X0164734Y0192122D01*
X0164734Y0192921D02*
X0165372Y0192921D01*
X0165372Y0193719D02*
X0164734Y0193719D01*
X0164353Y0194518D02*
X0165854Y0194518D01*
X0167001Y0195316D02*
X0167822Y0195316D01*
X0167774Y0195365D02*
X0167997Y0195141D01*
X0168271Y0194983D01*
X0168576Y0194902D01*
X0170893Y0194902D01*
X0170893Y0198654D01*
X0171693Y0198654D01*
X0171693Y0194902D01*
X0174010Y0194902D01*
X0174316Y0194983D01*
X0174589Y0195141D01*
X0174813Y0195365D01*
X0174971Y0195638D01*
X0175052Y0195944D01*
X0175052Y0198654D01*
X0171693Y0198654D01*
X0171693Y0199454D01*
X0175052Y0199454D01*
X0175052Y0202165D01*
X0174971Y0202470D01*
X0174813Y0202744D01*
X0174589Y0202967D01*
X0174316Y0203125D01*
X0174010Y0203207D01*
X0171693Y0203207D01*
X0171693Y0199454D01*
X0170893Y0199454D01*
X0170893Y0198654D01*
X0167534Y0198654D01*
X0167534Y0195944D01*
X0167616Y0195638D01*
X0167774Y0195365D01*
X0167534Y0196115D02*
X0167372Y0196115D01*
X0167372Y0196913D02*
X0167534Y0196913D01*
X0167534Y0197712D02*
X0167372Y0197712D01*
X0167372Y0198510D02*
X0167534Y0198510D01*
X0167372Y0199309D02*
X0170893Y0199309D01*
X0170893Y0199454D02*
X0167534Y0199454D01*
X0167534Y0202165D01*
X0167616Y0202470D01*
X0167774Y0202744D01*
X0167997Y0202967D01*
X0168271Y0203125D01*
X0168576Y0203207D01*
X0170893Y0203207D01*
X0170893Y0199454D01*
X0170893Y0200107D02*
X0171693Y0200107D01*
X0171693Y0199309D02*
X0199004Y0199309D01*
X0199004Y0200107D02*
X0175052Y0200107D01*
X0175052Y0200906D02*
X0199004Y0200906D01*
X0199004Y0201704D02*
X0175052Y0201704D01*
X0174952Y0202503D02*
X0199004Y0202503D01*
X0199004Y0203302D02*
X0155222Y0203302D01*
X0155256Y0202503D02*
X0160336Y0202503D01*
X0160254Y0201704D02*
X0155256Y0201704D01*
X0155256Y0200906D02*
X0157261Y0200906D01*
X0156642Y0200107D02*
X0155256Y0200107D01*
X0155256Y0199309D02*
X0156403Y0199309D01*
X0156431Y0198510D02*
X0155256Y0198510D01*
X0155256Y0197712D02*
X0156761Y0197712D01*
X0157700Y0196913D02*
X0154848Y0196913D01*
X0154928Y0196115D02*
X0160254Y0196115D01*
X0160254Y0196913D02*
X0159906Y0196913D01*
X0160625Y0195316D02*
X0155256Y0195316D01*
X0155256Y0194518D02*
X0160753Y0194518D01*
X0160372Y0193719D02*
X0157368Y0193719D01*
X0158166Y0192921D02*
X0160372Y0192921D01*
X0160372Y0192122D02*
X0158965Y0192122D01*
X0159578Y0191324D02*
X0160372Y0191324D01*
X0160372Y0190525D02*
X0159578Y0190525D01*
X0159578Y0189727D02*
X0160372Y0189727D01*
X0160372Y0188928D02*
X0159578Y0188928D01*
X0159578Y0188130D02*
X0160372Y0188130D01*
X0160372Y0187331D02*
X0159578Y0187331D01*
X0159578Y0186533D02*
X0160372Y0186533D01*
X0160372Y0185734D02*
X0159578Y0185734D01*
X0159578Y0184936D02*
X0160372Y0184936D01*
X0160780Y0184137D02*
X0159578Y0184137D01*
X0157495Y0180943D02*
X0168684Y0180943D01*
X0169483Y0180145D02*
X0157495Y0180145D01*
X0157097Y0178548D02*
X0171080Y0178548D01*
X0170281Y0179346D02*
X0145994Y0179346D01*
X0145665Y0178548D02*
X0147232Y0178548D01*
X0145678Y0176554D02*
X0144428Y0175304D01*
X0144428Y0120304D01*
X0146938Y0120304D01*
X0144428Y0120304D02*
X0144428Y0114689D01*
X0146938Y0112179D01*
X0145828Y0116264D02*
X0151343Y0116264D01*
X0151396Y0116233D02*
X0151701Y0116152D01*
X0154018Y0116152D01*
X0154018Y0119904D01*
X0154818Y0119904D01*
X0154818Y0116152D01*
X0157135Y0116152D01*
X0157441Y0116233D01*
X0157714Y0116391D01*
X0157938Y0116615D01*
X0158096Y0116888D01*
X0158177Y0117194D01*
X0158177Y0119904D01*
X0154818Y0119904D01*
X0154818Y0120704D01*
X0158177Y0120704D01*
X0158177Y0123415D01*
X0158096Y0123720D01*
X0157938Y0123994D01*
X0157714Y0124217D01*
X0157441Y0124375D01*
X0157135Y0124457D01*
X0154818Y0124457D01*
X0154818Y0120704D01*
X0154018Y0120704D01*
X0154018Y0119904D01*
X0150659Y0119904D01*
X0150659Y0117194D01*
X0150741Y0116888D01*
X0150899Y0116615D01*
X0151122Y0116391D01*
X0151396Y0116233D01*
X0151445Y0116132D02*
X0150859Y0115546D01*
X0150859Y0108812D01*
X0151445Y0108227D01*
X0154743Y0108227D01*
X0154820Y0108180D01*
X0155005Y0108227D01*
X0157392Y0108227D01*
X0157439Y0108274D01*
X0158069Y0107645D01*
X0158951Y0107279D01*
X0159906Y0107279D01*
X0160788Y0107645D01*
X0161417Y0108274D01*
X0161465Y0108227D01*
X0162167Y0108227D01*
X0162187Y0108211D01*
X0162293Y0108227D01*
X0167411Y0108227D01*
X0167997Y0108812D01*
X0167997Y0115546D01*
X0167411Y0116132D01*
X0161465Y0116132D01*
X0160879Y0115546D01*
X0160879Y0111623D01*
X0160788Y0111714D01*
X0159906Y0112079D01*
X0158951Y0112079D01*
X0158069Y0111714D01*
X0157977Y0111623D01*
X0157977Y0115546D01*
X0157392Y0116132D01*
X0151445Y0116132D01*
X0150859Y0115465D02*
X0150497Y0115465D01*
X0150497Y0114667D02*
X0150859Y0114667D01*
X0150859Y0113868D02*
X0150497Y0113868D01*
X0150497Y0113070D02*
X0150859Y0113070D01*
X0150859Y0112271D02*
X0150497Y0112271D01*
X0150497Y0111473D02*
X0150859Y0111473D01*
X0150859Y0110674D02*
X0150497Y0110674D01*
X0150497Y0109876D02*
X0150859Y0109876D01*
X0150859Y0109077D02*
X0150497Y0109077D01*
X0149963Y0108279D02*
X0151393Y0108279D01*
X0155043Y0109679D02*
X0154418Y0112179D01*
X0155043Y0109679D02*
X0159428Y0109679D01*
X0162563Y0109679D01*
X0164438Y0112179D01*
X0167997Y0112271D02*
X0171518Y0112271D01*
X0171518Y0112579D02*
X0168159Y0112579D01*
X0168159Y0115290D01*
X0168241Y0115595D01*
X0168399Y0115869D01*
X0168622Y0116092D01*
X0168896Y0116250D01*
X0169201Y0116332D01*
X0171518Y0116332D01*
X0171518Y0112579D01*
X0171518Y0113070D02*
X0172318Y0113070D01*
X0172318Y0113868D02*
X0171518Y0113868D01*
X0171518Y0114667D02*
X0172318Y0114667D01*
X0172318Y0115465D02*
X0171518Y0115465D01*
X0171518Y0116264D02*
X0172318Y0116264D01*
X0173815Y0117062D02*
X0158142Y0117062D01*
X0158177Y0117861D02*
X0173017Y0117861D01*
X0172403Y0118659D02*
X0158177Y0118659D01*
X0158177Y0119458D02*
X0172403Y0119458D01*
X0172403Y0120256D02*
X0154818Y0120256D01*
X0154818Y0119458D02*
X0154018Y0119458D01*
X0154018Y0120256D02*
X0150497Y0120256D01*
X0150659Y0120704D02*
X0154018Y0120704D01*
X0154018Y0124457D01*
X0151701Y0124457D01*
X0151396Y0124375D01*
X0151122Y0124217D01*
X0150899Y0123994D01*
X0150741Y0123720D01*
X0150659Y0123415D01*
X0150659Y0120704D01*
X0150659Y0121055D02*
X0150497Y0121055D01*
X0150497Y0121853D02*
X0150659Y0121853D01*
X0150659Y0122652D02*
X0150497Y0122652D01*
X0150497Y0123450D02*
X0150669Y0123450D01*
X0151177Y0124249D02*
X0149919Y0124249D01*
X0154018Y0124249D02*
X0154818Y0124249D01*
X0154818Y0123450D02*
X0154018Y0123450D01*
X0154018Y0122652D02*
X0154818Y0122652D01*
X0154818Y0121853D02*
X0154018Y0121853D01*
X0154018Y0121055D02*
X0154818Y0121055D01*
X0154818Y0118659D02*
X0154018Y0118659D01*
X0154018Y0117861D02*
X0154818Y0117861D01*
X0154818Y0117062D02*
X0154018Y0117062D01*
X0154018Y0116264D02*
X0154818Y0116264D01*
X0157493Y0116264D02*
X0168946Y0116264D01*
X0168206Y0115465D02*
X0167997Y0115465D01*
X0167997Y0114667D02*
X0168159Y0114667D01*
X0168159Y0113868D02*
X0167997Y0113868D01*
X0167997Y0113070D02*
X0168159Y0113070D01*
X0168159Y0111779D02*
X0168159Y0109069D01*
X0168241Y0108763D01*
X0168399Y0108490D01*
X0168622Y0108266D01*
X0168896Y0108108D01*
X0169201Y0108027D01*
X0169350Y0108027D01*
X0169247Y0107967D01*
X0169024Y0107744D01*
X0168866Y0107470D01*
X0168784Y0107165D01*
X0168784Y0104454D01*
X0172143Y0104454D01*
X0172143Y0108207D01*
X0171518Y0108207D01*
X0171518Y0111779D01*
X0168159Y0111779D01*
X0168159Y0111473D02*
X0167997Y0111473D01*
X0167997Y0110674D02*
X0168159Y0110674D01*
X0168159Y0109876D02*
X0167997Y0109876D01*
X0167997Y0109077D02*
X0168159Y0109077D01*
X0168610Y0108279D02*
X0167463Y0108279D01*
X0168563Y0107480D02*
X0168872Y0107480D01*
X0168784Y0106682D02*
X0168622Y0106682D01*
X0168622Y0105883D02*
X0168784Y0105883D01*
X0168784Y0105085D02*
X0168622Y0105085D01*
X0168622Y0104286D02*
X0172143Y0104286D01*
X0172143Y0103654D02*
X0168784Y0103654D01*
X0168784Y0100944D01*
X0168866Y0100638D01*
X0169024Y0100365D01*
X0169247Y0100141D01*
X0169521Y0099983D01*
X0169826Y0099902D01*
X0172143Y0099902D01*
X0172143Y0103654D01*
X0172143Y0103488D02*
X0172943Y0103488D01*
X0172943Y0102689D02*
X0172143Y0102689D01*
X0172143Y0101891D02*
X0172943Y0101891D01*
X0172943Y0101092D02*
X0172143Y0101092D01*
X0172143Y0100294D02*
X0172943Y0100294D01*
X0172143Y0099457D02*
X0169826Y0099457D01*
X0169521Y0099375D01*
X0169247Y0099217D01*
X0169024Y0098994D01*
X0168866Y0098720D01*
X0168784Y0098415D01*
X0168784Y0095704D01*
X0172143Y0095704D01*
X0172143Y0099457D01*
X0172143Y0098697D02*
X0172943Y0098697D01*
X0172943Y0097898D02*
X0172143Y0097898D01*
X0172143Y0097100D02*
X0172943Y0097100D01*
X0172943Y0096301D02*
X0172143Y0096301D01*
X0172143Y0095502D02*
X0168622Y0095502D01*
X0168784Y0094904D02*
X0168784Y0092194D01*
X0168866Y0091888D01*
X0169024Y0091615D01*
X0169247Y0091391D01*
X0169521Y0091233D01*
X0169826Y0091152D01*
X0172143Y0091152D01*
X0172143Y0094904D01*
X0168784Y0094904D01*
X0168784Y0094704D02*
X0168622Y0094704D01*
X0168622Y0093905D02*
X0168784Y0093905D01*
X0168784Y0093107D02*
X0168622Y0093107D01*
X0168622Y0092308D02*
X0168784Y0092308D01*
X0169129Y0091510D02*
X0168195Y0091510D01*
X0169247Y0090467D02*
X0169024Y0090244D01*
X0168866Y0089970D01*
X0168784Y0089665D01*
X0168784Y0086954D01*
X0172143Y0086954D01*
X0172143Y0090707D01*
X0169826Y0090707D01*
X0169521Y0090625D01*
X0169247Y0090467D01*
X0168851Y0089913D02*
X0168622Y0089913D01*
X0168622Y0089114D02*
X0168784Y0089114D01*
X0168784Y0088316D02*
X0168622Y0088316D01*
X0168622Y0087517D02*
X0168784Y0087517D01*
X0168622Y0086719D02*
X0172143Y0086719D01*
X0172143Y0086154D02*
X0168784Y0086154D01*
X0168784Y0083444D01*
X0168866Y0083138D01*
X0169024Y0082865D01*
X0169247Y0082641D01*
X0169521Y0082483D01*
X0169826Y0082402D01*
X0172143Y0082402D01*
X0172143Y0086154D01*
X0172143Y0085920D02*
X0172943Y0085920D01*
X0172943Y0085122D02*
X0172143Y0085122D01*
X0172143Y0084323D02*
X0172943Y0084323D01*
X0172943Y0083525D02*
X0172143Y0083525D01*
X0172143Y0082726D02*
X0172943Y0082726D01*
X0172943Y0081928D02*
X0172143Y0081928D01*
X0172143Y0081957D02*
X0169826Y0081957D01*
X0169521Y0081875D01*
X0169247Y0081717D01*
X0169024Y0081494D01*
X0168866Y0081220D01*
X0168784Y0080915D01*
X0168784Y0078204D01*
X0172143Y0078204D01*
X0172143Y0081957D01*
X0172143Y0081129D02*
X0172943Y0081129D01*
X0172943Y0080331D02*
X0172143Y0080331D01*
X0172143Y0079532D02*
X0172943Y0079532D01*
X0172943Y0078734D02*
X0172143Y0078734D01*
X0172143Y0077935D02*
X0168622Y0077935D01*
X0168784Y0077404D02*
X0168784Y0074694D01*
X0168866Y0074388D01*
X0169024Y0074115D01*
X0169247Y0073891D01*
X0169521Y0073733D01*
X0169826Y0073652D01*
X0172143Y0073652D01*
X0172143Y0077404D01*
X0168784Y0077404D01*
X0168784Y0077137D02*
X0168622Y0077137D01*
X0168622Y0076338D02*
X0168784Y0076338D01*
X0168784Y0075540D02*
X0168622Y0075540D01*
X0168622Y0074741D02*
X0168784Y0074741D01*
X0169196Y0073943D02*
X0168127Y0073943D01*
X0168015Y0073144D02*
X0174653Y0073144D01*
X0172943Y0073943D02*
X0172143Y0073943D01*
X0172143Y0074741D02*
X0172943Y0074741D01*
X0172943Y0075540D02*
X0172143Y0075540D01*
X0172143Y0076338D02*
X0172943Y0076338D01*
X0172943Y0077137D02*
X0172143Y0077137D01*
X0168784Y0078734D02*
X0168622Y0078734D01*
X0168622Y0079532D02*
X0168784Y0079532D01*
X0168784Y0080331D02*
X0168622Y0080331D01*
X0168622Y0081129D02*
X0168842Y0081129D01*
X0169717Y0081928D02*
X0157285Y0081928D01*
X0158083Y0081129D02*
X0161504Y0081129D01*
X0161504Y0080331D02*
X0158882Y0080331D01*
X0161094Y0079532D02*
X0161504Y0079532D01*
X0159428Y0077804D02*
X0138178Y0099054D01*
X0138178Y0168429D01*
X0135053Y0171554D01*
X0131692Y0171554D01*
X0126303Y0171554D01*
X0125053Y0172804D01*
X0125053Y0175304D01*
X0122653Y0175354D02*
X0104747Y0175354D01*
X0105350Y0176152D02*
X0122807Y0176152D01*
X0123305Y0176951D02*
X0105578Y0176951D01*
X0105540Y0177749D02*
X0122996Y0177749D01*
X0122665Y0178548D02*
X0105204Y0178548D01*
X0107131Y0179346D02*
X0122653Y0179346D01*
X0122907Y0180145D02*
X0107131Y0180145D01*
X0107131Y0180943D02*
X0123520Y0180943D01*
X0122896Y0181742D02*
X0107131Y0181742D01*
X0107131Y0182540D02*
X0122653Y0182540D01*
X0122677Y0183339D02*
X0107131Y0183339D01*
X0107131Y0184137D02*
X0123008Y0184137D01*
X0123278Y0184936D02*
X0107131Y0184936D01*
X0107131Y0189727D02*
X0147464Y0189727D01*
X0147350Y0190525D02*
X0107131Y0190525D01*
X0107131Y0191324D02*
X0147350Y0191324D01*
X0147350Y0192122D02*
X0142203Y0192122D01*
X0142421Y0192921D02*
X0147350Y0192921D01*
X0147350Y0193719D02*
X0145364Y0193719D01*
X0146411Y0194518D02*
X0147350Y0194518D01*
X0147350Y0195316D02*
X0146772Y0195316D01*
X0146828Y0196115D02*
X0147678Y0196115D01*
X0147758Y0196913D02*
X0146618Y0196913D01*
X0146040Y0197712D02*
X0147350Y0197712D01*
X0147350Y0198510D02*
X0146489Y0198510D01*
X0146293Y0200294D02*
X0144438Y0198439D01*
X0144438Y0195929D01*
X0144428Y0195929D01*
X0140043Y0195929D01*
X0140043Y0194724D01*
X0142421Y0194518D02*
X0142445Y0194518D01*
X0142421Y0193719D02*
X0143492Y0193719D01*
X0143328Y0199309D02*
X0005453Y0199309D01*
X0005453Y0200107D02*
X0144126Y0200107D01*
X0143858Y0199839D02*
X0143858Y0199839D01*
X0144893Y0200874D02*
X0144893Y0200874D01*
X0144925Y0200906D02*
X0138585Y0200906D01*
X0138681Y0201704D02*
X0147350Y0201704D01*
X0147350Y0202503D02*
X0138681Y0202503D01*
X0138681Y0203302D02*
X0147384Y0203302D01*
X0146293Y0200294D02*
X0151303Y0200294D01*
X0151303Y0192814D02*
X0156293Y0192814D01*
X0146834Y0188130D02*
X0144372Y0188130D01*
X0137884Y0192122D02*
X0134961Y0192122D01*
X0135141Y0192921D02*
X0137665Y0192921D01*
X0137665Y0193719D02*
X0135141Y0193719D01*
X0132852Y0197712D02*
X0132274Y0197712D01*
X0138681Y0204100D02*
X0199004Y0204100D01*
X0199004Y0204899D02*
X0138681Y0204899D01*
X0138681Y0205697D02*
X0199004Y0205697D01*
X0199004Y0208093D02*
X0042264Y0208093D01*
X0042264Y0208891D02*
X0199004Y0208891D01*
X0199004Y0209690D02*
X0042264Y0209690D01*
X0042264Y0210488D02*
X0199004Y0210488D01*
X0198973Y0211287D02*
X0042264Y0211287D01*
X0042226Y0212085D02*
X0198860Y0212085D01*
X0198600Y0212884D02*
X0005856Y0212884D01*
X0006116Y0213682D02*
X0198341Y0213682D01*
X0197780Y0214481D02*
X0006677Y0214481D01*
X0007257Y0215279D02*
X0197200Y0215279D01*
X0196118Y0216078D02*
X0008339Y0216078D01*
X0010162Y0216876D02*
X0194295Y0216876D01*
X0194573Y0198510D02*
X0175052Y0198510D01*
X0175052Y0197712D02*
X0192484Y0197712D01*
X0191616Y0196913D02*
X0175052Y0196913D01*
X0175052Y0196115D02*
X0191101Y0196115D01*
X0190782Y0195316D02*
X0174764Y0195316D01*
X0174252Y0194518D02*
X0175572Y0194518D01*
X0175172Y0193719D02*
X0174734Y0193719D01*
X0174734Y0192921D02*
X0175172Y0192921D01*
X0175172Y0192122D02*
X0174734Y0192122D01*
X0174734Y0191324D02*
X0175172Y0191324D01*
X0175172Y0190525D02*
X0174734Y0190525D01*
X0174734Y0189727D02*
X0175172Y0189727D01*
X0175172Y0188928D02*
X0174734Y0188928D01*
X0174734Y0188130D02*
X0175172Y0188130D01*
X0175172Y0187331D02*
X0174734Y0187331D01*
X0174734Y0186533D02*
X0175172Y0186533D01*
X0175172Y0185734D02*
X0174734Y0185734D01*
X0174734Y0184936D02*
X0175172Y0184936D01*
X0175498Y0184137D02*
X0174450Y0184137D01*
X0172553Y0184054D02*
X0174428Y0182179D01*
X0177553Y0182179D01*
X0179671Y0183339D02*
X0199004Y0183339D01*
X0199004Y0184137D02*
X0179609Y0184137D01*
X0179934Y0184936D02*
X0199004Y0184936D01*
X0199004Y0185734D02*
X0179934Y0185734D01*
X0179934Y0186533D02*
X0183289Y0186533D01*
X0183327Y0186517D02*
X0182640Y0186802D01*
X0182022Y0187215D01*
X0181496Y0187741D01*
X0181083Y0188359D01*
X0180798Y0189046D01*
X0180656Y0189759D01*
X0184041Y0189759D01*
X0184816Y0189759D01*
X0184816Y0190534D01*
X0188200Y0190534D01*
X0188058Y0191248D01*
X0187773Y0191935D01*
X0187360Y0192553D01*
X0186834Y0193079D01*
X0186216Y0193492D01*
X0185529Y0193777D01*
X0184816Y0193919D01*
X0184816Y0190534D01*
X0184041Y0190534D01*
X0184041Y0189759D01*
X0184041Y0186375D01*
X0183327Y0186517D01*
X0184041Y0186533D02*
X0184816Y0186533D01*
X0184816Y0186375D02*
X0185529Y0186517D01*
X0186216Y0186802D01*
X0186834Y0187215D01*
X0187360Y0187741D01*
X0187773Y0188359D01*
X0188058Y0189046D01*
X0188200Y0189759D01*
X0184816Y0189759D01*
X0184816Y0186375D01*
X0185567Y0186533D02*
X0199004Y0186533D01*
X0199004Y0187331D02*
X0186951Y0187331D01*
X0187620Y0188130D02*
X0199004Y0188130D01*
X0199004Y0188928D02*
X0188009Y0188928D01*
X0188193Y0189727D02*
X0194133Y0189727D01*
X0194658Y0189727D02*
X0195458Y0189727D01*
X0195983Y0189727D02*
X0199004Y0189727D01*
X0199004Y0190525D02*
X0197728Y0190525D01*
X0198551Y0191324D02*
X0199004Y0191324D01*
X0195458Y0191324D02*
X0194658Y0191324D01*
X0194658Y0192122D02*
X0195458Y0192122D01*
X0195458Y0192921D02*
X0194658Y0192921D01*
X0194658Y0193719D02*
X0185667Y0193719D01*
X0184816Y0193719D02*
X0184041Y0193719D01*
X0184041Y0193919D02*
X0183327Y0193777D01*
X0182640Y0193492D01*
X0182022Y0193079D01*
X0181496Y0192553D01*
X0181083Y0191935D01*
X0180798Y0191248D01*
X0180656Y0190534D01*
X0184041Y0190534D01*
X0184041Y0193919D01*
X0183189Y0193719D02*
X0179934Y0193719D01*
X0179934Y0192921D02*
X0181864Y0192921D01*
X0181208Y0192122D02*
X0179934Y0192122D01*
X0179934Y0191324D02*
X0180830Y0191324D01*
X0179934Y0190525D02*
X0184041Y0190525D01*
X0184816Y0190525D02*
X0192389Y0190525D01*
X0191565Y0191324D02*
X0188026Y0191324D01*
X0187648Y0192122D02*
X0191065Y0192122D01*
X0190759Y0192921D02*
X0186992Y0192921D01*
X0184816Y0192921D02*
X0184041Y0192921D01*
X0184041Y0192122D02*
X0184816Y0192122D01*
X0184816Y0191324D02*
X0184041Y0191324D01*
X0184041Y0189727D02*
X0184816Y0189727D01*
X0184816Y0188928D02*
X0184041Y0188928D01*
X0184041Y0188130D02*
X0184816Y0188130D01*
X0184816Y0187331D02*
X0184041Y0187331D01*
X0181905Y0187331D02*
X0179934Y0187331D01*
X0179934Y0188130D02*
X0181236Y0188130D01*
X0180847Y0188928D02*
X0179934Y0188928D01*
X0179934Y0189727D02*
X0180663Y0189727D01*
X0177744Y0189727D02*
X0177363Y0189727D01*
X0177363Y0190525D02*
X0177744Y0190525D01*
X0177744Y0191324D02*
X0177363Y0191324D01*
X0177363Y0192122D02*
X0177744Y0192122D01*
X0177744Y0192921D02*
X0177363Y0192921D01*
X0177363Y0193719D02*
X0177744Y0193719D01*
X0177744Y0194518D02*
X0177363Y0194518D01*
X0179535Y0194518D02*
X0190623Y0194518D01*
X0194658Y0194518D02*
X0195458Y0194518D01*
X0195458Y0195316D02*
X0194658Y0195316D01*
X0194658Y0196115D02*
X0195458Y0196115D01*
X0195458Y0196913D02*
X0194658Y0196913D01*
X0194658Y0197712D02*
X0195458Y0197712D01*
X0195458Y0198510D02*
X0194658Y0198510D01*
X0195543Y0198510D02*
X0199004Y0198510D01*
X0199004Y0197712D02*
X0197632Y0197712D01*
X0198500Y0196913D02*
X0199004Y0196913D01*
X0195458Y0190525D02*
X0194658Y0190525D01*
X0199004Y0182540D02*
X0179953Y0182540D01*
X0179953Y0181742D02*
X0199004Y0181742D01*
X0199004Y0180943D02*
X0179639Y0180943D01*
X0179232Y0180145D02*
X0199004Y0180145D01*
X0199004Y0179346D02*
X0179771Y0179346D01*
X0179953Y0178548D02*
X0199004Y0178548D01*
X0199004Y0177749D02*
X0179869Y0177749D01*
X0179469Y0176951D02*
X0199004Y0176951D01*
X0199004Y0176152D02*
X0178327Y0176152D01*
X0176779Y0176152D02*
X0157495Y0176152D01*
X0157495Y0175354D02*
X0199004Y0175354D01*
X0199004Y0174555D02*
X0157091Y0174555D01*
X0156958Y0173854D02*
X0156653Y0173935D01*
X0152355Y0173935D01*
X0152355Y0171745D01*
X0151974Y0171745D01*
X0151974Y0173935D01*
X0147676Y0173935D01*
X0147370Y0173854D01*
X0147097Y0173696D01*
X0146873Y0173472D01*
X0146715Y0173199D01*
X0146634Y0172893D01*
X0146634Y0171745D01*
X0151974Y0171745D01*
X0151974Y0171364D01*
X0146634Y0171364D01*
X0146634Y0170215D01*
X0146715Y0169910D01*
X0146873Y0169636D01*
X0147097Y0169413D01*
X0147370Y0169255D01*
X0147676Y0169173D01*
X0151974Y0169173D01*
X0151974Y0171364D01*
X0152355Y0171364D01*
X0152355Y0171745D01*
X0157695Y0171745D01*
X0157695Y0172893D01*
X0157613Y0173199D01*
X0157455Y0173472D01*
X0157232Y0173696D01*
X0156958Y0173854D01*
X0157126Y0173757D02*
X0160566Y0173757D01*
X0160372Y0172958D02*
X0157678Y0172958D01*
X0157695Y0172160D02*
X0160372Y0172160D01*
X0160372Y0171361D02*
X0157695Y0171361D01*
X0157695Y0171364D02*
X0152355Y0171364D01*
X0152355Y0169173D01*
X0156653Y0169173D01*
X0156958Y0169255D01*
X0157232Y0169413D01*
X0157455Y0169636D01*
X0157613Y0169910D01*
X0157695Y0170215D01*
X0157695Y0171364D01*
X0157695Y0170563D02*
X0160372Y0170563D01*
X0160372Y0169764D02*
X0157529Y0169764D01*
X0160372Y0168966D02*
X0145828Y0168966D01*
X0145828Y0169764D02*
X0146800Y0169764D01*
X0146634Y0170563D02*
X0145828Y0170563D01*
X0145828Y0171361D02*
X0146634Y0171361D01*
X0146634Y0172160D02*
X0145828Y0172160D01*
X0145828Y0172958D02*
X0146651Y0172958D01*
X0147202Y0173757D02*
X0145828Y0173757D01*
X0145828Y0174555D02*
X0147238Y0174555D01*
X0151974Y0173757D02*
X0152355Y0173757D01*
X0152355Y0172958D02*
X0151974Y0172958D01*
X0151974Y0172160D02*
X0152355Y0172160D01*
X0152355Y0171361D02*
X0151974Y0171361D01*
X0151974Y0170563D02*
X0152355Y0170563D01*
X0152355Y0169764D02*
X0151974Y0169764D01*
X0152164Y0164054D02*
X0158803Y0164054D01*
X0163803Y0159054D01*
X0163813Y0159054D01*
X0166153Y0163376D02*
X0161461Y0163376D01*
X0164734Y0164174D02*
X0165372Y0164174D01*
X0165372Y0164973D02*
X0164734Y0164973D01*
X0164734Y0165771D02*
X0165372Y0165771D01*
X0165372Y0166570D02*
X0164734Y0166570D01*
X0164734Y0167369D02*
X0165372Y0167369D01*
X0165372Y0168167D02*
X0164734Y0168167D01*
X0164734Y0168966D02*
X0165372Y0168966D01*
X0165372Y0169764D02*
X0164734Y0169764D01*
X0164734Y0170563D02*
X0165372Y0170563D01*
X0165372Y0171361D02*
X0164734Y0171361D01*
X0164734Y0172160D02*
X0165372Y0172160D01*
X0165372Y0172958D02*
X0164734Y0172958D01*
X0164541Y0173757D02*
X0165566Y0173757D01*
X0169541Y0173757D02*
X0170566Y0173757D01*
X0170372Y0172958D02*
X0169734Y0172958D01*
X0169734Y0172160D02*
X0170372Y0172160D01*
X0170372Y0171361D02*
X0169734Y0171361D01*
X0169734Y0170563D02*
X0170372Y0170563D01*
X0170372Y0169764D02*
X0169734Y0169764D01*
X0169734Y0168966D02*
X0170372Y0168966D01*
X0170372Y0168167D02*
X0169734Y0168167D01*
X0169734Y0167369D02*
X0170372Y0167369D01*
X0170372Y0166570D02*
X0169734Y0166570D01*
X0169734Y0165771D02*
X0170372Y0165771D01*
X0170372Y0164973D02*
X0169734Y0164973D01*
X0169734Y0164174D02*
X0170372Y0164174D01*
X0171153Y0163376D02*
X0168953Y0163376D01*
X0172553Y0160294D02*
X0171293Y0159054D01*
X0179418Y0159054D01*
X0179428Y0158419D01*
X0183381Y0158585D02*
X0199004Y0158585D01*
X0199004Y0159383D02*
X0183381Y0159383D01*
X0183381Y0160182D02*
X0199004Y0160182D01*
X0199004Y0160980D02*
X0183381Y0160980D01*
X0182995Y0161779D02*
X0199004Y0161779D01*
X0199004Y0162577D02*
X0197109Y0162577D01*
X0198200Y0163376D02*
X0199004Y0163376D01*
X0199004Y0164174D02*
X0198848Y0164174D01*
X0195458Y0164174D02*
X0194658Y0164174D01*
X0194658Y0163376D02*
X0195458Y0163376D01*
X0195458Y0162577D02*
X0194658Y0162577D01*
X0193008Y0162577D02*
X0174696Y0162577D01*
X0174852Y0161779D02*
X0175862Y0161779D01*
X0175475Y0160980D02*
X0174852Y0160980D01*
X0173953Y0163376D02*
X0175897Y0163376D01*
X0175909Y0163369D02*
X0176214Y0163287D01*
X0177363Y0163287D01*
X0177363Y0168627D01*
X0177744Y0168627D01*
X0177744Y0163287D01*
X0178892Y0163287D01*
X0179197Y0163369D01*
X0179471Y0163527D01*
X0179694Y0163751D01*
X0179852Y0164024D01*
X0179934Y0164329D01*
X0179934Y0168628D01*
X0177744Y0168628D01*
X0177744Y0169009D01*
X0177363Y0169009D01*
X0177363Y0174349D01*
X0176214Y0174349D01*
X0175909Y0174267D01*
X0175635Y0174109D01*
X0175412Y0173886D01*
X0175254Y0173612D01*
X0175172Y0173307D01*
X0175172Y0169009D01*
X0177363Y0169009D01*
X0177363Y0168628D01*
X0175172Y0168628D01*
X0175172Y0164329D01*
X0175254Y0164024D01*
X0175412Y0163751D01*
X0175635Y0163527D01*
X0175909Y0163369D01*
X0175214Y0164174D02*
X0174734Y0164174D01*
X0174734Y0164973D02*
X0175172Y0164973D01*
X0175172Y0165771D02*
X0174734Y0165771D01*
X0174734Y0166570D02*
X0175172Y0166570D01*
X0175172Y0167369D02*
X0174734Y0167369D01*
X0174734Y0168167D02*
X0175172Y0168167D01*
X0174734Y0168966D02*
X0177363Y0168966D01*
X0177744Y0168966D02*
X0180962Y0168966D01*
X0181083Y0168674D02*
X0181496Y0168056D01*
X0182022Y0167530D01*
X0182640Y0167117D01*
X0183327Y0166832D01*
X0184041Y0166690D01*
X0184041Y0170074D01*
X0184816Y0170074D01*
X0184816Y0170849D01*
X0188200Y0170849D01*
X0188058Y0171563D01*
X0187773Y0172250D01*
X0187360Y0172868D01*
X0186834Y0173394D01*
X0186216Y0173807D01*
X0185529Y0174092D01*
X0184816Y0174233D01*
X0184816Y0170849D01*
X0184041Y0170849D01*
X0184041Y0170074D01*
X0180656Y0170074D01*
X0180798Y0169361D01*
X0181083Y0168674D01*
X0181422Y0168167D02*
X0179934Y0168167D01*
X0179934Y0167369D02*
X0182263Y0167369D01*
X0184041Y0167369D02*
X0184816Y0167369D01*
X0184816Y0166690D02*
X0185529Y0166832D01*
X0186216Y0167117D01*
X0186834Y0167530D01*
X0187360Y0168056D01*
X0187773Y0168674D01*
X0188058Y0169361D01*
X0188200Y0170074D01*
X0184816Y0170074D01*
X0184816Y0166690D01*
X0184816Y0168167D02*
X0184041Y0168167D01*
X0184041Y0168966D02*
X0184816Y0168966D01*
X0184816Y0169764D02*
X0184041Y0169764D01*
X0184041Y0170563D02*
X0179934Y0170563D01*
X0180656Y0170849D02*
X0184041Y0170849D01*
X0184041Y0174233D01*
X0183327Y0174092D01*
X0182640Y0173807D01*
X0182022Y0173394D01*
X0181496Y0172868D01*
X0181083Y0172250D01*
X0180798Y0171563D01*
X0180656Y0170849D01*
X0180758Y0171361D02*
X0179934Y0171361D01*
X0179934Y0172160D02*
X0181046Y0172160D01*
X0181586Y0172958D02*
X0179934Y0172958D01*
X0179934Y0173307D02*
X0179852Y0173612D01*
X0179694Y0173886D01*
X0179471Y0174109D01*
X0179197Y0174267D01*
X0178892Y0174349D01*
X0177744Y0174349D01*
X0177744Y0169009D01*
X0179934Y0169009D01*
X0179934Y0173307D01*
X0179769Y0173757D02*
X0182565Y0173757D01*
X0184041Y0173757D02*
X0184816Y0173757D01*
X0184816Y0172958D02*
X0184041Y0172958D01*
X0184041Y0172160D02*
X0184816Y0172160D01*
X0184816Y0171361D02*
X0184041Y0171361D01*
X0184816Y0170563D02*
X0193185Y0170563D01*
X0192007Y0169764D02*
X0188138Y0169764D01*
X0187894Y0168966D02*
X0191333Y0168966D01*
X0190915Y0168167D02*
X0187435Y0168167D01*
X0186593Y0167369D02*
X0190688Y0167369D01*
X0190674Y0165771D02*
X0179934Y0165771D01*
X0179934Y0164973D02*
X0190885Y0164973D01*
X0191268Y0164174D02*
X0179893Y0164174D01*
X0179209Y0163376D02*
X0191916Y0163376D01*
X0194658Y0164973D02*
X0195458Y0164973D01*
X0195458Y0165771D02*
X0194658Y0165771D01*
X0194658Y0166570D02*
X0179934Y0166570D01*
X0177744Y0166570D02*
X0177363Y0166570D01*
X0177363Y0167369D02*
X0177744Y0167369D01*
X0177744Y0168167D02*
X0177363Y0168167D01*
X0177363Y0169764D02*
X0177744Y0169764D01*
X0177744Y0170563D02*
X0177363Y0170563D01*
X0177363Y0171361D02*
X0177744Y0171361D01*
X0177744Y0172160D02*
X0177363Y0172160D01*
X0177363Y0172958D02*
X0177744Y0172958D01*
X0177744Y0173757D02*
X0177363Y0173757D01*
X0175337Y0173757D02*
X0174541Y0173757D01*
X0174734Y0172958D02*
X0175172Y0172958D01*
X0175172Y0172160D02*
X0174734Y0172160D01*
X0174734Y0171361D02*
X0175172Y0171361D01*
X0175172Y0170563D02*
X0174734Y0170563D01*
X0174734Y0169764D02*
X0175172Y0169764D01*
X0172553Y0168818D02*
X0172553Y0160294D01*
X0174852Y0156988D02*
X0175475Y0156988D01*
X0175475Y0156189D02*
X0174852Y0156189D01*
X0174556Y0155391D02*
X0175531Y0155391D01*
X0174556Y0154592D02*
X0199004Y0154592D01*
X0199004Y0153794D02*
X0183381Y0153794D01*
X0183381Y0152995D02*
X0186740Y0152995D01*
X0186882Y0153054D02*
X0185412Y0152445D01*
X0184287Y0151320D01*
X0183678Y0149850D01*
X0183678Y0148259D01*
X0184287Y0146789D01*
X0185412Y0145663D01*
X0186882Y0145054D01*
X0194474Y0145054D01*
X0195944Y0145663D01*
X0197069Y0146789D01*
X0197678Y0148259D01*
X0197678Y0149850D01*
X0197069Y0151320D01*
X0195944Y0152445D01*
X0194474Y0153054D01*
X0186882Y0153054D01*
X0185164Y0152197D02*
X0183381Y0152197D01*
X0183381Y0151398D02*
X0184365Y0151398D01*
X0183989Y0150600D02*
X0183381Y0150600D01*
X0183381Y0149801D02*
X0183678Y0149801D01*
X0183678Y0149003D02*
X0183381Y0149003D01*
X0183381Y0148204D02*
X0183701Y0148204D01*
X0184031Y0147406D02*
X0182821Y0147406D01*
X0181453Y0146607D02*
X0184468Y0146607D01*
X0185267Y0145809D02*
X0180662Y0145809D01*
X0179864Y0145010D02*
X0199004Y0145010D01*
X0199004Y0144212D02*
X0163431Y0144212D01*
X0162632Y0143413D02*
X0199004Y0143413D01*
X0199004Y0142615D02*
X0195535Y0142615D01*
X0195944Y0142445D02*
X0194474Y0143054D01*
X0186882Y0143054D01*
X0185412Y0142445D01*
X0184287Y0141320D01*
X0183678Y0139850D01*
X0183678Y0138259D01*
X0184287Y0136789D01*
X0185412Y0135663D01*
X0186882Y0135054D01*
X0194474Y0135054D01*
X0195944Y0135663D01*
X0197069Y0136789D01*
X0197678Y0138259D01*
X0197678Y0139850D01*
X0197069Y0141320D01*
X0195944Y0142445D01*
X0196573Y0141816D02*
X0199004Y0141816D01*
X0199004Y0141018D02*
X0197194Y0141018D01*
X0197525Y0140219D02*
X0199004Y0140219D01*
X0199004Y0139421D02*
X0197678Y0139421D01*
X0197678Y0138622D02*
X0199004Y0138622D01*
X0199004Y0137824D02*
X0197498Y0137824D01*
X0197167Y0137025D02*
X0199004Y0137025D01*
X0199004Y0136227D02*
X0196507Y0136227D01*
X0195376Y0135428D02*
X0199004Y0135428D01*
X0199004Y0134630D02*
X0181522Y0134630D01*
X0182184Y0135428D02*
X0185980Y0135428D01*
X0184849Y0136227D02*
X0182453Y0136227D01*
X0182453Y0137025D02*
X0184189Y0137025D01*
X0183858Y0137824D02*
X0182125Y0137824D01*
X0181333Y0138622D02*
X0183678Y0138622D01*
X0183678Y0139421D02*
X0179115Y0139421D01*
X0178532Y0140219D02*
X0183831Y0140219D01*
X0184162Y0141018D02*
X0162352Y0141018D01*
X0162352Y0141816D02*
X0184783Y0141816D01*
X0185821Y0142615D02*
X0162352Y0142615D01*
X0162352Y0140219D02*
X0175324Y0140219D01*
X0174741Y0139421D02*
X0162352Y0139421D01*
X0162352Y0138622D02*
X0174528Y0138622D01*
X0174581Y0137824D02*
X0161989Y0137824D01*
X0158793Y0141554D02*
X0163168Y0145929D01*
X0178803Y0145929D01*
X0180053Y0147179D01*
X0180053Y0152814D01*
X0179428Y0150939D01*
X0175475Y0150600D02*
X0174852Y0150600D01*
X0174852Y0151398D02*
X0175475Y0151398D01*
X0175475Y0152197D02*
X0174852Y0152197D01*
X0174852Y0152995D02*
X0175475Y0152995D01*
X0175475Y0153794D02*
X0174852Y0153794D01*
X0174852Y0149801D02*
X0175475Y0149801D01*
X0175475Y0149003D02*
X0174852Y0149003D01*
X0174852Y0148204D02*
X0175475Y0148204D01*
X0176036Y0147406D02*
X0174696Y0147406D01*
X0171293Y0150929D02*
X0171293Y0151564D01*
X0167553Y0155304D01*
X0167553Y0168818D01*
X0160372Y0168167D02*
X0145828Y0168167D01*
X0139741Y0171867D02*
X0135053Y0176554D01*
X0131692Y0176554D01*
X0128803Y0176554D01*
X0126303Y0179054D01*
X0125053Y0179054D01*
X0126303Y0181554D02*
X0125053Y0182804D01*
X0126303Y0181554D02*
X0131692Y0181554D01*
X0135053Y0181554D01*
X0141303Y0175304D01*
X0141303Y0106554D01*
X0152553Y0095304D01*
X0159428Y0095304D01*
X0165063Y0095304D01*
X0168622Y0096301D02*
X0168784Y0096301D01*
X0168784Y0097100D02*
X0168622Y0097100D01*
X0168622Y0097898D02*
X0168784Y0097898D01*
X0168860Y0098697D02*
X0168597Y0098697D01*
X0168228Y0100294D02*
X0169095Y0100294D01*
X0168784Y0101092D02*
X0168622Y0101092D01*
X0168622Y0101891D02*
X0168784Y0101891D01*
X0168784Y0102689D02*
X0168622Y0102689D01*
X0168622Y0103488D02*
X0168784Y0103488D01*
X0172143Y0105085D02*
X0172943Y0105085D01*
X0172943Y0105883D02*
X0172143Y0105883D01*
X0172143Y0106682D02*
X0172943Y0106682D01*
X0172943Y0107480D02*
X0172143Y0107480D01*
X0172318Y0108279D02*
X0171518Y0108279D01*
X0171518Y0109077D02*
X0172318Y0109077D01*
X0172318Y0109876D02*
X0171518Y0109876D01*
X0171518Y0110674D02*
X0172318Y0110674D01*
X0172318Y0111473D02*
X0171518Y0111473D01*
X0175678Y0112804D02*
X0176928Y0111554D01*
X0176928Y0073439D01*
X0172543Y0069054D01*
X0172543Y0065294D01*
X0170678Y0063429D01*
X0160678Y0063429D01*
X0157553Y0060304D01*
X0155820Y0061965D02*
X0127831Y0061965D01*
X0127033Y0062764D02*
X0130286Y0062764D01*
X0130551Y0062498D02*
X0131380Y0062498D01*
X0135360Y0066478D01*
X0135360Y0067306D01*
X0128551Y0074114D01*
X0127723Y0074114D01*
X0123743Y0070134D01*
X0123743Y0069306D01*
X0130551Y0062498D01*
X0131646Y0062764D02*
X0158032Y0062764D01*
X0158831Y0063562D02*
X0132444Y0063562D01*
X0133243Y0064361D02*
X0159629Y0064361D01*
X0161544Y0065365D02*
X0161767Y0065141D01*
X0162041Y0064983D01*
X0162346Y0064902D01*
X0164663Y0064902D01*
X0164663Y0068654D01*
X0165463Y0068654D01*
X0165463Y0064902D01*
X0167780Y0064902D01*
X0168085Y0064983D01*
X0168359Y0065141D01*
X0168582Y0065365D01*
X0168740Y0065638D01*
X0168822Y0065944D01*
X0168822Y0068654D01*
X0165463Y0068654D01*
X0165463Y0069454D01*
X0168822Y0069454D01*
X0168822Y0072165D01*
X0168740Y0072470D01*
X0168582Y0072744D01*
X0168359Y0072967D01*
X0168085Y0073125D01*
X0167780Y0073207D01*
X0165463Y0073207D01*
X0165463Y0069454D01*
X0164663Y0069454D01*
X0164663Y0068654D01*
X0161304Y0068654D01*
X0161304Y0065944D01*
X0161386Y0065638D01*
X0161544Y0065365D01*
X0161749Y0065159D02*
X0134041Y0065159D01*
X0134840Y0065958D02*
X0161304Y0065958D01*
X0161304Y0066756D02*
X0135360Y0066756D01*
X0135111Y0067555D02*
X0161304Y0067555D01*
X0161304Y0068353D02*
X0134313Y0068353D01*
X0133514Y0069152D02*
X0136767Y0069152D01*
X0136986Y0068932D02*
X0137815Y0068932D01*
X0141794Y0072912D01*
X0141794Y0073741D01*
X0134986Y0080549D01*
X0134158Y0080549D01*
X0130178Y0076569D01*
X0130178Y0075741D01*
X0136986Y0068932D01*
X0138034Y0069152D02*
X0164663Y0069152D01*
X0164663Y0069454D02*
X0161304Y0069454D01*
X0161304Y0072165D01*
X0161386Y0072470D01*
X0161544Y0072744D01*
X0161767Y0072967D01*
X0162041Y0073125D01*
X0162346Y0073207D01*
X0164663Y0073207D01*
X0164663Y0069454D01*
X0164663Y0069950D02*
X0165463Y0069950D01*
X0165463Y0069152D02*
X0168984Y0069152D01*
X0168984Y0069950D02*
X0168822Y0069950D01*
X0168822Y0070749D02*
X0168984Y0070749D01*
X0168984Y0071547D02*
X0168822Y0071547D01*
X0168774Y0072346D02*
X0168984Y0072346D01*
X0165463Y0072346D02*
X0164663Y0072346D01*
X0164663Y0073144D02*
X0165463Y0073144D01*
X0165463Y0071547D02*
X0164663Y0071547D01*
X0164663Y0070749D02*
X0165463Y0070749D01*
X0165463Y0068353D02*
X0164663Y0068353D01*
X0164663Y0067555D02*
X0165463Y0067555D01*
X0165463Y0066756D02*
X0164663Y0066756D01*
X0164663Y0065958D02*
X0165463Y0065958D01*
X0165463Y0065159D02*
X0164663Y0065159D01*
X0164663Y0061957D02*
X0162346Y0061957D01*
X0162041Y0061875D01*
X0161767Y0061717D01*
X0161544Y0061494D01*
X0161386Y0061220D01*
X0161304Y0060915D01*
X0161304Y0058204D01*
X0164663Y0058204D01*
X0164663Y0057404D01*
X0165463Y0057404D01*
X0165463Y0053652D01*
X0167780Y0053652D01*
X0168085Y0053733D01*
X0168359Y0053891D01*
X0168582Y0054115D01*
X0168740Y0054388D01*
X0168822Y0054694D01*
X0168822Y0057404D01*
X0165463Y0057404D01*
X0165463Y0058204D01*
X0168822Y0058204D01*
X0168822Y0060915D01*
X0168740Y0061220D01*
X0168582Y0061494D01*
X0168359Y0061717D01*
X0168085Y0061875D01*
X0167780Y0061957D01*
X0165463Y0061957D01*
X0165463Y0058204D01*
X0164663Y0058204D01*
X0164663Y0061957D01*
X0164663Y0061166D02*
X0165463Y0061166D01*
X0165463Y0060368D02*
X0164663Y0060368D01*
X0164663Y0059569D02*
X0165463Y0059569D01*
X0165463Y0058771D02*
X0164663Y0058771D01*
X0164663Y0057972D02*
X0158195Y0057972D01*
X0156911Y0057972D02*
X0151604Y0057972D01*
X0152382Y0057194D02*
X0149491Y0060086D01*
X0149217Y0060244D01*
X0148912Y0060325D01*
X0148596Y0060325D01*
X0148291Y0060244D01*
X0148017Y0060086D01*
X0143177Y0055246D01*
X0146805Y0051618D01*
X0146240Y0051052D01*
X0146805Y0050486D01*
X0141229Y0044910D01*
X0144120Y0042019D01*
X0144394Y0041861D01*
X0144699Y0041779D01*
X0145015Y0041779D01*
X0145320Y0041861D01*
X0145594Y0042019D01*
X0150433Y0046858D01*
X0146805Y0050486D01*
X0147371Y0051052D01*
X0150999Y0047424D01*
X0155839Y0052264D01*
X0155997Y0052538D01*
X0156079Y0052843D01*
X0156079Y0053159D01*
X0155997Y0053464D01*
X0155839Y0053738D01*
X0152948Y0056629D01*
X0147371Y0051052D01*
X0146805Y0051618D01*
X0152382Y0057194D01*
X0152362Y0057174D02*
X0161304Y0057174D01*
X0161304Y0057404D02*
X0161304Y0054694D01*
X0161386Y0054388D01*
X0161544Y0054115D01*
X0161767Y0053891D01*
X0162041Y0053733D01*
X0162346Y0053652D01*
X0164663Y0053652D01*
X0164663Y0057404D01*
X0161304Y0057404D01*
X0161304Y0056375D02*
X0153201Y0056375D01*
X0152694Y0056375D02*
X0151563Y0056375D01*
X0151896Y0055577D02*
X0150765Y0055577D01*
X0151097Y0054778D02*
X0149966Y0054778D01*
X0150299Y0053980D02*
X0149168Y0053980D01*
X0149500Y0053181D02*
X0148369Y0053181D01*
X0148702Y0052383D02*
X0147571Y0052383D01*
X0147903Y0051584D02*
X0146839Y0051584D01*
X0146772Y0051584D02*
X0145707Y0051584D01*
X0146240Y0051052D02*
X0142612Y0054680D01*
X0137772Y0049840D01*
X0137614Y0049567D01*
X0137532Y0049261D01*
X0137532Y0048945D01*
X0137614Y0048640D01*
X0137772Y0048367D01*
X0140663Y0045475D01*
X0146240Y0051052D01*
X0145974Y0050786D02*
X0146506Y0050786D01*
X0147105Y0050786D02*
X0147637Y0050786D01*
X0147304Y0049987D02*
X0148436Y0049987D01*
X0148103Y0049189D02*
X0149234Y0049189D01*
X0148901Y0048390D02*
X0150033Y0048390D01*
X0149700Y0047592D02*
X0150831Y0047592D01*
X0151167Y0047592D02*
X0176504Y0047592D01*
X0176504Y0048390D02*
X0165283Y0048390D01*
X0163803Y0050304D02*
X0168803Y0050304D01*
X0172543Y0054044D01*
X0172543Y0057804D01*
X0178803Y0064064D01*
X0178803Y0112179D01*
X0177553Y0113429D01*
X0177553Y0117804D01*
X0175678Y0119679D01*
X0175678Y0134679D01*
X0175053Y0135304D01*
X0172837Y0136227D02*
X0145828Y0136227D01*
X0145828Y0137025D02*
X0173380Y0137025D01*
X0172653Y0135428D02*
X0145828Y0135428D01*
X0145828Y0134630D02*
X0170984Y0134630D01*
X0170381Y0133831D02*
X0145828Y0133831D01*
X0145828Y0133033D02*
X0170153Y0133033D01*
X0170192Y0132234D02*
X0145828Y0132234D01*
X0145828Y0131435D02*
X0170528Y0131435D01*
X0171514Y0130637D02*
X0145828Y0130637D01*
X0145828Y0129838D02*
X0172403Y0129838D01*
X0172403Y0129040D02*
X0145828Y0129040D01*
X0145828Y0128241D02*
X0172403Y0128241D01*
X0172403Y0127443D02*
X0145828Y0127443D01*
X0145828Y0126644D02*
X0172403Y0126644D01*
X0172403Y0125846D02*
X0145828Y0125846D01*
X0145828Y0125047D02*
X0172403Y0125047D01*
X0172403Y0124249D02*
X0157659Y0124249D01*
X0158168Y0123450D02*
X0172403Y0123450D01*
X0172403Y0122652D02*
X0158177Y0122652D01*
X0158177Y0121853D02*
X0172403Y0121853D01*
X0172403Y0121055D02*
X0158177Y0121055D01*
X0157977Y0115465D02*
X0160879Y0115465D01*
X0160879Y0114667D02*
X0157977Y0114667D01*
X0157977Y0113868D02*
X0160879Y0113868D01*
X0160879Y0113070D02*
X0157977Y0113070D01*
X0157977Y0112271D02*
X0160879Y0112271D01*
X0160390Y0107480D02*
X0161563Y0107480D01*
X0161504Y0106682D02*
X0145656Y0106682D01*
X0144857Y0107480D02*
X0158466Y0107480D01*
X0157863Y0105883D02*
X0146454Y0105883D01*
X0146303Y0104054D02*
X0142866Y0107492D01*
X0142866Y0176867D01*
X0137553Y0182179D01*
X0137553Y0184054D01*
X0135053Y0186554D01*
X0131692Y0186554D01*
X0125053Y0186554D01*
X0122766Y0174555D02*
X0102534Y0174555D01*
X0101735Y0173757D02*
X0123207Y0173757D01*
X0123653Y0172958D02*
X0100937Y0172958D01*
X0100138Y0172160D02*
X0123718Y0172160D01*
X0124517Y0171361D02*
X0099340Y0171361D01*
X0098541Y0170563D02*
X0125315Y0170563D01*
X0126556Y0169764D02*
X0097743Y0169764D01*
X0096944Y0168966D02*
X0135662Y0168966D01*
X0136461Y0168167D02*
X0096146Y0168167D01*
X0095347Y0167369D02*
X0136778Y0167369D01*
X0136778Y0166570D02*
X0094549Y0166570D01*
X0093750Y0165771D02*
X0126483Y0165771D01*
X0125242Y0164973D02*
X0092952Y0164973D01*
X0091928Y0165929D02*
X0103178Y0177179D01*
X0103178Y0182189D01*
X0101152Y0178548D02*
X0098531Y0178548D01*
X0098469Y0178512D02*
X0098743Y0178670D01*
X0098966Y0178893D01*
X0099124Y0179167D01*
X0099206Y0179472D01*
X0099206Y0181789D01*
X0095453Y0181789D01*
X0095453Y0178430D01*
X0098164Y0178430D01*
X0098469Y0178512D01*
X0099172Y0179346D02*
X0099225Y0179346D01*
X0099206Y0180145D02*
X0099225Y0180145D01*
X0099206Y0180943D02*
X0099225Y0180943D01*
X0099206Y0181742D02*
X0099225Y0181742D01*
X0099225Y0182540D02*
X0095453Y0182540D01*
X0095453Y0182589D02*
X0099206Y0182589D01*
X0099206Y0184906D01*
X0099124Y0185211D01*
X0098966Y0185485D01*
X0098743Y0185708D01*
X0098469Y0185866D01*
X0098164Y0185948D01*
X0095453Y0185948D01*
X0095453Y0182589D01*
X0095453Y0181789D01*
X0094653Y0181789D01*
X0094653Y0178430D01*
X0091942Y0178430D01*
X0091637Y0178512D01*
X0091364Y0178670D01*
X0091140Y0178893D01*
X0090982Y0179167D01*
X0090900Y0179472D01*
X0090900Y0181789D01*
X0094653Y0181789D01*
X0094653Y0182589D01*
X0090900Y0182589D01*
X0090900Y0184906D01*
X0090982Y0185211D01*
X0091140Y0185485D01*
X0091364Y0185708D01*
X0091637Y0185866D01*
X0091942Y0185948D01*
X0094653Y0185948D01*
X0094653Y0182589D01*
X0095453Y0182589D01*
X0095453Y0183339D02*
X0094653Y0183339D01*
X0094653Y0184137D02*
X0095453Y0184137D01*
X0095453Y0184936D02*
X0094653Y0184936D01*
X0094653Y0185734D02*
X0095453Y0185734D01*
X0094039Y0189281D02*
X0086451Y0189281D01*
X0090235Y0186533D02*
X0091264Y0186533D01*
X0091408Y0185734D02*
X0070915Y0185734D01*
X0070915Y0184936D02*
X0090908Y0184936D01*
X0090900Y0184137D02*
X0070915Y0184137D01*
X0070915Y0183339D02*
X0090900Y0183339D01*
X0090900Y0181742D02*
X0070915Y0181742D01*
X0070915Y0182540D02*
X0094653Y0182540D01*
X0094653Y0181742D02*
X0095453Y0181742D01*
X0095453Y0180943D02*
X0094653Y0180943D01*
X0094653Y0180145D02*
X0095453Y0180145D01*
X0095453Y0179346D02*
X0094653Y0179346D01*
X0094653Y0178548D02*
X0095453Y0178548D01*
X0091575Y0178548D02*
X0070915Y0178548D01*
X0070915Y0179346D02*
X0090934Y0179346D01*
X0090900Y0180145D02*
X0070915Y0180145D01*
X0070915Y0180943D02*
X0090900Y0180943D01*
X0091100Y0187331D02*
X0090600Y0187331D01*
X0082666Y0186533D02*
X0070915Y0186533D01*
X0070915Y0187331D02*
X0082301Y0187331D01*
X0082301Y0188130D02*
X0070915Y0188130D01*
X0070915Y0188928D02*
X0082301Y0188928D01*
X0082301Y0189727D02*
X0070915Y0189727D01*
X0070915Y0190525D02*
X0082301Y0190525D01*
X0082301Y0191324D02*
X0070915Y0191324D01*
X0082760Y0192122D02*
X0052964Y0192122D01*
X0044506Y0185734D02*
X0005453Y0185734D01*
X0005453Y0184936D02*
X0044506Y0184936D01*
X0044506Y0184137D02*
X0005453Y0184137D01*
X0005453Y0183339D02*
X0044506Y0183339D01*
X0044506Y0182540D02*
X0005453Y0182540D01*
X0005453Y0181742D02*
X0044506Y0181742D01*
X0044506Y0180943D02*
X0005453Y0180943D01*
X0005453Y0180145D02*
X0044506Y0180145D01*
X0044506Y0179346D02*
X0041894Y0179346D01*
X0042264Y0178548D02*
X0044506Y0178548D01*
X0044506Y0177749D02*
X0042264Y0177749D01*
X0042264Y0176951D02*
X0044506Y0176951D01*
X0044506Y0176152D02*
X0042264Y0176152D01*
X0042264Y0175354D02*
X0044506Y0175354D01*
X0044506Y0174555D02*
X0042264Y0174555D01*
X0042264Y0173757D02*
X0044506Y0173757D01*
X0044506Y0172958D02*
X0042264Y0172958D01*
X0042264Y0172160D02*
X0044506Y0172160D01*
X0044506Y0171361D02*
X0042264Y0171361D01*
X0042264Y0170563D02*
X0044506Y0170563D01*
X0044506Y0169764D02*
X0042148Y0169764D01*
X0044801Y0168966D02*
X0005453Y0168966D01*
X0005453Y0169764D02*
X0010459Y0169764D01*
X0010343Y0170563D02*
X0005453Y0170563D01*
X0005453Y0171361D02*
X0010343Y0171361D01*
X0010343Y0172160D02*
X0005453Y0172160D01*
X0005453Y0172958D02*
X0010343Y0172958D01*
X0010343Y0173757D02*
X0005453Y0173757D01*
X0005453Y0174555D02*
X0010343Y0174555D01*
X0010343Y0175354D02*
X0005453Y0175354D01*
X0005453Y0176152D02*
X0010343Y0176152D01*
X0010343Y0176951D02*
X0005453Y0176951D01*
X0005453Y0177749D02*
X0010343Y0177749D01*
X0010343Y0178548D02*
X0005453Y0178548D01*
X0005453Y0179346D02*
X0010712Y0179346D01*
X0010343Y0186533D02*
X0005453Y0186533D01*
X0005453Y0187331D02*
X0010343Y0187331D01*
X0010343Y0188130D02*
X0005453Y0188130D01*
X0005453Y0188928D02*
X0010343Y0188928D01*
X0010343Y0189727D02*
X0005453Y0189727D01*
X0005453Y0190525D02*
X0010343Y0190525D01*
X0010343Y0191324D02*
X0005453Y0191324D01*
X0005453Y0192122D02*
X0010343Y0192122D01*
X0010343Y0192921D02*
X0005453Y0192921D01*
X0005453Y0193719D02*
X0010343Y0193719D01*
X0010343Y0194518D02*
X0005453Y0194518D01*
X0005453Y0195316D02*
X0010343Y0195316D01*
X0010508Y0202503D02*
X0005453Y0202503D01*
X0005453Y0203302D02*
X0010143Y0203302D01*
X0010143Y0204100D02*
X0005453Y0204100D01*
X0005453Y0204899D02*
X0010143Y0204899D01*
X0010143Y0205697D02*
X0005453Y0205697D01*
X0005453Y0206496D02*
X0010143Y0206496D01*
X0010143Y0208093D02*
X0005453Y0208093D01*
X0005453Y0208891D02*
X0010143Y0208891D01*
X0010143Y0209690D02*
X0005453Y0209690D01*
X0005453Y0210488D02*
X0010143Y0210488D01*
X0010143Y0211287D02*
X0005483Y0211287D01*
X0005597Y0212085D02*
X0010221Y0212085D01*
X0005453Y0207294D02*
X0015076Y0207294D01*
X0015076Y0206496D02*
X0015876Y0206496D01*
X0015876Y0205697D02*
X0015076Y0205697D01*
X0015076Y0204899D02*
X0015876Y0204899D01*
X0015876Y0204100D02*
X0015076Y0204100D01*
X0015076Y0203302D02*
X0015876Y0203302D01*
X0015876Y0202503D02*
X0015076Y0202503D01*
X0005453Y0168167D02*
X0055586Y0168167D01*
X0055586Y0167369D02*
X0005453Y0167369D01*
X0005453Y0166570D02*
X0055586Y0166570D01*
X0055586Y0165771D02*
X0005453Y0165771D01*
X0005453Y0164973D02*
X0055586Y0164973D01*
X0055586Y0164174D02*
X0005453Y0164174D01*
X0005453Y0163376D02*
X0055586Y0163376D01*
X0055586Y0162577D02*
X0042127Y0162577D01*
X0042264Y0161779D02*
X0051487Y0161779D01*
X0051100Y0160980D02*
X0042264Y0160980D01*
X0042264Y0160182D02*
X0051100Y0160182D01*
X0051100Y0159383D02*
X0042264Y0159383D01*
X0042264Y0158585D02*
X0051100Y0158585D01*
X0051100Y0157786D02*
X0042264Y0157786D01*
X0042264Y0156988D02*
X0051100Y0156988D01*
X0051100Y0156189D02*
X0042264Y0156189D01*
X0042264Y0155391D02*
X0051156Y0155391D01*
X0051100Y0153794D02*
X0042264Y0153794D01*
X0042264Y0154592D02*
X0058253Y0154592D01*
X0057553Y0150939D02*
X0055053Y0150939D01*
X0057553Y0150939D02*
X0057553Y0119679D01*
X0047553Y0109679D01*
X0047553Y0101554D01*
X0060678Y0088429D01*
X0066303Y0088429D01*
X0068178Y0090304D01*
X0070053Y0090304D01*
X0074428Y0085929D01*
X0074428Y0083861D01*
X0072262Y0081695D01*
X0070035Y0083922D02*
X0065937Y0079824D01*
X0063948Y0079824D01*
X0062400Y0076338D02*
X0061888Y0076338D01*
X0061602Y0077137D02*
X0061090Y0077137D01*
X0060803Y0077935D02*
X0060291Y0077935D01*
X0060005Y0078734D02*
X0059493Y0078734D01*
X0059206Y0079532D02*
X0042264Y0079532D01*
X0042264Y0078734D02*
X0057268Y0078734D01*
X0056469Y0077935D02*
X0042264Y0077935D01*
X0042264Y0077137D02*
X0055671Y0077137D01*
X0054872Y0076338D02*
X0042264Y0076338D01*
X0042264Y0075540D02*
X0054074Y0075540D01*
X0053761Y0074741D02*
X0042264Y0074741D01*
X0042264Y0073943D02*
X0054217Y0073943D01*
X0055016Y0073144D02*
X0042264Y0073144D01*
X0042264Y0072346D02*
X0055814Y0072346D01*
X0056613Y0071547D02*
X0042264Y0071547D01*
X0042264Y0070749D02*
X0057411Y0070749D01*
X0058210Y0069950D02*
X0050106Y0069950D01*
X0050216Y0069840D02*
X0049993Y0070064D01*
X0049719Y0070222D01*
X0049414Y0070304D01*
X0046703Y0070304D01*
X0046703Y0066945D01*
X0045903Y0066945D01*
X0045903Y0070304D01*
X0043192Y0070304D01*
X0042887Y0070222D01*
X0042614Y0070064D01*
X0042390Y0069840D01*
X0042232Y0069567D01*
X0042150Y0069262D01*
X0042150Y0066944D01*
X0045903Y0066944D01*
X0045903Y0066145D01*
X0042150Y0066145D01*
X0042150Y0063827D01*
X0042232Y0063522D01*
X0042390Y0063249D01*
X0042614Y0063025D01*
X0042887Y0062867D01*
X0043192Y0062785D01*
X0045903Y0062785D01*
X0045903Y0066144D01*
X0046703Y0066144D01*
X0046703Y0062785D01*
X0049414Y0062785D01*
X0049719Y0062867D01*
X0049993Y0063025D01*
X0050216Y0063249D01*
X0050374Y0063522D01*
X0050456Y0063827D01*
X0050456Y0066145D01*
X0046703Y0066145D01*
X0046703Y0066944D01*
X0050456Y0066944D01*
X0050456Y0069262D01*
X0050374Y0069567D01*
X0050216Y0069840D01*
X0050456Y0069152D02*
X0059186Y0069152D01*
X0059524Y0068353D02*
X0050456Y0068353D01*
X0050456Y0067555D02*
X0060322Y0067555D01*
X0061121Y0066756D02*
X0046703Y0066756D01*
X0046703Y0065958D02*
X0045903Y0065958D01*
X0045903Y0066756D02*
X0005453Y0066756D01*
X0005453Y0065958D02*
X0042150Y0065958D01*
X0042150Y0065159D02*
X0005453Y0065159D01*
X0005453Y0064361D02*
X0042150Y0064361D01*
X0042222Y0063562D02*
X0041930Y0063562D01*
X0042264Y0062764D02*
X0065738Y0062764D01*
X0065676Y0062826D02*
X0067593Y0060909D01*
X0069968Y0063285D01*
X0067314Y0065938D01*
X0065676Y0064300D01*
X0065518Y0064026D01*
X0065436Y0063721D01*
X0065436Y0063405D01*
X0065518Y0063100D01*
X0065676Y0062826D01*
X0065436Y0063562D02*
X0050385Y0063562D01*
X0050456Y0064361D02*
X0063516Y0064361D01*
X0062718Y0065159D02*
X0050456Y0065159D01*
X0050456Y0065958D02*
X0061919Y0065958D01*
X0061564Y0066756D02*
X0062696Y0066756D01*
X0062363Y0067555D02*
X0063494Y0067555D01*
X0063161Y0068353D02*
X0064274Y0068353D01*
X0064293Y0068353D02*
X0065406Y0068353D01*
X0064849Y0068910D02*
X0067503Y0066256D01*
X0069141Y0067894D01*
X0069299Y0068168D01*
X0069381Y0068473D01*
X0069381Y0068789D01*
X0069299Y0069094D01*
X0069141Y0069368D01*
X0067224Y0071285D01*
X0064849Y0068910D01*
X0064607Y0069152D02*
X0065091Y0069152D01*
X0064758Y0069950D02*
X0065890Y0069950D01*
X0065557Y0070749D02*
X0066688Y0070749D01*
X0066355Y0071547D02*
X0067191Y0071547D01*
X0067761Y0070749D02*
X0067990Y0070749D01*
X0068559Y0069950D02*
X0068788Y0069950D01*
X0069266Y0069152D02*
X0070925Y0069152D01*
X0070914Y0069950D02*
X0071609Y0069950D01*
X0071712Y0070749D02*
X0072407Y0070749D01*
X0072511Y0071547D02*
X0073206Y0071547D01*
X0073310Y0072346D02*
X0074004Y0072346D01*
X0074108Y0073144D02*
X0074803Y0073144D01*
X0075065Y0073943D02*
X0074470Y0073943D01*
X0074266Y0074741D02*
X0074064Y0074741D01*
X0073468Y0075540D02*
X0073265Y0075540D01*
X0076717Y0077241D02*
X0076717Y0077593D01*
X0080053Y0080929D01*
X0083803Y0084679D02*
X0082553Y0085929D01*
X0082553Y0092179D01*
X0085678Y0095304D01*
X0085053Y0098429D02*
X0081928Y0095304D01*
X0085053Y0098429D02*
X0093178Y0098429D01*
X0098117Y0103368D01*
X0098390Y0103368D01*
X0100617Y0101141D02*
X0103530Y0104054D01*
X0105053Y0104054D01*
X0109573Y0108574D01*
X0115823Y0108574D01*
X0117957Y0111473D02*
X0133028Y0111473D01*
X0133028Y0112271D02*
X0117159Y0112271D01*
X0116360Y0113070D02*
X0133028Y0113070D01*
X0133028Y0113868D02*
X0114490Y0113868D01*
X0115055Y0114434D02*
X0113417Y0112795D01*
X0110764Y0115449D01*
X0110198Y0116015D01*
X0112573Y0118390D01*
X0110656Y0120307D01*
X0110383Y0120465D01*
X0110077Y0120546D01*
X0109761Y0120546D01*
X0109456Y0120465D01*
X0109183Y0120307D01*
X0107544Y0118668D01*
X0110198Y0116015D01*
X0109632Y0115449D01*
X0110198Y0114883D01*
X0110764Y0115449D01*
X0113139Y0117824D01*
X0115055Y0115907D01*
X0115213Y0115634D01*
X0115295Y0115329D01*
X0115295Y0115013D01*
X0115213Y0114707D01*
X0115055Y0114434D01*
X0115190Y0114667D02*
X0133028Y0114667D01*
X0133028Y0115465D02*
X0115259Y0115465D01*
X0114699Y0116264D02*
X0133028Y0116264D01*
X0133028Y0117062D02*
X0113901Y0117062D01*
X0112377Y0117062D02*
X0111245Y0117062D01*
X0111578Y0116264D02*
X0110447Y0116264D01*
X0109949Y0116264D02*
X0108817Y0116264D01*
X0109150Y0117062D02*
X0108019Y0117062D01*
X0108352Y0117861D02*
X0107220Y0117861D01*
X0106737Y0117861D02*
X0105828Y0117861D01*
X0105828Y0118659D02*
X0107553Y0118659D01*
X0108334Y0119458D02*
X0105828Y0119458D01*
X0106360Y0120256D02*
X0109132Y0120256D01*
X0110707Y0120256D02*
X0133028Y0120256D01*
X0133028Y0119458D02*
X0111505Y0119458D01*
X0112304Y0118659D02*
X0133028Y0118659D01*
X0133028Y0117861D02*
X0112044Y0117861D01*
X0110780Y0115465D02*
X0110747Y0115465D01*
X0110198Y0114883D02*
X0112851Y0112230D01*
X0111213Y0110591D01*
X0110939Y0110433D01*
X0110634Y0110352D01*
X0110318Y0110352D01*
X0110013Y0110433D01*
X0109739Y0110591D01*
X0107823Y0112508D01*
X0110198Y0114883D01*
X0110414Y0114667D02*
X0111546Y0114667D01*
X0111213Y0113868D02*
X0112344Y0113868D01*
X0112011Y0113070D02*
X0113143Y0113070D01*
X0113691Y0113070D02*
X0114729Y0113070D01*
X0113930Y0112271D02*
X0112810Y0112271D01*
X0113132Y0111473D02*
X0112094Y0111473D01*
X0112333Y0110674D02*
X0111296Y0110674D01*
X0109657Y0110674D02*
X0109427Y0110674D01*
X0108858Y0111473D02*
X0108629Y0111473D01*
X0108060Y0112271D02*
X0107830Y0112271D01*
X0108384Y0113070D02*
X0107032Y0113070D01*
X0106462Y0113868D02*
X0106233Y0113868D01*
X0105664Y0114667D02*
X0105435Y0114667D01*
X0104428Y0115929D02*
X0104428Y0120304D01*
X0110678Y0126554D01*
X0108971Y0128241D02*
X0104053Y0128241D01*
X0104053Y0127443D02*
X0108448Y0127443D01*
X0108278Y0126644D02*
X0104053Y0126644D01*
X0104053Y0126147D02*
X0101710Y0123804D01*
X0098396Y0123804D01*
X0096053Y0126147D01*
X0096053Y0129461D01*
X0098396Y0131804D01*
X0101710Y0131804D01*
X0104053Y0129461D01*
X0104053Y0126147D01*
X0103752Y0125846D02*
X0107990Y0125846D01*
X0107191Y0125047D02*
X0102953Y0125047D01*
X0102155Y0124249D02*
X0106393Y0124249D01*
X0105594Y0123450D02*
X0086453Y0123450D01*
X0086453Y0124249D02*
X0087669Y0124249D01*
X0086870Y0125047D02*
X0086453Y0125047D01*
X0087185Y0122652D02*
X0104796Y0122652D01*
X0103997Y0121853D02*
X0087984Y0121853D01*
X0085621Y0120256D02*
X0083258Y0120256D01*
X0084053Y0119458D02*
X0086053Y0119458D01*
X0086053Y0118659D02*
X0084053Y0118659D01*
X0084053Y0117861D02*
X0086053Y0117861D01*
X0086053Y0117062D02*
X0084053Y0117062D01*
X0084053Y0116264D02*
X0086053Y0116264D01*
X0086735Y0115465D02*
X0084372Y0115465D01*
X0085171Y0114667D02*
X0087534Y0114667D01*
X0088332Y0113868D02*
X0085969Y0113868D01*
X0086768Y0113070D02*
X0091759Y0113070D01*
X0091774Y0113868D02*
X0093726Y0113868D01*
X0094560Y0114667D02*
X0092572Y0114667D01*
X0093371Y0115465D02*
X0096735Y0115465D01*
X0096053Y0116264D02*
X0094053Y0116264D01*
X0094053Y0117062D02*
X0096053Y0117062D01*
X0096053Y0117861D02*
X0094053Y0117861D01*
X0094053Y0118659D02*
X0096053Y0118659D01*
X0096053Y0119458D02*
X0094053Y0119458D01*
X0093258Y0120256D02*
X0096848Y0120256D01*
X0097647Y0121055D02*
X0092459Y0121055D01*
X0090053Y0117804D02*
X0085053Y0122804D01*
X0085053Y0129054D01*
X0092553Y0136554D01*
X0098803Y0136554D01*
X0102553Y0140304D01*
X0102553Y0144669D01*
X0098168Y0149054D01*
X0098168Y0158419D01*
X0100678Y0160929D01*
X0098278Y0160980D02*
X0067709Y0160980D01*
X0066911Y0160182D02*
X0097951Y0160182D01*
X0097152Y0159383D02*
X0066112Y0159383D01*
X0065314Y0158585D02*
X0096768Y0158585D01*
X0096768Y0157786D02*
X0064515Y0157786D01*
X0063953Y0156988D02*
X0096768Y0156988D01*
X0096768Y0156189D02*
X0063953Y0156189D01*
X0063953Y0155391D02*
X0096768Y0155391D01*
X0096768Y0154592D02*
X0063953Y0154592D01*
X0063953Y0153794D02*
X0096768Y0153794D01*
X0095183Y0152995D02*
X0093673Y0152995D01*
X0094247Y0152197D02*
X0094609Y0152197D01*
X0094609Y0151398D02*
X0094247Y0151398D01*
X0094247Y0150600D02*
X0094609Y0150600D01*
X0094609Y0149801D02*
X0094247Y0149801D01*
X0094247Y0149003D02*
X0094609Y0149003D01*
X0094609Y0148204D02*
X0094247Y0148204D01*
X0094247Y0147406D02*
X0094609Y0147406D01*
X0094609Y0146607D02*
X0094247Y0146607D01*
X0094247Y0145809D02*
X0094609Y0145809D01*
X0092088Y0145010D02*
X0098240Y0145010D01*
X0097779Y0144212D02*
X0092088Y0144212D01*
X0092088Y0143413D02*
X0097653Y0143413D01*
X0100053Y0143429D02*
X0100053Y0140304D01*
X0098178Y0138429D01*
X0091928Y0138429D01*
X0080053Y0126554D01*
X0080053Y0124054D01*
X0075053Y0119054D01*
X0075053Y0115190D01*
X0075168Y0115190D01*
X0078178Y0112179D01*
X0078178Y0110815D01*
X0081171Y0107822D01*
X0078944Y0105595D02*
X0076303Y0108236D01*
X0076303Y0111554D01*
X0070053Y0117804D01*
X0075053Y0122804D01*
X0075053Y0129054D01*
X0078178Y0132179D01*
X0083178Y0132179D01*
X0091928Y0140929D01*
X0096928Y0140929D01*
X0095219Y0142615D02*
X0092088Y0142615D01*
X0090688Y0142189D02*
X0090688Y0149054D01*
X0087129Y0149003D02*
X0063953Y0149003D01*
X0063953Y0149801D02*
X0087129Y0149801D01*
X0087129Y0150600D02*
X0063953Y0150600D01*
X0063953Y0151398D02*
X0087129Y0151398D01*
X0087129Y0152197D02*
X0063953Y0152197D01*
X0063953Y0152995D02*
X0087703Y0152995D01*
X0087129Y0148204D02*
X0063953Y0148204D01*
X0063953Y0147406D02*
X0087129Y0147406D01*
X0087129Y0146607D02*
X0063953Y0146607D01*
X0063953Y0145809D02*
X0087129Y0145809D01*
X0089288Y0145010D02*
X0063953Y0145010D01*
X0063953Y0144212D02*
X0089288Y0144212D01*
X0089288Y0143413D02*
X0063953Y0143413D01*
X0063953Y0142615D02*
X0089134Y0142615D01*
X0088335Y0141816D02*
X0063953Y0141816D01*
X0063953Y0141018D02*
X0087537Y0141018D01*
X0086738Y0140219D02*
X0063953Y0140219D01*
X0063953Y0139421D02*
X0085940Y0139421D01*
X0085141Y0138622D02*
X0063953Y0138622D01*
X0063953Y0137824D02*
X0084343Y0137824D01*
X0083544Y0137025D02*
X0063953Y0137025D01*
X0063953Y0136227D02*
X0082745Y0136227D01*
X0082553Y0134054D02*
X0076303Y0134054D01*
X0070053Y0127804D01*
X0072953Y0125047D02*
X0073653Y0125047D01*
X0073653Y0124249D02*
X0072155Y0124249D01*
X0073653Y0123450D02*
X0063953Y0123450D01*
X0063953Y0122652D02*
X0072921Y0122652D01*
X0072122Y0121853D02*
X0063953Y0121853D01*
X0063953Y0121055D02*
X0067647Y0121055D01*
X0066848Y0120256D02*
X0063953Y0120256D01*
X0063953Y0119458D02*
X0066053Y0119458D01*
X0066053Y0118659D02*
X0063953Y0118659D01*
X0063953Y0117861D02*
X0066053Y0117861D01*
X0066053Y0117062D02*
X0065135Y0117062D01*
X0065934Y0116264D02*
X0066053Y0116264D01*
X0066732Y0115465D02*
X0066735Y0115465D01*
X0067531Y0114667D02*
X0067534Y0114667D01*
X0068329Y0113868D02*
X0068332Y0113868D01*
X0069128Y0113070D02*
X0072808Y0113070D01*
X0072009Y0113868D02*
X0071774Y0113868D01*
X0073606Y0112271D02*
X0069181Y0112271D01*
X0068978Y0111473D02*
X0068465Y0111473D01*
X0068179Y0110674D02*
X0067667Y0110674D01*
X0067381Y0109876D02*
X0066868Y0109876D01*
X0066582Y0109077D02*
X0066070Y0109077D01*
X0065784Y0108279D02*
X0065271Y0108279D01*
X0064985Y0107480D02*
X0064473Y0107480D01*
X0064675Y0106682D02*
X0062931Y0106682D01*
X0062876Y0105883D02*
X0065134Y0105883D01*
X0064613Y0105085D02*
X0065933Y0105085D01*
X0065411Y0104286D02*
X0066731Y0104286D01*
X0066210Y0103488D02*
X0067530Y0103488D01*
X0067008Y0102689D02*
X0068173Y0102689D01*
X0068173Y0101891D02*
X0067807Y0101891D01*
X0069573Y0101603D02*
X0072262Y0098914D01*
X0070035Y0096687D02*
X0065312Y0101410D01*
X0063323Y0100785D01*
X0060993Y0103488D02*
X0060480Y0103488D01*
X0060194Y0102689D02*
X0059682Y0102689D01*
X0059396Y0101891D02*
X0058883Y0101891D01*
X0061279Y0104286D02*
X0061791Y0104286D01*
X0062077Y0105085D02*
X0062590Y0105085D01*
X0062217Y0107480D02*
X0063537Y0107480D01*
X0062739Y0108279D02*
X0062218Y0108279D01*
X0064283Y0112324D02*
X0058033Y0106074D01*
X0052553Y0105304D02*
X0065053Y0092804D01*
X0065053Y0090929D01*
X0067808Y0086149D02*
X0066819Y0085160D01*
X0057698Y0085160D01*
X0060298Y0082726D02*
X0061260Y0082726D01*
X0061096Y0083525D02*
X0062059Y0083525D01*
X0060462Y0081928D02*
X0059499Y0081928D01*
X0059663Y0081129D02*
X0058701Y0081129D01*
X0059050Y0080331D02*
X0057902Y0080331D01*
X0056937Y0080331D02*
X0041697Y0080331D01*
X0041780Y0086719D02*
X0050549Y0086719D01*
X0051347Y0085920D02*
X0005453Y0085920D01*
X0005453Y0085122D02*
X0052800Y0085122D01*
X0052913Y0085920D02*
X0053425Y0085920D01*
X0053712Y0086719D02*
X0054224Y0086719D01*
X0054510Y0087517D02*
X0055022Y0087517D01*
X0055309Y0088316D02*
X0055821Y0088316D01*
X0056107Y0089114D02*
X0056619Y0089114D01*
X0056906Y0089913D02*
X0057215Y0089913D01*
X0052408Y0090449D02*
X0048803Y0094054D01*
X0046598Y0093107D02*
X0042264Y0093107D01*
X0042264Y0093905D02*
X0046403Y0093905D01*
X0046475Y0094704D02*
X0042264Y0094704D01*
X0042264Y0095502D02*
X0046857Y0095502D01*
X0047956Y0096301D02*
X0042262Y0096301D01*
X0042264Y0092308D02*
X0047155Y0092308D01*
X0048436Y0091510D02*
X0042264Y0091510D01*
X0042264Y0090711D02*
X0047638Y0090711D01*
X0047511Y0089913D02*
X0042264Y0089913D01*
X0042264Y0089114D02*
X0048153Y0089114D01*
X0048952Y0088316D02*
X0042264Y0088316D01*
X0042264Y0087517D02*
X0049750Y0087517D01*
X0052944Y0084323D02*
X0005453Y0084323D01*
X0005453Y0083525D02*
X0053743Y0083525D01*
X0054541Y0082726D02*
X0005453Y0082726D01*
X0005453Y0081928D02*
X0055340Y0081928D01*
X0056138Y0081129D02*
X0005453Y0081129D01*
X0005453Y0080331D02*
X0010909Y0080331D01*
X0010343Y0079532D02*
X0005453Y0079532D01*
X0005453Y0078734D02*
X0010343Y0078734D01*
X0010343Y0077935D02*
X0005453Y0077935D01*
X0005453Y0077137D02*
X0010343Y0077137D01*
X0010343Y0076338D02*
X0005453Y0076338D01*
X0005453Y0075540D02*
X0010343Y0075540D01*
X0010343Y0074741D02*
X0005453Y0074741D01*
X0005453Y0073943D02*
X0010343Y0073943D01*
X0010343Y0073144D02*
X0005453Y0073144D01*
X0005453Y0072346D02*
X0010343Y0072346D01*
X0010343Y0071547D02*
X0005453Y0071547D01*
X0005453Y0070749D02*
X0010343Y0070749D01*
X0005453Y0069950D02*
X0042500Y0069950D01*
X0042150Y0069152D02*
X0005453Y0069152D01*
X0005453Y0068353D02*
X0042150Y0068353D01*
X0042150Y0067555D02*
X0005453Y0067555D01*
X0005453Y0063562D02*
X0010676Y0063562D01*
X0010343Y0062764D02*
X0005453Y0062764D01*
X0005453Y0061965D02*
X0010343Y0061965D01*
X0010343Y0061166D02*
X0005453Y0061166D01*
X0005453Y0060368D02*
X0010343Y0060368D01*
X0010343Y0059569D02*
X0005453Y0059569D01*
X0005453Y0058771D02*
X0010343Y0058771D01*
X0010343Y0057972D02*
X0005453Y0057972D01*
X0005453Y0057174D02*
X0010343Y0057174D01*
X0010343Y0056375D02*
X0005453Y0056375D01*
X0005453Y0055577D02*
X0010343Y0055577D01*
X0010343Y0054778D02*
X0005453Y0054778D01*
X0005453Y0053980D02*
X0010495Y0053980D01*
X0005453Y0053181D02*
X0092570Y0053181D01*
X0091771Y0052383D02*
X0005453Y0052383D01*
X0005453Y0051584D02*
X0090973Y0051584D01*
X0090174Y0050786D02*
X0005453Y0050786D01*
X0005453Y0049987D02*
X0089376Y0049987D01*
X0088577Y0049189D02*
X0005453Y0049189D01*
X0005453Y0048390D02*
X0087779Y0048390D01*
X0093368Y0053980D02*
X0042111Y0053980D01*
X0042264Y0054778D02*
X0094167Y0054778D01*
X0094965Y0055577D02*
X0049742Y0055577D01*
X0050256Y0056375D02*
X0095764Y0056375D01*
X0096562Y0057174D02*
X0050256Y0057174D01*
X0050256Y0057972D02*
X0097476Y0057972D01*
X0097220Y0059437D02*
X0097525Y0059519D01*
X0097799Y0059677D01*
X0099437Y0061315D01*
X0096783Y0063969D01*
X0094408Y0061594D01*
X0096325Y0059677D01*
X0096599Y0059519D01*
X0096904Y0059437D01*
X0097220Y0059437D01*
X0097612Y0059569D02*
X0120610Y0059569D01*
X0121409Y0058771D02*
X0114452Y0058771D01*
X0116380Y0057972D02*
X0122207Y0057972D01*
X0123006Y0057174D02*
X0117294Y0057174D01*
X0118092Y0056375D02*
X0123804Y0056375D01*
X0125258Y0056375D02*
X0144307Y0056375D01*
X0143509Y0055577D02*
X0118524Y0055577D01*
X0118855Y0054778D02*
X0143645Y0054778D01*
X0143312Y0053980D02*
X0144443Y0053980D01*
X0144110Y0053181D02*
X0145242Y0053181D01*
X0144909Y0052383D02*
X0146040Y0052383D01*
X0146306Y0049987D02*
X0145175Y0049987D01*
X0145508Y0049189D02*
X0144377Y0049189D01*
X0144709Y0048390D02*
X0143578Y0048390D01*
X0143911Y0047592D02*
X0142779Y0047592D01*
X0143112Y0046793D02*
X0141981Y0046793D01*
X0142314Y0045995D02*
X0141182Y0045995D01*
X0141515Y0045196D02*
X0101555Y0045196D01*
X0100757Y0044398D02*
X0141741Y0044398D01*
X0142539Y0043599D02*
X0099958Y0043599D01*
X0099160Y0042801D02*
X0143338Y0042801D01*
X0144148Y0042002D02*
X0098361Y0042002D01*
X0097563Y0041204D02*
X0161578Y0041204D01*
X0161403Y0040405D02*
X0096764Y0040405D01*
X0095966Y0039607D02*
X0161494Y0039607D01*
X0161905Y0038808D02*
X0095167Y0038808D01*
X0094369Y0038010D02*
X0163071Y0038010D01*
X0164535Y0038010D02*
X0178279Y0038010D01*
X0179077Y0038808D02*
X0165701Y0038808D01*
X0163803Y0040304D02*
X0171313Y0040304D01*
X0180063Y0049054D01*
X0178178Y0050939D01*
X0178178Y0060929D01*
X0180678Y0063429D01*
X0180678Y0112804D01*
X0179428Y0114054D01*
X0179428Y0118429D01*
X0177553Y0120304D01*
X0177553Y0137804D01*
X0176928Y0138429D01*
X0179428Y0135929D02*
X0179428Y0120929D01*
X0181303Y0119054D01*
X0181303Y0114679D01*
X0182553Y0113429D01*
X0182553Y0057814D01*
X0182563Y0057804D01*
X0183803Y0057794D01*
X0183803Y0041554D01*
X0176928Y0034679D01*
X0175267Y0036413D02*
X0091859Y0036413D01*
X0093570Y0037211D02*
X0177480Y0037211D01*
X0179843Y0035614D02*
X0199004Y0035614D01*
X0199004Y0034816D02*
X0179328Y0034816D01*
X0179252Y0034017D02*
X0199004Y0034017D01*
X0199004Y0033219D02*
X0178862Y0033219D01*
X0180641Y0036413D02*
X0199004Y0036413D01*
X0199004Y0037211D02*
X0181440Y0037211D01*
X0182238Y0038010D02*
X0199004Y0038010D01*
X0199004Y0038808D02*
X0183037Y0038808D01*
X0183835Y0039607D02*
X0199004Y0039607D01*
X0199004Y0040405D02*
X0184634Y0040405D01*
X0185203Y0041204D02*
X0199004Y0041204D01*
X0199004Y0042002D02*
X0185203Y0042002D01*
X0185203Y0042801D02*
X0199004Y0042801D01*
X0199004Y0043599D02*
X0185203Y0043599D01*
X0185203Y0044398D02*
X0199004Y0044398D01*
X0199004Y0045196D02*
X0190894Y0045196D01*
X0191302Y0045995D02*
X0199004Y0045995D01*
X0199004Y0046793D02*
X0191302Y0046793D01*
X0191302Y0047592D02*
X0199004Y0047592D01*
X0199004Y0048390D02*
X0191302Y0048390D01*
X0191302Y0049987D02*
X0199004Y0049987D01*
X0199004Y0049189D02*
X0187943Y0049189D01*
X0187943Y0049987D02*
X0187143Y0049987D01*
X0187143Y0050786D02*
X0187943Y0050786D01*
X0187943Y0051584D02*
X0187143Y0051584D01*
X0187143Y0052383D02*
X0187943Y0052383D01*
X0187943Y0053181D02*
X0187143Y0053181D01*
X0187326Y0053652D02*
X0189643Y0053652D01*
X0189643Y0057404D01*
X0190443Y0057404D01*
X0190443Y0053652D01*
X0192760Y0053652D01*
X0193066Y0053733D01*
X0193339Y0053891D01*
X0193563Y0054115D01*
X0193721Y0054388D01*
X0193802Y0054694D01*
X0193802Y0057404D01*
X0190443Y0057404D01*
X0190443Y0058204D01*
X0193802Y0058204D01*
X0193802Y0060915D01*
X0193721Y0061220D01*
X0193563Y0061494D01*
X0193339Y0061717D01*
X0193066Y0061875D01*
X0192760Y0061957D01*
X0190443Y0061957D01*
X0190443Y0058204D01*
X0189643Y0058204D01*
X0189643Y0057404D01*
X0186284Y0057404D01*
X0186284Y0054694D01*
X0186366Y0054388D01*
X0186524Y0054115D01*
X0186747Y0053891D01*
X0187021Y0053733D01*
X0187326Y0053652D01*
X0186659Y0053980D02*
X0185665Y0053980D01*
X0186122Y0054778D02*
X0186284Y0054778D01*
X0186284Y0055577D02*
X0186122Y0055577D01*
X0186122Y0056375D02*
X0186284Y0056375D01*
X0186284Y0057174D02*
X0186122Y0057174D01*
X0186122Y0057972D02*
X0189643Y0057972D01*
X0189643Y0058204D02*
X0186284Y0058204D01*
X0186284Y0060915D01*
X0186366Y0061220D01*
X0186524Y0061494D01*
X0186747Y0061717D01*
X0187021Y0061875D01*
X0187326Y0061957D01*
X0189643Y0061957D01*
X0189643Y0058204D01*
X0189643Y0058771D02*
X0190443Y0058771D01*
X0190443Y0059569D02*
X0189643Y0059569D01*
X0189643Y0060368D02*
X0190443Y0060368D01*
X0190443Y0061166D02*
X0189643Y0061166D01*
X0190443Y0057972D02*
X0199004Y0057972D01*
X0199004Y0057174D02*
X0193802Y0057174D01*
X0193802Y0056375D02*
X0199004Y0056375D01*
X0199004Y0055577D02*
X0193802Y0055577D01*
X0193802Y0054778D02*
X0199004Y0054778D01*
X0199004Y0053980D02*
X0193428Y0053980D01*
X0191244Y0052383D02*
X0199004Y0052383D01*
X0199004Y0053181D02*
X0190356Y0053181D01*
X0190443Y0053980D02*
X0189643Y0053980D01*
X0189643Y0054778D02*
X0190443Y0054778D01*
X0190443Y0055577D02*
X0189643Y0055577D01*
X0189643Y0056375D02*
X0190443Y0056375D01*
X0190443Y0057174D02*
X0189643Y0057174D01*
X0186284Y0058771D02*
X0186122Y0058771D01*
X0186122Y0059569D02*
X0186284Y0059569D01*
X0186284Y0060368D02*
X0186122Y0060368D01*
X0186122Y0061166D02*
X0186352Y0061166D01*
X0183953Y0061965D02*
X0199004Y0061965D01*
X0199004Y0061166D02*
X0193735Y0061166D01*
X0193802Y0060368D02*
X0199004Y0060368D01*
X0199004Y0059569D02*
X0193802Y0059569D01*
X0193802Y0058771D02*
X0199004Y0058771D01*
X0199004Y0062764D02*
X0183953Y0062764D01*
X0183953Y0063562D02*
X0199004Y0063562D01*
X0199004Y0064361D02*
X0183953Y0064361D01*
X0183953Y0065159D02*
X0199004Y0065159D01*
X0199004Y0065958D02*
X0183953Y0065958D01*
X0183953Y0066756D02*
X0199004Y0066756D01*
X0199004Y0067555D02*
X0183953Y0067555D01*
X0183953Y0068353D02*
X0199004Y0068353D01*
X0199004Y0069152D02*
X0183953Y0069152D01*
X0183953Y0069950D02*
X0199004Y0069950D01*
X0199004Y0070749D02*
X0183953Y0070749D01*
X0183953Y0071547D02*
X0199004Y0071547D01*
X0199004Y0072346D02*
X0183953Y0072346D01*
X0183953Y0073144D02*
X0199004Y0073144D01*
X0199004Y0073943D02*
X0183953Y0073943D01*
X0183953Y0074741D02*
X0199004Y0074741D01*
X0199004Y0075540D02*
X0195646Y0075540D01*
X0196619Y0076338D02*
X0199004Y0076338D01*
X0199004Y0077137D02*
X0197213Y0077137D01*
X0197544Y0077935D02*
X0199004Y0077935D01*
X0199004Y0078734D02*
X0197678Y0078734D01*
X0197678Y0079532D02*
X0199004Y0079532D01*
X0199004Y0080331D02*
X0197479Y0080331D01*
X0197148Y0081129D02*
X0199004Y0081129D01*
X0199004Y0081928D02*
X0196462Y0081928D01*
X0195266Y0082726D02*
X0199004Y0082726D01*
X0199004Y0083525D02*
X0183953Y0083525D01*
X0183953Y0084323D02*
X0199004Y0084323D01*
X0199004Y0085122D02*
X0194637Y0085122D01*
X0196201Y0085920D02*
X0199004Y0085920D01*
X0199004Y0086719D02*
X0197000Y0086719D01*
X0197371Y0087517D02*
X0199004Y0087517D01*
X0199004Y0088316D02*
X0197678Y0088316D01*
X0197678Y0089114D02*
X0199004Y0089114D01*
X0199004Y0089913D02*
X0197652Y0089913D01*
X0197321Y0090711D02*
X0199004Y0090711D01*
X0199004Y0091510D02*
X0196879Y0091510D01*
X0196081Y0092308D02*
X0199004Y0092308D01*
X0199004Y0093107D02*
X0183953Y0093107D01*
X0183953Y0093905D02*
X0199004Y0093905D01*
X0199004Y0094704D02*
X0183953Y0094704D01*
X0183953Y0095502D02*
X0185801Y0095502D01*
X0184775Y0096301D02*
X0183953Y0096301D01*
X0183953Y0097100D02*
X0184158Y0097100D01*
X0184193Y0101092D02*
X0183953Y0101092D01*
X0183953Y0101891D02*
X0184858Y0101891D01*
X0183953Y0102689D02*
X0186001Y0102689D01*
X0183953Y0103488D02*
X0199004Y0103488D01*
X0199004Y0104286D02*
X0183953Y0104286D01*
X0183953Y0105085D02*
X0186809Y0105085D01*
X0185192Y0105883D02*
X0183953Y0105883D01*
X0183953Y0106682D02*
X0184394Y0106682D01*
X0184001Y0107480D02*
X0183953Y0107480D01*
X0188047Y0113070D02*
X0199004Y0113070D01*
X0199004Y0113868D02*
X0187088Y0113868D01*
X0186130Y0114667D02*
X0199004Y0114667D01*
X0199004Y0115465D02*
X0195466Y0115465D01*
X0196544Y0116264D02*
X0199004Y0116264D01*
X0199004Y0117062D02*
X0197183Y0117062D01*
X0197513Y0117861D02*
X0199004Y0117861D01*
X0199004Y0118659D02*
X0197678Y0118659D01*
X0197678Y0119458D02*
X0199004Y0119458D01*
X0199004Y0120256D02*
X0197510Y0120256D01*
X0197179Y0121055D02*
X0199004Y0121055D01*
X0199004Y0121853D02*
X0196536Y0121853D01*
X0195445Y0122652D02*
X0199004Y0122652D01*
X0199004Y0123450D02*
X0183999Y0123450D01*
X0184328Y0122652D02*
X0185911Y0122652D01*
X0184820Y0121853D02*
X0184328Y0121853D01*
X0183178Y0120929D02*
X0181928Y0122179D01*
X0183178Y0120929D02*
X0183178Y0115304D01*
X0190678Y0109054D01*
X0194547Y0105085D02*
X0199004Y0105085D01*
X0199004Y0105883D02*
X0196164Y0105883D01*
X0196962Y0106682D02*
X0199004Y0106682D01*
X0199004Y0107480D02*
X0197356Y0107480D01*
X0197678Y0108279D02*
X0199004Y0108279D01*
X0199004Y0109077D02*
X0197678Y0109077D01*
X0197667Y0109876D02*
X0199004Y0109876D01*
X0199004Y0110674D02*
X0197337Y0110674D01*
X0196917Y0111473D02*
X0199004Y0111473D01*
X0199004Y0112271D02*
X0196118Y0112271D01*
X0195356Y0102689D02*
X0199004Y0102689D01*
X0199004Y0101891D02*
X0196499Y0101891D01*
X0197164Y0101092D02*
X0199004Y0101092D01*
X0199004Y0100294D02*
X0197494Y0100294D01*
X0197678Y0099495D02*
X0199004Y0099495D01*
X0199004Y0098697D02*
X0197678Y0098697D01*
X0197529Y0097898D02*
X0199004Y0097898D01*
X0199004Y0097100D02*
X0197198Y0097100D01*
X0196582Y0096301D02*
X0199004Y0096301D01*
X0199004Y0095502D02*
X0195556Y0095502D01*
X0185275Y0092308D02*
X0183953Y0092308D01*
X0183953Y0091510D02*
X0184477Y0091510D01*
X0184035Y0090711D02*
X0183953Y0090711D01*
X0183953Y0087517D02*
X0183985Y0087517D01*
X0183953Y0086719D02*
X0184357Y0086719D01*
X0183953Y0085920D02*
X0185155Y0085920D01*
X0183953Y0085122D02*
X0186720Y0085122D01*
X0186091Y0082726D02*
X0183953Y0082726D01*
X0183953Y0081928D02*
X0184895Y0081928D01*
X0184208Y0081129D02*
X0183953Y0081129D01*
X0183953Y0077137D02*
X0184143Y0077137D01*
X0183953Y0076338D02*
X0184737Y0076338D01*
X0183953Y0075540D02*
X0185711Y0075540D01*
X0177403Y0071547D02*
X0177016Y0071547D01*
X0177403Y0070749D02*
X0176217Y0070749D01*
X0176102Y0069950D02*
X0177403Y0069950D01*
X0177403Y0069152D02*
X0176102Y0069152D01*
X0176102Y0068353D02*
X0177403Y0068353D01*
X0177403Y0067555D02*
X0176102Y0067555D01*
X0176102Y0066756D02*
X0177403Y0066756D01*
X0177403Y0065958D02*
X0176102Y0065958D01*
X0175574Y0065159D02*
X0177403Y0065159D01*
X0177120Y0064361D02*
X0173589Y0064361D01*
X0172791Y0063562D02*
X0176321Y0063562D01*
X0175523Y0062764D02*
X0171992Y0062764D01*
X0168984Y0061166D02*
X0168755Y0061166D01*
X0168822Y0060368D02*
X0168984Y0060368D01*
X0168984Y0059569D02*
X0168822Y0059569D01*
X0168822Y0058771D02*
X0168984Y0058771D01*
X0168984Y0057972D02*
X0165463Y0057972D01*
X0165463Y0057174D02*
X0164663Y0057174D01*
X0164663Y0056375D02*
X0165463Y0056375D01*
X0165463Y0055577D02*
X0164663Y0055577D01*
X0164663Y0054778D02*
X0165463Y0054778D01*
X0165463Y0053980D02*
X0164663Y0053980D01*
X0165057Y0052383D02*
X0168902Y0052383D01*
X0169700Y0053181D02*
X0156073Y0053181D01*
X0155908Y0052383D02*
X0162550Y0052383D01*
X0161736Y0051584D02*
X0155159Y0051584D01*
X0154361Y0050786D02*
X0161405Y0050786D01*
X0161403Y0049987D02*
X0153562Y0049987D01*
X0152764Y0049189D02*
X0161667Y0049189D01*
X0162323Y0048390D02*
X0151965Y0048390D01*
X0150368Y0046793D02*
X0175822Y0046793D01*
X0175024Y0045995D02*
X0149570Y0045995D01*
X0148771Y0045196D02*
X0174225Y0045196D01*
X0173427Y0044398D02*
X0147973Y0044398D01*
X0147174Y0043599D02*
X0172628Y0043599D01*
X0171830Y0042801D02*
X0146376Y0042801D01*
X0145565Y0042002D02*
X0162107Y0042002D01*
X0165499Y0042002D02*
X0171031Y0042002D01*
X0173394Y0040405D02*
X0180674Y0040405D01*
X0179876Y0039607D02*
X0172595Y0039607D01*
X0174192Y0041204D02*
X0181473Y0041204D01*
X0182271Y0042002D02*
X0174991Y0042002D01*
X0175789Y0042801D02*
X0182403Y0042801D01*
X0182403Y0043599D02*
X0176588Y0043599D01*
X0177386Y0044398D02*
X0182403Y0044398D01*
X0187143Y0045196D02*
X0187943Y0045196D01*
X0187943Y0045995D02*
X0187143Y0045995D01*
X0187143Y0046793D02*
X0187943Y0046793D01*
X0187943Y0047592D02*
X0187143Y0047592D01*
X0187143Y0048390D02*
X0187943Y0048390D01*
X0191302Y0050786D02*
X0199004Y0050786D01*
X0199004Y0051584D02*
X0191302Y0051584D01*
X0176778Y0053181D02*
X0173660Y0053181D01*
X0172862Y0052383D02*
X0176504Y0052383D01*
X0176504Y0051584D02*
X0172063Y0051584D01*
X0171265Y0050786D02*
X0176504Y0050786D01*
X0176504Y0049987D02*
X0170466Y0049987D01*
X0169668Y0049189D02*
X0176504Y0049189D01*
X0176778Y0053980D02*
X0175645Y0053980D01*
X0176102Y0054778D02*
X0176778Y0054778D01*
X0176778Y0055577D02*
X0176102Y0055577D01*
X0176102Y0056375D02*
X0176778Y0056375D01*
X0176778Y0057174D02*
X0176102Y0057174D01*
X0176102Y0057972D02*
X0176778Y0057972D01*
X0176778Y0058771D02*
X0176102Y0058771D01*
X0176288Y0059569D02*
X0176778Y0059569D01*
X0174724Y0061965D02*
X0161194Y0061965D01*
X0161371Y0061166D02*
X0160395Y0061166D01*
X0159953Y0060368D02*
X0161304Y0060368D01*
X0161304Y0059569D02*
X0159846Y0059569D01*
X0159414Y0058771D02*
X0161304Y0058771D01*
X0161304Y0055577D02*
X0154000Y0055577D01*
X0154798Y0054778D02*
X0161304Y0054778D01*
X0161679Y0053980D02*
X0155597Y0053980D01*
X0155692Y0058771D02*
X0150806Y0058771D01*
X0150007Y0059569D02*
X0155260Y0059569D01*
X0155153Y0060368D02*
X0128925Y0060368D01*
X0128630Y0061166D02*
X0155313Y0061166D01*
X0147501Y0059569D02*
X0128452Y0059569D01*
X0127653Y0058771D02*
X0146703Y0058771D01*
X0145904Y0057972D02*
X0126855Y0057972D01*
X0126056Y0057174D02*
X0145106Y0057174D01*
X0141912Y0053980D02*
X0119178Y0053980D01*
X0119178Y0053181D02*
X0141113Y0053181D01*
X0140315Y0052383D02*
X0119178Y0052383D01*
X0119167Y0051584D02*
X0139516Y0051584D01*
X0138718Y0050786D02*
X0118836Y0050786D01*
X0118506Y0049987D02*
X0137919Y0049987D01*
X0137532Y0049189D02*
X0118048Y0049189D01*
X0117249Y0048390D02*
X0137758Y0048390D01*
X0138547Y0047592D02*
X0116273Y0047592D01*
X0119812Y0060368D02*
X0098490Y0060368D01*
X0099288Y0061166D02*
X0119013Y0061166D01*
X0118215Y0061965D02*
X0100087Y0061965D01*
X0100003Y0061881D02*
X0101641Y0063519D01*
X0101799Y0063793D01*
X0101881Y0064098D01*
X0101881Y0064414D01*
X0101799Y0064719D01*
X0101641Y0064993D01*
X0099724Y0066910D01*
X0097349Y0064535D01*
X0096783Y0065100D01*
X0096218Y0064535D01*
X0093564Y0067188D01*
X0091926Y0065550D01*
X0091768Y0065276D01*
X0091686Y0064971D01*
X0091686Y0064655D01*
X0091768Y0064350D01*
X0091926Y0064076D01*
X0093843Y0062159D01*
X0096218Y0064535D01*
X0096783Y0063969D01*
X0097349Y0064535D01*
X0100003Y0061881D01*
X0099919Y0061965D02*
X0098787Y0061965D01*
X0099120Y0062764D02*
X0097989Y0062764D01*
X0098322Y0063562D02*
X0097190Y0063562D01*
X0097175Y0064361D02*
X0097523Y0064361D01*
X0097974Y0065159D02*
X0096842Y0065159D01*
X0096783Y0065100D02*
X0099159Y0067475D01*
X0097242Y0069392D01*
X0096968Y0069550D01*
X0096663Y0069632D01*
X0096347Y0069632D01*
X0096042Y0069550D01*
X0095768Y0069392D01*
X0094130Y0067754D01*
X0096783Y0065100D01*
X0096725Y0065159D02*
X0095593Y0065159D01*
X0095926Y0065958D02*
X0094795Y0065958D01*
X0095128Y0066756D02*
X0093996Y0066756D01*
X0093132Y0066756D02*
X0079595Y0066756D01*
X0078796Y0065958D02*
X0092334Y0065958D01*
X0091736Y0065159D02*
X0077998Y0065159D01*
X0077199Y0064361D02*
X0091765Y0064361D01*
X0092440Y0063562D02*
X0075496Y0063562D01*
X0075549Y0063469D02*
X0075391Y0063743D01*
X0073474Y0065660D01*
X0071099Y0063285D01*
X0070533Y0063850D01*
X0069968Y0063285D01*
X0070533Y0062719D01*
X0068158Y0060344D01*
X0070075Y0058427D01*
X0070349Y0058269D01*
X0070654Y0058187D01*
X0070970Y0058187D01*
X0071275Y0058269D01*
X0071549Y0058427D01*
X0073187Y0060065D01*
X0070533Y0062719D01*
X0071099Y0063285D01*
X0073753Y0060631D01*
X0075391Y0062269D01*
X0075549Y0062543D01*
X0075631Y0062848D01*
X0075631Y0063164D01*
X0075549Y0063469D01*
X0075608Y0062764D02*
X0093238Y0062764D01*
X0094447Y0062764D02*
X0095578Y0062764D01*
X0095245Y0063562D02*
X0096377Y0063562D01*
X0096392Y0064361D02*
X0096044Y0064361D01*
X0097641Y0065958D02*
X0098772Y0065958D01*
X0098439Y0066756D02*
X0099571Y0066756D01*
X0099878Y0066756D02*
X0100108Y0066756D01*
X0100677Y0065958D02*
X0100906Y0065958D01*
X0101475Y0065159D02*
X0101705Y0065159D01*
X0101881Y0064361D02*
X0117969Y0064361D01*
X0117308Y0063562D02*
X0101666Y0063562D01*
X0100885Y0062764D02*
X0117416Y0062764D01*
X0116126Y0065159D02*
X0114953Y0065159D01*
X0112133Y0069152D02*
X0106970Y0069152D01*
X0106970Y0069950D02*
X0111886Y0069950D01*
X0112407Y0070749D02*
X0106181Y0070749D01*
X0105383Y0071547D02*
X0113206Y0071547D01*
X0114004Y0072346D02*
X0110185Y0072346D01*
X0110983Y0073144D02*
X0114803Y0073144D01*
X0115601Y0073943D02*
X0111782Y0073943D01*
X0112580Y0074741D02*
X0117030Y0074741D01*
X0117057Y0074639D02*
X0117215Y0074366D01*
X0119132Y0072449D01*
X0121507Y0074824D01*
X0122073Y0074258D01*
X0122639Y0074824D01*
X0122073Y0075390D01*
X0124448Y0077765D01*
X0122531Y0079682D01*
X0122258Y0079840D01*
X0121952Y0079921D01*
X0121636Y0079921D01*
X0121331Y0079840D01*
X0121058Y0079682D01*
X0119419Y0078043D01*
X0122073Y0075390D01*
X0121507Y0074824D01*
X0118854Y0077478D01*
X0117215Y0075839D01*
X0117057Y0075566D01*
X0116975Y0075260D01*
X0116975Y0074944D01*
X0117057Y0074639D01*
X0117409Y0073943D02*
X0117638Y0073943D01*
X0118207Y0073144D02*
X0118437Y0073144D01*
X0119006Y0072346D02*
X0120160Y0072346D01*
X0119698Y0071883D02*
X0121614Y0069966D01*
X0121888Y0069808D01*
X0122193Y0069727D01*
X0122509Y0069727D01*
X0122814Y0069808D01*
X0123088Y0069966D01*
X0124726Y0071605D01*
X0122073Y0074258D01*
X0119698Y0071883D01*
X0119804Y0071547D02*
X0120034Y0071547D01*
X0120603Y0070749D02*
X0120832Y0070749D01*
X0121401Y0069950D02*
X0121643Y0069950D01*
X0121681Y0069152D02*
X0123898Y0069152D01*
X0123743Y0069950D02*
X0123060Y0069950D01*
X0123870Y0070749D02*
X0124357Y0070749D01*
X0124669Y0071547D02*
X0125156Y0071547D01*
X0125292Y0072170D02*
X0126930Y0073809D01*
X0127088Y0074082D01*
X0127170Y0074388D01*
X0127170Y0074704D01*
X0127088Y0075009D01*
X0126930Y0075282D01*
X0125014Y0077199D01*
X0122639Y0074824D01*
X0125292Y0072170D01*
X0125117Y0072346D02*
X0123986Y0072346D01*
X0124318Y0073144D02*
X0123187Y0073144D01*
X0123520Y0073943D02*
X0122388Y0073943D01*
X0121757Y0073943D02*
X0120626Y0073943D01*
X0120959Y0073144D02*
X0119827Y0073144D01*
X0121424Y0074741D02*
X0121590Y0074741D01*
X0121923Y0075540D02*
X0120791Y0075540D01*
X0121124Y0076338D02*
X0119993Y0076338D01*
X0120326Y0077137D02*
X0119194Y0077137D01*
X0118513Y0077137D02*
X0114181Y0077137D01*
X0114177Y0076338D02*
X0117714Y0076338D01*
X0117050Y0075540D02*
X0113379Y0075540D01*
X0113416Y0077935D02*
X0113928Y0077935D01*
X0113130Y0078734D02*
X0112618Y0078734D01*
X0112331Y0079532D02*
X0111819Y0079532D01*
X0111533Y0080331D02*
X0111021Y0080331D01*
X0109283Y0077035D02*
X0107408Y0077130D01*
X0102844Y0081695D01*
X0105071Y0083922D02*
X0106669Y0082324D01*
X0114573Y0082324D01*
X0120533Y0088285D01*
X0123140Y0090711D02*
X0123526Y0090711D01*
X0123448Y0090633D02*
X0125364Y0088716D01*
X0125638Y0088558D01*
X0125943Y0088477D01*
X0126259Y0088477D01*
X0126564Y0088558D01*
X0126838Y0088716D01*
X0128476Y0090355D01*
X0125823Y0093008D01*
X0126389Y0093574D01*
X0125823Y0094140D01*
X0128198Y0096515D01*
X0126281Y0098432D01*
X0126008Y0098590D01*
X0125702Y0098671D01*
X0125386Y0098671D01*
X0125081Y0098590D01*
X0124808Y0098432D01*
X0123169Y0096793D01*
X0125823Y0094140D01*
X0125257Y0093574D01*
X0125823Y0093008D01*
X0123448Y0090633D01*
X0122882Y0091199D02*
X0125257Y0093574D01*
X0122604Y0096228D01*
X0120965Y0094589D01*
X0120807Y0094316D01*
X0120725Y0094010D01*
X0120725Y0093694D01*
X0120807Y0093389D01*
X0120965Y0093116D01*
X0122882Y0091199D01*
X0123193Y0091510D02*
X0124324Y0091510D01*
X0123992Y0092308D02*
X0125123Y0092308D01*
X0124790Y0093107D02*
X0125724Y0093107D01*
X0125922Y0093107D02*
X0126856Y0093107D01*
X0126389Y0093574D02*
X0129042Y0090920D01*
X0130680Y0092559D01*
X0130838Y0092832D01*
X0130920Y0093138D01*
X0130920Y0093454D01*
X0130838Y0093759D01*
X0130680Y0094032D01*
X0128764Y0095949D01*
X0126389Y0093574D01*
X0126057Y0093905D02*
X0126720Y0093905D01*
X0126387Y0094704D02*
X0127518Y0094704D01*
X0127186Y0095502D02*
X0128317Y0095502D01*
X0127984Y0096301D02*
X0133028Y0096301D01*
X0133028Y0097100D02*
X0127613Y0097100D01*
X0126815Y0097898D02*
X0133028Y0097898D01*
X0133028Y0098697D02*
X0124035Y0098697D01*
X0124274Y0097898D02*
X0123237Y0097898D01*
X0123475Y0097100D02*
X0121681Y0097100D01*
X0121640Y0096301D02*
X0123662Y0096301D01*
X0123329Y0095502D02*
X0124460Y0095502D01*
X0124127Y0094704D02*
X0125259Y0094704D01*
X0125589Y0093905D02*
X0124926Y0093905D01*
X0126523Y0092308D02*
X0127654Y0092308D01*
X0127321Y0091510D02*
X0128453Y0091510D01*
X0128120Y0090711D02*
X0136252Y0090711D01*
X0135618Y0091510D02*
X0129632Y0091510D01*
X0130430Y0092308D02*
X0134819Y0092308D01*
X0134021Y0093107D02*
X0130912Y0093107D01*
X0130754Y0093905D02*
X0133222Y0093905D01*
X0133028Y0094704D02*
X0130009Y0094704D01*
X0129210Y0095502D02*
X0133028Y0095502D01*
X0134428Y0094679D02*
X0136928Y0092179D01*
X0138178Y0092179D01*
X0140392Y0093107D02*
X0142146Y0093107D01*
X0142944Y0092308D02*
X0140578Y0092308D01*
X0140499Y0091510D02*
X0143743Y0091510D01*
X0144541Y0090711D02*
X0140104Y0090711D01*
X0138978Y0089913D02*
X0145340Y0089913D01*
X0146138Y0089114D02*
X0127236Y0089114D01*
X0128035Y0089913D02*
X0137378Y0089913D01*
X0139846Y0093905D02*
X0141347Y0093905D01*
X0140549Y0094704D02*
X0139018Y0094704D01*
X0139328Y0095502D02*
X0139750Y0095502D01*
X0136928Y0095929D02*
X0136303Y0096554D01*
X0136303Y0142179D01*
X0135678Y0142804D01*
X0134428Y0140304D02*
X0134428Y0094679D01*
X0133028Y0099495D02*
X0124834Y0099495D01*
X0125632Y0100294D02*
X0133028Y0100294D01*
X0133028Y0101092D02*
X0126431Y0101092D01*
X0126970Y0101891D02*
X0133028Y0101891D01*
X0133028Y0102689D02*
X0126741Y0102689D01*
X0125943Y0103488D02*
X0133028Y0103488D01*
X0133028Y0104286D02*
X0125144Y0104286D01*
X0124345Y0105085D02*
X0133028Y0105085D01*
X0133028Y0105883D02*
X0123547Y0105883D01*
X0122748Y0106682D02*
X0133028Y0106682D01*
X0133028Y0107480D02*
X0120319Y0107480D01*
X0120720Y0108279D02*
X0133028Y0108279D01*
X0133028Y0109077D02*
X0120353Y0109077D01*
X0119554Y0109876D02*
X0133028Y0109876D01*
X0133028Y0110674D02*
X0118756Y0110674D01*
X0119520Y0106682D02*
X0120840Y0106682D01*
X0120042Y0105883D02*
X0118722Y0105883D01*
X0119243Y0105085D02*
X0117923Y0105085D01*
X0118445Y0104286D02*
X0117125Y0104286D01*
X0117759Y0101092D02*
X0118272Y0101092D01*
X0118558Y0100294D02*
X0119070Y0100294D01*
X0119356Y0099495D02*
X0119869Y0099495D01*
X0120155Y0098697D02*
X0120667Y0098697D01*
X0120953Y0097898D02*
X0121466Y0097898D01*
X0121878Y0095502D02*
X0120841Y0095502D01*
X0121080Y0094704D02*
X0120043Y0094704D01*
X0120725Y0093905D02*
X0119244Y0093905D01*
X0119766Y0093107D02*
X0118446Y0093107D01*
X0118967Y0092308D02*
X0117647Y0092308D01*
X0118169Y0091510D02*
X0116364Y0091510D01*
X0115565Y0090711D02*
X0117370Y0090711D01*
X0116572Y0089913D02*
X0114767Y0089913D01*
X0113968Y0089114D02*
X0115773Y0089114D01*
X0115636Y0088316D02*
X0113170Y0088316D01*
X0112553Y0089679D02*
X0110053Y0089679D01*
X0109428Y0090304D01*
X0091928Y0090304D01*
X0086303Y0084679D01*
X0086303Y0077804D01*
X0089428Y0077804D01*
X0091928Y0075304D01*
X0091928Y0074679D01*
X0093821Y0072786D01*
X0093935Y0072786D01*
X0091708Y0070559D02*
X0088803Y0073465D01*
X0088803Y0074679D01*
X0086403Y0074741D02*
X0085105Y0074741D01*
X0085203Y0075540D02*
X0085499Y0075540D01*
X0084964Y0073943D02*
X0086511Y0073943D01*
X0086944Y0073144D02*
X0085763Y0073144D01*
X0086561Y0072346D02*
X0087942Y0072346D01*
X0088163Y0071547D02*
X0086944Y0071547D01*
X0086557Y0070749D02*
X0088549Y0070749D01*
X0089348Y0069950D02*
X0085759Y0069950D01*
X0084960Y0069152D02*
X0090146Y0069152D01*
X0090945Y0068353D02*
X0084162Y0068353D01*
X0083363Y0067555D02*
X0091743Y0067555D01*
X0093653Y0067555D02*
X0094329Y0067555D01*
X0094452Y0068353D02*
X0094729Y0068353D01*
X0095250Y0069152D02*
X0095528Y0069152D01*
X0096049Y0069950D02*
X0097175Y0069950D01*
X0097407Y0070749D02*
X0096847Y0070749D01*
X0097483Y0069152D02*
X0097712Y0069152D01*
X0098281Y0068353D02*
X0098510Y0068353D01*
X0099080Y0067555D02*
X0099309Y0067555D01*
X0102998Y0065159D02*
X0104192Y0065159D01*
X0104584Y0072346D02*
X0108939Y0072346D01*
X0108141Y0073144D02*
X0103786Y0073144D01*
X0102987Y0073943D02*
X0107342Y0073943D01*
X0106544Y0074741D02*
X0101123Y0074741D01*
X0101112Y0074730D02*
X0101896Y0075514D01*
X0102053Y0075788D01*
X0102057Y0075801D01*
X0102070Y0075804D01*
X0102344Y0075962D01*
X0103127Y0076745D01*
X0100617Y0079256D01*
X0100122Y0078761D01*
X0098602Y0077241D01*
X0101112Y0074730D01*
X0101101Y0074741D02*
X0100677Y0074741D01*
X0100602Y0073943D02*
X0100324Y0073943D01*
X0100303Y0075540D02*
X0099878Y0075540D01*
X0099504Y0076338D02*
X0099080Y0076338D01*
X0098706Y0077137D02*
X0098498Y0077137D01*
X0098872Y0077935D02*
X0099296Y0077935D01*
X0099671Y0078734D02*
X0100095Y0078734D01*
X0100122Y0078761D02*
X0100122Y0078761D01*
X0100340Y0079532D02*
X0100469Y0079532D01*
X0099966Y0080331D02*
X0099542Y0080331D01*
X0099167Y0081129D02*
X0098743Y0081129D01*
X0098369Y0081928D02*
X0097945Y0081928D01*
X0097844Y0081928D02*
X0092670Y0081928D01*
X0092853Y0081129D02*
X0097073Y0081129D01*
X0096247Y0080331D02*
X0093197Y0080331D01*
X0093996Y0079532D02*
X0095449Y0079532D01*
X0095886Y0079532D02*
X0096310Y0079532D01*
X0096684Y0078734D02*
X0097109Y0078734D01*
X0097483Y0077935D02*
X0097907Y0077935D01*
X0101139Y0078734D02*
X0101563Y0078734D01*
X0101937Y0077935D02*
X0102361Y0077935D01*
X0102736Y0077137D02*
X0103160Y0077137D01*
X0103518Y0077137D02*
X0104386Y0077137D01*
X0104235Y0077935D02*
X0104594Y0077935D01*
X0104947Y0076338D02*
X0102720Y0076338D01*
X0101910Y0075540D02*
X0105745Y0075540D01*
X0110422Y0084323D02*
X0110982Y0084323D01*
X0110844Y0085122D02*
X0111781Y0085122D01*
X0112579Y0085920D02*
X0110497Y0085920D01*
X0109698Y0086719D02*
X0113378Y0086719D01*
X0115211Y0086719D02*
X0116988Y0086719D01*
X0116267Y0087517D02*
X0108900Y0087517D01*
X0109437Y0088316D02*
X0108101Y0088316D01*
X0104515Y0088316D02*
X0091920Y0088316D01*
X0091121Y0087517D02*
X0103753Y0087517D01*
X0102918Y0086719D02*
X0090323Y0086719D01*
X0089524Y0085920D02*
X0102120Y0085920D01*
X0101321Y0085122D02*
X0088726Y0085122D01*
X0087927Y0084323D02*
X0100523Y0084323D01*
X0099724Y0083525D02*
X0091104Y0083525D01*
X0092216Y0082726D02*
X0098643Y0082726D01*
X0089002Y0083525D02*
X0087703Y0083525D01*
X0087703Y0082726D02*
X0087890Y0082726D01*
X0083803Y0084679D02*
X0083803Y0075419D01*
X0081171Y0072786D01*
X0078944Y0075014D02*
X0075198Y0071268D01*
X0075823Y0068574D01*
X0073406Y0065958D02*
X0072641Y0065958D01*
X0072909Y0066225D02*
X0070992Y0068142D01*
X0070718Y0068300D01*
X0070413Y0068382D01*
X0070097Y0068382D01*
X0069792Y0068300D01*
X0069518Y0068142D01*
X0067880Y0066504D01*
X0070533Y0063850D01*
X0072909Y0066225D01*
X0072608Y0066756D02*
X0072378Y0066756D01*
X0071809Y0067555D02*
X0071580Y0067555D01*
X0071010Y0068353D02*
X0070521Y0068353D01*
X0069989Y0068353D02*
X0069349Y0068353D01*
X0068931Y0067555D02*
X0068801Y0067555D01*
X0068132Y0066756D02*
X0068003Y0066756D01*
X0068426Y0065958D02*
X0066670Y0065958D01*
X0066535Y0065159D02*
X0066406Y0065159D01*
X0065737Y0064361D02*
X0065607Y0064361D01*
X0065871Y0066756D02*
X0067003Y0066756D01*
X0066204Y0067555D02*
X0065073Y0067555D01*
X0068093Y0065159D02*
X0069225Y0065159D01*
X0068892Y0064361D02*
X0070023Y0064361D01*
X0070245Y0063562D02*
X0069690Y0063562D01*
X0069447Y0062764D02*
X0070489Y0062764D01*
X0070578Y0062764D02*
X0071620Y0062764D01*
X0071377Y0063562D02*
X0070822Y0063562D01*
X0071044Y0064361D02*
X0072175Y0064361D01*
X0071842Y0065159D02*
X0072974Y0065159D01*
X0073975Y0065159D02*
X0074205Y0065159D01*
X0074774Y0064361D02*
X0075003Y0064361D01*
X0075087Y0061965D02*
X0094780Y0061965D01*
X0094835Y0061166D02*
X0074288Y0061166D01*
X0073217Y0061166D02*
X0072086Y0061166D01*
X0072419Y0061965D02*
X0071287Y0061965D01*
X0069780Y0061965D02*
X0068648Y0061965D01*
X0068981Y0061166D02*
X0067850Y0061166D01*
X0067335Y0061166D02*
X0050256Y0061166D01*
X0050256Y0060368D02*
X0068182Y0060368D01*
X0068933Y0059569D02*
X0050256Y0059569D01*
X0050256Y0058771D02*
X0069731Y0058771D01*
X0071893Y0058771D02*
X0099404Y0058771D01*
X0096511Y0059569D02*
X0072691Y0059569D01*
X0072884Y0060368D02*
X0095634Y0060368D01*
X0103152Y0046793D02*
X0139345Y0046793D01*
X0140144Y0045995D02*
X0102354Y0045995D01*
X0108067Y0029226D02*
X0109539Y0029226D01*
X0108984Y0028428D02*
X0108622Y0028428D01*
X0108622Y0027629D02*
X0108984Y0027629D01*
X0108984Y0026831D02*
X0108622Y0026831D01*
X0108622Y0026032D02*
X0108984Y0026032D01*
X0108984Y0025233D02*
X0108622Y0025233D01*
X0108622Y0024435D02*
X0108984Y0024435D01*
X0108984Y0023636D02*
X0108622Y0023636D01*
X0108622Y0022838D02*
X0108984Y0022838D01*
X0108984Y0022039D02*
X0108622Y0022039D01*
X0106863Y0021241D02*
X0124378Y0021241D01*
X0124378Y0022039D02*
X0116102Y0022039D01*
X0116102Y0022838D02*
X0125111Y0022838D01*
X0125909Y0023636D02*
X0116102Y0023636D01*
X0116102Y0024435D02*
X0199004Y0024435D01*
X0199004Y0025233D02*
X0116102Y0025233D01*
X0124850Y0020442D02*
X0106863Y0020442D01*
X0106863Y0019644D02*
X0124378Y0019644D01*
X0124378Y0018845D02*
X0106140Y0018845D01*
X0105341Y0018047D02*
X0124378Y0018047D01*
X0124378Y0017248D02*
X0104543Y0017248D01*
X0103744Y0016450D02*
X0124687Y0016450D01*
X0125140Y0015997D02*
X0125140Y0015997D01*
X0130516Y0022838D02*
X0131556Y0022838D01*
X0131585Y0022867D02*
X0131585Y0022867D01*
X0132355Y0023636D02*
X0129718Y0023636D01*
X0132300Y0026032D02*
X0199004Y0026032D01*
X0199004Y0026831D02*
X0132873Y0026831D01*
X0133078Y0027629D02*
X0199004Y0027629D01*
X0199004Y0028428D02*
X0133018Y0028428D01*
X0132651Y0029226D02*
X0199004Y0029226D01*
X0199004Y0023636D02*
X0195247Y0023636D01*
X0195710Y0023173D02*
X0195710Y0023173D01*
X0196016Y0022867D02*
X0196016Y0022867D01*
X0196046Y0022838D02*
X0199004Y0022838D01*
X0199004Y0022039D02*
X0196778Y0022039D01*
X0196778Y0021241D02*
X0198949Y0021241D01*
X0198760Y0020442D02*
X0196778Y0020442D01*
X0196778Y0019644D02*
X0198501Y0019644D01*
X0198138Y0018845D02*
X0196778Y0018845D01*
X0196778Y0018047D02*
X0197558Y0018047D01*
X0196797Y0017248D02*
X0196778Y0017248D01*
X0191438Y0023636D02*
X0189869Y0023636D01*
X0190332Y0022838D02*
X0190640Y0022838D01*
X0190669Y0022867D02*
X0190669Y0022867D01*
X0190975Y0023173D02*
X0190975Y0023173D01*
X0183925Y0023636D02*
X0183424Y0023636D01*
X0181750Y0023636D02*
X0176978Y0023636D01*
X0177441Y0022838D02*
X0181287Y0022838D01*
X0181287Y0022039D02*
X0177441Y0022039D01*
X0177441Y0021241D02*
X0181287Y0021241D01*
X0181287Y0020442D02*
X0177441Y0020442D01*
X0177441Y0019644D02*
X0181287Y0019644D01*
X0181287Y0018845D02*
X0177441Y0018845D01*
X0177441Y0018047D02*
X0181287Y0018047D01*
X0177497Y0017248D02*
X0177441Y0017248D01*
X0171303Y0022838D02*
X0170996Y0022838D01*
X0170533Y0023636D02*
X0172102Y0023636D01*
X0165656Y0023636D02*
X0164087Y0023636D01*
X0164550Y0022838D02*
X0164858Y0022838D01*
X0164887Y0022867D02*
X0164887Y0022867D01*
X0160279Y0023636D02*
X0159795Y0023636D01*
X0158059Y0023636D02*
X0155520Y0023636D01*
X0155983Y0022838D02*
X0157527Y0022838D01*
X0156994Y0022039D02*
X0155983Y0022039D01*
X0155983Y0021241D02*
X0156462Y0021241D01*
X0153846Y0023636D02*
X0153345Y0023636D01*
X0149121Y0018845D02*
X0144140Y0018845D01*
X0144140Y0019644D02*
X0148323Y0019644D01*
X0147524Y0020442D02*
X0144140Y0020442D01*
X0144140Y0021241D02*
X0146938Y0021241D01*
X0146938Y0022039D02*
X0144140Y0022039D01*
X0143407Y0022838D02*
X0146938Y0022838D01*
X0147401Y0023636D02*
X0142609Y0023636D01*
X0138800Y0023636D02*
X0137231Y0023636D01*
X0137694Y0022838D02*
X0138002Y0022838D01*
X0138031Y0022867D02*
X0138031Y0022867D01*
X0147151Y0018047D02*
X0149920Y0018047D01*
X0147418Y0017248D02*
X0147363Y0017248D01*
X0168447Y0053980D02*
X0169442Y0053980D01*
X0168984Y0054778D02*
X0168822Y0054778D01*
X0168822Y0055577D02*
X0168984Y0055577D01*
X0168984Y0056375D02*
X0168822Y0056375D01*
X0168822Y0057174D02*
X0168984Y0057174D01*
X0169513Y0065159D02*
X0168377Y0065159D01*
X0168822Y0065958D02*
X0168984Y0065958D01*
X0168984Y0066756D02*
X0168822Y0066756D01*
X0168822Y0067555D02*
X0168984Y0067555D01*
X0168984Y0068353D02*
X0168822Y0068353D01*
X0161304Y0069950D02*
X0138832Y0069950D01*
X0139631Y0070749D02*
X0161304Y0070749D01*
X0161304Y0071547D02*
X0140429Y0071547D01*
X0141228Y0072346D02*
X0161352Y0072346D01*
X0162111Y0073144D02*
X0141794Y0073144D01*
X0141592Y0073943D02*
X0161999Y0073943D01*
X0161504Y0074741D02*
X0140794Y0074741D01*
X0139995Y0075540D02*
X0158624Y0075540D01*
X0157500Y0076338D02*
X0139197Y0076338D01*
X0138398Y0077137D02*
X0157107Y0077137D01*
X0157028Y0077935D02*
X0137600Y0077935D01*
X0136801Y0078734D02*
X0156519Y0078734D01*
X0155720Y0079532D02*
X0136003Y0079532D01*
X0135204Y0080331D02*
X0154922Y0080331D01*
X0154123Y0081129D02*
X0118968Y0081129D01*
X0119470Y0081928D02*
X0153325Y0081928D01*
X0152526Y0082726D02*
X0119204Y0082726D01*
X0118405Y0083525D02*
X0120260Y0083525D01*
X0121364Y0083525D02*
X0151728Y0083525D01*
X0150929Y0084323D02*
X0122162Y0084323D01*
X0122961Y0085122D02*
X0150131Y0085122D01*
X0149332Y0085920D02*
X0123759Y0085920D01*
X0124558Y0086719D02*
X0148534Y0086719D01*
X0147735Y0087517D02*
X0125356Y0087517D01*
X0125431Y0088316D02*
X0146937Y0088316D01*
X0149404Y0092308D02*
X0161504Y0092308D01*
X0161504Y0093107D02*
X0160395Y0093107D01*
X0158462Y0093107D02*
X0148605Y0093107D01*
X0147807Y0093905D02*
X0151972Y0093905D01*
X0151174Y0094704D02*
X0147008Y0094704D01*
X0146210Y0095502D02*
X0150375Y0095502D01*
X0149577Y0096301D02*
X0145411Y0096301D01*
X0144613Y0097100D02*
X0148778Y0097100D01*
X0147980Y0097898D02*
X0143814Y0097898D01*
X0143016Y0098697D02*
X0147181Y0098697D01*
X0146383Y0099495D02*
X0142217Y0099495D01*
X0141419Y0100294D02*
X0145584Y0100294D01*
X0144786Y0101092D02*
X0141141Y0101092D01*
X0141141Y0101891D02*
X0143987Y0101891D01*
X0143188Y0102689D02*
X0141141Y0102689D01*
X0141141Y0103488D02*
X0142390Y0103488D01*
X0141591Y0104286D02*
X0141141Y0104286D01*
X0139741Y0099992D02*
X0153178Y0086554D01*
X0159428Y0086554D01*
X0165063Y0086554D01*
X0168622Y0085920D02*
X0168784Y0085920D01*
X0168784Y0085122D02*
X0168622Y0085122D01*
X0168622Y0084323D02*
X0168784Y0084323D01*
X0168784Y0083525D02*
X0168622Y0083525D01*
X0168161Y0082726D02*
X0169162Y0082726D01*
X0172143Y0087517D02*
X0172943Y0087517D01*
X0172943Y0088316D02*
X0172143Y0088316D01*
X0172143Y0089114D02*
X0172943Y0089114D01*
X0172943Y0089913D02*
X0172143Y0089913D01*
X0172143Y0091510D02*
X0172943Y0091510D01*
X0172943Y0092308D02*
X0172143Y0092308D01*
X0172143Y0093107D02*
X0172943Y0093107D01*
X0172943Y0093905D02*
X0172143Y0093905D01*
X0172143Y0094704D02*
X0172943Y0094704D01*
X0175528Y0090711D02*
X0151001Y0090711D01*
X0151799Y0089913D02*
X0161504Y0089913D01*
X0161504Y0089114D02*
X0152598Y0089114D01*
X0153396Y0088316D02*
X0157796Y0088316D01*
X0157467Y0085122D02*
X0154091Y0085122D01*
X0154889Y0084323D02*
X0158543Y0084323D01*
X0160314Y0084323D02*
X0161504Y0084323D01*
X0161504Y0083525D02*
X0155688Y0083525D01*
X0156486Y0082726D02*
X0161965Y0082726D01*
X0161504Y0085122D02*
X0161390Y0085122D01*
X0161504Y0088316D02*
X0161061Y0088316D01*
X0161931Y0091510D02*
X0150202Y0091510D01*
X0152738Y0097100D02*
X0157829Y0097100D01*
X0161027Y0097100D02*
X0161504Y0097100D01*
X0161504Y0097898D02*
X0151939Y0097898D01*
X0151141Y0098697D02*
X0161529Y0098697D01*
X0161898Y0100294D02*
X0149544Y0100294D01*
X0148745Y0101092D02*
X0161504Y0101092D01*
X0161504Y0101891D02*
X0160476Y0101891D01*
X0158380Y0101891D02*
X0147947Y0101891D01*
X0146303Y0104054D02*
X0159428Y0104054D01*
X0165063Y0104054D01*
X0161504Y0105883D02*
X0160993Y0105883D01*
X0150342Y0099495D02*
X0175528Y0099495D01*
X0175678Y0112804D02*
X0175678Y0117179D01*
X0173803Y0119054D01*
X0173803Y0131554D01*
X0172553Y0132804D01*
X0179428Y0135929D02*
X0180053Y0136554D01*
X0180828Y0133831D02*
X0199004Y0133831D01*
X0199004Y0133033D02*
X0195026Y0133033D01*
X0195290Y0132947D02*
X0194662Y0133151D01*
X0194009Y0133254D01*
X0191078Y0133254D01*
X0191078Y0129454D01*
X0197867Y0129454D01*
X0197775Y0130038D01*
X0197570Y0130667D01*
X0197270Y0131256D01*
X0196882Y0131790D01*
X0196414Y0132258D01*
X0195879Y0132646D01*
X0195290Y0132947D01*
X0196438Y0132234D02*
X0199004Y0132234D01*
X0199004Y0131435D02*
X0197140Y0131435D01*
X0197580Y0130637D02*
X0199004Y0130637D01*
X0199004Y0129838D02*
X0197806Y0129838D01*
X0197867Y0128654D02*
X0191078Y0128654D01*
X0191078Y0124854D01*
X0194009Y0124854D01*
X0194662Y0124958D01*
X0195290Y0125162D01*
X0195879Y0125462D01*
X0196414Y0125851D01*
X0196882Y0126318D01*
X0197270Y0126853D01*
X0197570Y0127442D01*
X0197775Y0128071D01*
X0197867Y0128654D01*
X0197802Y0128241D02*
X0199004Y0128241D01*
X0199004Y0127443D02*
X0197571Y0127443D01*
X0197119Y0126644D02*
X0199004Y0126644D01*
X0199004Y0125846D02*
X0196408Y0125846D01*
X0194938Y0125047D02*
X0199004Y0125047D01*
X0199004Y0124249D02*
X0183203Y0124249D01*
X0184942Y0125851D02*
X0185477Y0125462D01*
X0186066Y0125162D01*
X0186695Y0124958D01*
X0187348Y0124854D01*
X0190278Y0124854D01*
X0190278Y0128654D01*
X0191078Y0128654D01*
X0191078Y0129454D01*
X0190278Y0129454D01*
X0190278Y0128654D01*
X0183489Y0128654D01*
X0183582Y0128071D01*
X0183786Y0127442D01*
X0184086Y0126853D01*
X0184475Y0126318D01*
X0184942Y0125851D01*
X0184949Y0125846D02*
X0180828Y0125846D01*
X0180828Y0126644D02*
X0184238Y0126644D01*
X0183786Y0127443D02*
X0180828Y0127443D01*
X0180828Y0128241D02*
X0183555Y0128241D01*
X0183489Y0129454D02*
X0190278Y0129454D01*
X0190278Y0133254D01*
X0187348Y0133254D01*
X0186695Y0133151D01*
X0186066Y0132947D01*
X0185477Y0132646D01*
X0184942Y0132258D01*
X0184475Y0131790D01*
X0184086Y0131256D01*
X0183786Y0130667D01*
X0183582Y0130038D01*
X0183489Y0129454D01*
X0183550Y0129838D02*
X0180828Y0129838D01*
X0180828Y0129040D02*
X0190278Y0129040D01*
X0190278Y0129838D02*
X0191078Y0129838D01*
X0191078Y0129040D02*
X0199004Y0129040D01*
X0191078Y0128241D02*
X0190278Y0128241D01*
X0190278Y0127443D02*
X0191078Y0127443D01*
X0191078Y0126644D02*
X0190278Y0126644D01*
X0190278Y0125846D02*
X0191078Y0125846D01*
X0191078Y0125047D02*
X0190278Y0125047D01*
X0186419Y0125047D02*
X0180828Y0125047D01*
X0180828Y0130637D02*
X0183776Y0130637D01*
X0184217Y0131435D02*
X0180828Y0131435D01*
X0180828Y0132234D02*
X0184918Y0132234D01*
X0186330Y0133033D02*
X0180828Y0133033D01*
X0190278Y0133033D02*
X0191078Y0133033D01*
X0191078Y0132234D02*
X0190278Y0132234D01*
X0190278Y0131435D02*
X0191078Y0131435D01*
X0191078Y0130637D02*
X0190278Y0130637D01*
X0184812Y0116264D02*
X0184578Y0116264D01*
X0185172Y0115465D02*
X0185890Y0115465D01*
X0196089Y0145809D02*
X0199004Y0145809D01*
X0199004Y0146607D02*
X0196888Y0146607D01*
X0197325Y0147406D02*
X0199004Y0147406D01*
X0199004Y0148204D02*
X0197656Y0148204D01*
X0197678Y0149003D02*
X0199004Y0149003D01*
X0199004Y0149801D02*
X0197678Y0149801D01*
X0197368Y0150600D02*
X0199004Y0150600D01*
X0199004Y0151398D02*
X0196991Y0151398D01*
X0196193Y0152197D02*
X0199004Y0152197D01*
X0199004Y0152995D02*
X0194616Y0152995D01*
X0199004Y0155391D02*
X0183326Y0155391D01*
X0183381Y0156189D02*
X0199004Y0156189D01*
X0199004Y0156988D02*
X0183381Y0156988D01*
X0183381Y0157786D02*
X0199004Y0157786D01*
X0195458Y0167369D02*
X0194658Y0167369D01*
X0194658Y0168167D02*
X0195458Y0168167D01*
X0195458Y0168966D02*
X0194658Y0168966D01*
X0194658Y0169764D02*
X0195458Y0169764D01*
X0195458Y0170563D02*
X0194658Y0170563D01*
X0196931Y0170563D02*
X0199004Y0170563D01*
X0199004Y0171361D02*
X0188098Y0171361D01*
X0187811Y0172160D02*
X0199004Y0172160D01*
X0199004Y0172958D02*
X0187270Y0172958D01*
X0186292Y0173757D02*
X0199004Y0173757D01*
X0199004Y0169764D02*
X0198109Y0169764D01*
X0198783Y0168966D02*
X0199004Y0168966D01*
X0180718Y0169764D02*
X0179934Y0169764D01*
X0177744Y0165771D02*
X0177363Y0165771D01*
X0177363Y0164973D02*
X0177744Y0164973D01*
X0177744Y0164174D02*
X0177363Y0164174D01*
X0177363Y0163376D02*
X0177744Y0163376D01*
X0175638Y0176951D02*
X0157495Y0176951D01*
X0157495Y0177749D02*
X0171878Y0177749D01*
X0173178Y0178429D02*
X0167553Y0184054D01*
X0167553Y0189291D01*
X0169734Y0188928D02*
X0170372Y0188928D01*
X0170372Y0188130D02*
X0169734Y0188130D01*
X0169734Y0187331D02*
X0170372Y0187331D01*
X0170372Y0186533D02*
X0169734Y0186533D01*
X0169734Y0185734D02*
X0170372Y0185734D01*
X0170372Y0184936D02*
X0169734Y0184936D01*
X0169450Y0184137D02*
X0170780Y0184137D01*
X0171289Y0183339D02*
X0170249Y0183339D01*
X0171047Y0182540D02*
X0172087Y0182540D01*
X0171846Y0181742D02*
X0172886Y0181742D01*
X0172644Y0180943D02*
X0173684Y0180943D01*
X0173443Y0180145D02*
X0175874Y0180145D01*
X0177553Y0178429D02*
X0173178Y0178429D01*
X0172553Y0184054D02*
X0172553Y0189291D01*
X0170372Y0189727D02*
X0169734Y0189727D01*
X0169734Y0190525D02*
X0170372Y0190525D01*
X0170372Y0191324D02*
X0169734Y0191324D01*
X0169734Y0192122D02*
X0170372Y0192122D01*
X0170372Y0192921D02*
X0169734Y0192921D01*
X0169734Y0193719D02*
X0170372Y0193719D01*
X0170854Y0194518D02*
X0169252Y0194518D01*
X0170893Y0195316D02*
X0171693Y0195316D01*
X0171693Y0196115D02*
X0170893Y0196115D01*
X0170893Y0196913D02*
X0171693Y0196913D01*
X0171693Y0197712D02*
X0170893Y0197712D01*
X0170893Y0198510D02*
X0171693Y0198510D01*
X0171693Y0200906D02*
X0170893Y0200906D01*
X0170893Y0201704D02*
X0171693Y0201704D01*
X0171693Y0202503D02*
X0170893Y0202503D01*
X0167635Y0202503D02*
X0167290Y0202503D01*
X0167372Y0201704D02*
X0167534Y0201704D01*
X0167534Y0200906D02*
X0167372Y0200906D01*
X0167372Y0200107D02*
X0167534Y0200107D01*
X0139741Y0171867D02*
X0139741Y0099992D01*
X0124966Y0089114D02*
X0124737Y0089114D01*
X0124168Y0089913D02*
X0123938Y0089913D01*
X0122571Y0091510D02*
X0122341Y0091510D01*
X0121772Y0092308D02*
X0121543Y0092308D01*
X0120974Y0093107D02*
X0120744Y0093107D01*
X0116783Y0093910D02*
X0112553Y0089679D01*
X0111303Y0092179D02*
X0111303Y0096554D01*
X0108803Y0099054D01*
X0107553Y0099054D01*
X0105185Y0096687D01*
X0105071Y0096687D01*
X0102844Y0098914D02*
X0096109Y0092179D01*
X0089428Y0092179D01*
X0085053Y0087804D01*
X0076928Y0091554D02*
X0076928Y0098702D01*
X0074489Y0101141D01*
X0076717Y0103368D02*
X0079521Y0100929D01*
X0080678Y0100929D01*
X0087553Y0107804D01*
X0087553Y0110304D01*
X0080053Y0117804D01*
X0082459Y0121055D02*
X0084823Y0121055D01*
X0084024Y0121853D02*
X0079832Y0121853D01*
X0080631Y0122652D02*
X0083653Y0122652D01*
X0083653Y0123450D02*
X0081429Y0123450D01*
X0082155Y0124249D02*
X0083653Y0124249D01*
X0083653Y0125047D02*
X0082953Y0125047D01*
X0080053Y0126554D02*
X0080053Y0127804D01*
X0082553Y0134054D02*
X0090688Y0142189D01*
X0092608Y0134630D02*
X0092694Y0134630D01*
X0092653Y0133831D02*
X0091810Y0133831D01*
X0091011Y0133033D02*
X0092879Y0133033D01*
X0093479Y0132234D02*
X0090213Y0132234D01*
X0090453Y0131435D02*
X0089653Y0131435D01*
X0089653Y0130637D02*
X0090453Y0130637D01*
X0090453Y0129838D02*
X0089653Y0129838D01*
X0089653Y0129040D02*
X0090453Y0129040D01*
X0090453Y0128241D02*
X0089653Y0128241D01*
X0090453Y0127443D02*
X0096053Y0127443D01*
X0096053Y0128241D02*
X0094253Y0128241D01*
X0094253Y0129040D02*
X0096053Y0129040D01*
X0096430Y0129838D02*
X0093959Y0129838D01*
X0093160Y0130637D02*
X0097229Y0130637D01*
X0098027Y0131435D02*
X0092362Y0131435D01*
X0095053Y0134054D02*
X0098803Y0134054D01*
X0104428Y0139679D01*
X0104428Y0145304D01*
X0103178Y0146554D01*
X0103178Y0150929D01*
X0105309Y0149801D02*
X0126161Y0149801D01*
X0126161Y0149245D02*
X0131501Y0149245D01*
X0131501Y0151435D01*
X0127203Y0151435D01*
X0126898Y0151354D01*
X0126624Y0151196D01*
X0126401Y0150972D01*
X0126243Y0150699D01*
X0126161Y0150393D01*
X0126161Y0149245D01*
X0126161Y0148204D02*
X0104578Y0148204D01*
X0104578Y0147406D02*
X0126245Y0147406D01*
X0126217Y0150600D02*
X0105578Y0150600D01*
X0105578Y0151398D02*
X0127065Y0151398D01*
X0126623Y0152197D02*
X0121590Y0152197D01*
X0120053Y0154054D02*
X0131692Y0154054D01*
X0131501Y0151398D02*
X0131882Y0151398D01*
X0131882Y0150600D02*
X0131501Y0150600D01*
X0131501Y0149801D02*
X0131882Y0149801D01*
X0131501Y0149003D02*
X0104646Y0149003D01*
X0105105Y0146607D02*
X0130495Y0146607D01*
X0130164Y0145809D02*
X0105828Y0145809D01*
X0105828Y0145010D02*
X0130153Y0145010D01*
X0130408Y0144212D02*
X0105828Y0144212D01*
X0105828Y0143413D02*
X0131050Y0143413D01*
X0131153Y0142615D02*
X0105828Y0142615D01*
X0105828Y0141816D02*
X0131153Y0141816D01*
X0131735Y0141018D02*
X0105828Y0141018D01*
X0105828Y0140219D02*
X0132533Y0140219D01*
X0133028Y0139421D02*
X0105828Y0139421D01*
X0105351Y0138622D02*
X0133028Y0138622D01*
X0133028Y0137824D02*
X0104552Y0137824D01*
X0103754Y0137025D02*
X0133028Y0137025D01*
X0133028Y0136227D02*
X0102955Y0136227D01*
X0102157Y0135428D02*
X0133028Y0135428D01*
X0133028Y0134630D02*
X0101358Y0134630D01*
X0100560Y0133831D02*
X0133028Y0133831D01*
X0133028Y0133033D02*
X0099761Y0133033D01*
X0102079Y0131435D02*
X0133028Y0131435D01*
X0133028Y0130637D02*
X0102877Y0130637D01*
X0103676Y0129838D02*
X0133028Y0129838D01*
X0133028Y0129040D02*
X0104053Y0129040D01*
X0097952Y0124249D02*
X0092437Y0124249D01*
X0093236Y0125047D02*
X0097153Y0125047D01*
X0096355Y0125846D02*
X0094034Y0125846D01*
X0094253Y0126644D02*
X0096053Y0126644D01*
X0090453Y0126644D02*
X0089653Y0126644D01*
X0089653Y0125846D02*
X0090453Y0125846D01*
X0090453Y0125047D02*
X0089653Y0125047D01*
X0089653Y0124249D02*
X0090453Y0124249D01*
X0096627Y0132234D02*
X0133028Y0132234D01*
X0133028Y0128241D02*
X0112385Y0128241D01*
X0112908Y0127443D02*
X0133028Y0127443D01*
X0133028Y0126644D02*
X0113078Y0126644D01*
X0112982Y0125846D02*
X0133028Y0125846D01*
X0133028Y0125047D02*
X0112565Y0125047D01*
X0111384Y0124249D02*
X0133028Y0124249D01*
X0133028Y0123450D02*
X0109554Y0123450D01*
X0108756Y0122652D02*
X0133028Y0122652D01*
X0133028Y0121853D02*
X0107957Y0121853D01*
X0107159Y0121055D02*
X0133028Y0121055D01*
X0145828Y0137824D02*
X0147835Y0137824D01*
X0147794Y0137865D02*
X0148017Y0137641D01*
X0148291Y0137483D01*
X0148596Y0137402D01*
X0150913Y0137402D01*
X0150913Y0141154D01*
X0151713Y0141154D01*
X0151713Y0137402D01*
X0154030Y0137402D01*
X0154335Y0137483D01*
X0154609Y0137641D01*
X0154832Y0137865D01*
X0154990Y0138138D01*
X0155072Y0138444D01*
X0155072Y0141154D01*
X0151713Y0141154D01*
X0151713Y0141954D01*
X0155072Y0141954D01*
X0155072Y0144665D01*
X0154990Y0144970D01*
X0154832Y0145244D01*
X0154609Y0145467D01*
X0154335Y0145625D01*
X0154030Y0145707D01*
X0151713Y0145707D01*
X0151713Y0141954D01*
X0150913Y0141954D01*
X0150913Y0141154D01*
X0147554Y0141154D01*
X0147554Y0138444D01*
X0147636Y0138138D01*
X0147794Y0137865D01*
X0147554Y0138622D02*
X0145828Y0138622D01*
X0145828Y0139421D02*
X0147554Y0139421D01*
X0147554Y0140219D02*
X0145828Y0140219D01*
X0145828Y0141018D02*
X0147554Y0141018D01*
X0147554Y0141954D02*
X0150913Y0141954D01*
X0150913Y0145707D01*
X0148596Y0145707D01*
X0148291Y0145625D01*
X0148017Y0145467D01*
X0147794Y0145244D01*
X0147636Y0144970D01*
X0147554Y0144665D01*
X0147554Y0141954D01*
X0147554Y0142615D02*
X0145828Y0142615D01*
X0145828Y0143413D02*
X0147554Y0143413D01*
X0147554Y0144212D02*
X0145828Y0144212D01*
X0145828Y0145010D02*
X0147659Y0145010D01*
X0145828Y0145809D02*
X0157199Y0145809D01*
X0157200Y0146607D02*
X0145828Y0146607D01*
X0145828Y0147406D02*
X0146887Y0147406D01*
X0146834Y0148204D02*
X0145828Y0148204D01*
X0145828Y0149003D02*
X0146834Y0149003D01*
X0146834Y0149801D02*
X0145828Y0149801D01*
X0145828Y0150600D02*
X0146834Y0150600D01*
X0145828Y0151398D02*
X0158190Y0151398D01*
X0159416Y0151398D02*
X0160254Y0151398D01*
X0160254Y0152197D02*
X0157233Y0152197D01*
X0157495Y0152995D02*
X0159757Y0152995D01*
X0158959Y0153794D02*
X0157495Y0153794D01*
X0157495Y0154592D02*
X0158160Y0154592D01*
X0155678Y0159054D02*
X0152164Y0159054D01*
X0155678Y0159054D02*
X0163178Y0151554D01*
X0163813Y0150929D01*
X0155323Y0145010D02*
X0154967Y0145010D01*
X0155072Y0144212D02*
X0155234Y0144212D01*
X0155234Y0143413D02*
X0155072Y0143413D01*
X0155072Y0142615D02*
X0155234Y0142615D01*
X0155234Y0141816D02*
X0151713Y0141816D01*
X0151713Y0141018D02*
X0150913Y0141018D01*
X0150913Y0141816D02*
X0145828Y0141816D01*
X0150913Y0142615D02*
X0151713Y0142615D01*
X0151713Y0143413D02*
X0150913Y0143413D01*
X0150913Y0144212D02*
X0151713Y0144212D01*
X0151713Y0145010D02*
X0150913Y0145010D01*
X0150913Y0140219D02*
X0151713Y0140219D01*
X0151713Y0139421D02*
X0150913Y0139421D01*
X0150913Y0138622D02*
X0151713Y0138622D01*
X0151713Y0137824D02*
X0150913Y0137824D01*
X0154791Y0137824D02*
X0155598Y0137824D01*
X0155234Y0138622D02*
X0155072Y0138622D01*
X0155072Y0139421D02*
X0155234Y0139421D01*
X0155234Y0140219D02*
X0155072Y0140219D01*
X0155072Y0141018D02*
X0155234Y0141018D01*
X0147096Y0152197D02*
X0145828Y0152197D01*
X0145828Y0152995D02*
X0146037Y0152995D01*
X0136778Y0152197D02*
X0136760Y0152197D01*
X0136778Y0151398D02*
X0136319Y0151398D01*
X0132553Y0145304D02*
X0132553Y0142179D01*
X0134428Y0140304D01*
X0118517Y0152197D02*
X0117840Y0152197D01*
X0116303Y0154054D02*
X0126303Y0164054D01*
X0131692Y0164054D01*
X0124443Y0164174D02*
X0070903Y0164174D01*
X0070105Y0163376D02*
X0123645Y0163376D01*
X0122846Y0162577D02*
X0102424Y0162577D01*
X0102924Y0161779D02*
X0122048Y0161779D01*
X0121249Y0160980D02*
X0103078Y0160980D01*
X0102966Y0160182D02*
X0120451Y0160182D01*
X0119652Y0159383D02*
X0102526Y0159383D01*
X0101290Y0158585D02*
X0118854Y0158585D01*
X0118055Y0157786D02*
X0099568Y0157786D01*
X0099568Y0156988D02*
X0117257Y0156988D01*
X0115186Y0156189D02*
X0099568Y0156189D01*
X0099568Y0155391D02*
X0114259Y0155391D01*
X0113928Y0154592D02*
X0099568Y0154592D01*
X0099568Y0153794D02*
X0113903Y0153794D01*
X0114144Y0152995D02*
X0104462Y0152995D01*
X0105251Y0152197D02*
X0114767Y0152197D01*
X0101894Y0152995D02*
X0101153Y0152995D01*
X0098432Y0161779D02*
X0068508Y0161779D01*
X0069306Y0162577D02*
X0098932Y0162577D01*
X0092984Y0168966D02*
X0090737Y0168966D01*
X0090719Y0168896D02*
X0090800Y0169201D01*
X0090800Y0170928D01*
X0086851Y0170928D01*
X0086851Y0171728D01*
X0090800Y0171728D01*
X0090800Y0173454D01*
X0090719Y0173760D01*
X0090561Y0174033D01*
X0090337Y0174257D01*
X0090064Y0174415D01*
X0089758Y0174496D01*
X0086851Y0174496D01*
X0086851Y0171728D01*
X0086051Y0171728D01*
X0086051Y0174496D01*
X0083143Y0174496D01*
X0082838Y0174415D01*
X0082564Y0174257D01*
X0082341Y0174033D01*
X0082183Y0173760D01*
X0082101Y0173454D01*
X0082101Y0171728D01*
X0086051Y0171728D01*
X0086051Y0170928D01*
X0086851Y0170928D01*
X0086851Y0168159D01*
X0089758Y0168159D01*
X0090064Y0168241D01*
X0090337Y0168399D01*
X0090561Y0168623D01*
X0090719Y0168896D01*
X0090800Y0169764D02*
X0093783Y0169764D01*
X0094581Y0170563D02*
X0090800Y0170563D01*
X0090800Y0172160D02*
X0096178Y0172160D01*
X0095380Y0171361D02*
X0086851Y0171361D01*
X0086851Y0170563D02*
X0086051Y0170563D01*
X0086051Y0170928D02*
X0086051Y0168159D01*
X0083143Y0168159D01*
X0082838Y0168241D01*
X0082564Y0168399D01*
X0082341Y0168623D01*
X0082183Y0168896D01*
X0082101Y0169201D01*
X0082101Y0170928D01*
X0086051Y0170928D01*
X0086051Y0171361D02*
X0070915Y0171361D01*
X0070915Y0170563D02*
X0082101Y0170563D01*
X0082101Y0169764D02*
X0070915Y0169764D01*
X0070621Y0168966D02*
X0082164Y0168966D01*
X0083115Y0168167D02*
X0058386Y0168167D01*
X0058386Y0167369D02*
X0091387Y0167369D01*
X0092186Y0168167D02*
X0089787Y0168167D01*
X0086851Y0168167D02*
X0086051Y0168167D01*
X0086051Y0168966D02*
X0086851Y0168966D01*
X0086851Y0169764D02*
X0086051Y0169764D01*
X0086051Y0172160D02*
X0086851Y0172160D01*
X0086851Y0172958D02*
X0086051Y0172958D01*
X0086051Y0173757D02*
X0086851Y0173757D01*
X0090719Y0173757D02*
X0097776Y0173757D01*
X0098574Y0174555D02*
X0070915Y0174555D01*
X0070915Y0173757D02*
X0082182Y0173757D01*
X0082101Y0172958D02*
X0070915Y0172958D01*
X0070915Y0172160D02*
X0082101Y0172160D01*
X0090800Y0172958D02*
X0096977Y0172958D01*
X0099373Y0175354D02*
X0070915Y0175354D01*
X0070915Y0176152D02*
X0100171Y0176152D01*
X0100778Y0176951D02*
X0070915Y0176951D01*
X0070915Y0177749D02*
X0100816Y0177749D01*
X0099225Y0183339D02*
X0099206Y0183339D01*
X0099206Y0184137D02*
X0099225Y0184137D01*
X0099198Y0184936D02*
X0099225Y0184936D01*
X0098698Y0185734D02*
X0099797Y0185734D01*
X0099389Y0186533D02*
X0098842Y0186533D01*
X0099006Y0187331D02*
X0099225Y0187331D01*
X0099225Y0188130D02*
X0099006Y0188130D01*
X0099006Y0191324D02*
X0099225Y0191324D01*
X0099225Y0192122D02*
X0099006Y0192122D01*
X0098728Y0192921D02*
X0099504Y0192921D01*
X0091928Y0165929D02*
X0070678Y0165929D01*
X0062553Y0157804D01*
X0062553Y0117179D01*
X0052553Y0107179D01*
X0052553Y0105304D01*
X0047367Y0111473D02*
X0042264Y0111473D01*
X0042264Y0112271D02*
X0048165Y0112271D01*
X0048964Y0113070D02*
X0042029Y0113070D01*
X0042264Y0110674D02*
X0046568Y0110674D01*
X0046153Y0109876D02*
X0042264Y0109876D01*
X0042264Y0109077D02*
X0046153Y0109077D01*
X0046153Y0108279D02*
X0042264Y0108279D01*
X0042264Y0107480D02*
X0046153Y0107480D01*
X0046153Y0106682D02*
X0042264Y0106682D01*
X0042264Y0105883D02*
X0046153Y0105883D01*
X0046153Y0105085D02*
X0042264Y0105085D01*
X0042264Y0104286D02*
X0046153Y0104286D01*
X0046153Y0103488D02*
X0042013Y0103488D01*
X0046153Y0102689D02*
X0005453Y0102689D01*
X0005453Y0101891D02*
X0046153Y0101891D01*
X0046153Y0101092D02*
X0005453Y0101092D01*
X0005453Y0100294D02*
X0046834Y0100294D01*
X0047633Y0099495D02*
X0005453Y0099495D01*
X0005453Y0098697D02*
X0048431Y0098697D01*
X0049230Y0097898D02*
X0005453Y0097898D01*
X0005453Y0097100D02*
X0050028Y0097100D01*
X0049651Y0096301D02*
X0050827Y0096301D01*
X0050749Y0095502D02*
X0051625Y0095502D01*
X0051630Y0094704D02*
X0051132Y0094704D01*
X0049762Y0113868D02*
X0005453Y0113868D01*
X0005453Y0113070D02*
X0010578Y0113070D01*
X0010343Y0112271D02*
X0005453Y0112271D01*
X0005453Y0111473D02*
X0010343Y0111473D01*
X0010343Y0110674D02*
X0005453Y0110674D01*
X0005453Y0109876D02*
X0010343Y0109876D01*
X0010343Y0109077D02*
X0005453Y0109077D01*
X0005453Y0108279D02*
X0010343Y0108279D01*
X0010343Y0107480D02*
X0005453Y0107480D01*
X0005453Y0106682D02*
X0010343Y0106682D01*
X0010343Y0105883D02*
X0005453Y0105883D01*
X0005453Y0105085D02*
X0010343Y0105085D01*
X0010343Y0104286D02*
X0005453Y0104286D01*
X0005453Y0103488D02*
X0010593Y0103488D01*
X0010344Y0096301D02*
X0005453Y0096301D01*
X0005453Y0095502D02*
X0010343Y0095502D01*
X0010343Y0094704D02*
X0005453Y0094704D01*
X0005453Y0093905D02*
X0010343Y0093905D01*
X0010343Y0093107D02*
X0005453Y0093107D01*
X0005453Y0092308D02*
X0010343Y0092308D01*
X0010343Y0091510D02*
X0005453Y0091510D01*
X0005453Y0090711D02*
X0010343Y0090711D01*
X0010343Y0089913D02*
X0005453Y0089913D01*
X0005453Y0089114D02*
X0010343Y0089114D01*
X0010343Y0088316D02*
X0005453Y0088316D01*
X0005453Y0087517D02*
X0010343Y0087517D01*
X0010827Y0086719D02*
X0005453Y0086719D01*
X0005453Y0114667D02*
X0050561Y0114667D01*
X0051359Y0115465D02*
X0005453Y0115465D01*
X0005453Y0116264D02*
X0052158Y0116264D01*
X0052956Y0117062D02*
X0005453Y0117062D01*
X0005453Y0117861D02*
X0053755Y0117861D01*
X0054553Y0118659D02*
X0005453Y0118659D01*
X0005453Y0119458D02*
X0055352Y0119458D01*
X0056150Y0120256D02*
X0042246Y0120256D01*
X0042264Y0121055D02*
X0056153Y0121055D01*
X0056153Y0121853D02*
X0042264Y0121853D01*
X0042264Y0122652D02*
X0056153Y0122652D01*
X0056153Y0123450D02*
X0042264Y0123450D01*
X0042264Y0124249D02*
X0056153Y0124249D01*
X0056153Y0125047D02*
X0042264Y0125047D01*
X0042264Y0125846D02*
X0056153Y0125846D01*
X0056153Y0126644D02*
X0042264Y0126644D01*
X0042264Y0127443D02*
X0056153Y0127443D01*
X0056153Y0128241D02*
X0042264Y0128241D01*
X0042264Y0129040D02*
X0056153Y0129040D01*
X0056153Y0129838D02*
X0041795Y0129838D01*
X0041681Y0136227D02*
X0056153Y0136227D01*
X0056153Y0137025D02*
X0042264Y0137025D01*
X0042264Y0137824D02*
X0056153Y0137824D01*
X0056153Y0138622D02*
X0042264Y0138622D01*
X0042264Y0139421D02*
X0056153Y0139421D01*
X0056153Y0140219D02*
X0042264Y0140219D01*
X0042264Y0141018D02*
X0056153Y0141018D01*
X0056153Y0141816D02*
X0042264Y0141816D01*
X0042264Y0142615D02*
X0056153Y0142615D01*
X0056153Y0143413D02*
X0042264Y0143413D01*
X0042264Y0144212D02*
X0056153Y0144212D01*
X0056153Y0145010D02*
X0042264Y0145010D01*
X0042264Y0145809D02*
X0056153Y0145809D01*
X0056153Y0146607D02*
X0005453Y0146607D01*
X0005453Y0145809D02*
X0010343Y0145809D01*
X0010343Y0145010D02*
X0005453Y0145010D01*
X0005453Y0144212D02*
X0010343Y0144212D01*
X0010343Y0143413D02*
X0005453Y0143413D01*
X0005453Y0142615D02*
X0010343Y0142615D01*
X0010343Y0141816D02*
X0005453Y0141816D01*
X0005453Y0141018D02*
X0010343Y0141018D01*
X0010343Y0140219D02*
X0005453Y0140219D01*
X0005453Y0139421D02*
X0010343Y0139421D01*
X0010343Y0138622D02*
X0005453Y0138622D01*
X0005453Y0137824D02*
X0010343Y0137824D01*
X0010343Y0137025D02*
X0005453Y0137025D01*
X0005453Y0136227D02*
X0010925Y0136227D01*
X0005453Y0135428D02*
X0056153Y0135428D01*
X0056153Y0134630D02*
X0005453Y0134630D01*
X0005453Y0133831D02*
X0056153Y0133831D01*
X0056153Y0133033D02*
X0005453Y0133033D01*
X0005453Y0132234D02*
X0056153Y0132234D01*
X0056153Y0131435D02*
X0005453Y0131435D01*
X0005453Y0130637D02*
X0056153Y0130637D01*
X0063953Y0130637D02*
X0067229Y0130637D01*
X0068027Y0131435D02*
X0063953Y0131435D01*
X0063953Y0132234D02*
X0072503Y0132234D01*
X0073301Y0133033D02*
X0063953Y0133033D01*
X0063953Y0133831D02*
X0074100Y0133831D01*
X0074898Y0134630D02*
X0063953Y0134630D01*
X0063953Y0135428D02*
X0075697Y0135428D01*
X0066430Y0129838D02*
X0063953Y0129838D01*
X0063953Y0129040D02*
X0066053Y0129040D01*
X0066053Y0128241D02*
X0063953Y0128241D01*
X0063953Y0127443D02*
X0066053Y0127443D01*
X0066053Y0126644D02*
X0063953Y0126644D01*
X0063953Y0125846D02*
X0066355Y0125846D01*
X0067153Y0125047D02*
X0063953Y0125047D01*
X0063953Y0124249D02*
X0067952Y0124249D01*
X0063988Y0117062D02*
X0063953Y0117062D01*
X0070725Y0111473D02*
X0074405Y0111473D01*
X0074903Y0110674D02*
X0071523Y0110674D01*
X0072322Y0109876D02*
X0074903Y0109876D01*
X0074903Y0109077D02*
X0073120Y0109077D01*
X0073919Y0108279D02*
X0074903Y0108279D01*
X0075079Y0107480D02*
X0074470Y0107480D01*
X0074253Y0106682D02*
X0075081Y0106682D01*
X0074282Y0105883D02*
X0073455Y0105883D01*
X0073484Y0105085D02*
X0072656Y0105085D01*
X0072685Y0104286D02*
X0071858Y0104286D01*
X0071886Y0103488D02*
X0071059Y0103488D01*
X0071088Y0102689D02*
X0070973Y0102689D01*
X0069573Y0101603D02*
X0069573Y0107035D01*
X0087566Y0112271D02*
X0090960Y0112271D01*
X0090162Y0111473D02*
X0088365Y0111473D01*
X0088953Y0110674D02*
X0089363Y0110674D01*
X0091708Y0110049D02*
X0095303Y0113429D01*
X0101928Y0113429D01*
X0104428Y0115929D01*
X0105828Y0117062D02*
X0105938Y0117062D01*
X0108850Y0114667D02*
X0109981Y0114667D01*
X0109648Y0115465D02*
X0109616Y0115465D01*
X0109183Y0113868D02*
X0108051Y0113868D01*
X0103199Y0121055D02*
X0102459Y0121055D01*
X0107984Y0104054D02*
X0102844Y0098914D01*
X0107984Y0104054D02*
X0108803Y0104054D01*
X0109908Y0102949D01*
X0110533Y0103285D01*
X0122073Y0102324D01*
X0116783Y0097035D02*
X0116783Y0093910D01*
X0116189Y0085920D02*
X0116010Y0085920D01*
X0118552Y0084323D02*
X0119462Y0084323D01*
X0118170Y0080331D02*
X0133939Y0080331D01*
X0133141Y0079532D02*
X0122681Y0079532D01*
X0123479Y0078734D02*
X0132342Y0078734D01*
X0131544Y0077935D02*
X0124278Y0077935D01*
X0123820Y0077137D02*
X0124951Y0077137D01*
X0125076Y0077137D02*
X0130745Y0077137D01*
X0130178Y0076338D02*
X0125875Y0076338D01*
X0126673Y0075540D02*
X0130379Y0075540D01*
X0131177Y0074741D02*
X0127160Y0074741D01*
X0127008Y0073943D02*
X0127551Y0073943D01*
X0126753Y0073144D02*
X0126266Y0073144D01*
X0125954Y0072346D02*
X0125467Y0072346D01*
X0128723Y0073943D02*
X0131976Y0073943D01*
X0132774Y0073144D02*
X0129522Y0073144D01*
X0130320Y0072346D02*
X0133573Y0072346D01*
X0134371Y0071547D02*
X0131119Y0071547D01*
X0131917Y0070749D02*
X0135170Y0070749D01*
X0135968Y0069950D02*
X0132716Y0069950D01*
X0127890Y0065159D02*
X0124637Y0065159D01*
X0123839Y0065958D02*
X0127092Y0065958D01*
X0126293Y0066756D02*
X0123040Y0066756D01*
X0122242Y0067555D02*
X0125495Y0067555D01*
X0124696Y0068353D02*
X0121192Y0068353D01*
X0121163Y0067555D02*
X0120393Y0067555D01*
X0125436Y0064361D02*
X0128689Y0064361D01*
X0129487Y0063562D02*
X0126234Y0063562D01*
X0122721Y0074741D02*
X0122556Y0074741D01*
X0122223Y0075540D02*
X0123354Y0075540D01*
X0123021Y0076338D02*
X0124153Y0076338D01*
X0120908Y0079532D02*
X0117371Y0079532D01*
X0116573Y0078734D02*
X0120110Y0078734D01*
X0119527Y0077935D02*
X0115774Y0077935D01*
X0081453Y0067555D02*
X0080393Y0067555D01*
X0069573Y0074199D02*
X0069237Y0074535D01*
X0058658Y0074535D01*
X0066164Y0072346D02*
X0066393Y0072346D01*
X0066537Y0061965D02*
X0050256Y0061965D01*
X0046703Y0063562D02*
X0045903Y0063562D01*
X0045903Y0064361D02*
X0046703Y0064361D01*
X0046703Y0065159D02*
X0045903Y0065159D01*
X0045903Y0067555D02*
X0046703Y0067555D01*
X0046703Y0068353D02*
X0045903Y0068353D01*
X0045903Y0069152D02*
X0046703Y0069152D01*
X0046703Y0069950D02*
X0045903Y0069950D01*
X0034601Y0047592D02*
X0005453Y0047592D01*
X0005453Y0046793D02*
X0010443Y0046793D01*
X0010343Y0045995D02*
X0005453Y0045995D01*
X0005453Y0045196D02*
X0010343Y0045196D01*
X0010343Y0044398D02*
X0005453Y0044398D01*
X0005453Y0043599D02*
X0010343Y0043599D01*
X0010343Y0042801D02*
X0005453Y0042801D01*
X0005453Y0042002D02*
X0010343Y0042002D01*
X0010343Y0041204D02*
X0005453Y0041204D01*
X0005453Y0040405D02*
X0010343Y0040405D01*
X0010343Y0039607D02*
X0005453Y0039607D01*
X0005453Y0038808D02*
X0010343Y0038808D01*
X0010343Y0038010D02*
X0005453Y0038010D01*
X0005453Y0037211D02*
X0010728Y0037211D01*
X0005453Y0036413D02*
X0018663Y0036413D01*
X0019462Y0035614D02*
X0005453Y0035614D01*
X0005453Y0034816D02*
X0020260Y0034816D01*
X0021059Y0034017D02*
X0005453Y0034017D01*
X0005453Y0033219D02*
X0021857Y0033219D01*
X0022003Y0032420D02*
X0005453Y0032420D01*
X0005453Y0031622D02*
X0022003Y0031622D01*
X0010360Y0120256D02*
X0005453Y0120256D01*
X0005453Y0121055D02*
X0010343Y0121055D01*
X0010343Y0121853D02*
X0005453Y0121853D01*
X0005453Y0122652D02*
X0010343Y0122652D01*
X0010343Y0123450D02*
X0005453Y0123450D01*
X0005453Y0124249D02*
X0010343Y0124249D01*
X0010343Y0125047D02*
X0005453Y0125047D01*
X0005453Y0125846D02*
X0010343Y0125846D01*
X0010343Y0126644D02*
X0005453Y0126644D01*
X0005453Y0127443D02*
X0010343Y0127443D01*
X0010343Y0128241D02*
X0005453Y0128241D01*
X0005453Y0129040D02*
X0010343Y0129040D01*
X0010811Y0129838D02*
X0005453Y0129838D01*
X0005453Y0147406D02*
X0051661Y0147406D01*
X0051100Y0148204D02*
X0005453Y0148204D01*
X0005453Y0149003D02*
X0051100Y0149003D01*
X0051100Y0149801D02*
X0005453Y0149801D01*
X0005453Y0150600D02*
X0051100Y0150600D01*
X0051100Y0151398D02*
X0005453Y0151398D01*
X0005453Y0152197D02*
X0051100Y0152197D01*
X0051100Y0152995D02*
X0041914Y0152995D01*
X0055053Y0158419D02*
X0056986Y0158419D01*
X0056986Y0172822D01*
X0057553Y0172804D01*
X0057711Y0180304D01*
X0057553Y0172804D02*
X0052553Y0172804D01*
X0053685Y0172922D02*
X0056986Y0172822D01*
X0058386Y0166570D02*
X0062560Y0166570D01*
X0061561Y0165771D02*
X0058386Y0165771D01*
X0058386Y0164973D02*
X0061153Y0164973D01*
X0061003Y0164174D02*
X0058386Y0164174D01*
X0058386Y0163376D02*
X0060579Y0163376D01*
X0059781Y0162577D02*
X0058386Y0162577D01*
X0058620Y0161779D02*
X0058982Y0161779D01*
X0065047Y0166570D02*
X0069339Y0166570D01*
X0069278Y0166509D02*
X0069278Y0166509D01*
X0068540Y0165771D02*
X0066046Y0165771D01*
X0066453Y0164973D02*
X0067742Y0164973D01*
X0066943Y0164174D02*
X0066603Y0164174D01*
X0010479Y0162577D02*
X0005453Y0162577D01*
X0005453Y0161779D02*
X0010343Y0161779D01*
X0010343Y0160980D02*
X0005453Y0160980D01*
X0005453Y0160182D02*
X0010343Y0160182D01*
X0010343Y0159383D02*
X0005453Y0159383D01*
X0005453Y0158585D02*
X0010343Y0158585D01*
X0010343Y0157786D02*
X0005453Y0157786D01*
X0005453Y0156988D02*
X0010343Y0156988D01*
X0010343Y0156189D02*
X0005453Y0156189D01*
X0005453Y0155391D02*
X0010343Y0155391D01*
X0010343Y0154592D02*
X0005453Y0154592D01*
X0005453Y0153794D02*
X0010343Y0153794D01*
X0010692Y0152995D02*
X0005453Y0152995D01*
X0150497Y0119458D02*
X0150659Y0119458D01*
X0150659Y0118659D02*
X0150497Y0118659D01*
X0150497Y0117861D02*
X0150659Y0117861D01*
X0150694Y0117062D02*
X0150497Y0117062D01*
X0175370Y0081928D02*
X0175528Y0081928D01*
X0165063Y0077804D02*
X0159428Y0077804D01*
X0160232Y0075540D02*
X0161504Y0075540D01*
X0161504Y0076338D02*
X0161356Y0076338D01*
D30*
X0159428Y0077804D03*
X0159428Y0086554D03*
X0159428Y0095304D03*
X0159428Y0104054D03*
X0159428Y0109679D03*
X0167553Y0117804D03*
X0171303Y0117804D03*
X0181928Y0122179D03*
X0172553Y0132804D03*
X0175053Y0135304D03*
X0176928Y0138429D03*
X0180053Y0136554D03*
X0165053Y0140304D03*
X0158803Y0149054D03*
X0135678Y0142804D03*
X0132553Y0145304D03*
X0126303Y0145304D03*
X0126303Y0139054D03*
X0120053Y0139054D03*
X0120053Y0145304D03*
X0120053Y0154054D03*
X0116303Y0154054D03*
X0119428Y0162804D03*
X0125053Y0159054D03*
X0125678Y0167804D03*
X0120678Y0169054D03*
X0118178Y0174054D03*
X0118178Y0179054D03*
X0118178Y0185304D03*
X0125053Y0186554D03*
X0125053Y0182804D03*
X0125053Y0179054D03*
X0125053Y0175304D03*
X0132553Y0167804D03*
X0145053Y0181554D03*
X0142553Y0186554D03*
X0138803Y0186554D03*
X0144428Y0195929D03*
X0145053Y0204054D03*
X0141928Y0214054D03*
X0149428Y0214054D03*
X0156928Y0214054D03*
X0164428Y0214054D03*
X0173178Y0214054D03*
X0180678Y0214054D03*
X0180678Y0206554D03*
X0188178Y0206554D03*
X0188178Y0199054D03*
X0195678Y0206554D03*
X0195678Y0214054D03*
X0188178Y0214054D03*
X0177553Y0182179D03*
X0177553Y0178429D03*
X0188178Y0157804D03*
X0195678Y0157804D03*
X0160053Y0175929D03*
X0160053Y0181554D03*
X0158803Y0199054D03*
X0134428Y0214054D03*
X0126928Y0214054D03*
X0119428Y0214054D03*
X0111928Y0214054D03*
X0104428Y0214054D03*
X0096928Y0214054D03*
X0089428Y0214054D03*
X0081928Y0214054D03*
X0081928Y0206554D03*
X0081928Y0199054D03*
X0074428Y0214054D03*
X0066928Y0214054D03*
X0059428Y0214054D03*
X0051928Y0214054D03*
X0100678Y0160929D03*
X0103178Y0150929D03*
X0100053Y0143429D03*
X0096928Y0140929D03*
X0095053Y0134054D03*
X0107553Y0134054D03*
X0110678Y0126554D03*
X0098803Y0110304D03*
X0085678Y0095304D03*
X0081928Y0095304D03*
X0076928Y0091554D03*
X0085053Y0087804D03*
X0080053Y0080929D03*
X0086303Y0077804D03*
X0088803Y0074679D03*
X0086303Y0068429D03*
X0082553Y0064679D03*
X0090053Y0064679D03*
X0092553Y0059679D03*
X0109428Y0069679D03*
X0113178Y0073429D03*
X0118803Y0079054D03*
X0125678Y0079054D03*
X0131928Y0081554D03*
X0135053Y0086554D03*
X0138178Y0081554D03*
X0138178Y0092179D03*
X0136928Y0095929D03*
X0131303Y0106554D03*
X0126303Y0106554D03*
X0128178Y0122804D03*
X0131303Y0125304D03*
X0111303Y0092179D03*
X0136928Y0065304D03*
X0140678Y0068429D03*
X0135678Y0056554D03*
X0153178Y0063429D03*
X0157553Y0060304D03*
X0159428Y0055929D03*
X0163803Y0050304D03*
X0168178Y0046554D03*
X0173803Y0051554D03*
X0174428Y0063429D03*
X0185678Y0063429D03*
X0188178Y0063429D03*
X0184428Y0034054D03*
X0184428Y0027804D03*
X0176928Y0034679D03*
X0166928Y0034054D03*
X0163803Y0040304D03*
X0155678Y0032804D03*
X0135678Y0034054D03*
X0135678Y0027804D03*
X0130678Y0027804D03*
X0095678Y0020304D03*
X0088178Y0020304D03*
X0080678Y0020304D03*
X0073178Y0020304D03*
X0065678Y0020304D03*
X0058178Y0020304D03*
X0058178Y0065304D03*
X0053178Y0069054D03*
X0048178Y0074054D03*
X0049428Y0081554D03*
X0048803Y0094054D03*
X0065053Y0090929D03*
X0103178Y0177179D03*
X0110053Y0189054D03*
X0195678Y0032804D03*
X0191928Y0027804D03*
D31*
X0104908Y0110160D02*
X0104438Y0110304D01*
X0098803Y0110304D01*
X0098803Y0108236D01*
X0096163Y0105595D01*
X0093935Y0107822D01*
X0087668Y0101554D01*
X0085053Y0101554D01*
X0081928Y0098429D01*
X0080678Y0098429D01*
X0078803Y0096554D01*
X0078803Y0094054D01*
X0080053Y0092804D01*
X0080053Y0085031D01*
X0074489Y0079468D01*
X0069573Y0074551D01*
X0069573Y0074199D01*
X0125053Y0159054D02*
X0131692Y0159054D01*
X0146303Y0154992D02*
X0147241Y0154054D01*
X0152164Y0154054D01*
X0152164Y0149054D02*
X0158803Y0149054D01*
X0158793Y0141554D01*
X0146303Y0154992D02*
X0146303Y0165617D01*
X0147241Y0166554D01*
X0162553Y0166554D01*
X0162553Y0168818D01*
X0152164Y0181554D02*
X0145053Y0181554D01*
X0162553Y0200314D02*
X0163813Y0199054D01*
D32*
X0113178Y0052804D02*
X0100678Y0052804D01*
X0090019Y0042145D01*
X0037130Y0042145D01*
D33*
X0057711Y0180304D02*
X0047051Y0190964D01*
X0037130Y0190964D01*
D34*
X0037514Y0059064D02*
X0037130Y0058680D01*
X0037514Y0059064D02*
X0046303Y0059064D01*
M02*
