G75*
%MOIN*%
%OFA0B0*%
%FSLAX24Y24*%
%IPPOS*%
%LPD*%
%AMOC8*
5,1,8,0,0,1.08239X$1,22.5*
%
%ADD10R,0.0867X0.1064*%
%ADD11R,0.0930X0.0781*%
%ADD12R,0.1182X0.0552*%
%ADD13R,0.1182X0.1025*%
%ADD14R,0.0592X0.0671*%
%ADD15R,0.0671X0.0592*%
%ADD16R,0.0828X0.1025*%
%ADD17R,0.1419X0.0474*%
%ADD18R,0.3860X0.2757*%
%ADD19R,0.0592X0.0257*%
%ADD20R,0.1123X0.2600*%
%ADD21R,0.1143X0.0710*%
%ADD22R,0.0710X0.1143*%
%ADD23R,0.0946X0.0316*%
%ADD24R,0.0610X0.0350*%
%ADD25R,0.0550X0.0300*%
%ADD26R,0.0300X0.0550*%
%ADD27OC8,0.0680*%
%ADD28C,0.0680*%
%ADD29R,0.0611X0.0237*%
%ADD30C,0.0595*%
%ADD31C,0.0730*%
%ADD32R,0.0671X0.0671*%
%ADD33R,0.0907X0.0907*%
%ADD34C,0.1261*%
%ADD35C,0.0440*%
%ADD36C,0.0360*%
D10*
X005218Y017780D03*
X006793Y017780D03*
D11*
X007130Y019106D03*
X007130Y020709D03*
D12*
X005505Y020555D03*
X005505Y019256D03*
D13*
X009130Y018165D03*
X009130Y020646D03*
D14*
X009256Y017155D03*
X010004Y017155D03*
X005942Y013780D03*
X005194Y013780D03*
X009756Y007593D03*
X010504Y007593D03*
X010506Y006030D03*
X011254Y006030D03*
X011254Y004280D03*
X010506Y004280D03*
X009254Y004280D03*
X008506Y004280D03*
X010506Y002530D03*
X011254Y002530D03*
X014631Y006905D03*
X015379Y006905D03*
X015379Y007780D03*
X014631Y007780D03*
X014631Y008655D03*
X014631Y009530D03*
X015379Y009530D03*
X015379Y008655D03*
X016506Y008655D03*
X016506Y009530D03*
X017254Y009530D03*
X017254Y008655D03*
X017254Y007780D03*
X016506Y007780D03*
X016506Y006905D03*
X017254Y006905D03*
X018506Y007718D03*
X019254Y007718D03*
X017254Y010405D03*
X016506Y010405D03*
X015379Y010405D03*
X014631Y010405D03*
X015381Y011468D03*
X016129Y011468D03*
D15*
X012568Y009154D03*
X012568Y008406D03*
X011693Y008406D03*
X011693Y009154D03*
X010568Y009154D03*
X010568Y008406D03*
X009693Y008406D03*
X009693Y009154D03*
X011068Y011156D03*
X011068Y011904D03*
X011880Y011904D03*
X011880Y011156D03*
X007755Y017406D03*
X007755Y018154D03*
X011943Y020031D03*
X011943Y020779D03*
X013005Y020779D03*
X013005Y020031D03*
X013880Y020031D03*
X013880Y020779D03*
X015130Y020779D03*
X015130Y020031D03*
X016505Y020071D03*
X016505Y020740D03*
X017380Y020779D03*
X017380Y020031D03*
X006005Y012904D03*
X006005Y012156D03*
X005130Y012156D03*
X005130Y012904D03*
D16*
X012830Y011467D03*
X014444Y011467D03*
D17*
X010854Y005280D03*
X010854Y003280D03*
D18*
X006877Y004280D03*
D19*
X006883Y013748D03*
X006883Y014004D03*
X006883Y014260D03*
X006883Y014516D03*
X006883Y014772D03*
X006883Y015027D03*
X006883Y015283D03*
X006883Y015539D03*
X006883Y015795D03*
X006883Y016051D03*
X006883Y016307D03*
X006883Y016563D03*
X009127Y016563D03*
X009127Y016307D03*
X009127Y016051D03*
X009127Y015795D03*
X009127Y015539D03*
X009127Y015283D03*
X009127Y015027D03*
X009127Y014772D03*
X009127Y014516D03*
X009127Y014260D03*
X009127Y014004D03*
X009127Y013748D03*
D20*
X008005Y015155D03*
D21*
X010755Y019604D03*
X010755Y020707D03*
D22*
X011892Y007093D03*
X012994Y007093D03*
D23*
X012357Y006030D03*
X012357Y005530D03*
X012357Y005030D03*
X012357Y004530D03*
X012357Y003905D03*
X012357Y003405D03*
X012357Y002905D03*
X012357Y002405D03*
X014404Y002405D03*
X014404Y002905D03*
X014404Y003405D03*
X014404Y003905D03*
X014404Y004530D03*
X014404Y005030D03*
X014404Y005530D03*
X014404Y006030D03*
D24*
X015443Y005280D03*
X015443Y004780D03*
X015443Y004280D03*
X015443Y003780D03*
X019318Y003780D03*
X019318Y004280D03*
X019318Y004780D03*
X019318Y005280D03*
D25*
X016998Y013768D03*
X016998Y014078D03*
X016998Y014388D03*
X016998Y014698D03*
X016998Y015008D03*
X016998Y015318D03*
X016998Y015628D03*
X016998Y015938D03*
X016998Y016248D03*
X016998Y016558D03*
X016998Y016868D03*
X016998Y017178D03*
X016998Y017488D03*
X016998Y017798D03*
X016998Y018108D03*
X016998Y018418D03*
X010888Y018418D03*
X010888Y018108D03*
X010888Y017798D03*
X010888Y017488D03*
X010888Y017178D03*
X010888Y016868D03*
X010888Y016558D03*
X010888Y016248D03*
X010888Y015938D03*
X010888Y015628D03*
X010888Y015318D03*
X010888Y015008D03*
X010888Y014698D03*
X010888Y014388D03*
X010888Y014078D03*
X010888Y013768D03*
D26*
X011618Y013038D03*
X011928Y013038D03*
X012238Y013038D03*
X012548Y013038D03*
X012858Y013038D03*
X013168Y013038D03*
X013478Y013038D03*
X013788Y013038D03*
X014098Y013038D03*
X014408Y013038D03*
X014718Y013038D03*
X015028Y013038D03*
X015338Y013038D03*
X015648Y013038D03*
X015958Y013038D03*
X016268Y013038D03*
X016268Y019148D03*
X015958Y019148D03*
X015648Y019148D03*
X015338Y019148D03*
X015028Y019148D03*
X014718Y019148D03*
X014408Y019148D03*
X014098Y019148D03*
X013788Y019148D03*
X013478Y019148D03*
X013168Y019148D03*
X012858Y019148D03*
X012548Y019148D03*
X012238Y019148D03*
X011928Y019148D03*
X011618Y019148D03*
D27*
X010005Y012780D03*
X010005Y011780D03*
X009005Y011780D03*
X009005Y012780D03*
X008005Y012780D03*
X008005Y011780D03*
X007005Y011780D03*
X007005Y012780D03*
D28*
X018768Y012780D02*
X019368Y012780D01*
X019368Y011780D02*
X018768Y011780D01*
X018768Y010780D02*
X019368Y010780D01*
X019368Y009780D02*
X018768Y009780D01*
X018768Y008780D02*
X019368Y008780D01*
X019368Y013780D02*
X018768Y013780D01*
X018768Y014780D02*
X019368Y014780D01*
D29*
X018443Y017519D03*
X018443Y017775D03*
X018443Y018030D03*
X018443Y018286D03*
X018443Y018542D03*
D30*
X018443Y019015D03*
X018443Y017046D03*
D31*
X019506Y016652D03*
X019506Y019408D03*
D32*
X019506Y018424D03*
X019506Y017637D03*
D33*
X003713Y017443D03*
X003713Y019096D03*
X003713Y020750D03*
X001548Y020750D03*
X001548Y019096D03*
X001548Y017443D03*
X001548Y015789D03*
X001548Y014136D03*
X001548Y012482D03*
X001548Y010829D03*
X001548Y009175D03*
X001548Y007522D03*
X001548Y005868D03*
X001548Y004214D03*
X001548Y002561D03*
X003713Y002561D03*
X003713Y004214D03*
X003713Y005868D03*
X003713Y007522D03*
X003713Y009175D03*
X003713Y010829D03*
X003713Y012482D03*
X003713Y014136D03*
X003713Y015789D03*
D34*
X001729Y000711D03*
X001729Y022600D03*
D35*
X006255Y016593D03*
X007755Y016155D03*
X007755Y015655D03*
X008255Y015655D03*
X008255Y016155D03*
X008255Y015155D03*
X008255Y014655D03*
X008255Y014155D03*
X007755Y014155D03*
X007755Y014655D03*
X007755Y015155D03*
X005943Y009405D03*
X009005Y008093D03*
X010380Y005280D03*
X010880Y005280D03*
X011318Y005280D03*
X013630Y007468D03*
D36*
X013818Y008155D03*
X013505Y008655D03*
X013818Y009218D03*
X013693Y009593D03*
X013193Y010718D03*
X012818Y010718D03*
X012443Y010718D03*
X011130Y009218D03*
X011880Y007905D03*
X011318Y007343D03*
X010943Y006968D03*
X012630Y007905D03*
X013193Y008155D03*
X014068Y006843D03*
X013693Y006530D03*
X013568Y005655D03*
X015318Y006343D03*
X015755Y006030D03*
X015943Y005593D03*
X016380Y005030D03*
X016818Y004655D03*
X016380Y004030D03*
X016693Y003405D03*
X017693Y003468D03*
X018443Y003405D03*
X018568Y006530D03*
X019068Y006530D03*
X018568Y007030D03*
X015943Y007780D03*
X015943Y008655D03*
X015943Y009530D03*
X015943Y010405D03*
X016693Y011280D03*
X016755Y011843D03*
X017193Y011280D03*
X018193Y012218D03*
X017255Y013343D03*
X017505Y013593D03*
X017693Y013905D03*
X018005Y013655D03*
X018943Y015780D03*
X019693Y015780D03*
X017755Y017843D03*
X017755Y018218D03*
X018818Y019905D03*
X018818Y020655D03*
X019568Y020655D03*
X019568Y021405D03*
X018818Y021405D03*
X018068Y021405D03*
X018068Y020655D03*
X017318Y021405D03*
X016443Y021405D03*
X015693Y021405D03*
X014943Y021405D03*
X014193Y021405D03*
X013443Y021405D03*
X012693Y021405D03*
X011943Y021405D03*
X011193Y021405D03*
X010443Y021405D03*
X009693Y021405D03*
X008943Y021405D03*
X008193Y021405D03*
X008193Y020655D03*
X008193Y019905D03*
X007443Y021405D03*
X006693Y021405D03*
X005943Y021405D03*
X005193Y021405D03*
X010318Y017718D03*
X011005Y018905D03*
X011818Y018530D03*
X012505Y018655D03*
X012505Y018280D03*
X012505Y017905D03*
X012505Y017530D03*
X011818Y017405D03*
X012068Y016905D03*
X012568Y016780D03*
X013255Y016780D03*
X012505Y015905D03*
X012005Y015405D03*
X011630Y015405D03*
X012005Y014405D03*
X012005Y013780D03*
X012818Y013780D03*
X012755Y014405D03*
X013255Y014530D03*
X013568Y014280D03*
X013130Y012530D03*
X012818Y012280D03*
X011005Y012593D03*
X010755Y013405D03*
X010005Y014343D03*
X009693Y014093D03*
X009505Y013405D03*
X010318Y015093D03*
X009880Y011030D03*
X008568Y009530D03*
X008193Y009530D03*
X007693Y009155D03*
X008505Y008780D03*
X008005Y008093D03*
X008630Y007780D03*
X008880Y007468D03*
X008630Y006843D03*
X008255Y006468D03*
X009005Y006468D03*
X009255Y005968D03*
X006505Y009093D03*
X004880Y009405D03*
X004943Y008155D03*
X004818Y007405D03*
X005193Y006905D03*
X005568Y006530D03*
X005193Y006218D03*
X005818Y002030D03*
X006568Y002030D03*
X007318Y002030D03*
X008068Y002030D03*
X008818Y002030D03*
X009568Y002030D03*
X013005Y002905D03*
X013568Y002780D03*
X013568Y003530D03*
X015568Y003280D03*
X015880Y014905D03*
X016005Y017593D03*
X016005Y018155D03*
X014505Y018155D03*
X014255Y018655D03*
X013880Y018655D03*
X014443Y019593D03*
X014505Y020405D03*
X015880Y019905D03*
M02*
