%
M48
M72
T01C0.01200
T02C0.02000
T03C0.03150
T04C0.04000
T05C0.04331
T06C0.05512
T07C0.11811
%
T01
X50678Y60929
X55678Y65304
X51928Y69054
X48178Y74054
X49428Y81554
X48803Y94054
X65053Y90929
X76928Y91554
X81928Y95304
X85678Y95304
X85053Y87804
X80053Y80929
X86303Y77804
X88803Y74679
X86303Y68429
X88803Y64679
X81303Y64679
X109428Y69679
X113803Y73429
X118178Y77804
X119428Y69679
X116303Y65929
X130053Y50304
X153178Y57179
X153178Y63429
X157553Y60304
X163803Y50304
X168178Y46554
X163803Y42804
X166928Y34054
X176928Y34679
X181928Y26554
X184428Y34054
X190678Y26554
X171928Y22804
X163178Y22804
X154428Y22804
X155678Y32804
X185678Y65304
X185678Y70304
X190678Y65304
X159428Y77804
X159428Y86554
X159428Y95304
X159428Y104054
X168178Y112804
X171928Y111554
X169428Y118429
X181928Y122179
X172553Y133429
X175053Y135929
X176928Y139054
X180053Y136554
X158803Y149054
X158803Y154054
X158803Y167179
X152553Y167804
X160053Y175929
X160053Y181554
X158803Y199054
X159428Y211554
X165678Y211554
X181928Y210304
X186928Y207804
X190678Y204054
X177553Y180929
X177553Y177179
X145053Y181554
X142553Y186554
X138803Y186554
X144428Y195929
X145053Y204054
X145053Y211554
X125053Y186554
X125053Y181554
X125053Y176554
X125053Y171554
X120678Y167179
X118803Y174054
X118803Y181554
X110053Y189054
X103178Y177179
X116303Y159054
X116303Y154054
X121303Y154054
X125053Y154054
X125053Y159054
X123803Y149054
X127553Y144054
X132553Y145304
X135678Y142804
X131928Y135304
X131928Y125304
X130678Y106554
X125678Y106554
X136928Y95929
X138178Y92179
X135678Y86554
X131928Y81554
X138178Y80304
X111303Y92179
X98803Y110304
X96928Y140929
X100053Y143429
X119428Y144054
X132553Y167804
X99428Y211554
X80678Y211554
X61928Y211554
X55678Y211554
T02
X62553Y165929
X77553Y161554
X77553Y156554
X77553Y151554
X77553Y146554
X77553Y141554
X82553Y141554
X82553Y146554
X82553Y151554
X82553Y156554
X82553Y161554
X59428Y94054
X90053Y80929
X103803Y52804
X108803Y52804
X113178Y52804
X133178Y55304
T03
X183803Y169212
X183803Y188897
T04
X190678Y147804
X190678Y137804
X190678Y127804
X190678Y117804
X190678Y107804
X190678Y97804
X190678Y87804
X100053Y117804
X100053Y127804
X90053Y127804
X90053Y117804
X80053Y117804
X80053Y127804
X70053Y127804
X70053Y117804
T05
X194433Y165275
X194433Y192834
T06
X37130Y190964
X37130Y207499
X15476Y207499
X15476Y190964
X15476Y174428
X15476Y157893
X15476Y141357
X15476Y124822
X15476Y108287
X15476Y91751
X15476Y75216
X15476Y58680
X15476Y42145
X15476Y25609
X37130Y25609
X37130Y42145
X37130Y58680
X37130Y75216
X37130Y91751
X37130Y108287
X37130Y124822
X37130Y141357
X37130Y157893
X37130Y174428
T07
X17287Y7106
X17287Y226003
M30
