G75*
%MOIN*%
%OFA0B0*%
%FSLAX24Y24*%
%IPPOS*%
%LPD*%
%AMOC8*
5,1,8,0,0,1.08239X$1,22.5*
%
%ADD10R,0.0787X0.0984*%
%ADD11R,0.0850X0.0701*%
%ADD12R,0.1102X0.0472*%
%ADD13R,0.1102X0.0945*%
%ADD14R,0.0512X0.0591*%
%ADD15R,0.0591X0.0512*%
%ADD16R,0.0748X0.0945*%
%ADD17R,0.1339X0.0394*%
%ADD18R,0.3780X0.2677*%
%ADD19R,0.0512X0.0177*%
%ADD20R,0.1043X0.2520*%
%ADD21R,0.1063X0.0630*%
%ADD22R,0.0630X0.1063*%
%ADD23R,0.0866X0.0236*%
%ADD24R,0.0530X0.0270*%
%ADD25R,0.0470X0.0220*%
%ADD26R,0.0220X0.0470*%
%ADD27OC8,0.0600*%
%ADD28C,0.0600*%
%ADD29R,0.0531X0.0157*%
%ADD30C,0.0515*%
%ADD31C,0.0650*%
%ADD32R,0.0591X0.0591*%
%ADD33R,0.0827X0.0827*%
%ADD34C,0.0160*%
%ADD35C,0.0300*%
%ADD36C,0.0500*%
%ADD37C,0.0080*%
%ADD38C,0.0360*%
%ADD39C,0.0280*%
%ADD40C,0.0120*%
%ADD41C,0.0180*%
%ADD42C,0.0200*%
%ADD43C,0.1000*%
D10*
X005218Y017780D03*
X006793Y017780D03*
D11*
X007130Y019106D03*
X007130Y020709D03*
D12*
X005505Y020555D03*
X005505Y019256D03*
D13*
X009130Y018165D03*
X009130Y020646D03*
D14*
X009256Y017155D03*
X010004Y017155D03*
X005942Y013780D03*
X005194Y013780D03*
X009756Y007593D03*
X010504Y007593D03*
X010506Y006030D03*
X011254Y006030D03*
X011254Y004280D03*
X010506Y004280D03*
X009254Y004280D03*
X008506Y004280D03*
X010506Y002530D03*
X011254Y002530D03*
X014631Y006905D03*
X015379Y006905D03*
X015379Y007780D03*
X014631Y007780D03*
X014631Y008655D03*
X014631Y009530D03*
X015379Y009530D03*
X015379Y008655D03*
X016506Y008655D03*
X016506Y009530D03*
X017254Y009530D03*
X017254Y008655D03*
X017254Y007780D03*
X016506Y007780D03*
X016506Y006905D03*
X017254Y006905D03*
X018506Y007718D03*
X019254Y007718D03*
X017254Y010405D03*
X016506Y010405D03*
X015379Y010405D03*
X014631Y010405D03*
X015381Y011468D03*
X016129Y011468D03*
D15*
X012568Y009154D03*
X012568Y008406D03*
X011693Y008406D03*
X011693Y009154D03*
X010568Y009154D03*
X010568Y008406D03*
X009693Y008406D03*
X009693Y009154D03*
X011068Y011156D03*
X011068Y011904D03*
X011880Y011904D03*
X011880Y011156D03*
X007755Y017406D03*
X007755Y018154D03*
X011943Y020031D03*
X011943Y020779D03*
X013005Y020779D03*
X013005Y020031D03*
X013880Y020031D03*
X013880Y020779D03*
X015130Y020779D03*
X015130Y020031D03*
X016505Y020071D03*
X016505Y020740D03*
X017380Y020779D03*
X017380Y020031D03*
X006005Y012904D03*
X006005Y012156D03*
X005130Y012156D03*
X005130Y012904D03*
D16*
X012830Y011467D03*
X014444Y011467D03*
D17*
X010854Y005280D03*
X010854Y003280D03*
D18*
X006877Y004280D03*
D19*
X006883Y013748D03*
X006883Y014004D03*
X006883Y014260D03*
X006883Y014516D03*
X006883Y014772D03*
X006883Y015027D03*
X006883Y015283D03*
X006883Y015539D03*
X006883Y015795D03*
X006883Y016051D03*
X006883Y016307D03*
X006883Y016563D03*
X009127Y016563D03*
X009127Y016307D03*
X009127Y016051D03*
X009127Y015795D03*
X009127Y015539D03*
X009127Y015283D03*
X009127Y015027D03*
X009127Y014772D03*
X009127Y014516D03*
X009127Y014260D03*
X009127Y014004D03*
X009127Y013748D03*
D20*
X008005Y015155D03*
D21*
X010755Y019604D03*
X010755Y020707D03*
D22*
X011892Y007093D03*
X012994Y007093D03*
D23*
X012357Y006030D03*
X012357Y005530D03*
X012357Y005030D03*
X012357Y004530D03*
X012357Y003905D03*
X012357Y003405D03*
X012357Y002905D03*
X012357Y002405D03*
X014404Y002405D03*
X014404Y002905D03*
X014404Y003405D03*
X014404Y003905D03*
X014404Y004530D03*
X014404Y005030D03*
X014404Y005530D03*
X014404Y006030D03*
D24*
X015443Y005280D03*
X015443Y004780D03*
X015443Y004280D03*
X015443Y003780D03*
X019318Y003780D03*
X019318Y004280D03*
X019318Y004780D03*
X019318Y005280D03*
D25*
X016998Y013768D03*
X016998Y014078D03*
X016998Y014388D03*
X016998Y014698D03*
X016998Y015008D03*
X016998Y015318D03*
X016998Y015628D03*
X016998Y015938D03*
X016998Y016248D03*
X016998Y016558D03*
X016998Y016868D03*
X016998Y017178D03*
X016998Y017488D03*
X016998Y017798D03*
X016998Y018108D03*
X016998Y018418D03*
X010888Y018418D03*
X010888Y018108D03*
X010888Y017798D03*
X010888Y017488D03*
X010888Y017178D03*
X010888Y016868D03*
X010888Y016558D03*
X010888Y016248D03*
X010888Y015938D03*
X010888Y015628D03*
X010888Y015318D03*
X010888Y015008D03*
X010888Y014698D03*
X010888Y014388D03*
X010888Y014078D03*
X010888Y013768D03*
D26*
X011618Y013038D03*
X011928Y013038D03*
X012238Y013038D03*
X012548Y013038D03*
X012858Y013038D03*
X013168Y013038D03*
X013478Y013038D03*
X013788Y013038D03*
X014098Y013038D03*
X014408Y013038D03*
X014718Y013038D03*
X015028Y013038D03*
X015338Y013038D03*
X015648Y013038D03*
X015958Y013038D03*
X016268Y013038D03*
X016268Y019148D03*
X015958Y019148D03*
X015648Y019148D03*
X015338Y019148D03*
X015028Y019148D03*
X014718Y019148D03*
X014408Y019148D03*
X014098Y019148D03*
X013788Y019148D03*
X013478Y019148D03*
X013168Y019148D03*
X012858Y019148D03*
X012548Y019148D03*
X012238Y019148D03*
X011928Y019148D03*
X011618Y019148D03*
D27*
X010005Y012780D03*
X010005Y011780D03*
X009005Y011780D03*
X009005Y012780D03*
X008005Y012780D03*
X008005Y011780D03*
X007005Y011780D03*
X007005Y012780D03*
D28*
X005218Y017780D02*
X005218Y019193D01*
X018768Y014780D02*
X019368Y014780D01*
X019368Y013780D02*
X018768Y013780D01*
X018768Y012780D02*
X019368Y012780D01*
X019368Y011780D02*
X018768Y011780D01*
X018768Y010780D02*
X019368Y010780D01*
X019368Y009780D02*
X018768Y009780D01*
X018768Y008780D02*
X019368Y008780D01*
D29*
X018443Y017519D03*
X018443Y017775D03*
X018443Y018030D03*
X018443Y018286D03*
X018443Y018542D03*
D30*
X018443Y019015D03*
X018443Y017046D03*
D31*
X019506Y016652D03*
X019506Y019408D03*
D32*
X019506Y018424D03*
X019506Y017637D03*
D33*
X003713Y017443D03*
X003713Y019096D03*
X003713Y020750D03*
X001548Y020750D03*
X001548Y019096D03*
X001548Y017443D03*
X001548Y015789D03*
X001548Y014136D03*
X001548Y012482D03*
X001548Y010829D03*
X001548Y009175D03*
X001548Y007522D03*
X001548Y005868D03*
X001548Y004214D03*
X001548Y002561D03*
X003713Y002561D03*
X003713Y004214D03*
X003713Y005868D03*
X003713Y007522D03*
X003713Y009175D03*
X003713Y010829D03*
X003713Y012482D03*
X003713Y014136D03*
X003713Y015789D03*
D34*
X006255Y016593D02*
X006541Y016307D01*
X006883Y016307D01*
X008693Y015718D02*
X008770Y015795D01*
X009127Y015795D01*
X009770Y015795D01*
X010004Y016029D01*
X010004Y017155D01*
X010004Y019092D01*
X010517Y019604D01*
X010755Y019604D01*
X010931Y019604D01*
X011388Y019148D01*
X011618Y019148D01*
X008693Y015718D02*
X008693Y013780D01*
X008380Y013468D01*
X007693Y013468D01*
X007005Y012780D01*
X006943Y009405D02*
X005943Y009405D01*
X006943Y009405D02*
X007693Y008655D01*
X008005Y008655D01*
X008568Y008093D01*
X009005Y008093D01*
X010506Y006030D02*
X010506Y005280D01*
X010380Y005280D01*
X010854Y005280D02*
X010880Y005280D01*
X011318Y005280D01*
X011254Y006030D02*
X012357Y006030D01*
X012357Y005530D02*
X013130Y005530D01*
X013130Y006894D01*
X012994Y007093D01*
X012931Y007468D01*
X013630Y007468D01*
X013130Y005530D02*
X013443Y005218D01*
X013443Y003905D01*
X012943Y003405D01*
X012357Y003405D01*
X012357Y002905D02*
X013005Y002905D01*
X012357Y003905D02*
X011818Y003905D01*
X011693Y003780D01*
X011693Y002969D01*
X011254Y002530D01*
X010506Y002530D02*
X005755Y002530D01*
X004880Y001655D01*
X002453Y001655D01*
X001548Y002561D01*
X009254Y004280D02*
X010506Y004280D01*
X010506Y003280D01*
X010854Y003280D01*
X011317Y004218D02*
X011254Y004280D01*
X011317Y004218D02*
X012880Y004218D01*
X013005Y004343D01*
X013005Y004905D01*
X012880Y005030D01*
X012357Y005030D01*
X018443Y017519D02*
X018744Y017519D01*
X018880Y017655D01*
X018880Y019280D01*
X018255Y019905D01*
X017505Y019905D01*
X017380Y020031D01*
X016528Y020031D01*
X016505Y020071D01*
X016527Y020030D01*
X015880Y019905D02*
X015880Y020530D01*
X016090Y020740D01*
X016505Y020740D01*
D35*
X006793Y017780D02*
X006793Y017693D01*
X006255Y017155D01*
X006255Y016593D01*
D36*
X006793Y017780D02*
X006793Y018154D01*
X007755Y018154D01*
X009130Y018154D01*
X009130Y018165D01*
X007130Y019106D02*
X006793Y019106D01*
X006793Y018154D01*
X005218Y019193D02*
X003713Y020698D01*
X003713Y020750D01*
D37*
X000885Y001638D02*
X001070Y001578D01*
X001168Y001570D01*
X002284Y001570D01*
X001806Y002048D01*
X001093Y002048D01*
X001034Y002106D01*
X001034Y003016D01*
X001093Y003074D01*
X002002Y003074D01*
X002061Y003016D01*
X002061Y002302D01*
X002528Y001835D01*
X004806Y001835D01*
X005681Y002710D01*
X010150Y002710D01*
X010150Y002867D01*
X010209Y002926D01*
X010804Y002926D01*
X010862Y002867D01*
X010862Y002194D01*
X010804Y002135D01*
X010209Y002135D01*
X010150Y002194D01*
X010150Y002350D01*
X005830Y002350D01*
X005060Y001581D01*
X005050Y001570D01*
X019278Y001570D01*
X019375Y001578D01*
X019561Y001638D01*
X019718Y001753D01*
X019833Y001910D01*
X019893Y002095D01*
X019900Y002193D01*
X019900Y004324D01*
X019790Y004214D01*
X019697Y004120D01*
X019683Y004120D01*
X019683Y004104D01*
X019624Y004045D01*
X019011Y004045D01*
X018953Y004104D01*
X018953Y004140D01*
X018322Y004140D01*
X016448Y006014D01*
X016366Y006096D01*
X016366Y006510D01*
X016209Y006510D01*
X016150Y006569D01*
X016150Y006765D01*
X015735Y006765D01*
X015735Y006569D01*
X015677Y006510D01*
X015082Y006510D01*
X015023Y006569D01*
X015023Y007100D01*
X014987Y007063D01*
X014987Y006569D01*
X014929Y006510D01*
X014334Y006510D01*
X014275Y006569D01*
X014275Y007242D01*
X014334Y007301D01*
X014829Y007301D01*
X014871Y007343D01*
X014829Y007385D01*
X014334Y007385D01*
X014275Y007444D01*
X014275Y007938D01*
X013928Y008286D01*
X013928Y009004D01*
X013866Y008978D01*
X013770Y008978D01*
X013682Y009014D01*
X013618Y009078D01*
X012963Y009078D01*
X012963Y008857D01*
X012905Y008799D01*
X012368Y008799D01*
X012349Y008782D01*
X012528Y008782D01*
X012528Y008446D01*
X012528Y008366D01*
X012608Y008366D01*
X012608Y008031D01*
X012879Y008031D01*
X012909Y008039D01*
X012937Y008054D01*
X012959Y008077D01*
X012975Y008104D01*
X012983Y008135D01*
X012983Y008366D01*
X012608Y008366D01*
X012608Y008446D01*
X012983Y008446D01*
X012983Y008678D01*
X012975Y008709D01*
X012959Y008736D01*
X012937Y008758D01*
X012909Y008774D01*
X012879Y008782D01*
X012608Y008782D01*
X012608Y008446D01*
X012528Y008446D01*
X012153Y008446D01*
X012153Y008638D01*
X012126Y008640D01*
X012108Y008640D01*
X012108Y008446D01*
X011733Y008446D01*
X011733Y008366D01*
X011733Y008031D01*
X012004Y008031D01*
X012034Y008039D01*
X012062Y008054D01*
X012084Y008077D01*
X012100Y008104D01*
X012108Y008135D01*
X012108Y008366D01*
X011733Y008366D01*
X011653Y008366D01*
X011653Y008031D01*
X011382Y008031D01*
X011351Y008039D01*
X011324Y008054D01*
X011302Y008077D01*
X011286Y008104D01*
X011278Y008135D01*
X011278Y008366D01*
X011653Y008366D01*
X011653Y008446D01*
X011278Y008446D01*
X011278Y008640D01*
X010963Y008640D01*
X010963Y008109D01*
X010905Y008051D01*
X010410Y008051D01*
X010368Y008008D01*
X010464Y008008D01*
X010464Y007633D01*
X010544Y007633D01*
X010544Y008008D01*
X010776Y008008D01*
X010807Y008000D01*
X010834Y007984D01*
X010856Y007962D01*
X010872Y007935D01*
X010880Y007904D01*
X010880Y007633D01*
X010544Y007633D01*
X010544Y007553D01*
X010544Y007178D01*
X010776Y007178D01*
X010807Y007186D01*
X010834Y007202D01*
X010856Y007224D01*
X010872Y007251D01*
X010880Y007282D01*
X010880Y007553D01*
X010544Y007553D01*
X010464Y007553D01*
X010464Y007178D01*
X010270Y007178D01*
X010270Y007160D01*
X010208Y007097D01*
X010126Y007015D01*
X009385Y007015D01*
X009076Y007324D01*
X009016Y007264D01*
X008928Y007228D01*
X008833Y007228D01*
X008744Y007264D01*
X008681Y007328D01*
X007885Y007328D01*
X007803Y007410D01*
X006697Y008515D01*
X004905Y008515D01*
X004226Y007837D01*
X004226Y007067D01*
X004168Y007008D01*
X003258Y007008D01*
X003200Y007067D01*
X003200Y007976D01*
X003258Y008035D01*
X004028Y008035D01*
X004134Y008140D01*
X003313Y008140D01*
X003020Y007847D01*
X003020Y007143D01*
X002061Y006183D01*
X002061Y005413D01*
X002002Y005355D01*
X001093Y005355D01*
X001034Y005413D01*
X001034Y006323D01*
X001093Y006381D01*
X001863Y006381D01*
X002740Y007259D01*
X002740Y007963D01*
X003115Y008338D01*
X003197Y008420D01*
X004135Y008420D01*
X004615Y008901D01*
X004697Y008983D01*
X006291Y008983D01*
X006265Y009045D01*
X006265Y009141D01*
X006300Y009225D01*
X006159Y009225D01*
X006101Y009168D01*
X005999Y009125D01*
X005887Y009125D01*
X005784Y009168D01*
X005705Y009247D01*
X005663Y009350D01*
X005663Y009461D01*
X005705Y009564D01*
X005719Y009578D01*
X005251Y009578D01*
X005120Y009447D01*
X005120Y009358D01*
X005084Y009269D01*
X005016Y009202D01*
X004928Y009165D01*
X004833Y009165D01*
X004744Y009202D01*
X004681Y009265D01*
X004226Y009265D01*
X004226Y008720D01*
X004168Y008662D01*
X003258Y008662D01*
X003200Y008720D01*
X003200Y009630D01*
X003258Y009689D01*
X004168Y009689D01*
X004226Y009630D01*
X004226Y009545D01*
X004681Y009545D01*
X004744Y009609D01*
X004833Y009645D01*
X004922Y009645D01*
X005042Y009765D01*
X003188Y009765D01*
X002520Y009097D01*
X002520Y008296D01*
X002061Y007837D01*
X002061Y007067D01*
X002002Y007008D01*
X001093Y007008D01*
X001034Y007067D01*
X001034Y007976D01*
X001093Y008035D01*
X001863Y008035D01*
X002240Y008412D01*
X002240Y009213D01*
X002980Y009953D01*
X002523Y009953D01*
X002061Y009491D01*
X002518Y009491D01*
X002596Y009569D02*
X002140Y009569D01*
X002218Y009648D02*
X002675Y009648D01*
X002753Y009726D02*
X002297Y009726D01*
X002375Y009805D02*
X002832Y009805D01*
X002910Y009883D02*
X002454Y009883D01*
X002465Y010093D02*
X001548Y009175D01*
X001034Y009177D02*
X000545Y009177D01*
X000545Y009255D02*
X001034Y009255D01*
X001034Y009334D02*
X000545Y009334D01*
X000545Y009412D02*
X001034Y009412D01*
X001034Y009491D02*
X000545Y009491D01*
X000545Y009569D02*
X001034Y009569D01*
X001034Y009630D02*
X001034Y008720D01*
X001093Y008662D01*
X002002Y008662D01*
X002061Y008720D01*
X002061Y009491D01*
X002061Y009412D02*
X002439Y009412D01*
X002361Y009334D02*
X002061Y009334D01*
X002061Y009255D02*
X002282Y009255D01*
X002240Y009177D02*
X002061Y009177D01*
X002061Y009098D02*
X002240Y009098D01*
X002240Y009020D02*
X002061Y009020D01*
X002061Y008941D02*
X002240Y008941D01*
X002240Y008863D02*
X002061Y008863D01*
X002061Y008784D02*
X002240Y008784D01*
X002240Y008706D02*
X002047Y008706D01*
X002240Y008627D02*
X000545Y008627D01*
X000545Y008549D02*
X002240Y008549D01*
X002240Y008470D02*
X000545Y008470D01*
X000545Y008392D02*
X002220Y008392D01*
X002142Y008313D02*
X000545Y008313D01*
X000545Y008235D02*
X002063Y008235D01*
X001985Y008156D02*
X000545Y008156D01*
X000545Y008078D02*
X001906Y008078D01*
X002067Y007842D02*
X002740Y007842D01*
X002740Y007764D02*
X002061Y007764D01*
X002061Y007685D02*
X002740Y007685D01*
X002740Y007607D02*
X002061Y007607D01*
X002061Y007528D02*
X002740Y007528D01*
X002740Y007450D02*
X002061Y007450D01*
X002061Y007371D02*
X002740Y007371D01*
X002740Y007293D02*
X002061Y007293D01*
X002061Y007214D02*
X002696Y007214D01*
X002618Y007136D02*
X002061Y007136D01*
X002052Y007057D02*
X002539Y007057D01*
X002461Y006979D02*
X000545Y006979D01*
X000545Y007057D02*
X001044Y007057D01*
X001034Y007136D02*
X000545Y007136D01*
X000545Y007214D02*
X001034Y007214D01*
X001034Y007293D02*
X000545Y007293D01*
X000545Y007371D02*
X001034Y007371D01*
X001034Y007450D02*
X000545Y007450D01*
X000545Y007528D02*
X001034Y007528D01*
X001034Y007607D02*
X000545Y007607D01*
X000545Y007685D02*
X001034Y007685D01*
X001034Y007764D02*
X000545Y007764D01*
X000545Y007842D02*
X001034Y007842D01*
X001034Y007921D02*
X000545Y007921D01*
X000545Y007999D02*
X001057Y007999D01*
X001548Y007522D02*
X002380Y008354D01*
X002380Y009155D01*
X003130Y009905D01*
X008193Y009905D01*
X008568Y009530D01*
X008944Y009154D01*
X009693Y009154D01*
X010568Y009154D01*
X011130Y009218D02*
X011567Y009218D01*
X011693Y009154D01*
X011693Y009155D01*
X012130Y009593D01*
X013693Y009593D01*
X013818Y009843D02*
X012130Y009843D01*
X011818Y009530D01*
X008943Y009530D01*
X008380Y010093D01*
X002465Y010093D01*
X002315Y010140D02*
X001863Y009689D01*
X001093Y009689D01*
X001034Y009630D01*
X001052Y009648D02*
X000545Y009648D01*
X000545Y009726D02*
X001901Y009726D01*
X001979Y009805D02*
X000545Y009805D01*
X000545Y009883D02*
X002058Y009883D01*
X002136Y009962D02*
X000545Y009962D01*
X000545Y010040D02*
X002215Y010040D01*
X002293Y010119D02*
X000545Y010119D01*
X000545Y010197D02*
X001981Y010197D01*
X002038Y010140D02*
X001863Y010315D01*
X001093Y010315D01*
X001034Y010374D01*
X001034Y011283D01*
X001093Y011342D01*
X002002Y011342D01*
X002061Y011283D01*
X002061Y010513D01*
X002154Y010420D01*
X003200Y010420D01*
X003200Y011265D01*
X002566Y011265D01*
X001863Y011969D01*
X001093Y011969D01*
X001034Y012027D01*
X001034Y012937D01*
X001093Y012996D01*
X002002Y012996D01*
X002061Y012937D01*
X002061Y012167D01*
X002682Y011545D01*
X002889Y011545D01*
X002470Y011964D01*
X002470Y012987D01*
X001835Y013622D01*
X001093Y013622D01*
X001034Y013681D01*
X001034Y014591D01*
X001093Y014649D01*
X002002Y014649D01*
X002061Y014591D01*
X002061Y013849D01*
X002697Y013213D01*
X002697Y013213D01*
X002790Y013119D01*
X002790Y012097D01*
X003134Y011753D01*
X004259Y011753D01*
X005009Y011003D01*
X007252Y011003D01*
X007345Y011097D01*
X007345Y011555D01*
X007171Y011380D01*
X006840Y011380D01*
X006605Y011615D01*
X006605Y011946D01*
X006840Y012180D01*
X007171Y012180D01*
X007345Y012006D01*
X007345Y012214D01*
X007175Y012384D01*
X007171Y012380D01*
X006840Y012380D01*
X006605Y012615D01*
X006605Y012946D01*
X006840Y013180D01*
X007151Y013180D01*
X007513Y013542D01*
X007513Y013542D01*
X007618Y013648D01*
X008306Y013648D01*
X008433Y013776D01*
X008045Y013776D01*
X008045Y015115D01*
X007965Y015115D01*
X007965Y013776D01*
X007468Y013776D01*
X007437Y013784D01*
X007410Y013800D01*
X007388Y013822D01*
X007372Y013849D01*
X007364Y013880D01*
X007364Y015115D01*
X007965Y015115D01*
X007965Y015195D01*
X007364Y015195D01*
X007364Y016003D01*
X007271Y015911D01*
X007239Y015911D01*
X007239Y015439D01*
X007251Y015418D01*
X007259Y015388D01*
X007259Y015288D01*
X006888Y015288D01*
X006888Y015279D01*
X007259Y015279D01*
X007259Y015179D01*
X007251Y015148D01*
X007239Y015128D01*
X007239Y014671D01*
X007251Y014651D01*
X007259Y014620D01*
X007259Y014520D01*
X006888Y014520D01*
X006888Y014511D01*
X007259Y014511D01*
X007259Y014411D01*
X007251Y014381D01*
X007239Y014360D01*
X007239Y013903D01*
X007251Y013883D01*
X007259Y013852D01*
X007259Y013752D01*
X006888Y013752D01*
X006888Y013744D01*
X007259Y013744D01*
X007259Y013644D01*
X007251Y013613D01*
X007235Y013586D01*
X007213Y013563D01*
X007185Y013548D01*
X007155Y013539D01*
X006888Y013539D01*
X006888Y013744D01*
X006879Y013744D01*
X006507Y013744D01*
X006507Y013644D01*
X006516Y013613D01*
X006531Y013586D01*
X006554Y013563D01*
X006581Y013548D01*
X006612Y013539D01*
X006879Y013539D01*
X006879Y013744D01*
X006879Y013752D01*
X006507Y013752D01*
X006507Y013852D01*
X006510Y013864D01*
X006298Y013864D01*
X006298Y013444D01*
X006239Y013385D01*
X006145Y013385D01*
X006145Y013260D01*
X006342Y013260D01*
X006401Y013202D01*
X006401Y012607D01*
X006342Y012549D01*
X005669Y012549D01*
X005610Y012607D01*
X005610Y013202D01*
X005669Y013260D01*
X005865Y013260D01*
X005865Y013385D01*
X005645Y013385D01*
X005586Y013444D01*
X005586Y014038D01*
X005550Y014002D01*
X005550Y013444D01*
X005491Y013385D01*
X005270Y013385D01*
X005270Y013260D01*
X005467Y013260D01*
X005526Y013202D01*
X005526Y012607D01*
X005467Y012549D01*
X004794Y012549D01*
X004735Y012607D01*
X004735Y013202D01*
X004794Y013260D01*
X004990Y013260D01*
X004990Y013385D01*
X004896Y013385D01*
X004838Y013444D01*
X004838Y014117D01*
X004896Y014176D01*
X005328Y014176D01*
X005552Y014400D01*
X006510Y014400D01*
X006507Y014411D01*
X006507Y014511D01*
X006879Y014511D01*
X006879Y014520D01*
X006507Y014520D01*
X006507Y014583D01*
X005005Y014590D01*
X004927Y014590D01*
X004926Y014591D01*
X004926Y014591D01*
X004871Y014646D01*
X004677Y014840D01*
X002228Y014840D01*
X001792Y015276D01*
X001093Y015276D01*
X001034Y015334D01*
X001034Y016244D01*
X001093Y016303D01*
X002002Y016303D01*
X002061Y016244D01*
X002061Y015545D01*
X002385Y015220D01*
X004672Y015220D01*
X004293Y015599D01*
X004226Y015599D01*
X004226Y015334D01*
X004168Y015276D01*
X003258Y015276D01*
X003200Y015334D01*
X003200Y016244D01*
X003258Y016303D01*
X004168Y016303D01*
X004226Y016244D01*
X004226Y015979D01*
X004450Y015979D01*
X004561Y015868D01*
X005209Y015220D01*
X006507Y015218D01*
X006507Y015279D01*
X006879Y015279D01*
X006879Y015288D01*
X006507Y015288D01*
X006507Y015347D01*
X005397Y015341D01*
X005397Y015340D01*
X005318Y015340D01*
X005240Y015340D01*
X005240Y015340D01*
X005239Y015340D01*
X005184Y015396D01*
X005128Y015451D01*
X005128Y015451D01*
X004117Y016462D01*
X002259Y016462D01*
X001792Y016929D01*
X001093Y016929D01*
X001034Y016988D01*
X001034Y017898D01*
X001093Y017956D01*
X002002Y017956D01*
X002061Y017898D01*
X002061Y017198D01*
X002417Y016842D01*
X004154Y016842D01*
X004068Y016929D01*
X003258Y016929D01*
X003200Y016988D01*
X003200Y017898D01*
X003258Y017956D01*
X004168Y017956D01*
X004226Y017898D01*
X004226Y017223D01*
X004345Y017104D01*
X004345Y017964D01*
X004189Y018120D01*
X002297Y018120D01*
X001835Y018583D01*
X001093Y018583D01*
X001034Y018642D01*
X001034Y019551D01*
X001093Y019610D01*
X002002Y019610D01*
X002061Y019551D01*
X002061Y018809D01*
X002430Y018440D01*
X004322Y018440D01*
X004818Y018440D01*
X004818Y018373D02*
X004783Y018373D01*
X004724Y018314D01*
X004724Y017247D01*
X004783Y017188D01*
X005653Y017188D01*
X005712Y017247D01*
X005712Y018314D01*
X005653Y018373D01*
X005618Y018373D01*
X005618Y018920D01*
X006098Y018920D01*
X006156Y018978D01*
X006156Y019533D01*
X006098Y019592D01*
X005314Y019592D01*
X004226Y020680D01*
X004226Y021205D01*
X004168Y021263D01*
X003258Y021263D01*
X003200Y021205D01*
X003200Y020295D01*
X003258Y020237D01*
X003680Y020237D01*
X004818Y019098D01*
X004818Y018373D01*
X004772Y018361D02*
X004401Y018361D01*
X004415Y018347D02*
X004322Y018440D01*
X004415Y018347D02*
X004665Y018097D01*
X004665Y017097D01*
X005571Y016191D01*
X006390Y016204D01*
X006281Y016313D01*
X006200Y016313D01*
X006097Y016356D01*
X006018Y016434D01*
X005975Y016537D01*
X005975Y016649D01*
X006005Y016721D01*
X006005Y017205D01*
X006043Y017297D01*
X006299Y017553D01*
X006299Y018314D01*
X006358Y018373D01*
X006443Y018373D01*
X006443Y019176D01*
X006496Y019304D01*
X006594Y019403D01*
X006605Y019407D01*
X006605Y019498D01*
X006664Y019557D01*
X007597Y019557D01*
X007656Y019498D01*
X007656Y018714D01*
X007597Y018656D01*
X007143Y018656D01*
X007143Y018504D01*
X007413Y018504D01*
X007419Y018510D01*
X008092Y018510D01*
X008098Y018504D01*
X008479Y018504D01*
X008479Y018679D01*
X008538Y018738D01*
X009577Y018738D01*
X009678Y018838D01*
X009678Y019276D01*
X009928Y019526D01*
X009928Y020026D01*
X010115Y020213D01*
X010181Y020279D01*
X010178Y020280D01*
X010150Y020296D01*
X010128Y020318D01*
X010112Y020345D01*
X010104Y020376D01*
X010104Y020667D01*
X010715Y020667D01*
X010715Y020747D01*
X010715Y021142D01*
X010208Y021142D01*
X010178Y021133D01*
X010150Y021118D01*
X010128Y021095D01*
X010112Y021068D01*
X010104Y021037D01*
X010104Y020747D01*
X010715Y020747D01*
X010795Y020747D01*
X010795Y021142D01*
X011303Y021142D01*
X011333Y021133D01*
X011360Y021118D01*
X011383Y021095D01*
X011399Y021068D01*
X011407Y021037D01*
X011407Y020747D01*
X010795Y020747D01*
X010795Y020667D01*
X011407Y020667D01*
X011407Y020442D01*
X011428Y020463D01*
X011428Y020463D01*
X011510Y020545D01*
X011528Y020545D01*
X011528Y020739D01*
X011903Y020739D01*
X011903Y020819D01*
X011528Y020819D01*
X011528Y021051D01*
X011536Y021082D01*
X011552Y021109D01*
X011574Y021131D01*
X011601Y021147D01*
X011632Y021155D01*
X011903Y021155D01*
X011903Y020819D01*
X011983Y020819D01*
X012358Y020819D01*
X012358Y021051D01*
X012350Y021082D01*
X012334Y021109D01*
X012312Y021131D01*
X012284Y021147D01*
X012254Y021155D01*
X011983Y021155D01*
X011983Y020819D01*
X011983Y020739D01*
X012358Y020739D01*
X012358Y020545D01*
X012510Y020545D01*
X012610Y020646D01*
X012610Y021077D01*
X012669Y021135D01*
X013342Y021135D01*
X013401Y021077D01*
X013401Y020482D01*
X013342Y020424D01*
X012784Y020424D01*
X012748Y020387D01*
X013342Y020387D01*
X013401Y020329D01*
X013401Y020171D01*
X013485Y020171D01*
X013485Y020329D01*
X013544Y020387D01*
X014217Y020387D01*
X014276Y020329D01*
X014276Y019765D01*
X014307Y019796D01*
X014395Y019833D01*
X014491Y019833D01*
X014579Y019796D01*
X014646Y019729D01*
X014683Y019641D01*
X014683Y019545D01*
X014657Y019483D01*
X014851Y019483D01*
X014871Y019495D01*
X014902Y019503D01*
X015013Y019503D01*
X015013Y019163D01*
X015043Y019163D01*
X015043Y019503D01*
X015154Y019503D01*
X015178Y019496D01*
X015178Y019676D01*
X014794Y019676D01*
X014735Y019734D01*
X014735Y020329D01*
X014794Y020387D01*
X015467Y020387D01*
X015526Y020329D01*
X015526Y019734D01*
X015498Y019706D01*
X015498Y019483D01*
X015799Y019483D01*
X015803Y019479D01*
X015806Y019483D01*
X016109Y019483D01*
X016113Y019479D01*
X016116Y019483D01*
X016419Y019483D01*
X016478Y019424D01*
X016478Y018872D01*
X016419Y018813D01*
X016116Y018813D01*
X016113Y018817D01*
X016109Y018813D01*
X015806Y018813D01*
X015803Y018817D01*
X015799Y018813D01*
X015498Y018813D01*
X015498Y018547D01*
X015040Y018089D01*
X014947Y017995D01*
X014685Y017995D01*
X014641Y017952D01*
X014553Y017915D01*
X014458Y017915D01*
X014369Y017952D01*
X014326Y017995D01*
X013634Y017995D01*
X012697Y017058D01*
X012314Y017058D01*
X012084Y017288D01*
X012037Y017335D01*
X012037Y017335D01*
X012037Y017335D01*
X012037Y017401D01*
X012033Y018793D01*
X011943Y018793D01*
X011943Y019133D01*
X011913Y019133D01*
X011913Y018793D01*
X011802Y018793D01*
X011771Y018801D01*
X011751Y018813D01*
X011466Y018813D01*
X011408Y018872D01*
X011408Y018968D01*
X011313Y018968D01*
X011208Y019073D01*
X011092Y019189D01*
X010356Y019189D01*
X010184Y019017D01*
X010184Y017922D01*
X010270Y017958D01*
X010366Y017958D01*
X010454Y017921D01*
X010521Y017854D01*
X010553Y017778D01*
X010553Y017949D01*
X010556Y017953D01*
X010553Y017957D01*
X010553Y018259D01*
X010556Y018263D01*
X010553Y018267D01*
X010553Y018569D01*
X010611Y018628D01*
X011164Y018628D01*
X011223Y018569D01*
X011223Y018267D01*
X011219Y018263D01*
X011223Y018259D01*
X011223Y018248D01*
X011298Y018248D01*
X011645Y017901D01*
X011645Y015963D01*
X011963Y015645D01*
X012053Y015645D01*
X012141Y015609D01*
X012209Y015541D01*
X012245Y015453D01*
X012245Y015358D01*
X012209Y015269D01*
X012141Y015202D01*
X012053Y015165D01*
X011963Y015165D01*
X011645Y014847D01*
X011645Y013410D01*
X011608Y013373D01*
X011769Y013373D01*
X011773Y013369D01*
X011776Y013373D01*
X012079Y013373D01*
X012083Y013369D01*
X012086Y013373D01*
X012389Y013373D01*
X012393Y013369D01*
X012396Y013373D01*
X012698Y013373D01*
X012698Y013449D01*
X013002Y013753D01*
X016322Y013753D01*
X016415Y013659D01*
X016415Y013659D01*
X017072Y013003D01*
X017936Y013003D01*
X018440Y013543D01*
X018429Y013554D01*
X018368Y013701D01*
X018368Y013860D01*
X018429Y014007D01*
X018541Y014120D01*
X018688Y014180D01*
X019447Y014180D01*
X019594Y014120D01*
X019707Y014007D01*
X019768Y013860D01*
X019768Y013701D01*
X019707Y013554D01*
X019594Y013441D01*
X019447Y013380D01*
X018726Y013380D01*
X018228Y012847D01*
X018352Y012723D01*
X018349Y012740D01*
X019028Y012740D01*
X019028Y012820D01*
X018349Y012820D01*
X018358Y012879D01*
X018379Y012942D01*
X018409Y013001D01*
X018447Y013054D01*
X018494Y013101D01*
X018548Y013140D01*
X018607Y013170D01*
X018669Y013190D01*
X018735Y013200D01*
X019028Y013200D01*
X019028Y012820D01*
X019108Y012820D01*
X019787Y012820D01*
X019777Y012879D01*
X019757Y012942D01*
X019727Y013001D01*
X019688Y013054D01*
X019641Y013101D01*
X019588Y013140D01*
X019529Y013170D01*
X019466Y013190D01*
X019401Y013200D01*
X019108Y013200D01*
X019108Y012820D01*
X019108Y012740D01*
X019787Y012740D01*
X019777Y012682D01*
X019757Y012619D01*
X019727Y012560D01*
X019688Y012507D01*
X019641Y012460D01*
X019590Y012422D01*
X019665Y012347D01*
X019665Y012347D01*
X019884Y012128D01*
X019900Y012112D01*
X019900Y016447D01*
X019886Y016419D01*
X019845Y016363D01*
X019796Y016313D01*
X019739Y016272D01*
X019677Y016240D01*
X019610Y016219D01*
X019546Y016208D01*
X019546Y016612D01*
X019466Y016612D01*
X019466Y016208D01*
X019402Y016219D01*
X019335Y016240D01*
X019273Y016272D01*
X019216Y016313D01*
X019167Y016363D01*
X019125Y016419D01*
X019094Y016482D01*
X019072Y016548D01*
X019062Y016612D01*
X019466Y016612D01*
X019466Y016692D01*
X019062Y016692D01*
X019072Y016757D01*
X019094Y016823D01*
X019125Y016886D01*
X019167Y016942D01*
X019216Y016992D01*
X019273Y017033D01*
X019335Y017065D01*
X019402Y017086D01*
X019466Y017096D01*
X019466Y016692D01*
X019546Y016692D01*
X019546Y017096D01*
X019610Y017086D01*
X019677Y017065D01*
X019739Y017033D01*
X019796Y016992D01*
X019845Y016942D01*
X019886Y016886D01*
X019900Y016858D01*
X019900Y017273D01*
X019897Y017268D01*
X019875Y017245D01*
X019847Y017230D01*
X019817Y017221D01*
X019546Y017221D01*
X019546Y017597D01*
X019466Y017597D01*
X019091Y017597D01*
X019091Y017326D01*
X019099Y017295D01*
X019115Y017268D01*
X019137Y017245D01*
X019164Y017230D01*
X019195Y017221D01*
X019466Y017221D01*
X019466Y017597D01*
X019466Y017677D01*
X019466Y018384D01*
X019546Y018384D01*
X019546Y018009D01*
X019546Y017677D01*
X019466Y017677D01*
X019091Y017677D01*
X019091Y017948D01*
X019099Y017978D01*
X019115Y018006D01*
X019137Y018028D01*
X019141Y018030D01*
X019137Y018033D01*
X019115Y018055D01*
X019099Y018083D01*
X019091Y018113D01*
X019091Y018384D01*
X019466Y018384D01*
X019466Y018464D01*
X019091Y018464D01*
X019091Y018735D01*
X019099Y018766D01*
X019115Y018793D01*
X019137Y018815D01*
X019164Y018831D01*
X019195Y018839D01*
X019466Y018839D01*
X019466Y018464D01*
X019546Y018464D01*
X019546Y018839D01*
X019817Y018839D01*
X019847Y018831D01*
X019875Y018815D01*
X019897Y018793D01*
X019900Y018787D01*
X019900Y019203D01*
X019886Y019175D01*
X019845Y019119D01*
X019796Y019069D01*
X019739Y019028D01*
X019677Y018996D01*
X019610Y018975D01*
X019546Y018964D01*
X019546Y019368D01*
X019466Y019368D01*
X019466Y018964D01*
X019402Y018975D01*
X019335Y018996D01*
X019273Y019028D01*
X019216Y019069D01*
X019167Y019119D01*
X019125Y019175D01*
X019094Y019238D01*
X019072Y019304D01*
X019062Y019368D01*
X019466Y019368D01*
X019466Y019448D01*
X019062Y019448D01*
X019072Y019513D01*
X019094Y019579D01*
X019125Y019642D01*
X019167Y019698D01*
X019216Y019748D01*
X019273Y019789D01*
X019335Y019821D01*
X019402Y019842D01*
X019466Y019852D01*
X019466Y019448D01*
X019546Y019448D01*
X019546Y019852D01*
X019610Y019842D01*
X019677Y019821D01*
X019739Y019789D01*
X019796Y019748D01*
X019845Y019698D01*
X019886Y019642D01*
X019900Y019614D01*
X019900Y021090D01*
X019893Y021188D01*
X019833Y021373D01*
X019718Y021531D01*
X019561Y021645D01*
X019375Y021705D01*
X019278Y021713D01*
X001168Y021713D01*
X001070Y021705D01*
X000885Y021645D01*
X000728Y021531D01*
X000613Y021373D01*
X000553Y021188D01*
X000545Y021090D01*
X000545Y002193D01*
X000553Y002095D01*
X000613Y001910D01*
X000728Y001753D01*
X000885Y001638D01*
X000881Y001641D02*
X002213Y001641D01*
X002135Y001719D02*
X000773Y001719D01*
X000695Y001798D02*
X002056Y001798D01*
X001978Y001876D02*
X000638Y001876D01*
X000599Y001955D02*
X001899Y001955D01*
X001821Y002033D02*
X000573Y002033D01*
X000552Y002112D02*
X001034Y002112D01*
X001034Y002190D02*
X000546Y002190D01*
X000545Y002269D02*
X001034Y002269D01*
X001034Y002347D02*
X000545Y002347D01*
X000545Y002426D02*
X001034Y002426D01*
X001034Y002504D02*
X000545Y002504D01*
X000545Y002583D02*
X001034Y002583D01*
X001034Y002661D02*
X000545Y002661D01*
X000545Y002740D02*
X001034Y002740D01*
X001034Y002818D02*
X000545Y002818D01*
X000545Y002897D02*
X001034Y002897D01*
X001034Y002975D02*
X000545Y002975D01*
X000545Y003054D02*
X001072Y003054D01*
X001093Y003701D02*
X002002Y003701D01*
X002061Y003760D01*
X002061Y004669D01*
X002002Y004728D01*
X001093Y004728D01*
X001034Y004669D01*
X001034Y003760D01*
X001093Y003701D01*
X001034Y003760D02*
X000545Y003760D01*
X000545Y003682D02*
X004683Y003682D01*
X004605Y003603D02*
X000545Y003603D01*
X000545Y003525D02*
X004526Y003525D01*
X004448Y003446D02*
X000545Y003446D01*
X000545Y003368D02*
X004369Y003368D01*
X004291Y003289D02*
X000545Y003289D01*
X000545Y003211D02*
X004212Y003211D01*
X004162Y003161D02*
X003594Y003161D01*
X003385Y003074D01*
X003258Y003074D01*
X003200Y003016D01*
X003200Y002889D01*
X003113Y002680D01*
X003113Y002442D01*
X003200Y002232D01*
X003200Y002106D01*
X003258Y002048D01*
X003385Y002048D01*
X003594Y001961D01*
X004530Y001961D01*
X004751Y002052D01*
X004919Y002221D01*
X005540Y002842D01*
X008809Y002842D01*
X008867Y002900D01*
X008867Y005660D01*
X008809Y005719D01*
X004946Y005719D01*
X004888Y005660D01*
X004888Y003886D01*
X004162Y003161D01*
X004168Y003701D02*
X004226Y003760D01*
X004226Y004669D01*
X004168Y004728D01*
X003258Y004728D01*
X003200Y004669D01*
X003200Y003760D01*
X003258Y003701D01*
X004168Y003701D01*
X004226Y003760D02*
X004762Y003760D01*
X004840Y003839D02*
X004226Y003839D01*
X004226Y003917D02*
X004888Y003917D01*
X004888Y003996D02*
X004226Y003996D01*
X004226Y004074D02*
X004888Y004074D01*
X004888Y004153D02*
X004226Y004153D01*
X004226Y004231D02*
X004888Y004231D01*
X004888Y004310D02*
X004226Y004310D01*
X004226Y004388D02*
X004888Y004388D01*
X004888Y004467D02*
X004226Y004467D01*
X004226Y004545D02*
X004888Y004545D01*
X004888Y004624D02*
X004226Y004624D01*
X004193Y004702D02*
X004888Y004702D01*
X004888Y004781D02*
X000545Y004781D01*
X000545Y004859D02*
X004888Y004859D01*
X004888Y004938D02*
X000545Y004938D01*
X000545Y005016D02*
X004888Y005016D01*
X004888Y005095D02*
X000545Y005095D01*
X000545Y005173D02*
X004888Y005173D01*
X004888Y005252D02*
X000545Y005252D01*
X000545Y005330D02*
X004888Y005330D01*
X004888Y005409D02*
X004238Y005409D01*
X004238Y005408D02*
X004246Y005439D01*
X004246Y005828D01*
X003753Y005828D01*
X003753Y005335D01*
X004142Y005335D01*
X004173Y005343D01*
X004200Y005359D01*
X004222Y005381D01*
X004238Y005408D01*
X004246Y005487D02*
X004888Y005487D01*
X004888Y005566D02*
X004246Y005566D01*
X004246Y005644D02*
X004888Y005644D01*
X004246Y005723D02*
X010150Y005723D01*
X010150Y005694D02*
X010209Y005635D01*
X010326Y005635D01*
X010326Y005577D01*
X010143Y005577D01*
X010084Y005519D01*
X010084Y005042D01*
X010143Y004984D01*
X011564Y004984D01*
X011623Y005042D01*
X011623Y005519D01*
X011564Y005577D01*
X010686Y005577D01*
X010686Y005635D01*
X010804Y005635D01*
X010862Y005694D01*
X010862Y006367D01*
X010804Y006426D01*
X010209Y006426D01*
X010150Y006367D01*
X010150Y005694D01*
X010200Y005644D02*
X008867Y005644D01*
X008867Y005566D02*
X010132Y005566D01*
X010084Y005487D02*
X008867Y005487D01*
X008867Y005409D02*
X010084Y005409D01*
X010084Y005330D02*
X008867Y005330D01*
X008867Y005252D02*
X010084Y005252D01*
X010084Y005173D02*
X008867Y005173D01*
X008867Y005095D02*
X010084Y005095D01*
X010110Y005016D02*
X008867Y005016D01*
X008867Y004938D02*
X011824Y004938D01*
X011824Y004871D02*
X011882Y004812D01*
X012825Y004812D01*
X012825Y004749D01*
X011882Y004749D01*
X011824Y004690D01*
X011824Y004398D01*
X011610Y004398D01*
X011610Y004617D01*
X011552Y004676D01*
X010957Y004676D01*
X010898Y004617D01*
X010898Y003944D01*
X010957Y003885D01*
X011543Y003885D01*
X011513Y003855D01*
X011513Y003577D01*
X010686Y003577D01*
X010686Y003885D01*
X010804Y003885D01*
X010862Y003944D01*
X010862Y004617D01*
X010804Y004676D01*
X010209Y004676D01*
X010150Y004617D01*
X010150Y004460D01*
X009610Y004460D01*
X009610Y004617D01*
X009552Y004676D01*
X008957Y004676D01*
X008898Y004617D01*
X008898Y003944D01*
X008957Y003885D01*
X009552Y003885D01*
X009610Y003944D01*
X009610Y004100D01*
X010150Y004100D01*
X010150Y003944D01*
X010209Y003885D01*
X010326Y003885D01*
X010326Y003577D01*
X010143Y003577D01*
X010084Y003519D01*
X010084Y003042D01*
X010143Y002984D01*
X011453Y002984D01*
X011395Y002926D01*
X010957Y002926D01*
X010898Y002867D01*
X010898Y002194D01*
X010957Y002135D01*
X011552Y002135D01*
X011610Y002194D01*
X011610Y002632D01*
X011824Y002845D01*
X011824Y002746D01*
X011882Y002687D01*
X012831Y002687D01*
X012858Y002714D01*
X012869Y002702D01*
X012958Y002665D01*
X013053Y002665D01*
X013141Y002702D01*
X013209Y002769D01*
X013245Y002858D01*
X013245Y002953D01*
X013209Y003041D01*
X013141Y003109D01*
X013053Y003145D01*
X012958Y003145D01*
X012869Y003109D01*
X012858Y003097D01*
X012831Y003124D01*
X011882Y003124D01*
X011873Y003114D01*
X011873Y003197D01*
X011882Y003187D01*
X012831Y003187D01*
X012869Y003225D01*
X013017Y003225D01*
X013517Y003725D01*
X013623Y003831D01*
X013623Y005292D01*
X013310Y005605D01*
X013310Y006461D01*
X013350Y006461D01*
X013409Y006520D01*
X013409Y007288D01*
X013414Y007288D01*
X013472Y007231D01*
X013575Y007188D01*
X013686Y007188D01*
X013789Y007231D01*
X013868Y007309D01*
X013910Y007412D01*
X013910Y007524D01*
X013868Y007627D01*
X013789Y007705D01*
X013686Y007748D01*
X013575Y007748D01*
X013472Y007705D01*
X013414Y007648D01*
X013409Y007648D01*
X013409Y007666D01*
X013350Y007724D01*
X012638Y007724D01*
X012579Y007666D01*
X012579Y006520D01*
X012638Y006461D01*
X012950Y006461D01*
X012950Y005710D01*
X012869Y005710D01*
X012831Y005749D01*
X011882Y005749D01*
X011824Y005690D01*
X011824Y005371D01*
X011882Y005312D01*
X012831Y005312D01*
X012869Y005350D01*
X013056Y005350D01*
X013263Y005143D01*
X013263Y003980D01*
X012869Y003586D01*
X012831Y003624D01*
X011882Y003624D01*
X011873Y003614D01*
X011873Y003697D01*
X011882Y003687D01*
X012831Y003687D01*
X012890Y003746D01*
X012890Y004038D01*
X012955Y004038D01*
X013060Y004143D01*
X013185Y004268D01*
X013185Y004980D01*
X013080Y005085D01*
X012955Y005210D01*
X012869Y005210D01*
X012831Y005249D01*
X011882Y005249D01*
X011824Y005190D01*
X011824Y004871D01*
X011835Y004859D02*
X008867Y004859D01*
X008867Y004781D02*
X012825Y004781D01*
X013070Y005095D02*
X013263Y005095D01*
X013263Y005016D02*
X013149Y005016D01*
X013185Y004938D02*
X013263Y004938D01*
X013263Y004859D02*
X013185Y004859D01*
X013185Y004781D02*
X013263Y004781D01*
X013263Y004702D02*
X013185Y004702D01*
X013185Y004624D02*
X013263Y004624D01*
X013263Y004545D02*
X013185Y004545D01*
X013185Y004467D02*
X013263Y004467D01*
X013263Y004388D02*
X013185Y004388D01*
X013185Y004310D02*
X013263Y004310D01*
X013263Y004231D02*
X013148Y004231D01*
X013070Y004153D02*
X013263Y004153D01*
X013263Y004074D02*
X012991Y004074D01*
X012890Y003996D02*
X013263Y003996D01*
X013200Y003917D02*
X012890Y003917D01*
X012890Y003839D02*
X013122Y003839D01*
X013043Y003760D02*
X012890Y003760D01*
X012965Y003682D02*
X011873Y003682D01*
X011513Y003682D02*
X010686Y003682D01*
X010686Y003760D02*
X011513Y003760D01*
X011513Y003839D02*
X010686Y003839D01*
X010836Y003917D02*
X010925Y003917D01*
X010898Y003996D02*
X010862Y003996D01*
X010862Y004074D02*
X010898Y004074D01*
X010898Y004153D02*
X010862Y004153D01*
X010862Y004231D02*
X010898Y004231D01*
X010898Y004310D02*
X010862Y004310D01*
X010862Y004388D02*
X010898Y004388D01*
X010898Y004467D02*
X010862Y004467D01*
X010862Y004545D02*
X010898Y004545D01*
X010905Y004624D02*
X010855Y004624D01*
X010854Y005280D02*
X010818Y005280D01*
X010813Y005644D02*
X010948Y005644D01*
X010957Y005635D02*
X011552Y005635D01*
X011610Y005694D01*
X011610Y005850D01*
X011844Y005850D01*
X011882Y005812D01*
X012831Y005812D01*
X012890Y005871D01*
X012890Y006190D01*
X012831Y006249D01*
X011882Y006249D01*
X011844Y006210D01*
X011610Y006210D01*
X011610Y006367D01*
X011552Y006426D01*
X010957Y006426D01*
X010898Y006367D01*
X010898Y005694D01*
X010957Y005635D01*
X010898Y005723D02*
X010862Y005723D01*
X010862Y005801D02*
X010898Y005801D01*
X010898Y005880D02*
X010862Y005880D01*
X010862Y005958D02*
X010898Y005958D01*
X010898Y006037D02*
X010862Y006037D01*
X010862Y006115D02*
X010898Y006115D01*
X010898Y006194D02*
X010862Y006194D01*
X010862Y006272D02*
X010898Y006272D01*
X010898Y006351D02*
X010862Y006351D01*
X011465Y006515D02*
X011481Y006488D01*
X011503Y006465D01*
X011530Y006450D01*
X011561Y006441D01*
X011852Y006441D01*
X011852Y007053D01*
X011932Y007053D01*
X011932Y007133D01*
X012327Y007133D01*
X012327Y007640D01*
X012318Y007671D01*
X012303Y007698D01*
X012280Y007720D01*
X012253Y007736D01*
X012222Y007744D01*
X011932Y007744D01*
X011932Y007133D01*
X011852Y007133D01*
X011852Y007744D01*
X011561Y007744D01*
X011530Y007736D01*
X011503Y007720D01*
X011481Y007698D01*
X011465Y007671D01*
X011457Y007640D01*
X011457Y007133D01*
X011852Y007133D01*
X011852Y007053D01*
X011457Y007053D01*
X011457Y006546D01*
X011465Y006515D01*
X011469Y006508D02*
X002386Y006508D01*
X002464Y006586D02*
X011457Y006586D01*
X011457Y006665D02*
X002543Y006665D01*
X002621Y006743D02*
X011457Y006743D01*
X011457Y006822D02*
X002700Y006822D01*
X002778Y006900D02*
X011457Y006900D01*
X011457Y006979D02*
X002857Y006979D01*
X002935Y007057D02*
X003209Y007057D01*
X003200Y007136D02*
X003014Y007136D01*
X003020Y007214D02*
X003200Y007214D01*
X003200Y007293D02*
X003020Y007293D01*
X003020Y007371D02*
X003200Y007371D01*
X003200Y007450D02*
X003020Y007450D01*
X003020Y007528D02*
X003200Y007528D01*
X003200Y007607D02*
X003020Y007607D01*
X003020Y007685D02*
X003200Y007685D01*
X003200Y007764D02*
X003020Y007764D01*
X003020Y007842D02*
X003200Y007842D01*
X003200Y007921D02*
X003094Y007921D01*
X003172Y007999D02*
X003223Y007999D01*
X003251Y008078D02*
X004071Y008078D01*
X004193Y008280D02*
X004755Y008843D01*
X006818Y008843D01*
X007943Y007780D01*
X008630Y007780D01*
X009569Y007780D01*
X009756Y007593D01*
X010130Y007218D02*
X010068Y007155D01*
X009443Y007155D01*
X009130Y007468D01*
X008880Y007468D01*
X007943Y007468D01*
X006755Y008655D01*
X004847Y008655D01*
X003713Y007522D01*
X004226Y007528D02*
X007684Y007528D01*
X007763Y007450D02*
X004226Y007450D01*
X004226Y007371D02*
X007841Y007371D01*
X007606Y007607D02*
X004226Y007607D01*
X004226Y007685D02*
X007527Y007685D01*
X007449Y007764D02*
X004226Y007764D01*
X004232Y007842D02*
X007370Y007842D01*
X007292Y007921D02*
X004310Y007921D01*
X004389Y007999D02*
X007213Y007999D01*
X007135Y008078D02*
X004467Y008078D01*
X004546Y008156D02*
X007056Y008156D01*
X006978Y008235D02*
X004624Y008235D01*
X004703Y008313D02*
X006899Y008313D01*
X006821Y008392D02*
X004781Y008392D01*
X004860Y008470D02*
X006742Y008470D01*
X006880Y009093D02*
X006505Y009093D01*
X006265Y009098D02*
X004226Y009098D01*
X004226Y009020D02*
X006276Y009020D01*
X006280Y009177D02*
X006110Y009177D01*
X005775Y009177D02*
X004956Y009177D01*
X005070Y009255D02*
X005702Y009255D01*
X005669Y009334D02*
X005110Y009334D01*
X005120Y009412D02*
X005663Y009412D01*
X005675Y009491D02*
X005164Y009491D01*
X005242Y009569D02*
X005711Y009569D01*
X005193Y009718D02*
X004880Y009405D01*
X003943Y009405D01*
X003713Y009175D01*
X004226Y009177D02*
X004805Y009177D01*
X004691Y009255D02*
X004226Y009255D01*
X004226Y008941D02*
X004656Y008941D01*
X004577Y008863D02*
X004226Y008863D01*
X004226Y008784D02*
X004499Y008784D01*
X004420Y008706D02*
X004212Y008706D01*
X004342Y008627D02*
X002520Y008627D01*
X002520Y008549D02*
X004263Y008549D01*
X004185Y008470D02*
X002520Y008470D01*
X002520Y008392D02*
X003169Y008392D01*
X003090Y008313D02*
X002520Y008313D01*
X002459Y008235D02*
X003012Y008235D01*
X002933Y008156D02*
X002381Y008156D01*
X002302Y008078D02*
X002855Y008078D01*
X002776Y007999D02*
X002224Y007999D01*
X002145Y007921D02*
X002740Y007921D01*
X002880Y007905D02*
X003255Y008280D01*
X004193Y008280D01*
X004226Y007293D02*
X008716Y007293D01*
X009045Y007293D02*
X009107Y007293D01*
X009186Y007214D02*
X004226Y007214D01*
X004226Y007136D02*
X009264Y007136D01*
X009343Y007057D02*
X004217Y007057D01*
X004142Y006401D02*
X003753Y006401D01*
X003753Y005908D01*
X004246Y005908D01*
X004246Y006297D01*
X004238Y006328D01*
X004222Y006355D01*
X004200Y006377D01*
X004173Y006393D01*
X004142Y006401D01*
X004225Y006351D02*
X010150Y006351D01*
X010150Y006272D02*
X004246Y006272D01*
X004246Y006194D02*
X010150Y006194D01*
X010150Y006115D02*
X004246Y006115D01*
X004246Y006037D02*
X010150Y006037D01*
X010150Y005958D02*
X004246Y005958D01*
X004246Y005801D02*
X010150Y005801D01*
X010150Y005880D02*
X003753Y005880D01*
X003753Y005908D02*
X003753Y005828D01*
X003673Y005828D01*
X003673Y005335D01*
X003284Y005335D01*
X003253Y005343D01*
X003226Y005359D01*
X003204Y005381D01*
X003188Y005408D01*
X003180Y005439D01*
X003180Y005828D01*
X003673Y005828D01*
X003673Y005908D01*
X003180Y005908D01*
X003180Y006297D01*
X003188Y006328D01*
X003204Y006355D01*
X003226Y006377D01*
X003253Y006393D01*
X003284Y006401D01*
X003673Y006401D01*
X003673Y005908D01*
X003753Y005908D01*
X003753Y005958D02*
X003673Y005958D01*
X003673Y005880D02*
X002061Y005880D01*
X002061Y005958D02*
X003180Y005958D01*
X003180Y006037D02*
X002061Y006037D01*
X002061Y006115D02*
X003180Y006115D01*
X003180Y006194D02*
X002072Y006194D01*
X002150Y006272D02*
X003180Y006272D01*
X003201Y006351D02*
X002229Y006351D01*
X002307Y006429D02*
X012950Y006429D01*
X012950Y006351D02*
X011610Y006351D01*
X011610Y006272D02*
X012950Y006272D01*
X012950Y006194D02*
X012886Y006194D01*
X012890Y006115D02*
X012950Y006115D01*
X012950Y006037D02*
X012890Y006037D01*
X012890Y005958D02*
X012950Y005958D01*
X012950Y005880D02*
X012890Y005880D01*
X012950Y005801D02*
X011610Y005801D01*
X011610Y005723D02*
X011857Y005723D01*
X011824Y005644D02*
X011561Y005644D01*
X011576Y005566D02*
X011824Y005566D01*
X011824Y005487D02*
X011623Y005487D01*
X011623Y005409D02*
X011824Y005409D01*
X011864Y005330D02*
X011623Y005330D01*
X011623Y005252D02*
X013154Y005252D01*
X013076Y005330D02*
X012849Y005330D01*
X012992Y005173D02*
X013233Y005173D01*
X013506Y005409D02*
X013851Y005409D01*
X013851Y005397D02*
X013859Y005366D01*
X013875Y005339D01*
X013897Y005316D01*
X013925Y005301D01*
X013955Y005292D01*
X014385Y005292D01*
X014385Y005511D01*
X014423Y005511D01*
X014423Y005292D01*
X014853Y005292D01*
X014883Y005301D01*
X014911Y005316D01*
X014933Y005339D01*
X014949Y005366D01*
X014957Y005397D01*
X014957Y005511D01*
X014423Y005511D01*
X014423Y005549D01*
X014957Y005549D01*
X014957Y005664D01*
X014949Y005695D01*
X014933Y005722D01*
X014911Y005745D01*
X014883Y005760D01*
X014853Y005769D01*
X014423Y005769D01*
X014423Y005549D01*
X014385Y005549D01*
X014385Y005511D01*
X013851Y005511D01*
X013851Y005397D01*
X013883Y005330D02*
X013585Y005330D01*
X013623Y005252D02*
X015078Y005252D01*
X015078Y005330D02*
X014925Y005330D01*
X014957Y005409D02*
X015078Y005409D01*
X015078Y005457D02*
X015078Y005170D01*
X014937Y005170D01*
X014937Y005190D01*
X014878Y005249D01*
X013929Y005249D01*
X013871Y005190D01*
X013871Y004871D01*
X013929Y004812D01*
X014878Y004812D01*
X014937Y004871D01*
X014937Y004890D01*
X015078Y004890D01*
X015078Y004604D01*
X015136Y004545D01*
X014937Y004545D01*
X014937Y004467D02*
X015088Y004467D01*
X015078Y004457D02*
X015078Y004170D01*
X015010Y004170D01*
X014928Y004088D01*
X014921Y004081D01*
X014878Y004124D01*
X013929Y004124D01*
X013871Y004065D01*
X013871Y003746D01*
X013929Y003687D01*
X014878Y003687D01*
X014937Y003746D01*
X014937Y003765D01*
X015001Y003765D01*
X015078Y003842D01*
X015078Y003604D01*
X015136Y003545D01*
X015749Y003545D01*
X015808Y003604D01*
X015808Y003890D01*
X016181Y003890D01*
X016244Y003827D01*
X016333Y003790D01*
X016428Y003790D01*
X016516Y003827D01*
X016584Y003894D01*
X016620Y003983D01*
X016620Y004078D01*
X016584Y004166D01*
X016516Y004234D01*
X016428Y004270D01*
X016333Y004270D01*
X016244Y004234D01*
X016181Y004170D01*
X015808Y004170D01*
X015808Y004457D01*
X015749Y004515D01*
X015136Y004515D01*
X015078Y004457D01*
X015078Y004388D02*
X014937Y004388D01*
X014937Y004371D02*
X014937Y004690D01*
X014878Y004749D01*
X013929Y004749D01*
X013871Y004690D01*
X013871Y004371D01*
X013929Y004312D01*
X014878Y004312D01*
X014937Y004371D01*
X015078Y004310D02*
X013623Y004310D01*
X013623Y004388D02*
X013871Y004388D01*
X013871Y004467D02*
X013623Y004467D01*
X013623Y004545D02*
X013871Y004545D01*
X013871Y004624D02*
X013623Y004624D01*
X013623Y004702D02*
X013883Y004702D01*
X013882Y004859D02*
X013623Y004859D01*
X013623Y004781D02*
X015078Y004781D01*
X015078Y004859D02*
X014926Y004859D01*
X014925Y004702D02*
X015078Y004702D01*
X015078Y004624D02*
X014937Y004624D01*
X015136Y004545D02*
X015749Y004545D01*
X015808Y004604D01*
X015808Y004890D01*
X016181Y004890D01*
X016244Y004827D01*
X016333Y004790D01*
X016428Y004790D01*
X016516Y004827D01*
X016584Y004894D01*
X016620Y004983D01*
X016620Y005078D01*
X016584Y005166D01*
X016516Y005234D01*
X016428Y005270D01*
X016333Y005270D01*
X016244Y005234D01*
X016181Y005170D01*
X015808Y005170D01*
X015808Y005457D01*
X015749Y005515D01*
X015136Y005515D01*
X015078Y005457D01*
X015108Y005487D02*
X014957Y005487D01*
X014957Y005566D02*
X016897Y005566D01*
X016975Y005487D02*
X015777Y005487D01*
X015808Y005409D02*
X017054Y005409D01*
X017132Y005330D02*
X015808Y005330D01*
X015808Y005252D02*
X016288Y005252D01*
X016184Y005173D02*
X015808Y005173D01*
X015808Y004859D02*
X016212Y004859D01*
X016380Y005030D02*
X014404Y005030D01*
X014385Y005330D02*
X014423Y005330D01*
X014423Y005409D02*
X014385Y005409D01*
X014385Y005487D02*
X014423Y005487D01*
X014385Y005549D02*
X013851Y005549D01*
X013851Y005664D01*
X013859Y005695D01*
X013875Y005722D01*
X013897Y005745D01*
X013925Y005760D01*
X013955Y005769D01*
X014385Y005769D01*
X014385Y005549D01*
X014385Y005566D02*
X014423Y005566D01*
X014423Y005644D02*
X014385Y005644D01*
X014385Y005723D02*
X014423Y005723D01*
X014404Y006030D02*
X015755Y006030D01*
X015579Y006194D02*
X014933Y006194D01*
X014937Y006190D02*
X014878Y006249D01*
X013929Y006249D01*
X013871Y006190D01*
X013871Y005871D01*
X013929Y005812D01*
X014878Y005812D01*
X014937Y005871D01*
X014937Y005890D01*
X015556Y005890D01*
X015619Y005827D01*
X015708Y005790D01*
X015803Y005790D01*
X015891Y005827D01*
X015959Y005894D01*
X015995Y005983D01*
X015995Y006078D01*
X015959Y006166D01*
X015891Y006234D01*
X015803Y006270D01*
X015708Y006270D01*
X015619Y006234D01*
X015556Y006170D01*
X014937Y006170D01*
X014937Y006190D01*
X014937Y005880D02*
X015566Y005880D01*
X015681Y005801D02*
X013310Y005801D01*
X013310Y005723D02*
X013876Y005723D01*
X013851Y005644D02*
X013310Y005644D01*
X013349Y005566D02*
X013851Y005566D01*
X013851Y005487D02*
X013428Y005487D01*
X013623Y005173D02*
X013871Y005173D01*
X013871Y005095D02*
X013623Y005095D01*
X013623Y005016D02*
X013871Y005016D01*
X013871Y004938D02*
X013623Y004938D01*
X013623Y004231D02*
X015078Y004231D01*
X014992Y004153D02*
X013623Y004153D01*
X013623Y004074D02*
X013880Y004074D01*
X013871Y003996D02*
X013623Y003996D01*
X013623Y003917D02*
X013871Y003917D01*
X013871Y003839D02*
X013623Y003839D01*
X013552Y003760D02*
X013871Y003760D01*
X013925Y003635D02*
X013897Y003620D01*
X013875Y003597D01*
X013859Y003570D01*
X013851Y003539D01*
X013851Y003424D01*
X014385Y003424D01*
X014385Y003386D01*
X014423Y003386D01*
X014423Y003167D01*
X014853Y003167D01*
X014883Y003176D01*
X014911Y003191D01*
X014933Y003214D01*
X014949Y003241D01*
X014957Y003272D01*
X014957Y003386D01*
X014423Y003386D01*
X014423Y003424D01*
X014957Y003424D01*
X014957Y003539D01*
X014949Y003570D01*
X014933Y003597D01*
X014911Y003620D01*
X014883Y003635D01*
X014853Y003644D01*
X014423Y003644D01*
X014423Y003424D01*
X014385Y003424D01*
X014385Y003644D01*
X013955Y003644D01*
X013925Y003635D01*
X013881Y003603D02*
X013395Y003603D01*
X013317Y003525D02*
X013851Y003525D01*
X013851Y003446D02*
X013238Y003446D01*
X013160Y003368D02*
X013851Y003368D01*
X013851Y003386D02*
X013851Y003272D01*
X013859Y003241D01*
X013875Y003214D01*
X013897Y003191D01*
X013925Y003176D01*
X013955Y003167D01*
X014385Y003167D01*
X014385Y003386D01*
X013851Y003386D01*
X013851Y003289D02*
X013081Y003289D01*
X013084Y003132D02*
X017159Y003132D01*
X017081Y003054D02*
X014937Y003054D01*
X014937Y003045D02*
X014937Y003065D01*
X014878Y003124D01*
X013929Y003124D01*
X013871Y003065D01*
X013871Y002746D01*
X013929Y002687D01*
X014878Y002687D01*
X014937Y002746D01*
X014937Y002765D01*
X017188Y002765D01*
X017651Y003228D01*
X017741Y003228D01*
X017829Y003264D01*
X017896Y003332D01*
X017933Y003420D01*
X017933Y003516D01*
X017896Y003604D01*
X017829Y003671D01*
X017741Y003708D01*
X017645Y003708D01*
X017557Y003671D01*
X017489Y003604D01*
X017453Y003516D01*
X017453Y003426D01*
X017072Y003045D01*
X014937Y003045D01*
X014930Y003211D02*
X017238Y003211D01*
X017316Y003289D02*
X014957Y003289D01*
X014957Y003368D02*
X017395Y003368D01*
X017453Y003446D02*
X014957Y003446D01*
X014957Y003525D02*
X017457Y003525D01*
X017489Y003603D02*
X015807Y003603D01*
X015808Y003682D02*
X017582Y003682D01*
X017803Y003682D02*
X018953Y003682D01*
X018953Y003604D02*
X019011Y003545D01*
X019624Y003545D01*
X019683Y003604D01*
X019683Y003957D01*
X019624Y004015D01*
X019011Y004015D01*
X018953Y003957D01*
X018953Y003604D01*
X018953Y003603D02*
X017896Y003603D01*
X017929Y003525D02*
X019900Y003525D01*
X019900Y003603D02*
X019682Y003603D01*
X019683Y003682D02*
X019900Y003682D01*
X019900Y003760D02*
X019683Y003760D01*
X019683Y003839D02*
X019900Y003839D01*
X019900Y003917D02*
X019683Y003917D01*
X019644Y003996D02*
X019900Y003996D01*
X019900Y004074D02*
X019653Y004074D01*
X019729Y004153D02*
X019900Y004153D01*
X019900Y004231D02*
X019808Y004231D01*
X019886Y004310D02*
X019900Y004310D01*
X019658Y004534D02*
X019632Y004508D01*
X019624Y004515D01*
X019011Y004515D01*
X018953Y004457D01*
X018953Y004420D01*
X018438Y004420D01*
X016646Y006212D01*
X016646Y006510D01*
X016804Y006510D01*
X016862Y006569D01*
X016862Y007100D01*
X016898Y007063D01*
X016898Y006569D01*
X016957Y006510D01*
X017552Y006510D01*
X017610Y006569D01*
X017610Y007242D01*
X017552Y007301D01*
X017057Y007301D01*
X017020Y007337D01*
X017020Y007365D01*
X017214Y007365D01*
X017214Y007740D01*
X017294Y007740D01*
X017294Y007365D01*
X017526Y007365D01*
X017557Y007373D01*
X017584Y007389D01*
X017606Y007411D01*
X017622Y007439D01*
X017630Y007469D01*
X017630Y007740D01*
X017294Y007740D01*
X017294Y007820D01*
X017630Y007820D01*
X017630Y008092D01*
X017622Y008122D01*
X017606Y008149D01*
X017584Y008172D01*
X017557Y008188D01*
X017526Y008196D01*
X017294Y008196D01*
X017294Y007820D01*
X017214Y007820D01*
X017214Y008196D01*
X017020Y008196D01*
X017020Y008240D01*
X017214Y008240D01*
X017214Y008615D01*
X017294Y008615D01*
X017294Y008240D01*
X017526Y008240D01*
X017557Y008248D01*
X017584Y008264D01*
X017606Y008286D01*
X017622Y008314D01*
X017630Y008344D01*
X017630Y008615D01*
X017294Y008615D01*
X017294Y008695D01*
X017630Y008695D01*
X017630Y008967D01*
X017622Y008997D01*
X017606Y009024D01*
X017584Y009047D01*
X017557Y009063D01*
X017526Y009071D01*
X017294Y009071D01*
X017294Y008695D01*
X017214Y008695D01*
X017214Y008615D01*
X016878Y008615D01*
X016878Y008481D01*
X016862Y008498D01*
X016862Y008992D01*
X016804Y009051D01*
X016225Y009051D01*
X016309Y009135D01*
X016804Y009135D01*
X016862Y009194D01*
X016862Y009688D01*
X016878Y009705D01*
X016878Y009570D01*
X017214Y009570D01*
X017214Y009490D01*
X017294Y009490D01*
X017294Y009115D01*
X017526Y009115D01*
X017557Y009123D01*
X017584Y009139D01*
X017606Y009161D01*
X017622Y009189D01*
X017630Y009219D01*
X017630Y009490D01*
X017294Y009490D01*
X017294Y009570D01*
X017615Y009570D01*
X017615Y009535D01*
X017697Y009453D01*
X017990Y009160D01*
X017990Y008535D01*
X018366Y008159D01*
X018366Y008113D01*
X018209Y008113D01*
X018150Y008055D01*
X018150Y007381D01*
X018209Y007323D01*
X018740Y007323D01*
X018740Y007285D01*
X018822Y007203D01*
X019365Y006660D01*
X019365Y005515D01*
X019011Y005515D01*
X018953Y005457D01*
X018953Y005104D01*
X019011Y005045D01*
X019624Y005045D01*
X019658Y005079D01*
X019658Y005010D01*
X019656Y005011D01*
X019629Y005027D01*
X019599Y005035D01*
X019345Y005035D01*
X019345Y004808D01*
X019290Y004808D01*
X019290Y004753D01*
X018933Y004753D01*
X018933Y004630D01*
X018941Y004599D01*
X018957Y004572D01*
X018979Y004549D01*
X019006Y004534D01*
X019037Y004525D01*
X019290Y004525D01*
X019290Y004753D01*
X019345Y004753D01*
X019345Y004525D01*
X019599Y004525D01*
X019629Y004534D01*
X019656Y004549D01*
X019658Y004551D01*
X019658Y004534D01*
X019658Y004545D02*
X019650Y004545D01*
X019345Y004545D02*
X019290Y004545D01*
X019290Y004624D02*
X019345Y004624D01*
X019345Y004702D02*
X019290Y004702D01*
X019290Y004781D02*
X018078Y004781D01*
X018156Y004702D02*
X018933Y004702D01*
X018934Y004624D02*
X018235Y004624D01*
X018313Y004545D02*
X018986Y004545D01*
X018963Y004467D02*
X018392Y004467D01*
X018380Y004280D02*
X016506Y006154D01*
X016506Y006905D01*
X015379Y006905D01*
X015735Y006743D02*
X016150Y006743D01*
X016150Y006665D02*
X015735Y006665D01*
X015735Y006586D02*
X016150Y006586D01*
X016366Y006508D02*
X013397Y006508D01*
X013409Y006586D02*
X014275Y006586D01*
X014275Y006665D02*
X013409Y006665D01*
X013409Y006743D02*
X014275Y006743D01*
X014275Y006822D02*
X013409Y006822D01*
X013409Y006900D02*
X014275Y006900D01*
X014275Y006979D02*
X013409Y006979D01*
X013409Y007057D02*
X014275Y007057D01*
X014275Y007136D02*
X013409Y007136D01*
X013409Y007214D02*
X013511Y007214D01*
X013750Y007214D02*
X014275Y007214D01*
X014326Y007293D02*
X013851Y007293D01*
X013893Y007371D02*
X014842Y007371D01*
X015069Y007343D02*
X014631Y007780D01*
X014068Y008344D01*
X014068Y009593D01*
X013818Y009843D01*
X013880Y010030D02*
X012068Y010030D01*
X011755Y009718D01*
X009005Y009718D01*
X008443Y010280D01*
X002096Y010280D01*
X001548Y010829D01*
X001034Y010825D02*
X000545Y010825D01*
X000545Y010747D02*
X001034Y010747D01*
X001034Y010668D02*
X000545Y010668D01*
X000545Y010590D02*
X001034Y010590D01*
X001034Y010511D02*
X000545Y010511D01*
X000545Y010433D02*
X001034Y010433D01*
X001054Y010354D02*
X000545Y010354D01*
X000545Y010276D02*
X001902Y010276D01*
X002038Y010140D02*
X002315Y010140D01*
X002141Y010433D02*
X003200Y010433D01*
X003200Y010511D02*
X002063Y010511D01*
X002061Y010590D02*
X003200Y010590D01*
X003200Y010668D02*
X002061Y010668D01*
X002061Y010747D02*
X003200Y010747D01*
X003200Y010825D02*
X002061Y010825D01*
X002061Y010904D02*
X003200Y010904D01*
X003200Y010982D02*
X002061Y010982D01*
X002061Y011061D02*
X003200Y011061D01*
X003200Y011139D02*
X002061Y011139D01*
X002061Y011218D02*
X003200Y011218D01*
X002824Y011610D02*
X002617Y011610D01*
X002539Y011689D02*
X002746Y011689D01*
X002667Y011767D02*
X002460Y011767D01*
X002382Y011846D02*
X002589Y011846D01*
X002510Y011924D02*
X002303Y011924D01*
X002225Y012003D02*
X002470Y012003D01*
X002470Y012081D02*
X002146Y012081D01*
X002068Y012160D02*
X002470Y012160D01*
X002470Y012238D02*
X002061Y012238D01*
X002061Y012317D02*
X002470Y012317D01*
X002470Y012395D02*
X002061Y012395D01*
X002061Y012474D02*
X002470Y012474D01*
X002470Y012552D02*
X002061Y012552D01*
X002061Y012631D02*
X002470Y012631D01*
X002470Y012709D02*
X002061Y012709D01*
X002061Y012788D02*
X002470Y012788D01*
X002470Y012866D02*
X002061Y012866D01*
X002053Y012945D02*
X002470Y012945D01*
X002434Y013023D02*
X000545Y013023D01*
X000545Y012945D02*
X001042Y012945D01*
X001034Y012866D02*
X000545Y012866D01*
X000545Y012788D02*
X001034Y012788D01*
X001034Y012709D02*
X000545Y012709D01*
X000545Y012631D02*
X001034Y012631D01*
X001034Y012552D02*
X000545Y012552D01*
X000545Y012474D02*
X001034Y012474D01*
X001034Y012395D02*
X000545Y012395D01*
X000545Y012317D02*
X001034Y012317D01*
X001034Y012238D02*
X000545Y012238D01*
X000545Y012160D02*
X001034Y012160D01*
X001034Y012081D02*
X000545Y012081D01*
X000545Y012003D02*
X001059Y012003D01*
X001548Y012482D02*
X002624Y011405D01*
X004130Y011405D01*
X004880Y010655D01*
X008568Y010655D01*
X009130Y010093D01*
X011630Y010093D01*
X011943Y010405D01*
X014631Y010405D01*
X015069Y009968D01*
X016069Y009968D01*
X016506Y010405D01*
X016150Y010531D02*
X016150Y010742D01*
X016209Y010801D01*
X016740Y010801D01*
X016740Y010838D01*
X016822Y010920D01*
X016885Y010983D01*
X017626Y010983D01*
X017708Y010901D01*
X017803Y010806D01*
X017803Y011285D01*
X017385Y011703D01*
X016955Y011703D01*
X016891Y011639D01*
X016803Y011603D01*
X016708Y011603D01*
X016619Y011639D01*
X016552Y011707D01*
X016515Y011795D01*
X016515Y011891D01*
X016541Y011953D01*
X014918Y011953D01*
X014918Y011608D01*
X015025Y011608D01*
X015025Y011805D01*
X015084Y011863D01*
X015679Y011863D01*
X015737Y011805D01*
X015737Y011131D01*
X015679Y011073D01*
X015084Y011073D01*
X015025Y011131D01*
X015025Y011328D01*
X014918Y011328D01*
X014918Y010953D01*
X014859Y010895D01*
X014028Y010895D01*
X013970Y010953D01*
X013970Y011806D01*
X013648Y012127D01*
X013648Y012703D01*
X013636Y012703D01*
X013633Y012707D01*
X013629Y012703D01*
X013618Y012703D01*
X013618Y012132D01*
X013304Y011818D01*
X013304Y010953D01*
X013245Y010895D01*
X012414Y010895D01*
X012355Y010953D01*
X012355Y011703D01*
X012276Y011703D01*
X012276Y011607D01*
X012217Y011549D01*
X011544Y011549D01*
X011485Y011607D01*
X011485Y012202D01*
X011544Y012260D01*
X012217Y012260D01*
X012276Y012202D01*
X012276Y011983D01*
X012357Y011983D01*
X012414Y012040D01*
X013129Y012040D01*
X013338Y012248D01*
X013338Y012699D01*
X013324Y012691D01*
X013294Y012683D01*
X013183Y012683D01*
X013183Y013023D01*
X013153Y013023D01*
X013153Y012683D01*
X013042Y012683D01*
X013016Y012690D01*
X012634Y012308D01*
X011573Y012308D01*
X011463Y012198D01*
X011463Y011607D01*
X011405Y011549D01*
X010938Y011549D01*
X010922Y011532D01*
X011028Y011532D01*
X011108Y011532D01*
X011108Y011196D01*
X011840Y011196D01*
X011840Y011116D01*
X011920Y011116D01*
X011920Y010781D01*
X012191Y010781D01*
X012222Y010789D01*
X012249Y010804D01*
X012272Y010827D01*
X012287Y010854D01*
X012296Y010885D01*
X012296Y011116D01*
X011920Y011116D01*
X011920Y011196D01*
X012296Y011196D01*
X012296Y011428D01*
X012287Y011459D01*
X012272Y011486D01*
X012249Y011508D01*
X012222Y011524D01*
X012191Y011532D01*
X011920Y011532D01*
X011840Y011532D01*
X011569Y011532D01*
X011539Y011524D01*
X011511Y011508D01*
X011489Y011486D01*
X011474Y011460D01*
X011459Y011486D01*
X011437Y011508D01*
X011409Y011524D01*
X011379Y011532D01*
X011108Y011532D01*
X011108Y011453D02*
X011028Y011453D01*
X011028Y011375D02*
X011108Y011375D01*
X011108Y011296D02*
X011028Y011296D01*
X011028Y011218D02*
X011108Y011218D01*
X011108Y011196D02*
X011028Y011196D01*
X011028Y011116D01*
X011108Y011116D01*
X011108Y010781D01*
X011379Y010781D01*
X011409Y010789D01*
X011437Y010804D01*
X011459Y010827D01*
X011474Y010853D01*
X011489Y010827D01*
X011511Y010804D01*
X011539Y010789D01*
X011569Y010781D01*
X011840Y010781D01*
X011840Y011116D01*
X011483Y011116D01*
X011108Y011116D01*
X011108Y011196D01*
X011108Y011139D02*
X011840Y011139D01*
X011840Y011196D02*
X011840Y011532D01*
X011840Y011453D02*
X011920Y011453D01*
X011920Y011375D02*
X011840Y011375D01*
X011840Y011296D02*
X011920Y011296D01*
X011920Y011218D02*
X011840Y011218D01*
X011840Y011196D02*
X011920Y011196D01*
X011920Y011532D01*
X012193Y011532D02*
X012355Y011532D01*
X012355Y011610D02*
X012276Y011610D01*
X012276Y011689D02*
X012355Y011689D01*
X012355Y011453D02*
X012289Y011453D01*
X012296Y011375D02*
X012355Y011375D01*
X012355Y011296D02*
X012296Y011296D01*
X012296Y011218D02*
X012355Y011218D01*
X012355Y011139D02*
X011920Y011139D01*
X011920Y011061D02*
X011840Y011061D01*
X011840Y010982D02*
X011920Y010982D01*
X011920Y010904D02*
X011840Y010904D01*
X011840Y010825D02*
X011920Y010825D01*
X011885Y010545D02*
X011572Y010233D01*
X009188Y010233D01*
X008708Y010713D01*
X008626Y010795D01*
X007497Y010795D01*
X007572Y010870D01*
X009701Y010870D01*
X009744Y010827D01*
X009833Y010790D01*
X009928Y010790D01*
X010016Y010827D01*
X010060Y010870D01*
X010259Y010870D01*
X010353Y010964D01*
X010653Y011264D01*
X010653Y011196D01*
X011028Y011196D01*
X011028Y011532D01*
X011380Y011532D02*
X011568Y011532D01*
X011485Y011610D02*
X011463Y011610D01*
X011463Y011689D02*
X011485Y011689D01*
X011485Y011767D02*
X011463Y011767D01*
X011463Y011846D02*
X011485Y011846D01*
X011485Y011924D02*
X011463Y011924D01*
X011463Y012003D02*
X011485Y012003D01*
X011485Y012081D02*
X011463Y012081D01*
X011463Y012160D02*
X011485Y012160D01*
X011503Y012238D02*
X011522Y012238D01*
X011880Y011904D02*
X011880Y011843D01*
X012830Y011843D01*
X012830Y011467D01*
X012830Y011542D01*
X013478Y012190D01*
X013478Y013038D01*
X013183Y013053D02*
X013153Y013053D01*
X013153Y013393D01*
X013094Y013393D01*
X013134Y013433D01*
X016189Y013433D01*
X016249Y013373D01*
X016116Y013373D01*
X016113Y013369D01*
X016109Y013373D01*
X015806Y013373D01*
X015803Y013369D01*
X015799Y013373D01*
X015496Y013373D01*
X015493Y013369D01*
X015489Y013373D01*
X015186Y013373D01*
X015183Y013369D01*
X015179Y013373D01*
X014876Y013373D01*
X014873Y013369D01*
X014869Y013373D01*
X014566Y013373D01*
X014563Y013369D01*
X014559Y013373D01*
X014256Y013373D01*
X014253Y013369D01*
X014249Y013373D01*
X013946Y013373D01*
X013943Y013369D01*
X013939Y013373D01*
X013636Y013373D01*
X013633Y013369D01*
X013629Y013373D01*
X013345Y013373D01*
X013324Y013385D01*
X013294Y013393D01*
X013183Y013393D01*
X013183Y013053D01*
X013183Y013102D02*
X013153Y013102D01*
X013153Y013180D02*
X013183Y013180D01*
X013183Y013259D02*
X013153Y013259D01*
X013153Y013337D02*
X013183Y013337D01*
X013117Y013416D02*
X016206Y013416D01*
X016423Y013651D02*
X016663Y013651D01*
X016663Y013617D02*
X016721Y013558D01*
X016858Y013558D01*
X016858Y013542D01*
X017015Y013385D01*
X017015Y013295D01*
X017052Y013207D01*
X017119Y013139D01*
X017208Y013103D01*
X017303Y013103D01*
X017391Y013139D01*
X017459Y013207D01*
X017495Y013295D01*
X017495Y013353D01*
X017553Y013353D01*
X017641Y013389D01*
X017709Y013457D01*
X017745Y013545D01*
X017745Y013641D01*
X017735Y013665D01*
X017741Y013665D01*
X017765Y013676D01*
X017765Y013608D01*
X017802Y013519D01*
X017869Y013452D01*
X017958Y013415D01*
X018053Y013415D01*
X018141Y013452D01*
X018209Y013519D01*
X018245Y013608D01*
X018245Y013703D01*
X018209Y013791D01*
X018145Y013855D01*
X018145Y014026D01*
X018063Y014108D01*
X017531Y014640D01*
X018393Y014640D01*
X018429Y014554D01*
X018541Y014441D01*
X018688Y014380D01*
X019447Y014380D01*
X019594Y014441D01*
X019707Y014554D01*
X019768Y014701D01*
X019768Y014860D01*
X019707Y015007D01*
X019594Y015120D01*
X019447Y015180D01*
X018688Y015180D01*
X018541Y015120D01*
X018429Y015007D01*
X018393Y014920D01*
X017563Y014920D01*
X017336Y015148D01*
X017333Y015148D01*
X017333Y015159D01*
X017329Y015163D01*
X017333Y015167D01*
X017333Y015469D01*
X017329Y015473D01*
X017333Y015477D01*
X017333Y015779D01*
X017329Y015783D01*
X017333Y015787D01*
X017333Y016089D01*
X017329Y016093D01*
X017333Y016097D01*
X017333Y016399D01*
X019140Y016399D01*
X019096Y016477D02*
X017333Y016477D01*
X017333Y016407D02*
X017333Y016709D01*
X017329Y016713D01*
X017333Y016717D01*
X017333Y017019D01*
X017329Y017023D01*
X017333Y017027D01*
X018404Y017027D01*
X018404Y017007D02*
X018404Y017085D01*
X018066Y017085D01*
X018080Y017156D01*
X018108Y017225D01*
X018150Y017287D01*
X018202Y017339D01*
X018203Y017340D01*
X018136Y017340D01*
X018077Y017398D01*
X018077Y017635D01*
X017879Y017635D01*
X017803Y017603D01*
X017708Y017603D01*
X017619Y017639D01*
X017552Y017707D01*
X017515Y017795D01*
X017515Y017891D01*
X017552Y017979D01*
X017603Y018030D01*
X017552Y018082D01*
X017515Y018170D01*
X017515Y018266D01*
X017552Y018354D01*
X017619Y018421D01*
X017708Y018458D01*
X017803Y018458D01*
X017891Y018421D01*
X017959Y018354D01*
X017995Y018266D01*
X017995Y018176D01*
X018001Y018170D01*
X018077Y018170D01*
X018077Y018397D01*
X018065Y018417D01*
X018057Y018448D01*
X018057Y018542D01*
X018443Y018542D01*
X018443Y018542D01*
X018443Y018542D01*
X018443Y018741D01*
X018482Y018741D01*
X018482Y018976D01*
X018404Y018976D01*
X018066Y018976D01*
X018080Y018905D01*
X018108Y018836D01*
X018150Y018774D01*
X018183Y018741D01*
X018161Y018741D01*
X018131Y018733D01*
X018103Y018717D01*
X018081Y018695D01*
X018065Y018667D01*
X018057Y018637D01*
X018057Y018542D01*
X018443Y018542D01*
X018443Y018741D01*
X018404Y018741D01*
X018404Y018976D01*
X018404Y019053D01*
X018066Y019053D01*
X018080Y019125D01*
X018108Y019193D01*
X018150Y019255D01*
X018202Y019308D01*
X018264Y019349D01*
X018333Y019378D01*
X018404Y019392D01*
X018404Y019053D01*
X018482Y019053D01*
X018482Y019392D01*
X018522Y019384D01*
X018181Y019725D01*
X017767Y019725D01*
X017717Y019676D01*
X017044Y019676D01*
X016985Y019734D01*
X016985Y019851D01*
X016901Y019851D01*
X016901Y019773D01*
X016842Y019715D01*
X016169Y019715D01*
X016110Y019773D01*
X016110Y019833D01*
X016084Y019769D01*
X016016Y019702D01*
X015928Y019665D01*
X015833Y019665D01*
X015744Y019702D01*
X015677Y019769D01*
X015640Y019858D01*
X015640Y019953D01*
X015677Y020041D01*
X015700Y020065D01*
X015700Y020605D01*
X015806Y020710D01*
X016015Y020920D01*
X016110Y020920D01*
X016110Y021037D01*
X016169Y021096D01*
X016842Y021096D01*
X016901Y021037D01*
X016901Y020443D01*
X016863Y020405D01*
X016901Y020368D01*
X016901Y020211D01*
X016985Y020211D01*
X016985Y020329D01*
X017044Y020387D01*
X017717Y020387D01*
X017776Y020329D01*
X017776Y020085D01*
X018330Y020085D01*
X019060Y019355D01*
X019060Y017581D01*
X018955Y017475D01*
X018818Y017339D01*
X018684Y017339D01*
X018736Y017287D01*
X018777Y017225D01*
X018806Y017156D01*
X018820Y017085D01*
X018482Y017085D01*
X018482Y017007D01*
X018820Y017007D01*
X018806Y016936D01*
X018777Y016867D01*
X018736Y016806D01*
X018683Y016753D01*
X018622Y016712D01*
X018553Y016683D01*
X018482Y016669D01*
X018482Y017007D01*
X018404Y017007D01*
X018404Y016669D01*
X018333Y016683D01*
X018264Y016712D01*
X018202Y016753D01*
X018150Y016806D01*
X018108Y016867D01*
X018080Y016936D01*
X018066Y017007D01*
X018404Y017007D01*
X018404Y016948D02*
X018482Y016948D01*
X018482Y016870D02*
X018404Y016870D01*
X018404Y016791D02*
X018482Y016791D01*
X018482Y016713D02*
X018404Y016713D01*
X018262Y016713D02*
X017329Y016713D01*
X017333Y016791D02*
X018164Y016791D01*
X018107Y016870D02*
X017333Y016870D01*
X017333Y016948D02*
X018077Y016948D01*
X018070Y017105D02*
X017333Y017105D01*
X017333Y017027D02*
X017333Y017329D01*
X017329Y017333D01*
X017333Y017337D01*
X017333Y017639D01*
X017329Y017643D01*
X017333Y017647D01*
X017333Y017949D01*
X017329Y017953D01*
X017333Y017957D01*
X017333Y018259D01*
X017329Y018263D01*
X017333Y018267D01*
X017333Y018569D01*
X017274Y018628D01*
X016721Y018628D01*
X016663Y018569D01*
X016663Y018558D01*
X016647Y018558D01*
X016322Y018233D01*
X016240Y018151D01*
X016240Y014713D01*
X016072Y014545D01*
X013876Y014545D01*
X013833Y014588D01*
X013833Y014588D01*
X013751Y014670D01*
X013455Y014670D01*
X013391Y014734D01*
X013303Y014770D01*
X013208Y014770D01*
X013119Y014734D01*
X013052Y014666D01*
X013015Y014578D01*
X013015Y014483D01*
X013052Y014394D01*
X013119Y014327D01*
X013208Y014290D01*
X013303Y014290D01*
X013328Y014301D01*
X013328Y014233D01*
X013364Y014144D01*
X013432Y014077D01*
X013520Y014040D01*
X013616Y014040D01*
X013704Y014077D01*
X013705Y014078D01*
X016251Y014078D01*
X016333Y014160D01*
X016663Y014490D01*
X016663Y014237D01*
X016666Y014233D01*
X016663Y014229D01*
X016663Y013927D01*
X016666Y013923D01*
X016663Y013919D01*
X016663Y013617D01*
X016706Y013573D02*
X016502Y013573D01*
X016580Y013494D02*
X016906Y013494D01*
X016984Y013416D02*
X016659Y013416D01*
X016737Y013337D02*
X017015Y013337D01*
X017030Y013259D02*
X016816Y013259D01*
X016894Y013180D02*
X017078Y013180D01*
X016973Y013102D02*
X018028Y013102D01*
X017955Y013023D02*
X017051Y013023D01*
X017255Y013343D02*
X016998Y013600D01*
X016998Y013768D01*
X016998Y014078D02*
X017333Y014078D01*
X017505Y013593D01*
X017724Y013494D02*
X017827Y013494D01*
X017780Y013573D02*
X017745Y013573D01*
X017741Y013651D02*
X017765Y013651D01*
X017668Y013416D02*
X017956Y013416D01*
X018054Y013416D02*
X018321Y013416D01*
X018248Y013337D02*
X017495Y013337D01*
X017480Y013259D02*
X018175Y013259D01*
X018101Y013180D02*
X017432Y013180D01*
X017755Y012655D02*
X018193Y012218D01*
X018255Y011780D02*
X019068Y011780D01*
X019617Y012395D02*
X019900Y012395D01*
X019900Y012317D02*
X019695Y012317D01*
X019774Y012238D02*
X019900Y012238D01*
X019900Y012160D02*
X019852Y012160D01*
X019900Y012474D02*
X019655Y012474D01*
X019721Y012552D02*
X019900Y012552D01*
X019900Y012631D02*
X019761Y012631D01*
X019782Y012709D02*
X019900Y012709D01*
X019900Y012788D02*
X019108Y012788D01*
X019108Y012866D02*
X019028Y012866D01*
X019028Y012788D02*
X018287Y012788D01*
X018246Y012866D02*
X018356Y012866D01*
X018380Y012945D02*
X018319Y012945D01*
X018393Y013023D02*
X018425Y013023D01*
X018466Y013102D02*
X018496Y013102D01*
X018539Y013180D02*
X018640Y013180D01*
X018612Y013259D02*
X019900Y013259D01*
X019900Y013337D02*
X018686Y013337D01*
X018395Y013494D02*
X018184Y013494D01*
X018231Y013573D02*
X018421Y013573D01*
X018388Y013651D02*
X018245Y013651D01*
X018234Y013730D02*
X018368Y013730D01*
X018368Y013808D02*
X018192Y013808D01*
X018145Y013887D02*
X018379Y013887D01*
X018412Y013965D02*
X018145Y013965D01*
X018127Y014044D02*
X018466Y014044D01*
X018548Y014122D02*
X018049Y014122D01*
X017970Y014201D02*
X019900Y014201D01*
X019900Y014279D02*
X017892Y014279D01*
X017813Y014358D02*
X019900Y014358D01*
X019900Y014436D02*
X019583Y014436D01*
X019668Y014515D02*
X019900Y014515D01*
X019900Y014593D02*
X019723Y014593D01*
X019756Y014672D02*
X019900Y014672D01*
X019900Y014750D02*
X019768Y014750D01*
X019768Y014829D02*
X019900Y014829D01*
X019900Y014907D02*
X019748Y014907D01*
X019716Y014986D02*
X019900Y014986D01*
X019900Y015064D02*
X019649Y015064D01*
X019538Y015143D02*
X019900Y015143D01*
X019900Y015221D02*
X017333Y015221D01*
X017341Y015143D02*
X018598Y015143D01*
X018486Y015064D02*
X017419Y015064D01*
X017498Y014986D02*
X018420Y014986D01*
X018412Y014593D02*
X017578Y014593D01*
X017656Y014515D02*
X018468Y014515D01*
X018553Y014436D02*
X017735Y014436D01*
X017335Y014388D02*
X017693Y014030D01*
X017693Y013905D01*
X018005Y013968D02*
X018005Y013655D01*
X018005Y013968D02*
X017275Y014698D01*
X016998Y014698D01*
X016998Y015008D02*
X017278Y015008D01*
X017505Y014780D01*
X019068Y014780D01*
X019587Y014122D02*
X019900Y014122D01*
X019900Y014044D02*
X019670Y014044D01*
X019724Y013965D02*
X019900Y013965D01*
X019900Y013887D02*
X019757Y013887D01*
X019768Y013808D02*
X019900Y013808D01*
X019900Y013730D02*
X019768Y013730D01*
X019747Y013651D02*
X019900Y013651D01*
X019900Y013573D02*
X019715Y013573D01*
X019648Y013494D02*
X019900Y013494D01*
X019900Y013416D02*
X019533Y013416D01*
X019496Y013180D02*
X019900Y013180D01*
X019900Y013102D02*
X019640Y013102D01*
X019710Y013023D02*
X019900Y013023D01*
X019900Y012945D02*
X019755Y012945D01*
X019779Y012866D02*
X019900Y012866D01*
X019108Y012945D02*
X019028Y012945D01*
X019028Y013023D02*
X019108Y013023D01*
X019108Y013102D02*
X019028Y013102D01*
X019028Y013180D02*
X019108Y013180D01*
X018255Y011780D02*
X017568Y012468D01*
X014943Y012468D01*
X014718Y012693D01*
X014718Y013038D01*
X014408Y013038D02*
X014408Y012690D01*
X014818Y012280D01*
X017505Y012280D01*
X018318Y011468D01*
X018318Y010530D01*
X019068Y009780D01*
X018318Y009280D02*
X018318Y008655D01*
X018880Y008093D01*
X018880Y007343D01*
X019505Y006718D01*
X019505Y005280D01*
X019318Y005280D01*
X019290Y005035D02*
X019037Y005035D01*
X019006Y005027D01*
X018979Y005011D01*
X018957Y004989D01*
X018941Y004962D01*
X018933Y004931D01*
X018933Y004808D01*
X019290Y004808D01*
X019290Y005035D01*
X019290Y005016D02*
X019345Y005016D01*
X019345Y004938D02*
X019290Y004938D01*
X019290Y004859D02*
X019345Y004859D01*
X019648Y005016D02*
X019658Y005016D01*
X019365Y005566D02*
X017293Y005566D01*
X017371Y005487D02*
X018983Y005487D01*
X018953Y005409D02*
X017450Y005409D01*
X017528Y005330D02*
X018953Y005330D01*
X018953Y005252D02*
X017607Y005252D01*
X017685Y005173D02*
X018953Y005173D01*
X018962Y005095D02*
X017764Y005095D01*
X017842Y005016D02*
X018988Y005016D01*
X018935Y004938D02*
X017921Y004938D01*
X017999Y004859D02*
X018933Y004859D01*
X019318Y004280D02*
X018380Y004280D01*
X018310Y004153D02*
X016589Y004153D01*
X016620Y004074D02*
X018982Y004074D01*
X018992Y003996D02*
X016620Y003996D01*
X016593Y003917D02*
X018953Y003917D01*
X018953Y003839D02*
X016528Y003839D01*
X016380Y004030D02*
X015068Y004030D01*
X014943Y003905D01*
X014404Y003905D01*
X014385Y003603D02*
X014423Y003603D01*
X014423Y003525D02*
X014385Y003525D01*
X014385Y003446D02*
X014423Y003446D01*
X014423Y003368D02*
X014385Y003368D01*
X014385Y003289D02*
X014423Y003289D01*
X014423Y003211D02*
X014385Y003211D01*
X014404Y002905D02*
X017130Y002905D01*
X017693Y003468D01*
X017911Y003368D02*
X019900Y003368D01*
X019900Y003446D02*
X017933Y003446D01*
X017854Y003289D02*
X019900Y003289D01*
X019900Y003211D02*
X017634Y003211D01*
X017555Y003132D02*
X019900Y003132D01*
X019900Y003054D02*
X017477Y003054D01*
X017398Y002975D02*
X019900Y002975D01*
X019900Y002897D02*
X017320Y002897D01*
X017241Y002818D02*
X019900Y002818D01*
X019900Y002740D02*
X014931Y002740D01*
X014878Y002624D02*
X014937Y002565D01*
X014937Y002246D01*
X014878Y002187D01*
X013929Y002187D01*
X013871Y002246D01*
X013871Y002565D01*
X013929Y002624D01*
X014878Y002624D01*
X014919Y002583D02*
X019900Y002583D01*
X019900Y002661D02*
X011640Y002661D01*
X011610Y002583D02*
X011842Y002583D01*
X011824Y002565D02*
X011882Y002624D01*
X012831Y002624D01*
X012890Y002565D01*
X012890Y002246D01*
X012831Y002187D01*
X011882Y002187D01*
X011824Y002246D01*
X011824Y002565D01*
X011824Y002504D02*
X011610Y002504D01*
X011610Y002426D02*
X011824Y002426D01*
X011824Y002347D02*
X011610Y002347D01*
X011610Y002269D02*
X011824Y002269D01*
X011879Y002190D02*
X011607Y002190D01*
X011718Y002740D02*
X011830Y002740D01*
X011824Y002818D02*
X011797Y002818D01*
X011873Y003132D02*
X012926Y003132D01*
X012855Y003211D02*
X013878Y003211D01*
X013871Y003054D02*
X013196Y003054D01*
X013236Y002975D02*
X013871Y002975D01*
X013871Y002897D02*
X013245Y002897D01*
X013229Y002818D02*
X013871Y002818D01*
X013877Y002740D02*
X013179Y002740D01*
X012872Y002583D02*
X013889Y002583D01*
X013871Y002504D02*
X012890Y002504D01*
X012890Y002426D02*
X013871Y002426D01*
X013871Y002347D02*
X012890Y002347D01*
X012890Y002269D02*
X013871Y002269D01*
X013926Y002190D02*
X012834Y002190D01*
X012851Y003603D02*
X012886Y003603D01*
X013474Y003682D02*
X015078Y003682D01*
X015078Y003760D02*
X014937Y003760D01*
X014927Y003603D02*
X015078Y003603D01*
X015074Y003839D02*
X015078Y003839D01*
X015749Y004545D02*
X017917Y004545D01*
X017996Y004467D02*
X015798Y004467D01*
X015808Y004388D02*
X018074Y004388D01*
X018153Y004310D02*
X015808Y004310D01*
X015808Y004231D02*
X016242Y004231D01*
X016519Y004231D02*
X018231Y004231D01*
X017839Y004624D02*
X015808Y004624D01*
X015808Y004702D02*
X017760Y004702D01*
X017682Y004781D02*
X015808Y004781D01*
X016549Y004859D02*
X017603Y004859D01*
X017525Y004938D02*
X016602Y004938D01*
X016620Y005016D02*
X017446Y005016D01*
X017368Y005095D02*
X016613Y005095D01*
X016577Y005173D02*
X017289Y005173D01*
X017211Y005252D02*
X016473Y005252D01*
X016818Y005644D02*
X014957Y005644D01*
X014932Y005723D02*
X016740Y005723D01*
X016661Y005801D02*
X015830Y005801D01*
X015944Y005880D02*
X016583Y005880D01*
X016504Y005958D02*
X015985Y005958D01*
X015995Y006037D02*
X016426Y006037D01*
X016366Y006115D02*
X015980Y006115D01*
X015931Y006194D02*
X016366Y006194D01*
X016366Y006272D02*
X013310Y006272D01*
X013310Y006194D02*
X013875Y006194D01*
X013871Y006115D02*
X013310Y006115D01*
X013310Y006037D02*
X013871Y006037D01*
X013871Y005958D02*
X013310Y005958D01*
X013310Y005880D02*
X013871Y005880D01*
X013310Y006351D02*
X016366Y006351D01*
X016366Y006429D02*
X013310Y006429D01*
X012591Y006508D02*
X012314Y006508D01*
X012318Y006515D02*
X012327Y006546D01*
X012327Y007053D01*
X011932Y007053D01*
X011932Y006441D01*
X012222Y006441D01*
X012253Y006450D01*
X012280Y006465D01*
X012303Y006488D01*
X012318Y006515D01*
X012327Y006586D02*
X012579Y006586D01*
X012579Y006665D02*
X012327Y006665D01*
X012327Y006743D02*
X012579Y006743D01*
X012579Y006822D02*
X012327Y006822D01*
X012327Y006900D02*
X012579Y006900D01*
X012579Y006979D02*
X012327Y006979D01*
X012327Y007136D02*
X012579Y007136D01*
X012579Y007214D02*
X012327Y007214D01*
X012327Y007293D02*
X012579Y007293D01*
X012579Y007371D02*
X012327Y007371D01*
X012327Y007450D02*
X012579Y007450D01*
X012579Y007528D02*
X012327Y007528D01*
X012327Y007607D02*
X012579Y007607D01*
X012599Y007685D02*
X012310Y007685D01*
X011932Y007685D02*
X011852Y007685D01*
X011852Y007607D02*
X011932Y007607D01*
X011932Y007528D02*
X011852Y007528D01*
X011852Y007450D02*
X011932Y007450D01*
X011932Y007371D02*
X011852Y007371D01*
X011852Y007293D02*
X011932Y007293D01*
X011932Y007214D02*
X011852Y007214D01*
X011852Y007136D02*
X011932Y007136D01*
X011932Y007057D02*
X012579Y007057D01*
X011932Y006979D02*
X011852Y006979D01*
X011852Y007057D02*
X010168Y007057D01*
X010246Y007136D02*
X011457Y007136D01*
X011457Y007214D02*
X010847Y007214D01*
X010880Y007293D02*
X011457Y007293D01*
X011457Y007371D02*
X010880Y007371D01*
X010880Y007450D02*
X011457Y007450D01*
X011457Y007528D02*
X010880Y007528D01*
X010880Y007685D02*
X011473Y007685D01*
X011457Y007607D02*
X010544Y007607D01*
X010544Y007685D02*
X010464Y007685D01*
X010464Y007764D02*
X010544Y007764D01*
X010544Y007842D02*
X010464Y007842D01*
X010464Y007921D02*
X010544Y007921D01*
X010544Y007999D02*
X010464Y007999D01*
X010130Y007969D02*
X010568Y008406D01*
X010505Y008405D01*
X010505Y008343D01*
X010808Y007999D02*
X014214Y007999D01*
X014275Y007921D02*
X010876Y007921D01*
X010880Y007842D02*
X014275Y007842D01*
X014275Y007764D02*
X010880Y007764D01*
X010932Y008078D02*
X011301Y008078D01*
X011278Y008156D02*
X010963Y008156D01*
X010963Y008235D02*
X011278Y008235D01*
X011278Y008313D02*
X010963Y008313D01*
X010963Y008392D02*
X011653Y008392D01*
X011653Y008313D02*
X011733Y008313D01*
X011733Y008235D02*
X011653Y008235D01*
X011653Y008156D02*
X011733Y008156D01*
X011733Y008078D02*
X011653Y008078D01*
X011733Y008392D02*
X012528Y008392D01*
X012528Y008366D02*
X012153Y008366D01*
X012153Y008135D01*
X012161Y008104D01*
X012177Y008077D01*
X012199Y008054D01*
X012226Y008039D01*
X012257Y008031D01*
X012528Y008031D01*
X012528Y008366D01*
X012528Y008313D02*
X012608Y008313D01*
X012608Y008235D02*
X012528Y008235D01*
X012528Y008156D02*
X012608Y008156D01*
X012608Y008078D02*
X012528Y008078D01*
X012608Y008392D02*
X013928Y008392D01*
X013928Y008470D02*
X012983Y008470D01*
X012983Y008549D02*
X013928Y008549D01*
X013928Y008627D02*
X012983Y008627D01*
X012976Y008706D02*
X013928Y008706D01*
X013928Y008784D02*
X012351Y008784D01*
X012528Y008706D02*
X012608Y008706D01*
X012608Y008627D02*
X012528Y008627D01*
X012528Y008549D02*
X012608Y008549D01*
X012608Y008470D02*
X012528Y008470D01*
X012153Y008470D02*
X012108Y008470D01*
X012108Y008549D02*
X012153Y008549D01*
X012153Y008627D02*
X012108Y008627D01*
X012131Y008780D02*
X012568Y009154D01*
X012569Y009218D01*
X013818Y009218D01*
X013676Y009020D02*
X012963Y009020D01*
X012963Y008941D02*
X013928Y008941D01*
X013928Y008863D02*
X012963Y008863D01*
X012983Y008313D02*
X013928Y008313D01*
X013979Y008235D02*
X012983Y008235D01*
X012983Y008156D02*
X014057Y008156D01*
X014136Y008078D02*
X012960Y008078D01*
X013389Y007685D02*
X013452Y007685D01*
X013809Y007685D02*
X014275Y007685D01*
X014275Y007607D02*
X013876Y007607D01*
X013908Y007528D02*
X014275Y007528D01*
X014275Y007450D02*
X013910Y007450D01*
X014631Y006905D02*
X015069Y007343D01*
X016069Y007343D01*
X016506Y007780D01*
X016069Y008218D02*
X016506Y008655D01*
X016880Y008281D01*
X016880Y007279D01*
X017254Y006905D01*
X016898Y006900D02*
X016862Y006900D01*
X016862Y006822D02*
X016898Y006822D01*
X016898Y006743D02*
X016862Y006743D01*
X016862Y006665D02*
X016898Y006665D01*
X016898Y006586D02*
X016862Y006586D01*
X016646Y006508D02*
X019365Y006508D01*
X019365Y006586D02*
X017610Y006586D01*
X017610Y006665D02*
X019360Y006665D01*
X019282Y006743D02*
X017610Y006743D01*
X017610Y006822D02*
X019203Y006822D01*
X019125Y006900D02*
X017610Y006900D01*
X017610Y006979D02*
X019046Y006979D01*
X018968Y007057D02*
X017610Y007057D01*
X017610Y007136D02*
X018889Y007136D01*
X018811Y007214D02*
X017610Y007214D01*
X017559Y007293D02*
X018740Y007293D01*
X018506Y007718D02*
X018506Y008217D01*
X018130Y008593D01*
X018130Y009218D01*
X017755Y009593D01*
X017755Y010655D01*
X017568Y010843D01*
X016943Y010843D01*
X016880Y010780D01*
X016880Y009904D01*
X016506Y009530D01*
X016069Y009093D01*
X015069Y009093D01*
X014631Y009530D01*
X013944Y010218D01*
X012005Y010218D01*
X011693Y009905D01*
X009068Y009905D01*
X008505Y010468D01*
X004074Y010468D01*
X003713Y010829D01*
X004402Y011610D02*
X004477Y011610D01*
X004480Y011532D02*
X004556Y011532D01*
X004572Y011515D02*
X005938Y011515D01*
X006020Y011597D01*
X006064Y011641D01*
X006146Y011723D01*
X006146Y011801D01*
X006342Y011801D01*
X006401Y011859D01*
X006401Y012454D01*
X006342Y012512D01*
X005669Y012512D01*
X005610Y012454D01*
X005610Y011859D01*
X005669Y011801D01*
X005827Y011801D01*
X005822Y011795D01*
X004688Y011795D01*
X004226Y012257D01*
X004226Y012937D01*
X004168Y012996D01*
X003258Y012996D01*
X003200Y012937D01*
X003200Y012027D01*
X003258Y011969D01*
X004119Y011969D01*
X004572Y011515D01*
X004559Y011453D02*
X006767Y011453D01*
X006688Y011532D02*
X005955Y011532D01*
X006033Y011610D02*
X006610Y011610D01*
X006605Y011689D02*
X006112Y011689D01*
X006146Y011767D02*
X006605Y011767D01*
X006605Y011846D02*
X006387Y011846D01*
X006401Y011924D02*
X006605Y011924D01*
X006662Y012003D02*
X006401Y012003D01*
X006401Y012081D02*
X006741Y012081D01*
X006819Y012160D02*
X006401Y012160D01*
X006401Y012238D02*
X007321Y012238D01*
X007345Y012160D02*
X007191Y012160D01*
X007270Y012081D02*
X007345Y012081D01*
X007243Y012317D02*
X006401Y012317D01*
X006401Y012395D02*
X006825Y012395D01*
X006746Y012474D02*
X006380Y012474D01*
X006346Y012552D02*
X006668Y012552D01*
X006605Y012631D02*
X006401Y012631D01*
X006401Y012709D02*
X006605Y012709D01*
X006605Y012788D02*
X006401Y012788D01*
X006401Y012866D02*
X006605Y012866D01*
X006605Y012945D02*
X006401Y012945D01*
X006401Y013023D02*
X006683Y013023D01*
X006761Y013102D02*
X006401Y013102D01*
X006401Y013180D02*
X007151Y013180D01*
X007229Y013259D02*
X006343Y013259D01*
X006270Y013416D02*
X007386Y013416D01*
X007308Y013337D02*
X006145Y013337D01*
X006298Y013494D02*
X007465Y013494D01*
X007543Y013573D02*
X007222Y013573D01*
X007259Y013651D02*
X008309Y013651D01*
X008388Y013730D02*
X007259Y013730D01*
X007259Y013808D02*
X007401Y013808D01*
X007364Y013887D02*
X007249Y013887D01*
X007239Y013965D02*
X007364Y013965D01*
X007364Y014044D02*
X007239Y014044D01*
X007239Y014122D02*
X007364Y014122D01*
X007364Y014201D02*
X007239Y014201D01*
X007239Y014279D02*
X007364Y014279D01*
X007364Y014358D02*
X007239Y014358D01*
X007259Y014436D02*
X007364Y014436D01*
X007364Y014515D02*
X006888Y014515D01*
X006879Y014515D02*
X004226Y014515D01*
X004226Y014591D02*
X004168Y014649D01*
X003258Y014649D01*
X003200Y014591D01*
X003200Y013681D01*
X003258Y013622D01*
X004028Y013622D01*
X004365Y013285D01*
X004365Y012347D01*
X004447Y012265D01*
X004696Y012016D01*
X004735Y012016D01*
X004735Y011859D01*
X004794Y011801D01*
X005467Y011801D01*
X005526Y011859D01*
X005526Y012454D01*
X005467Y012512D01*
X004794Y012512D01*
X004735Y012454D01*
X004735Y012374D01*
X004645Y012463D01*
X004645Y013401D01*
X004226Y013820D01*
X004226Y014591D01*
X004223Y014593D02*
X004923Y014593D01*
X004845Y014672D02*
X000545Y014672D01*
X000545Y014750D02*
X004767Y014750D01*
X004688Y014829D02*
X000545Y014829D01*
X000545Y014907D02*
X002161Y014907D01*
X002082Y014986D02*
X000545Y014986D01*
X000545Y015064D02*
X002004Y015064D01*
X001925Y015143D02*
X000545Y015143D01*
X000545Y015221D02*
X001847Y015221D01*
X002149Y015457D02*
X003200Y015457D01*
X003200Y015535D02*
X002070Y015535D01*
X002061Y015614D02*
X003200Y015614D01*
X003200Y015692D02*
X002061Y015692D01*
X002061Y015771D02*
X003200Y015771D01*
X003200Y015849D02*
X002061Y015849D01*
X002061Y015928D02*
X003200Y015928D01*
X003200Y016006D02*
X002061Y016006D01*
X002061Y016085D02*
X003200Y016085D01*
X003200Y016163D02*
X002061Y016163D01*
X002061Y016242D02*
X003200Y016242D01*
X003239Y016948D02*
X002311Y016948D01*
X002389Y016870D02*
X004127Y016870D01*
X004344Y017105D02*
X004345Y017105D01*
X004345Y017184D02*
X004266Y017184D01*
X004226Y017262D02*
X004345Y017262D01*
X004345Y017341D02*
X004226Y017341D01*
X004226Y017419D02*
X004345Y017419D01*
X004345Y017498D02*
X004226Y017498D01*
X004226Y017576D02*
X004345Y017576D01*
X004345Y017655D02*
X004226Y017655D01*
X004226Y017733D02*
X004345Y017733D01*
X004345Y017812D02*
X004226Y017812D01*
X004226Y017890D02*
X004345Y017890D01*
X004340Y017969D02*
X000545Y017969D01*
X000545Y018047D02*
X004262Y018047D01*
X004479Y018283D02*
X004724Y018283D01*
X004724Y018204D02*
X004558Y018204D01*
X004636Y018126D02*
X004724Y018126D01*
X004724Y018047D02*
X004665Y018047D01*
X004665Y017969D02*
X004724Y017969D01*
X004724Y017890D02*
X004665Y017890D01*
X004665Y017812D02*
X004724Y017812D01*
X004724Y017733D02*
X004665Y017733D01*
X004665Y017655D02*
X004724Y017655D01*
X004724Y017576D02*
X004665Y017576D01*
X004665Y017498D02*
X004724Y017498D01*
X004724Y017419D02*
X004665Y017419D01*
X004665Y017341D02*
X004724Y017341D01*
X004724Y017262D02*
X004665Y017262D01*
X004665Y017184D02*
X006005Y017184D01*
X006005Y017105D02*
X004665Y017105D01*
X004735Y017027D02*
X006005Y017027D01*
X006005Y016948D02*
X004814Y016948D01*
X004892Y016870D02*
X006005Y016870D01*
X006005Y016791D02*
X004971Y016791D01*
X005049Y016713D02*
X006002Y016713D01*
X005975Y016634D02*
X005128Y016634D01*
X005206Y016556D02*
X005975Y016556D01*
X006000Y016477D02*
X005285Y016477D01*
X005363Y016399D02*
X006053Y016399D01*
X006181Y016320D02*
X005442Y016320D01*
X005520Y016242D02*
X006352Y016242D01*
X006527Y016668D02*
X006505Y016721D01*
X006505Y017052D01*
X006642Y017188D01*
X007228Y017188D01*
X007286Y017247D01*
X007286Y017804D01*
X007413Y017804D01*
X007419Y017799D01*
X008092Y017799D01*
X008098Y017804D01*
X008479Y017804D01*
X008479Y017651D01*
X008538Y017593D01*
X009723Y017593D01*
X009781Y017651D01*
X009781Y018546D01*
X009824Y018589D01*
X009824Y017551D01*
X009707Y017551D01*
X009648Y017492D01*
X009648Y016819D01*
X009707Y016760D01*
X009824Y016760D01*
X009824Y016104D01*
X009696Y015975D01*
X009503Y015975D01*
X009503Y016047D01*
X009132Y016047D01*
X009132Y016055D01*
X009503Y016055D01*
X009503Y016155D01*
X009495Y016186D01*
X009483Y016206D01*
X009483Y016693D01*
X009436Y016740D01*
X009528Y016740D01*
X009559Y016748D01*
X009586Y016764D01*
X009608Y016786D01*
X009624Y016814D01*
X009632Y016844D01*
X009632Y017115D01*
X009296Y017115D01*
X009296Y017195D01*
X009632Y017195D01*
X009632Y017467D01*
X009624Y017497D01*
X009608Y017524D01*
X009586Y017547D01*
X009559Y017563D01*
X009528Y017571D01*
X009296Y017571D01*
X009296Y017195D01*
X009216Y017195D01*
X009216Y017115D01*
X008880Y017115D01*
X008880Y016844D01*
X008889Y016814D01*
X008904Y016786D01*
X008927Y016764D01*
X008949Y016751D01*
X008830Y016751D01*
X008771Y016693D01*
X008771Y016206D01*
X008760Y016186D01*
X008751Y016155D01*
X008751Y016055D01*
X009123Y016055D01*
X009123Y016047D01*
X008751Y016047D01*
X008751Y015975D01*
X008696Y015975D01*
X008647Y015927D01*
X008647Y016431D01*
X008639Y016462D01*
X008623Y016489D01*
X008601Y016511D01*
X008573Y016527D01*
X008543Y016535D01*
X008045Y016535D01*
X008045Y015195D01*
X008513Y015195D01*
X008513Y015115D01*
X008045Y015115D01*
X008045Y015195D01*
X007965Y015195D01*
X007965Y016535D01*
X007468Y016535D01*
X007458Y016533D01*
X007458Y016535D01*
X007813Y016890D01*
X007895Y016972D01*
X007895Y017051D01*
X008092Y017051D01*
X008151Y017109D01*
X008151Y017704D01*
X008092Y017762D01*
X007419Y017762D01*
X007360Y017704D01*
X007360Y017109D01*
X007419Y017051D01*
X007577Y017051D01*
X007229Y016703D01*
X007181Y016751D01*
X006586Y016751D01*
X006527Y016693D01*
X006527Y016668D01*
X006509Y016713D02*
X006547Y016713D01*
X006505Y016791D02*
X007318Y016791D01*
X007240Y016713D02*
X007219Y016713D01*
X007318Y016593D02*
X007755Y017030D01*
X007755Y017406D01*
X007895Y017027D02*
X008880Y017027D01*
X008880Y017105D02*
X008147Y017105D01*
X008151Y017184D02*
X009216Y017184D01*
X009216Y017195D02*
X008880Y017195D01*
X008880Y017467D01*
X008889Y017497D01*
X008904Y017524D01*
X008927Y017547D01*
X008954Y017563D01*
X008985Y017571D01*
X009216Y017571D01*
X009216Y017195D01*
X009216Y017262D02*
X009296Y017262D01*
X009296Y017184D02*
X009648Y017184D01*
X009648Y017262D02*
X009632Y017262D01*
X009632Y017341D02*
X009648Y017341D01*
X009648Y017419D02*
X009632Y017419D01*
X009623Y017498D02*
X009654Y017498D01*
X009824Y017576D02*
X008151Y017576D01*
X008151Y017498D02*
X008889Y017498D01*
X008880Y017419D02*
X008151Y017419D01*
X008151Y017341D02*
X008880Y017341D01*
X008880Y017262D02*
X008151Y017262D01*
X008151Y017655D02*
X008479Y017655D01*
X008479Y017733D02*
X008121Y017733D01*
X008479Y018518D02*
X007143Y018518D01*
X007143Y018597D02*
X008479Y018597D01*
X008479Y018675D02*
X007617Y018675D01*
X007656Y018754D02*
X009593Y018754D01*
X009672Y018832D02*
X007656Y018832D01*
X007656Y018911D02*
X009678Y018911D01*
X009678Y018989D02*
X007656Y018989D01*
X007656Y019068D02*
X009678Y019068D01*
X009678Y019146D02*
X007656Y019146D01*
X007656Y019225D02*
X009678Y019225D01*
X009705Y019303D02*
X007656Y019303D01*
X007656Y019382D02*
X009784Y019382D01*
X009862Y019460D02*
X007656Y019460D01*
X007615Y019539D02*
X009928Y019539D01*
X009928Y019617D02*
X005289Y019617D01*
X005210Y019696D02*
X009928Y019696D01*
X009928Y019774D02*
X005132Y019774D01*
X005053Y019853D02*
X009928Y019853D01*
X009928Y019931D02*
X004975Y019931D01*
X004896Y020010D02*
X009928Y020010D01*
X009990Y020088D02*
X009767Y020088D01*
X009778Y020099D02*
X009793Y020127D01*
X009801Y020157D01*
X009801Y020606D01*
X009170Y020606D01*
X009170Y020053D01*
X009697Y020053D01*
X009728Y020061D01*
X009755Y020077D01*
X009778Y020099D01*
X009801Y020167D02*
X010069Y020167D01*
X010147Y020245D02*
X009801Y020245D01*
X009801Y020324D02*
X010124Y020324D01*
X010104Y020402D02*
X009801Y020402D01*
X009801Y020481D02*
X010104Y020481D01*
X010104Y020559D02*
X009801Y020559D01*
X009801Y020686D02*
X009801Y021134D01*
X009793Y021164D01*
X009778Y021192D01*
X009755Y021214D01*
X009728Y021230D01*
X009697Y021238D01*
X009170Y021238D01*
X009170Y020686D01*
X009090Y020686D01*
X009090Y021238D01*
X008563Y021238D01*
X008533Y021230D01*
X008505Y021214D01*
X008483Y021192D01*
X008467Y021164D01*
X008459Y021134D01*
X008459Y020686D01*
X009090Y020686D01*
X009090Y020606D01*
X008459Y020606D01*
X008459Y020157D01*
X008467Y020127D01*
X008483Y020099D01*
X008505Y020077D01*
X008533Y020061D01*
X008563Y020053D01*
X009090Y020053D01*
X009090Y020606D01*
X009170Y020606D01*
X009170Y020686D01*
X009801Y020686D01*
X009801Y020716D02*
X010715Y020716D01*
X010715Y020795D02*
X010795Y020795D01*
X010795Y020873D02*
X010715Y020873D01*
X010715Y020952D02*
X010795Y020952D01*
X010795Y021030D02*
X010715Y021030D01*
X010715Y021109D02*
X010795Y021109D01*
X010795Y020716D02*
X011528Y020716D01*
X011528Y020638D02*
X011407Y020638D01*
X011407Y020559D02*
X011528Y020559D01*
X011445Y020481D02*
X011407Y020481D01*
X011568Y020405D02*
X011318Y020155D01*
X010255Y020155D01*
X010068Y019968D01*
X010068Y019468D01*
X009818Y019218D01*
X009818Y018780D01*
X009265Y018228D01*
X009255Y018155D01*
X009265Y018228D02*
X009130Y018165D01*
X009216Y017498D02*
X009296Y017498D01*
X009296Y017419D02*
X009216Y017419D01*
X009216Y017341D02*
X009296Y017341D01*
X009632Y017105D02*
X009648Y017105D01*
X009648Y017027D02*
X009632Y017027D01*
X009632Y016948D02*
X009648Y016948D01*
X009648Y016870D02*
X009632Y016870D01*
X009611Y016791D02*
X009676Y016791D01*
X009824Y016713D02*
X009463Y016713D01*
X009483Y016634D02*
X009824Y016634D01*
X009824Y016556D02*
X009483Y016556D01*
X009483Y016477D02*
X009824Y016477D01*
X009824Y016399D02*
X009483Y016399D01*
X009483Y016320D02*
X009824Y016320D01*
X009824Y016242D02*
X009483Y016242D01*
X009501Y016163D02*
X009824Y016163D01*
X009805Y016085D02*
X009503Y016085D01*
X009503Y016006D02*
X009727Y016006D01*
X010255Y015905D02*
X010255Y016593D01*
X010530Y016868D01*
X010888Y016868D01*
X010888Y017178D02*
X010545Y017178D01*
X010443Y017280D01*
X010443Y017593D01*
X010318Y017718D01*
X010539Y017812D02*
X010553Y017812D01*
X010553Y017890D02*
X010485Y017890D01*
X010553Y017969D02*
X010184Y017969D01*
X010184Y018047D02*
X010553Y018047D01*
X010553Y018126D02*
X010184Y018126D01*
X010184Y018204D02*
X010553Y018204D01*
X010553Y018283D02*
X010184Y018283D01*
X010184Y018361D02*
X010553Y018361D01*
X010553Y018440D02*
X010184Y018440D01*
X010184Y018518D02*
X010553Y018518D01*
X010580Y018597D02*
X010184Y018597D01*
X010184Y018675D02*
X012034Y018675D01*
X012034Y018597D02*
X011195Y018597D01*
X011223Y018518D02*
X012034Y018518D01*
X012034Y018440D02*
X011223Y018440D01*
X011223Y018361D02*
X012034Y018361D01*
X012035Y018283D02*
X011223Y018283D01*
X011342Y018204D02*
X012035Y018204D01*
X012035Y018126D02*
X011420Y018126D01*
X011499Y018047D02*
X012035Y018047D01*
X012035Y017969D02*
X011577Y017969D01*
X011645Y017890D02*
X012036Y017890D01*
X012036Y017812D02*
X011645Y017812D01*
X011645Y017733D02*
X012036Y017733D01*
X012036Y017655D02*
X011645Y017655D01*
X011645Y017576D02*
X012036Y017576D01*
X012037Y017498D02*
X011645Y017498D01*
X011645Y017419D02*
X012037Y017419D01*
X012037Y017341D02*
X011645Y017341D01*
X011645Y017262D02*
X012109Y017262D01*
X012188Y017184D02*
X011645Y017184D01*
X011645Y017105D02*
X012266Y017105D01*
X012505Y017530D02*
X013478Y018503D01*
X013478Y019148D01*
X013168Y019148D02*
X013168Y018568D01*
X012505Y017905D01*
X012505Y018280D02*
X012858Y018633D01*
X012858Y019148D01*
X012548Y019148D02*
X012507Y019029D01*
X012505Y018655D01*
X012033Y018754D02*
X010184Y018754D01*
X010184Y018832D02*
X011447Y018832D01*
X011408Y018911D02*
X010184Y018911D01*
X010184Y018989D02*
X011292Y018989D01*
X011213Y019068D02*
X010235Y019068D01*
X010313Y019146D02*
X011135Y019146D01*
X011778Y019496D02*
X011778Y019640D01*
X011813Y019676D01*
X012072Y019676D01*
X012078Y019670D01*
X012078Y019496D01*
X012054Y019503D01*
X011943Y019503D01*
X011943Y019163D01*
X011913Y019163D01*
X011913Y019503D01*
X011802Y019503D01*
X011778Y019496D01*
X011778Y019539D02*
X012078Y019539D01*
X012078Y019617D02*
X011778Y019617D01*
X011913Y019460D02*
X011943Y019460D01*
X011943Y019382D02*
X011913Y019382D01*
X011913Y019303D02*
X011943Y019303D01*
X011943Y019225D02*
X011913Y019225D01*
X011913Y019068D02*
X011943Y019068D01*
X011943Y018989D02*
X011913Y018989D01*
X011913Y018911D02*
X011943Y018911D01*
X011943Y018832D02*
X011913Y018832D01*
X011240Y018108D02*
X011505Y017843D01*
X011505Y015905D01*
X012005Y015405D01*
X011505Y014905D01*
X011505Y013468D01*
X010005Y011968D01*
X010005Y011780D01*
X009741Y012081D02*
X009270Y012081D01*
X009348Y012003D02*
X009662Y012003D01*
X009605Y011946D02*
X009605Y011753D01*
X009520Y011838D01*
X009520Y011838D01*
X009438Y011920D01*
X009405Y011920D01*
X009405Y011946D01*
X009171Y012180D01*
X008840Y012180D01*
X008605Y011946D01*
X008605Y011615D01*
X008840Y011380D01*
X009171Y011380D01*
X009377Y011586D01*
X009678Y011285D01*
X009678Y011285D01*
X009737Y011226D01*
X009701Y011190D01*
X007665Y011190D01*
X007665Y011555D01*
X007840Y011380D01*
X008171Y011380D01*
X008405Y011615D01*
X008405Y011946D01*
X008387Y011964D01*
X008583Y012160D01*
X008819Y012160D01*
X008741Y012081D02*
X008504Y012081D01*
X008426Y012003D02*
X008662Y012003D01*
X008605Y011924D02*
X008405Y011924D01*
X008405Y011846D02*
X008605Y011846D01*
X008605Y011767D02*
X008405Y011767D01*
X008405Y011689D02*
X008605Y011689D01*
X008610Y011610D02*
X008401Y011610D01*
X008323Y011532D02*
X008688Y011532D01*
X008767Y011453D02*
X008244Y011453D01*
X008005Y011780D02*
X008443Y012218D01*
X008443Y013155D01*
X008693Y013405D01*
X009505Y013405D01*
X009421Y013180D02*
X009199Y013180D01*
X009179Y013200D02*
X009045Y013200D01*
X009045Y012820D01*
X009425Y012820D01*
X009425Y012954D01*
X009179Y013200D01*
X009045Y013180D02*
X008965Y013180D01*
X008965Y013200D02*
X008831Y013200D01*
X008585Y012954D01*
X008585Y012820D01*
X008965Y012820D01*
X008965Y012740D01*
X009045Y012740D01*
X009045Y012360D01*
X009179Y012360D01*
X009425Y012606D01*
X009425Y012740D01*
X009045Y012740D01*
X009045Y012820D01*
X008965Y012820D01*
X008965Y013200D01*
X008965Y013102D02*
X009045Y013102D01*
X009045Y013023D02*
X008965Y013023D01*
X008965Y012945D02*
X009045Y012945D01*
X009045Y012866D02*
X008965Y012866D01*
X008965Y012788D02*
X008583Y012788D01*
X008585Y012740D02*
X008585Y012606D01*
X008831Y012360D01*
X008965Y012360D01*
X008965Y012740D01*
X008585Y012740D01*
X008583Y012709D02*
X008585Y012709D01*
X008583Y012631D02*
X008585Y012631D01*
X008583Y012552D02*
X008639Y012552D01*
X008583Y012474D02*
X008718Y012474D01*
X008796Y012395D02*
X008583Y012395D01*
X008583Y012317D02*
X010156Y012317D01*
X010171Y012380D02*
X010405Y012615D01*
X010405Y012640D01*
X010480Y012640D01*
X010020Y012180D01*
X009840Y012180D01*
X009605Y011946D01*
X009605Y011924D02*
X009405Y011924D01*
X009513Y011846D02*
X009605Y011846D01*
X009605Y011767D02*
X009591Y011767D01*
X009380Y011780D02*
X009005Y011780D01*
X009244Y011453D02*
X009509Y011453D01*
X009588Y011375D02*
X007665Y011375D01*
X007665Y011453D02*
X007767Y011453D01*
X007688Y011532D02*
X007665Y011532D01*
X007665Y011296D02*
X009666Y011296D01*
X009728Y011218D02*
X007665Y011218D01*
X007345Y011218D02*
X004794Y011218D01*
X004716Y011296D02*
X007345Y011296D01*
X007345Y011375D02*
X004637Y011375D01*
X004630Y011655D02*
X003804Y012482D01*
X003713Y012482D01*
X004226Y012474D02*
X004365Y012474D01*
X004365Y012552D02*
X004226Y012552D01*
X004226Y012631D02*
X004365Y012631D01*
X004365Y012709D02*
X004226Y012709D01*
X004226Y012788D02*
X004365Y012788D01*
X004365Y012866D02*
X004226Y012866D01*
X004218Y012945D02*
X004365Y012945D01*
X004365Y013023D02*
X002790Y013023D01*
X002790Y012945D02*
X003208Y012945D01*
X003200Y012866D02*
X002790Y012866D01*
X002790Y012788D02*
X003200Y012788D01*
X003200Y012709D02*
X002790Y012709D01*
X002790Y012631D02*
X003200Y012631D01*
X003200Y012552D02*
X002790Y012552D01*
X002790Y012474D02*
X003200Y012474D01*
X003200Y012395D02*
X002790Y012395D01*
X002790Y012317D02*
X003200Y012317D01*
X003200Y012238D02*
X002790Y012238D01*
X002790Y012160D02*
X003200Y012160D01*
X003200Y012081D02*
X002806Y012081D01*
X002884Y012003D02*
X003224Y012003D01*
X003041Y011846D02*
X004242Y011846D01*
X004320Y011767D02*
X003120Y011767D01*
X002963Y011924D02*
X004163Y011924D01*
X004323Y011689D02*
X004399Y011689D01*
X004630Y011655D02*
X005880Y011655D01*
X006006Y011781D01*
X006006Y012156D01*
X006005Y012156D01*
X005665Y012552D02*
X005471Y012552D01*
X005505Y012474D02*
X005630Y012474D01*
X005610Y012395D02*
X005526Y012395D01*
X005526Y012317D02*
X005610Y012317D01*
X005610Y012238D02*
X005526Y012238D01*
X005526Y012160D02*
X005610Y012160D01*
X005610Y012081D02*
X005526Y012081D01*
X005526Y012003D02*
X005610Y012003D01*
X005610Y011924D02*
X005526Y011924D01*
X005512Y011846D02*
X005623Y011846D01*
X005130Y012156D02*
X004754Y012156D01*
X004505Y012405D01*
X004505Y013343D01*
X003713Y014136D01*
X004226Y014122D02*
X004843Y014122D01*
X004838Y014044D02*
X004226Y014044D01*
X004226Y013965D02*
X004838Y013965D01*
X004838Y013887D02*
X004226Y013887D01*
X004238Y013808D02*
X004838Y013808D01*
X004838Y013730D02*
X004317Y013730D01*
X004395Y013651D02*
X004838Y013651D01*
X004838Y013573D02*
X004474Y013573D01*
X004552Y013494D02*
X004838Y013494D01*
X004866Y013416D02*
X004631Y013416D01*
X004645Y013337D02*
X004990Y013337D01*
X004792Y013259D02*
X004645Y013259D01*
X004645Y013180D02*
X004735Y013180D01*
X004735Y013102D02*
X004645Y013102D01*
X004645Y013023D02*
X004735Y013023D01*
X004735Y012945D02*
X004645Y012945D01*
X004645Y012866D02*
X004735Y012866D01*
X004735Y012788D02*
X004645Y012788D01*
X004645Y012709D02*
X004735Y012709D01*
X004735Y012631D02*
X004645Y012631D01*
X004645Y012552D02*
X004790Y012552D01*
X004755Y012474D02*
X004645Y012474D01*
X004713Y012395D02*
X004735Y012395D01*
X004553Y012160D02*
X004324Y012160D01*
X004402Y012081D02*
X004631Y012081D01*
X004735Y012003D02*
X004481Y012003D01*
X004559Y011924D02*
X004735Y011924D01*
X004748Y011846D02*
X004638Y011846D01*
X004474Y012238D02*
X004245Y012238D01*
X004226Y012317D02*
X004396Y012317D01*
X004365Y012395D02*
X004226Y012395D01*
X004365Y013102D02*
X002790Y013102D01*
X002729Y013180D02*
X004365Y013180D01*
X004365Y013259D02*
X002651Y013259D01*
X002572Y013337D02*
X004313Y013337D01*
X004235Y013416D02*
X002494Y013416D01*
X002415Y013494D02*
X004156Y013494D01*
X004078Y013573D02*
X002337Y013573D01*
X002258Y013651D02*
X003229Y013651D01*
X003200Y013730D02*
X002180Y013730D01*
X002101Y013808D02*
X003200Y013808D01*
X003200Y013887D02*
X002061Y013887D01*
X002061Y013965D02*
X003200Y013965D01*
X003200Y014044D02*
X002061Y014044D01*
X002061Y014122D02*
X003200Y014122D01*
X003200Y014201D02*
X002061Y014201D01*
X002061Y014279D02*
X003200Y014279D01*
X003200Y014358D02*
X002061Y014358D01*
X002061Y014436D02*
X003200Y014436D01*
X003200Y014515D02*
X002061Y014515D01*
X002058Y014593D02*
X003203Y014593D01*
X003234Y015300D02*
X002306Y015300D01*
X002384Y015221D02*
X004671Y015221D01*
X004592Y015300D02*
X004192Y015300D01*
X004226Y015378D02*
X004514Y015378D01*
X004435Y015457D02*
X004226Y015457D01*
X004226Y015535D02*
X004357Y015535D01*
X004580Y015849D02*
X004730Y015849D01*
X004658Y015771D02*
X004809Y015771D01*
X004737Y015692D02*
X004887Y015692D01*
X004815Y015614D02*
X004966Y015614D01*
X004894Y015535D02*
X005044Y015535D01*
X004972Y015457D02*
X005123Y015457D01*
X005051Y015378D02*
X005201Y015378D01*
X005129Y015300D02*
X006507Y015300D01*
X006507Y015221D02*
X005208Y015221D01*
X004652Y015928D02*
X004501Y015928D01*
X004573Y016006D02*
X004226Y016006D01*
X004226Y016085D02*
X004495Y016085D01*
X004416Y016163D02*
X004226Y016163D01*
X004226Y016242D02*
X004338Y016242D01*
X004259Y016320D02*
X000545Y016320D01*
X000545Y016242D02*
X001034Y016242D01*
X001034Y016163D02*
X000545Y016163D01*
X000545Y016085D02*
X001034Y016085D01*
X001034Y016006D02*
X000545Y016006D01*
X000545Y015928D02*
X001034Y015928D01*
X001034Y015849D02*
X000545Y015849D01*
X000545Y015771D02*
X001034Y015771D01*
X001034Y015692D02*
X000545Y015692D01*
X000545Y015614D02*
X001034Y015614D01*
X001034Y015535D02*
X000545Y015535D01*
X000545Y015457D02*
X001034Y015457D01*
X001034Y015378D02*
X000545Y015378D01*
X000545Y015300D02*
X001069Y015300D01*
X001037Y014593D02*
X000545Y014593D01*
X000545Y014515D02*
X001034Y014515D01*
X001034Y014436D02*
X000545Y014436D01*
X000545Y014358D02*
X001034Y014358D01*
X001034Y014279D02*
X000545Y014279D01*
X000545Y014201D02*
X001034Y014201D01*
X001034Y014122D02*
X000545Y014122D01*
X000545Y014044D02*
X001034Y014044D01*
X001034Y013965D02*
X000545Y013965D01*
X000545Y013887D02*
X001034Y013887D01*
X001034Y013808D02*
X000545Y013808D01*
X000545Y013730D02*
X001034Y013730D01*
X001064Y013651D02*
X000545Y013651D01*
X000545Y013573D02*
X001884Y013573D01*
X001963Y013494D02*
X000545Y013494D01*
X000545Y013416D02*
X002041Y013416D01*
X002120Y013337D02*
X000545Y013337D01*
X000545Y013259D02*
X002198Y013259D01*
X002277Y013180D02*
X000545Y013180D01*
X000545Y013102D02*
X002355Y013102D01*
X001907Y011924D02*
X000545Y011924D01*
X000545Y011846D02*
X001986Y011846D01*
X002064Y011767D02*
X000545Y011767D01*
X000545Y011689D02*
X002143Y011689D01*
X002221Y011610D02*
X000545Y011610D01*
X000545Y011532D02*
X002300Y011532D01*
X002378Y011453D02*
X000545Y011453D01*
X000545Y011375D02*
X002457Y011375D01*
X002535Y011296D02*
X002048Y011296D01*
X001047Y011296D02*
X000545Y011296D01*
X000545Y011218D02*
X001034Y011218D01*
X001034Y011139D02*
X000545Y011139D01*
X000545Y011061D02*
X001034Y011061D01*
X001034Y010982D02*
X000545Y010982D01*
X000545Y010904D02*
X001034Y010904D01*
X001034Y009098D02*
X000545Y009098D01*
X000545Y009020D02*
X001034Y009020D01*
X001034Y008941D02*
X000545Y008941D01*
X000545Y008863D02*
X001034Y008863D01*
X001034Y008784D02*
X000545Y008784D01*
X000545Y008706D02*
X001049Y008706D01*
X002520Y008706D02*
X003214Y008706D01*
X003200Y008784D02*
X002520Y008784D01*
X002520Y008863D02*
X003200Y008863D01*
X003200Y008941D02*
X002520Y008941D01*
X002520Y009020D02*
X003200Y009020D01*
X003200Y009098D02*
X002521Y009098D01*
X002600Y009177D02*
X003200Y009177D01*
X003200Y009255D02*
X002678Y009255D01*
X002757Y009334D02*
X003200Y009334D01*
X003200Y009412D02*
X002835Y009412D01*
X002914Y009491D02*
X003200Y009491D01*
X003200Y009569D02*
X002992Y009569D01*
X003071Y009648D02*
X003218Y009648D01*
X003149Y009726D02*
X005003Y009726D01*
X004925Y009648D02*
X004208Y009648D01*
X004226Y009569D02*
X004705Y009569D01*
X005193Y009718D02*
X008005Y009718D01*
X008193Y009530D01*
X008568Y009155D02*
X007693Y009155D01*
X006880Y009093D02*
X007880Y008093D01*
X008005Y008093D01*
X008505Y008780D02*
X008692Y008594D01*
X009504Y008594D01*
X009505Y008593D01*
X009693Y008406D01*
X010130Y007969D02*
X010130Y007218D01*
X010464Y007214D02*
X010544Y007214D01*
X010544Y007293D02*
X010464Y007293D01*
X010464Y007371D02*
X010544Y007371D01*
X010544Y007450D02*
X010464Y007450D01*
X010464Y007528D02*
X010544Y007528D01*
X010963Y008470D02*
X011278Y008470D01*
X011278Y008549D02*
X010963Y008549D01*
X010963Y008627D02*
X011278Y008627D01*
X012108Y008313D02*
X012153Y008313D01*
X012153Y008235D02*
X012108Y008235D01*
X012108Y008156D02*
X012153Y008156D01*
X012176Y008078D02*
X012085Y008078D01*
X012131Y008780D02*
X008943Y008780D01*
X008568Y009155D01*
X009145Y010276D02*
X011615Y010276D01*
X011694Y010354D02*
X009067Y010354D01*
X008988Y010433D02*
X011772Y010433D01*
X011851Y010511D02*
X008910Y010511D01*
X008831Y010590D02*
X014275Y010590D01*
X014275Y010545D02*
X011885Y010545D01*
X012270Y010825D02*
X016740Y010825D01*
X016806Y010904D02*
X014868Y010904D01*
X014918Y010982D02*
X016884Y010982D01*
X016497Y011126D02*
X016505Y011157D01*
X016505Y011428D01*
X016169Y011428D01*
X016169Y011053D01*
X016401Y011053D01*
X016432Y011061D01*
X017803Y011061D01*
X017803Y011139D02*
X016501Y011139D01*
X016497Y011126D02*
X016481Y011099D01*
X016459Y011077D01*
X016432Y011061D01*
X016505Y011218D02*
X017803Y011218D01*
X017791Y011296D02*
X016505Y011296D01*
X016505Y011375D02*
X017713Y011375D01*
X017634Y011453D02*
X016169Y011453D01*
X016169Y011428D02*
X016169Y011508D01*
X016089Y011508D01*
X016089Y011428D01*
X015753Y011428D01*
X015753Y011157D01*
X015762Y011126D01*
X015777Y011099D01*
X015800Y011077D01*
X015827Y011061D01*
X014918Y011061D01*
X014918Y011139D02*
X015025Y011139D01*
X015025Y011218D02*
X014918Y011218D01*
X014918Y011296D02*
X015025Y011296D01*
X015025Y011610D02*
X014918Y011610D01*
X014918Y011689D02*
X015025Y011689D01*
X015025Y011767D02*
X014918Y011767D01*
X014918Y011846D02*
X015067Y011846D01*
X014918Y011924D02*
X016529Y011924D01*
X016515Y011846D02*
X016472Y011846D01*
X016481Y011837D02*
X016459Y011859D01*
X016432Y011875D01*
X016401Y011883D01*
X016169Y011883D01*
X016169Y011508D01*
X016505Y011508D01*
X016505Y011779D01*
X016497Y011810D01*
X016481Y011837D01*
X016505Y011767D02*
X016527Y011767D01*
X016505Y011689D02*
X016570Y011689D01*
X016505Y011610D02*
X016689Y011610D01*
X016821Y011610D02*
X017477Y011610D01*
X017556Y011532D02*
X016505Y011532D01*
X016169Y011532D02*
X016089Y011532D01*
X016089Y011508D02*
X016089Y011883D01*
X015858Y011883D01*
X015827Y011875D01*
X015800Y011859D01*
X015777Y011837D01*
X015762Y011810D01*
X015753Y011779D01*
X015753Y011508D01*
X016089Y011508D01*
X016089Y011453D02*
X015737Y011453D01*
X015737Y011375D02*
X015753Y011375D01*
X015753Y011296D02*
X015737Y011296D01*
X015737Y011218D02*
X015753Y011218D01*
X015758Y011139D02*
X015737Y011139D01*
X015827Y011061D02*
X015858Y011053D01*
X016089Y011053D01*
X016089Y011428D01*
X016169Y011428D01*
X016169Y011375D02*
X016089Y011375D01*
X016089Y011296D02*
X016169Y011296D01*
X016169Y011218D02*
X016089Y011218D01*
X016089Y011139D02*
X016169Y011139D01*
X016169Y011061D02*
X016089Y011061D01*
X016155Y010747D02*
X015730Y010747D01*
X015735Y010742D02*
X015677Y010801D01*
X015082Y010801D01*
X015023Y010742D01*
X015023Y010211D01*
X014987Y010248D01*
X014987Y010742D01*
X014929Y010801D01*
X014334Y010801D01*
X014275Y010742D01*
X014275Y010545D01*
X014275Y010668D02*
X008753Y010668D01*
X008674Y010747D02*
X014280Y010747D01*
X014019Y010904D02*
X013254Y010904D01*
X013304Y010982D02*
X013970Y010982D01*
X013970Y011061D02*
X013304Y011061D01*
X013304Y011139D02*
X013970Y011139D01*
X013970Y011218D02*
X013304Y011218D01*
X013304Y011296D02*
X013970Y011296D01*
X013970Y011375D02*
X013304Y011375D01*
X013304Y011453D02*
X013970Y011453D01*
X013970Y011532D02*
X013304Y011532D01*
X013304Y011610D02*
X013970Y011610D01*
X013970Y011689D02*
X013304Y011689D01*
X013304Y011767D02*
X013970Y011767D01*
X013929Y011846D02*
X013331Y011846D01*
X013410Y011924D02*
X013851Y011924D01*
X013772Y012003D02*
X013488Y012003D01*
X013567Y012081D02*
X013694Y012081D01*
X013648Y012160D02*
X013618Y012160D01*
X013618Y012238D02*
X013648Y012238D01*
X013648Y012317D02*
X013618Y012317D01*
X013618Y012395D02*
X013648Y012395D01*
X013648Y012474D02*
X013618Y012474D01*
X013618Y012552D02*
X013648Y012552D01*
X013648Y012631D02*
X013618Y012631D01*
X013338Y012631D02*
X012957Y012631D01*
X012879Y012552D02*
X013338Y012552D01*
X013338Y012474D02*
X012800Y012474D01*
X012722Y012395D02*
X013338Y012395D01*
X013338Y012317D02*
X012643Y012317D01*
X012377Y012003D02*
X012276Y012003D01*
X012276Y012081D02*
X013171Y012081D01*
X013249Y012160D02*
X012276Y012160D01*
X012239Y012238D02*
X013328Y012238D01*
X013183Y012709D02*
X013153Y012709D01*
X013153Y012788D02*
X013183Y012788D01*
X013183Y012866D02*
X013153Y012866D01*
X013153Y012945D02*
X013183Y012945D01*
X012743Y013494D02*
X011645Y013494D01*
X011645Y013416D02*
X012698Y013416D01*
X012822Y013573D02*
X011645Y013573D01*
X011645Y013651D02*
X012900Y013651D01*
X012979Y013730D02*
X011645Y013730D01*
X011645Y013808D02*
X016663Y013808D01*
X016663Y013730D02*
X016345Y013730D01*
X016663Y013887D02*
X011645Y013887D01*
X011645Y013965D02*
X016663Y013965D01*
X016663Y014044D02*
X013624Y014044D01*
X013512Y014044D02*
X011645Y014044D01*
X011645Y014122D02*
X013386Y014122D01*
X013341Y014201D02*
X011645Y014201D01*
X011645Y014279D02*
X013328Y014279D01*
X013088Y014358D02*
X011645Y014358D01*
X011645Y014436D02*
X013034Y014436D01*
X013015Y014515D02*
X011645Y014515D01*
X011645Y014593D02*
X013022Y014593D01*
X013057Y014672D02*
X011645Y014672D01*
X011645Y014750D02*
X013159Y014750D01*
X013351Y014750D02*
X015696Y014750D01*
X015677Y014769D02*
X015744Y014702D01*
X015833Y014665D01*
X015928Y014665D01*
X016016Y014702D01*
X016084Y014769D01*
X016120Y014858D01*
X016120Y014953D01*
X016084Y015041D01*
X016016Y015109D01*
X015928Y015145D01*
X015867Y015145D01*
X014947Y016065D01*
X012685Y016065D01*
X012641Y016109D01*
X012553Y016145D01*
X012458Y016145D01*
X012369Y016109D01*
X012302Y016041D01*
X012265Y015953D01*
X012265Y015858D01*
X012302Y015769D01*
X012369Y015702D01*
X012458Y015665D01*
X012553Y015665D01*
X012641Y015702D01*
X012685Y015745D01*
X014814Y015745D01*
X015640Y014919D01*
X015640Y014858D01*
X015677Y014769D01*
X015652Y014829D02*
X011645Y014829D01*
X011705Y014907D02*
X015640Y014907D01*
X015573Y014986D02*
X011784Y014986D01*
X011862Y015064D02*
X015495Y015064D01*
X015416Y015143D02*
X011941Y015143D01*
X012161Y015221D02*
X015338Y015221D01*
X015259Y015300D02*
X012221Y015300D01*
X012245Y015378D02*
X015181Y015378D01*
X015102Y015457D02*
X012244Y015457D01*
X012211Y015535D02*
X015024Y015535D01*
X014945Y015614D02*
X012129Y015614D01*
X011916Y015692D02*
X012392Y015692D01*
X012301Y015771D02*
X011838Y015771D01*
X011759Y015849D02*
X012269Y015849D01*
X012265Y015928D02*
X011681Y015928D01*
X011645Y016006D02*
X012287Y016006D01*
X012345Y016085D02*
X011645Y016085D01*
X011645Y016163D02*
X016240Y016163D01*
X016240Y016085D02*
X012665Y016085D01*
X012618Y015692D02*
X014867Y015692D01*
X015084Y015928D02*
X016240Y015928D01*
X016240Y016006D02*
X015006Y016006D01*
X015163Y015849D02*
X016240Y015849D01*
X016240Y015771D02*
X015241Y015771D01*
X015320Y015692D02*
X016240Y015692D01*
X016240Y015614D02*
X015398Y015614D01*
X015477Y015535D02*
X016240Y015535D01*
X016240Y015457D02*
X015555Y015457D01*
X015634Y015378D02*
X016240Y015378D01*
X016240Y015300D02*
X015712Y015300D01*
X015791Y015221D02*
X016240Y015221D01*
X016240Y015143D02*
X015934Y015143D01*
X016061Y015064D02*
X016240Y015064D01*
X016240Y014986D02*
X016107Y014986D01*
X016120Y014907D02*
X016240Y014907D01*
X016240Y014829D02*
X016108Y014829D01*
X016065Y014750D02*
X016240Y014750D01*
X016199Y014672D02*
X015944Y014672D01*
X015817Y014672D02*
X013453Y014672D01*
X013255Y014530D02*
X013693Y014530D01*
X013818Y014405D01*
X016130Y014405D01*
X016380Y014655D01*
X016380Y018093D01*
X016705Y018418D01*
X016998Y018418D01*
X016998Y018108D02*
X016645Y018108D01*
X016568Y018030D01*
X016568Y014593D01*
X016193Y014218D01*
X013630Y014218D01*
X013568Y014280D01*
X013828Y014593D02*
X016120Y014593D01*
X016452Y014279D02*
X016663Y014279D01*
X016663Y014201D02*
X016374Y014201D01*
X016295Y014122D02*
X016663Y014122D01*
X016663Y014358D02*
X016531Y014358D01*
X016609Y014436D02*
X016663Y014436D01*
X016998Y014388D02*
X017335Y014388D01*
X017333Y015300D02*
X019900Y015300D01*
X019900Y015378D02*
X017333Y015378D01*
X017333Y015457D02*
X019900Y015457D01*
X019900Y015535D02*
X017333Y015535D01*
X017333Y015614D02*
X019900Y015614D01*
X019900Y015692D02*
X017333Y015692D01*
X017333Y015771D02*
X019900Y015771D01*
X019900Y015849D02*
X017333Y015849D01*
X017333Y015928D02*
X019900Y015928D01*
X019900Y016006D02*
X017333Y016006D01*
X017333Y016085D02*
X019900Y016085D01*
X019900Y016163D02*
X017333Y016163D01*
X017333Y016242D02*
X019332Y016242D01*
X019466Y016242D02*
X019546Y016242D01*
X019546Y016320D02*
X019466Y016320D01*
X019466Y016399D02*
X019546Y016399D01*
X019546Y016477D02*
X019466Y016477D01*
X019466Y016556D02*
X019546Y016556D01*
X019466Y016634D02*
X017333Y016634D01*
X017333Y016556D02*
X019071Y016556D01*
X019065Y016713D02*
X018624Y016713D01*
X018722Y016791D02*
X019083Y016791D01*
X019117Y016870D02*
X018778Y016870D01*
X018808Y016948D02*
X019173Y016948D01*
X019265Y017027D02*
X018482Y017027D01*
X018752Y017262D02*
X019120Y017262D01*
X019091Y017341D02*
X018820Y017341D01*
X018899Y017419D02*
X019091Y017419D01*
X019091Y017498D02*
X018977Y017498D01*
X019056Y017576D02*
X019091Y017576D01*
X019060Y017655D02*
X019466Y017655D01*
X019466Y017733D02*
X019546Y017733D01*
X019546Y017812D02*
X019466Y017812D01*
X019466Y017890D02*
X019546Y017890D01*
X019546Y017969D02*
X019466Y017969D01*
X019466Y018047D02*
X019546Y018047D01*
X019546Y018126D02*
X019466Y018126D01*
X019466Y018204D02*
X019546Y018204D01*
X019546Y018283D02*
X019466Y018283D01*
X019466Y018361D02*
X019546Y018361D01*
X019466Y018440D02*
X019060Y018440D01*
X019060Y018518D02*
X019091Y018518D01*
X019091Y018597D02*
X019060Y018597D01*
X019060Y018675D02*
X019091Y018675D01*
X019096Y018754D02*
X019060Y018754D01*
X019060Y018832D02*
X019169Y018832D01*
X019060Y018911D02*
X019900Y018911D01*
X019900Y018989D02*
X019656Y018989D01*
X019546Y018989D02*
X019466Y018989D01*
X019466Y019068D02*
X019546Y019068D01*
X019546Y019146D02*
X019466Y019146D01*
X019466Y019225D02*
X019546Y019225D01*
X019546Y019303D02*
X019466Y019303D01*
X019466Y019382D02*
X019033Y019382D01*
X019060Y019303D02*
X019072Y019303D01*
X019060Y019225D02*
X019100Y019225D01*
X019060Y019146D02*
X019146Y019146D01*
X019218Y019068D02*
X019060Y019068D01*
X019060Y018989D02*
X019356Y018989D01*
X019466Y018832D02*
X019546Y018832D01*
X019546Y018754D02*
X019466Y018754D01*
X019466Y018675D02*
X019546Y018675D01*
X019546Y018597D02*
X019466Y018597D01*
X019466Y018518D02*
X019546Y018518D01*
X019843Y018832D02*
X019900Y018832D01*
X019900Y019068D02*
X019794Y019068D01*
X019865Y019146D02*
X019900Y019146D01*
X019898Y019617D02*
X019900Y019617D01*
X019900Y019696D02*
X019847Y019696D01*
X019900Y019774D02*
X019759Y019774D01*
X019900Y019853D02*
X018562Y019853D01*
X018484Y019931D02*
X019900Y019931D01*
X019900Y020010D02*
X018405Y020010D01*
X018641Y019774D02*
X019253Y019774D01*
X019165Y019696D02*
X018719Y019696D01*
X018798Y019617D02*
X019113Y019617D01*
X019081Y019539D02*
X018876Y019539D01*
X018955Y019460D02*
X019064Y019460D01*
X019466Y019460D02*
X019546Y019460D01*
X019546Y019539D02*
X019466Y019539D01*
X019466Y019617D02*
X019546Y019617D01*
X019546Y019696D02*
X019466Y019696D01*
X019466Y019774D02*
X019546Y019774D01*
X019900Y020088D02*
X017776Y020088D01*
X017776Y020167D02*
X019900Y020167D01*
X019900Y020245D02*
X017776Y020245D01*
X017776Y020324D02*
X019900Y020324D01*
X019900Y020402D02*
X016866Y020402D01*
X016901Y020324D02*
X016985Y020324D01*
X016985Y020245D02*
X016901Y020245D01*
X017011Y020428D02*
X017039Y020412D01*
X017069Y020404D01*
X017340Y020404D01*
X017340Y020739D01*
X017420Y020739D01*
X017420Y020404D01*
X017691Y020404D01*
X017722Y020412D01*
X017749Y020428D01*
X017772Y020450D01*
X017787Y020477D01*
X017796Y020508D01*
X017796Y020739D01*
X017420Y020739D01*
X017420Y020819D01*
X017796Y020819D01*
X017796Y021051D01*
X017787Y021082D01*
X017772Y021109D01*
X019899Y021109D01*
X019900Y021030D02*
X017796Y021030D01*
X017796Y020952D02*
X019900Y020952D01*
X019900Y020873D02*
X017796Y020873D01*
X017796Y020716D02*
X019900Y020716D01*
X019900Y020638D02*
X017796Y020638D01*
X017796Y020559D02*
X019900Y020559D01*
X019900Y020481D02*
X017788Y020481D01*
X017420Y020481D02*
X017340Y020481D01*
X017340Y020559D02*
X017420Y020559D01*
X017420Y020638D02*
X017340Y020638D01*
X017340Y020716D02*
X017420Y020716D01*
X017420Y020795D02*
X019900Y020795D01*
X019893Y021187D02*
X009780Y021187D01*
X009801Y021109D02*
X010142Y021109D01*
X010104Y021030D02*
X009801Y021030D01*
X009801Y020952D02*
X010104Y020952D01*
X010104Y020873D02*
X009801Y020873D01*
X009801Y020795D02*
X010104Y020795D01*
X010104Y020638D02*
X009170Y020638D01*
X009170Y020716D02*
X009090Y020716D01*
X009090Y020638D02*
X007676Y020638D01*
X007676Y020669D02*
X007676Y020342D01*
X007667Y020312D01*
X007652Y020285D01*
X007629Y020262D01*
X007602Y020246D01*
X007571Y020238D01*
X007170Y020238D01*
X007170Y020669D01*
X007170Y020749D01*
X007090Y020749D01*
X007090Y021179D01*
X006689Y021179D01*
X006659Y021171D01*
X006631Y021155D01*
X006609Y021133D01*
X006593Y021105D01*
X006585Y021075D01*
X006585Y020749D01*
X007090Y020749D01*
X007090Y020669D01*
X006585Y020669D01*
X006585Y020342D01*
X006593Y020312D01*
X006609Y020285D01*
X006631Y020262D01*
X006659Y020246D01*
X006689Y020238D01*
X007090Y020238D01*
X007090Y020669D01*
X007170Y020669D01*
X007676Y020669D01*
X007676Y020749D02*
X007676Y021075D01*
X007667Y021105D01*
X007652Y021133D01*
X007629Y021155D01*
X007602Y021171D01*
X007571Y021179D01*
X007170Y021179D01*
X007170Y020749D01*
X007676Y020749D01*
X007676Y020795D02*
X008459Y020795D01*
X008459Y020873D02*
X007676Y020873D01*
X007676Y020952D02*
X008459Y020952D01*
X008459Y021030D02*
X007676Y021030D01*
X007665Y021109D02*
X008459Y021109D01*
X008481Y021187D02*
X004226Y021187D01*
X004226Y021109D02*
X006595Y021109D01*
X006585Y021030D02*
X004226Y021030D01*
X004226Y020952D02*
X006585Y020952D01*
X006585Y020873D02*
X006144Y020873D01*
X006153Y020865D02*
X006130Y020887D01*
X006103Y020903D01*
X006072Y020911D01*
X005545Y020911D01*
X005545Y020595D01*
X005465Y020595D01*
X005465Y020515D01*
X004834Y020515D01*
X004834Y020303D01*
X004842Y020273D01*
X004858Y020245D01*
X004880Y020223D01*
X004908Y020207D01*
X004938Y020199D01*
X005465Y020199D01*
X005465Y020515D01*
X005545Y020515D01*
X005545Y020199D01*
X006072Y020199D01*
X006103Y020207D01*
X006130Y020223D01*
X006153Y020245D01*
X006168Y020273D01*
X006176Y020303D01*
X006176Y020515D01*
X005545Y020515D01*
X005545Y020595D01*
X006176Y020595D01*
X006176Y020807D01*
X006168Y020838D01*
X006153Y020865D01*
X006176Y020795D02*
X006585Y020795D01*
X006585Y020638D02*
X006176Y020638D01*
X006176Y020716D02*
X007090Y020716D01*
X007090Y020638D02*
X007170Y020638D01*
X007170Y020716D02*
X008459Y020716D01*
X008459Y020559D02*
X007676Y020559D01*
X007676Y020481D02*
X008459Y020481D01*
X008459Y020402D02*
X007676Y020402D01*
X007671Y020324D02*
X008459Y020324D01*
X008459Y020245D02*
X007599Y020245D01*
X007170Y020245D02*
X007090Y020245D01*
X007090Y020324D02*
X007170Y020324D01*
X007170Y020402D02*
X007090Y020402D01*
X007090Y020481D02*
X007170Y020481D01*
X007170Y020559D02*
X007090Y020559D01*
X007090Y020795D02*
X007170Y020795D01*
X007170Y020873D02*
X007090Y020873D01*
X007090Y020952D02*
X007170Y020952D01*
X007170Y021030D02*
X007090Y021030D01*
X007090Y021109D02*
X007170Y021109D01*
X006585Y020559D02*
X005545Y020559D01*
X005545Y020481D02*
X005465Y020481D01*
X005465Y020559D02*
X004347Y020559D01*
X004425Y020481D02*
X004834Y020481D01*
X004834Y020402D02*
X004504Y020402D01*
X004582Y020324D02*
X004834Y020324D01*
X004858Y020245D02*
X004661Y020245D01*
X004739Y020167D02*
X008459Y020167D01*
X008494Y020088D02*
X004818Y020088D01*
X004834Y020595D02*
X005465Y020595D01*
X005465Y020911D01*
X004938Y020911D01*
X004908Y020903D01*
X004880Y020887D01*
X004858Y020865D01*
X004842Y020838D01*
X004834Y020807D01*
X004834Y020595D01*
X004834Y020638D02*
X004268Y020638D01*
X004226Y020716D02*
X004834Y020716D01*
X004834Y020795D02*
X004226Y020795D01*
X004226Y020873D02*
X004867Y020873D01*
X005465Y020873D02*
X005545Y020873D01*
X005545Y020795D02*
X005465Y020795D01*
X005465Y020716D02*
X005545Y020716D01*
X005545Y020638D02*
X005465Y020638D01*
X005465Y020402D02*
X005545Y020402D01*
X005545Y020324D02*
X005465Y020324D01*
X005465Y020245D02*
X005545Y020245D01*
X006153Y020245D02*
X006662Y020245D01*
X006590Y020324D02*
X006176Y020324D01*
X006176Y020402D02*
X006585Y020402D01*
X006585Y020481D02*
X006176Y020481D01*
X006151Y019539D02*
X006646Y019539D01*
X006605Y019460D02*
X006156Y019460D01*
X006156Y019382D02*
X006574Y019382D01*
X006496Y019303D02*
X006156Y019303D01*
X006156Y019225D02*
X006463Y019225D01*
X006443Y019146D02*
X006156Y019146D01*
X006156Y019068D02*
X006443Y019068D01*
X006443Y018989D02*
X006156Y018989D01*
X006443Y018911D02*
X005618Y018911D01*
X005618Y018832D02*
X006443Y018832D01*
X006443Y018754D02*
X005618Y018754D01*
X005618Y018675D02*
X006443Y018675D01*
X006443Y018597D02*
X005618Y018597D01*
X005618Y018518D02*
X006443Y018518D01*
X006443Y018440D02*
X005618Y018440D01*
X005664Y018361D02*
X006347Y018361D01*
X006299Y018283D02*
X005712Y018283D01*
X005712Y018204D02*
X006299Y018204D01*
X006299Y018126D02*
X005712Y018126D01*
X005712Y018047D02*
X006299Y018047D01*
X006299Y017969D02*
X005712Y017969D01*
X005712Y017890D02*
X006299Y017890D01*
X006299Y017812D02*
X005712Y017812D01*
X005712Y017733D02*
X006299Y017733D01*
X006299Y017655D02*
X005712Y017655D01*
X005712Y017576D02*
X006299Y017576D01*
X006244Y017498D02*
X005712Y017498D01*
X005712Y017419D02*
X006166Y017419D01*
X006087Y017341D02*
X005712Y017341D01*
X005712Y017262D02*
X006029Y017262D01*
X006505Y017027D02*
X007554Y017027D01*
X007475Y016948D02*
X006505Y016948D01*
X006505Y016870D02*
X007397Y016870D01*
X007364Y017105D02*
X006559Y017105D01*
X006637Y017184D02*
X007360Y017184D01*
X007360Y017262D02*
X007286Y017262D01*
X007286Y017341D02*
X007360Y017341D01*
X007360Y017419D02*
X007286Y017419D01*
X007286Y017498D02*
X007360Y017498D01*
X007360Y017576D02*
X007286Y017576D01*
X007286Y017655D02*
X007360Y017655D01*
X007390Y017733D02*
X007286Y017733D01*
X007871Y016948D02*
X008880Y016948D01*
X008880Y016870D02*
X007793Y016870D01*
X007714Y016791D02*
X008901Y016791D01*
X008792Y016713D02*
X007636Y016713D01*
X007557Y016634D02*
X008771Y016634D01*
X008771Y016556D02*
X007479Y016556D01*
X007318Y016593D02*
X007318Y016155D01*
X007213Y016051D01*
X006883Y016051D01*
X007239Y015849D02*
X007364Y015849D01*
X007364Y015771D02*
X007239Y015771D01*
X007239Y015692D02*
X007364Y015692D01*
X007364Y015614D02*
X007239Y015614D01*
X007239Y015535D02*
X007364Y015535D01*
X007364Y015457D02*
X007239Y015457D01*
X007259Y015378D02*
X007364Y015378D01*
X007364Y015300D02*
X007259Y015300D01*
X007259Y015221D02*
X007364Y015221D01*
X007248Y015143D02*
X007965Y015143D01*
X007965Y015221D02*
X008045Y015221D01*
X008045Y015143D02*
X008513Y015143D01*
X008045Y015064D02*
X007965Y015064D01*
X007965Y014986D02*
X008045Y014986D01*
X008045Y014907D02*
X007965Y014907D01*
X007965Y014829D02*
X008045Y014829D01*
X008045Y014750D02*
X007965Y014750D01*
X007965Y014672D02*
X008045Y014672D01*
X008045Y014593D02*
X007965Y014593D01*
X007965Y014515D02*
X008045Y014515D01*
X008045Y014436D02*
X007965Y014436D01*
X007965Y014358D02*
X008045Y014358D01*
X008045Y014279D02*
X007965Y014279D01*
X007965Y014201D02*
X008045Y014201D01*
X008045Y014122D02*
X007965Y014122D01*
X007965Y014044D02*
X008045Y014044D01*
X008045Y013965D02*
X007965Y013965D01*
X007965Y013887D02*
X008045Y013887D01*
X008045Y013808D02*
X007965Y013808D01*
X008666Y013180D02*
X008811Y013180D01*
X008744Y013259D02*
X009312Y013259D01*
X009306Y013265D02*
X009369Y013202D01*
X009458Y013165D01*
X009553Y013165D01*
X009641Y013202D01*
X009709Y013269D01*
X009745Y013358D01*
X009745Y013453D01*
X009709Y013541D01*
X009642Y013608D01*
X010561Y013608D01*
X010611Y013558D01*
X011147Y013558D01*
X010510Y012920D01*
X010405Y012920D01*
X010405Y012946D01*
X010171Y013180D01*
X009840Y013180D01*
X009605Y012946D01*
X009605Y012615D01*
X009840Y012380D01*
X010171Y012380D01*
X010186Y012395D02*
X010235Y012395D01*
X010265Y012474D02*
X010313Y012474D01*
X010343Y012552D02*
X010392Y012552D01*
X010405Y012631D02*
X010470Y012631D01*
X010568Y012780D02*
X010005Y012780D01*
X009746Y012474D02*
X009293Y012474D01*
X009371Y012552D02*
X009668Y012552D01*
X009605Y012631D02*
X009425Y012631D01*
X009425Y012709D02*
X009605Y012709D01*
X009605Y012788D02*
X009045Y012788D01*
X009045Y012709D02*
X008965Y012709D01*
X008965Y012631D02*
X009045Y012631D01*
X009045Y012552D02*
X008965Y012552D01*
X008965Y012474D02*
X009045Y012474D01*
X009045Y012395D02*
X008965Y012395D01*
X009214Y012395D02*
X009825Y012395D01*
X009819Y012160D02*
X009191Y012160D01*
X009380Y011780D02*
X009818Y011343D01*
X010193Y011343D01*
X010568Y011718D01*
X010568Y012218D01*
X010693Y012343D01*
X011130Y012343D01*
X011443Y012655D01*
X012443Y012655D01*
X012548Y012760D01*
X012548Y013038D01*
X011618Y013038D02*
X011450Y013038D01*
X011005Y012593D01*
X010568Y012780D02*
X011318Y013530D01*
X011318Y015093D01*
X011630Y015405D01*
X011318Y015718D01*
X011318Y017718D01*
X011238Y017798D01*
X010888Y017798D01*
X010888Y018108D02*
X011240Y018108D01*
X011645Y017027D02*
X016240Y017027D01*
X016240Y017105D02*
X012744Y017105D01*
X012823Y017184D02*
X016240Y017184D01*
X016240Y017262D02*
X012901Y017262D01*
X012980Y017341D02*
X016240Y017341D01*
X016240Y017419D02*
X013058Y017419D01*
X013137Y017498D02*
X016240Y017498D01*
X016240Y017576D02*
X013215Y017576D01*
X013294Y017655D02*
X016240Y017655D01*
X016240Y017733D02*
X013372Y017733D01*
X013451Y017812D02*
X016240Y017812D01*
X016240Y017890D02*
X013529Y017890D01*
X013608Y017969D02*
X014352Y017969D01*
X014658Y017969D02*
X016240Y017969D01*
X016240Y018047D02*
X014999Y018047D01*
X015077Y018126D02*
X016240Y018126D01*
X016294Y018204D02*
X015156Y018204D01*
X015234Y018283D02*
X016372Y018283D01*
X016451Y018361D02*
X015313Y018361D01*
X015391Y018440D02*
X016529Y018440D01*
X016608Y018518D02*
X015470Y018518D01*
X015498Y018597D02*
X016690Y018597D01*
X016439Y018832D02*
X018111Y018832D01*
X018079Y018911D02*
X016478Y018911D01*
X016478Y018989D02*
X018404Y018989D01*
X018404Y018911D02*
X018482Y018911D01*
X018482Y018832D02*
X018404Y018832D01*
X018404Y018754D02*
X018482Y018754D01*
X018443Y018675D02*
X018443Y018675D01*
X018443Y018597D02*
X018443Y018597D01*
X018170Y018754D02*
X015498Y018754D01*
X015498Y018675D02*
X018070Y018675D01*
X018057Y018597D02*
X017305Y018597D01*
X017333Y018518D02*
X018057Y018518D01*
X018059Y018440D02*
X017846Y018440D01*
X017951Y018361D02*
X018077Y018361D01*
X018077Y018283D02*
X017988Y018283D01*
X017995Y018204D02*
X018077Y018204D01*
X017943Y018030D02*
X017755Y018218D01*
X017534Y018126D02*
X017333Y018126D01*
X017333Y018204D02*
X017515Y018204D01*
X017522Y018283D02*
X017333Y018283D01*
X017333Y018361D02*
X017559Y018361D01*
X017664Y018440D02*
X017333Y018440D01*
X017333Y018047D02*
X017586Y018047D01*
X017548Y017969D02*
X017333Y017969D01*
X017333Y017890D02*
X017515Y017890D01*
X017515Y017812D02*
X017333Y017812D01*
X017333Y017733D02*
X017541Y017733D01*
X017604Y017655D02*
X017333Y017655D01*
X017333Y017576D02*
X018077Y017576D01*
X018077Y017498D02*
X017333Y017498D01*
X017333Y017419D02*
X018077Y017419D01*
X018135Y017341D02*
X017333Y017341D01*
X017333Y017262D02*
X018133Y017262D01*
X018091Y017184D02*
X017333Y017184D01*
X017824Y017775D02*
X017755Y017843D01*
X017824Y017775D02*
X018443Y017775D01*
X018443Y018030D02*
X017943Y018030D01*
X018069Y019068D02*
X016478Y019068D01*
X016478Y019146D02*
X018089Y019146D01*
X018129Y019225D02*
X016478Y019225D01*
X016478Y019303D02*
X018198Y019303D01*
X018354Y019382D02*
X016478Y019382D01*
X016442Y019460D02*
X018446Y019460D01*
X018482Y019382D02*
X018404Y019382D01*
X018404Y019303D02*
X018482Y019303D01*
X018482Y019225D02*
X018404Y019225D01*
X018404Y019146D02*
X018482Y019146D01*
X018482Y019068D02*
X018404Y019068D01*
X018367Y019539D02*
X015498Y019539D01*
X015498Y019617D02*
X018289Y019617D01*
X018210Y019696D02*
X017737Y019696D01*
X017023Y019696D02*
X016002Y019696D01*
X016086Y019774D02*
X016110Y019774D01*
X015759Y019696D02*
X015498Y019696D01*
X015526Y019774D02*
X015675Y019774D01*
X015642Y019853D02*
X015526Y019853D01*
X015526Y019931D02*
X015640Y019931D01*
X015664Y020010D02*
X015526Y020010D01*
X015526Y020088D02*
X015700Y020088D01*
X015700Y020167D02*
X015526Y020167D01*
X015526Y020245D02*
X015700Y020245D01*
X015700Y020324D02*
X015526Y020324D01*
X015472Y020412D02*
X015499Y020428D01*
X015522Y020450D01*
X015537Y020477D01*
X015546Y020508D01*
X015546Y020739D01*
X015170Y020739D01*
X015170Y020404D01*
X015441Y020404D01*
X015472Y020412D01*
X015538Y020481D02*
X015700Y020481D01*
X015700Y020559D02*
X015546Y020559D01*
X015546Y020638D02*
X015733Y020638D01*
X015812Y020716D02*
X015546Y020716D01*
X015546Y020819D02*
X015170Y020819D01*
X015170Y020739D01*
X015090Y020739D01*
X015090Y020404D01*
X014819Y020404D01*
X014789Y020412D01*
X014761Y020428D01*
X014739Y020450D01*
X014723Y020477D01*
X014715Y020508D01*
X014715Y020739D01*
X015090Y020739D01*
X015090Y020819D01*
X014715Y020819D01*
X014715Y021051D01*
X014723Y021082D01*
X014739Y021109D01*
X014272Y021109D01*
X014249Y021131D01*
X014222Y021147D01*
X014191Y021155D01*
X013920Y021155D01*
X013920Y020819D01*
X014296Y020819D01*
X014296Y021051D01*
X014287Y021082D01*
X014272Y021109D01*
X014296Y021030D02*
X014715Y021030D01*
X014715Y020952D02*
X014296Y020952D01*
X014296Y020873D02*
X014715Y020873D01*
X014715Y020716D02*
X014296Y020716D01*
X014296Y020739D02*
X013920Y020739D01*
X013920Y020404D01*
X014191Y020404D01*
X014222Y020412D01*
X014249Y020428D01*
X014272Y020450D01*
X014287Y020477D01*
X014296Y020508D01*
X014296Y020739D01*
X014296Y020638D02*
X014715Y020638D01*
X014715Y020559D02*
X014296Y020559D01*
X014288Y020481D02*
X014722Y020481D01*
X014735Y020324D02*
X014276Y020324D01*
X014276Y020245D02*
X014735Y020245D01*
X014735Y020167D02*
X014276Y020167D01*
X014276Y020088D02*
X014735Y020088D01*
X014735Y020010D02*
X014276Y020010D01*
X014276Y019931D02*
X014735Y019931D01*
X014735Y019853D02*
X014276Y019853D01*
X014276Y019774D02*
X014285Y019774D01*
X014098Y019814D02*
X013880Y020031D01*
X013005Y020031D01*
X012763Y020402D02*
X015700Y020402D01*
X015890Y020795D02*
X015170Y020795D01*
X015170Y020819D02*
X015090Y020819D01*
X015090Y021155D01*
X014819Y021155D01*
X014789Y021147D01*
X014761Y021131D01*
X014739Y021109D01*
X015090Y021109D02*
X015170Y021109D01*
X015170Y021155D02*
X015170Y020819D01*
X015170Y020873D02*
X015090Y020873D01*
X015090Y020795D02*
X013920Y020795D01*
X013920Y020819D02*
X013920Y020739D01*
X013840Y020739D01*
X013840Y020404D01*
X013569Y020404D01*
X013539Y020412D01*
X013511Y020428D01*
X013489Y020450D01*
X013473Y020477D01*
X013465Y020508D01*
X013465Y020739D01*
X013840Y020739D01*
X013840Y020819D01*
X013465Y020819D01*
X013465Y021051D01*
X013473Y021082D01*
X013489Y021109D01*
X013368Y021109D01*
X013401Y021030D02*
X013465Y021030D01*
X013465Y020952D02*
X013401Y020952D01*
X013401Y020873D02*
X013465Y020873D01*
X013401Y020795D02*
X013840Y020795D01*
X013840Y020819D02*
X013840Y021155D01*
X013569Y021155D01*
X013539Y021147D01*
X013511Y021131D01*
X013489Y021109D01*
X013840Y021109D02*
X013920Y021109D01*
X013920Y021030D02*
X013840Y021030D01*
X013840Y020952D02*
X013920Y020952D01*
X013920Y020873D02*
X013840Y020873D01*
X013840Y020819D02*
X013920Y020819D01*
X013920Y020716D02*
X013840Y020716D01*
X013840Y020638D02*
X013920Y020638D01*
X013920Y020559D02*
X013840Y020559D01*
X013840Y020481D02*
X013920Y020481D01*
X013472Y020481D02*
X013399Y020481D01*
X013401Y020559D02*
X013465Y020559D01*
X013465Y020638D02*
X013401Y020638D01*
X013401Y020716D02*
X013465Y020716D01*
X013485Y020324D02*
X013401Y020324D01*
X013401Y020245D02*
X013485Y020245D01*
X013005Y020779D02*
X012943Y020780D01*
X012568Y020405D01*
X011568Y020405D01*
X011407Y020795D02*
X011903Y020795D01*
X011903Y020873D02*
X011983Y020873D01*
X011983Y020795D02*
X012610Y020795D01*
X012610Y020873D02*
X012358Y020873D01*
X012358Y020952D02*
X012610Y020952D01*
X012610Y021030D02*
X012358Y021030D01*
X012334Y021109D02*
X012642Y021109D01*
X012610Y020716D02*
X012358Y020716D01*
X012358Y020638D02*
X012602Y020638D01*
X012524Y020559D02*
X012358Y020559D01*
X011983Y020952D02*
X011903Y020952D01*
X011903Y021030D02*
X011983Y021030D01*
X011983Y021109D02*
X011903Y021109D01*
X011551Y021109D02*
X011369Y021109D01*
X011407Y021030D02*
X011528Y021030D01*
X011528Y020952D02*
X011407Y020952D01*
X011407Y020873D02*
X011528Y020873D01*
X009824Y018518D02*
X009781Y018518D01*
X009781Y018440D02*
X009824Y018440D01*
X009824Y018361D02*
X009781Y018361D01*
X009781Y018283D02*
X009824Y018283D01*
X009824Y018204D02*
X009781Y018204D01*
X009781Y018126D02*
X009824Y018126D01*
X009824Y018047D02*
X009781Y018047D01*
X009781Y017969D02*
X009824Y017969D01*
X009824Y017890D02*
X009781Y017890D01*
X009781Y017812D02*
X009824Y017812D01*
X009824Y017733D02*
X009781Y017733D01*
X009781Y017655D02*
X009824Y017655D01*
X010533Y016558D02*
X010443Y016468D01*
X010443Y015843D01*
X009627Y015027D01*
X009127Y015027D01*
X009127Y014772D02*
X009621Y014772D01*
X010478Y015628D01*
X010888Y015628D01*
X010888Y015318D02*
X010543Y015318D01*
X010318Y015093D01*
X009741Y014516D01*
X009127Y014516D01*
X009127Y014260D02*
X009485Y014260D01*
X009568Y014343D01*
X010005Y014343D01*
X010005Y014405D01*
X010608Y015008D01*
X010888Y015008D01*
X010888Y014698D02*
X010548Y014698D01*
X010255Y014405D01*
X010255Y014218D01*
X010130Y014093D01*
X009693Y014093D01*
X009604Y014004D01*
X009127Y014004D01*
X009127Y013748D02*
X010798Y013748D01*
X010888Y013768D01*
X010596Y013573D02*
X009677Y013573D01*
X009728Y013494D02*
X011084Y013494D01*
X011005Y013416D02*
X009745Y013416D01*
X009737Y013337D02*
X010927Y013337D01*
X010848Y013259D02*
X009698Y013259D01*
X009589Y013180D02*
X010770Y013180D01*
X010691Y013102D02*
X010249Y013102D01*
X010328Y013023D02*
X010613Y013023D01*
X010534Y012945D02*
X010405Y012945D01*
X009761Y013102D02*
X009278Y013102D01*
X009356Y013023D02*
X009683Y013023D01*
X009605Y012945D02*
X009425Y012945D01*
X009425Y012866D02*
X009605Y012866D01*
X009306Y013265D02*
X008751Y013265D01*
X008583Y013097D01*
X008583Y012160D01*
X008583Y012238D02*
X010078Y012238D01*
X009431Y011532D02*
X009323Y011532D01*
X009748Y010825D02*
X007527Y010825D01*
X007310Y011061D02*
X004951Y011061D01*
X004873Y011139D02*
X007345Y011139D01*
X007345Y011453D02*
X007244Y011453D01*
X007323Y011532D02*
X007345Y011532D01*
X008583Y012866D02*
X008585Y012866D01*
X008583Y012945D02*
X008585Y012945D01*
X008583Y013023D02*
X008654Y013023D01*
X008587Y013102D02*
X008733Y013102D01*
X007364Y014593D02*
X007259Y014593D01*
X007239Y014672D02*
X007364Y014672D01*
X007364Y014750D02*
X007239Y014750D01*
X007239Y014829D02*
X007364Y014829D01*
X007364Y014907D02*
X007239Y014907D01*
X007239Y014986D02*
X007364Y014986D01*
X007364Y015064D02*
X007239Y015064D01*
X006883Y014260D02*
X005610Y014260D01*
X005194Y013844D01*
X005194Y013780D01*
X005130Y013717D01*
X005130Y012904D01*
X005526Y012866D02*
X005610Y012866D01*
X005610Y012788D02*
X005526Y012788D01*
X005526Y012709D02*
X005610Y012709D01*
X005610Y012631D02*
X005526Y012631D01*
X005526Y012945D02*
X005610Y012945D01*
X005610Y013023D02*
X005526Y013023D01*
X005526Y013102D02*
X005610Y013102D01*
X005610Y013180D02*
X005526Y013180D01*
X005468Y013259D02*
X005667Y013259D01*
X005614Y013416D02*
X005522Y013416D01*
X005550Y013494D02*
X005586Y013494D01*
X005586Y013573D02*
X005550Y013573D01*
X005550Y013651D02*
X005586Y013651D01*
X005586Y013730D02*
X005550Y013730D01*
X005550Y013808D02*
X005586Y013808D01*
X005586Y013887D02*
X005550Y013887D01*
X005550Y013965D02*
X005586Y013965D01*
X005353Y014201D02*
X004226Y014201D01*
X004226Y014279D02*
X005431Y014279D01*
X005510Y014358D02*
X004226Y014358D01*
X004226Y014436D02*
X006507Y014436D01*
X006165Y014004D02*
X005942Y013780D01*
X006005Y013717D01*
X006005Y012904D01*
X005865Y013337D02*
X005270Y013337D01*
X006165Y014004D02*
X006883Y014004D01*
X006879Y013730D02*
X006888Y013730D01*
X006879Y013651D02*
X006888Y013651D01*
X006879Y013573D02*
X006888Y013573D01*
X006544Y013573D02*
X006298Y013573D01*
X006298Y013651D02*
X006507Y013651D01*
X006507Y013730D02*
X006298Y013730D01*
X006298Y013808D02*
X006507Y013808D01*
X007965Y015300D02*
X008045Y015300D01*
X008045Y015378D02*
X007965Y015378D01*
X007965Y015457D02*
X008045Y015457D01*
X008045Y015535D02*
X007965Y015535D01*
X007965Y015614D02*
X008045Y015614D01*
X008045Y015692D02*
X007965Y015692D01*
X007965Y015771D02*
X008045Y015771D01*
X008045Y015849D02*
X007965Y015849D01*
X007965Y015928D02*
X008045Y015928D01*
X008045Y016006D02*
X007965Y016006D01*
X007965Y016085D02*
X008045Y016085D01*
X008045Y016163D02*
X007965Y016163D01*
X007965Y016242D02*
X008045Y016242D01*
X008045Y016320D02*
X007965Y016320D01*
X007965Y016399D02*
X008045Y016399D01*
X008045Y016477D02*
X007965Y016477D01*
X008630Y016477D02*
X008771Y016477D01*
X008771Y016399D02*
X008647Y016399D01*
X008647Y016320D02*
X008771Y016320D01*
X008771Y016242D02*
X008647Y016242D01*
X008647Y016163D02*
X008754Y016163D01*
X008751Y016085D02*
X008647Y016085D01*
X008647Y016006D02*
X008751Y016006D01*
X008648Y015928D02*
X008647Y015928D01*
X009127Y015283D02*
X009633Y015283D01*
X010255Y015905D01*
X010533Y016558D02*
X010888Y016558D01*
X011645Y016556D02*
X016240Y016556D01*
X016240Y016634D02*
X011645Y016634D01*
X011645Y016713D02*
X016240Y016713D01*
X016240Y016791D02*
X011645Y016791D01*
X011645Y016870D02*
X016240Y016870D01*
X016240Y016948D02*
X011645Y016948D01*
X011645Y016477D02*
X016240Y016477D01*
X016240Y016399D02*
X011645Y016399D01*
X011645Y016320D02*
X016240Y016320D01*
X016240Y016242D02*
X011645Y016242D01*
X012745Y017559D02*
X012745Y017572D01*
X013536Y018363D01*
X013618Y018445D01*
X013618Y018813D01*
X013629Y018813D01*
X013633Y018817D01*
X013636Y018813D01*
X013648Y018813D01*
X013648Y018721D01*
X013640Y018703D01*
X013640Y018608D01*
X013677Y018519D01*
X013744Y018452D01*
X013833Y018415D01*
X013928Y018415D01*
X014016Y018452D01*
X014068Y018504D01*
X014119Y018452D01*
X014208Y018415D01*
X014303Y018415D01*
X014391Y018452D01*
X014459Y018519D01*
X014495Y018608D01*
X014495Y018703D01*
X014459Y018791D01*
X014437Y018813D01*
X014559Y018813D01*
X014563Y018817D01*
X014566Y018813D01*
X014851Y018813D01*
X014871Y018801D01*
X014902Y018793D01*
X015013Y018793D01*
X015013Y019133D01*
X015043Y019133D01*
X015043Y018793D01*
X015154Y018793D01*
X015178Y018799D01*
X015178Y018679D01*
X014814Y018315D01*
X014685Y018315D01*
X014641Y018359D01*
X014553Y018395D01*
X014458Y018395D01*
X014369Y018359D01*
X014326Y018315D01*
X013502Y018315D01*
X013408Y018222D01*
X012745Y017559D01*
X012749Y017576D02*
X012763Y017576D01*
X012828Y017655D02*
X012841Y017655D01*
X012906Y017733D02*
X012920Y017733D01*
X012985Y017812D02*
X012998Y017812D01*
X013063Y017890D02*
X013077Y017890D01*
X013142Y017969D02*
X013155Y017969D01*
X013220Y018047D02*
X013234Y018047D01*
X013299Y018126D02*
X013312Y018126D01*
X013377Y018204D02*
X013391Y018204D01*
X013456Y018283D02*
X013469Y018283D01*
X013534Y018361D02*
X014376Y018361D01*
X014362Y018440D02*
X014939Y018440D01*
X015017Y018518D02*
X014458Y018518D01*
X014491Y018597D02*
X015096Y018597D01*
X015174Y018675D02*
X014495Y018675D01*
X014474Y018754D02*
X015178Y018754D01*
X015043Y018832D02*
X015013Y018832D01*
X015013Y018911D02*
X015043Y018911D01*
X015043Y018989D02*
X015013Y018989D01*
X015013Y019068D02*
X015043Y019068D01*
X015043Y019225D02*
X015013Y019225D01*
X015013Y019303D02*
X015043Y019303D01*
X015043Y019382D02*
X015013Y019382D01*
X015013Y019460D02*
X015043Y019460D01*
X015178Y019539D02*
X014680Y019539D01*
X014683Y019617D02*
X015178Y019617D01*
X014773Y019696D02*
X014660Y019696D01*
X014601Y019774D02*
X014735Y019774D01*
X014443Y019593D02*
X014408Y019558D01*
X014408Y019148D01*
X014098Y019148D02*
X014098Y018813D01*
X014255Y018655D01*
X014148Y018440D02*
X013987Y018440D01*
X013773Y018440D02*
X013613Y018440D01*
X013618Y018518D02*
X013678Y018518D01*
X013645Y018597D02*
X013618Y018597D01*
X013618Y018675D02*
X013640Y018675D01*
X013648Y018754D02*
X013618Y018754D01*
X013788Y018748D02*
X013880Y018655D01*
X013788Y018748D02*
X013788Y019148D01*
X014098Y019148D02*
X014098Y019814D01*
X015090Y020481D02*
X015170Y020481D01*
X015170Y020559D02*
X015090Y020559D01*
X015090Y020638D02*
X015170Y020638D01*
X015170Y020716D02*
X015090Y020716D01*
X015090Y020952D02*
X015170Y020952D01*
X015170Y021030D02*
X015090Y021030D01*
X015170Y021155D02*
X015441Y021155D01*
X015472Y021147D01*
X015499Y021131D01*
X015522Y021109D01*
X016989Y021109D01*
X016973Y021082D01*
X016965Y021051D01*
X016965Y020819D01*
X017340Y020819D01*
X017340Y020739D01*
X016965Y020739D01*
X016965Y020508D01*
X016973Y020477D01*
X016989Y020450D01*
X017011Y020428D01*
X016972Y020481D02*
X016901Y020481D01*
X016901Y020559D02*
X016965Y020559D01*
X016965Y020638D02*
X016901Y020638D01*
X016901Y020716D02*
X016965Y020716D01*
X016901Y020795D02*
X017340Y020795D01*
X017340Y020819D02*
X017340Y021155D01*
X017069Y021155D01*
X017039Y021147D01*
X017011Y021131D01*
X016989Y021109D01*
X016965Y021030D02*
X016901Y021030D01*
X016901Y020952D02*
X016965Y020952D01*
X016965Y020873D02*
X016901Y020873D01*
X017340Y020873D02*
X017420Y020873D01*
X017420Y020819D02*
X017340Y020819D01*
X017420Y020819D02*
X017420Y021155D01*
X017691Y021155D01*
X017722Y021147D01*
X017749Y021131D01*
X017772Y021109D01*
X017420Y021109D02*
X017340Y021109D01*
X017340Y021030D02*
X017420Y021030D01*
X017420Y020952D02*
X017340Y020952D01*
X016985Y019774D02*
X016901Y019774D01*
X016110Y020952D02*
X015546Y020952D01*
X015546Y021030D02*
X016110Y021030D01*
X015969Y020873D02*
X015546Y020873D01*
X015546Y020819D02*
X015546Y021051D01*
X015537Y021082D01*
X015522Y021109D01*
X014860Y018361D02*
X014635Y018361D01*
X017329Y016403D02*
X017333Y016407D01*
X017329Y016403D02*
X017333Y016399D01*
X017333Y016320D02*
X019209Y016320D01*
X019466Y016713D02*
X019546Y016713D01*
X019546Y016791D02*
X019466Y016791D01*
X019466Y016870D02*
X019546Y016870D01*
X019546Y016948D02*
X019466Y016948D01*
X019466Y017027D02*
X019546Y017027D01*
X019747Y017027D02*
X019900Y017027D01*
X019900Y017105D02*
X018816Y017105D01*
X018794Y017184D02*
X019900Y017184D01*
X019892Y017262D02*
X019900Y017262D01*
X019900Y016948D02*
X019839Y016948D01*
X019894Y016870D02*
X019900Y016870D01*
X019871Y016399D02*
X019900Y016399D01*
X019900Y016320D02*
X019803Y016320D01*
X019900Y016242D02*
X019680Y016242D01*
X019546Y017262D02*
X019466Y017262D01*
X019466Y017341D02*
X019546Y017341D01*
X019546Y017419D02*
X019466Y017419D01*
X019466Y017498D02*
X019546Y017498D01*
X019546Y017576D02*
X019466Y017576D01*
X019091Y017733D02*
X019060Y017733D01*
X019060Y017812D02*
X019091Y017812D01*
X019091Y017890D02*
X019060Y017890D01*
X019060Y017969D02*
X019096Y017969D01*
X019122Y018047D02*
X019060Y018047D01*
X019060Y018126D02*
X019091Y018126D01*
X019091Y018204D02*
X019060Y018204D01*
X019060Y018283D02*
X019091Y018283D01*
X019091Y018361D02*
X019060Y018361D01*
X019867Y021266D02*
X002023Y021266D01*
X002035Y021259D02*
X002007Y021275D01*
X001977Y021283D01*
X001588Y021283D01*
X001588Y020790D01*
X002081Y020790D01*
X002081Y021179D01*
X002073Y021210D01*
X002057Y021237D01*
X002035Y021259D01*
X002079Y021187D02*
X003200Y021187D01*
X003200Y021109D02*
X002081Y021109D01*
X002081Y021030D02*
X003200Y021030D01*
X003200Y020952D02*
X002081Y020952D01*
X002081Y020873D02*
X003200Y020873D01*
X003200Y020795D02*
X002081Y020795D01*
X002081Y020710D02*
X001588Y020710D01*
X001588Y020790D01*
X001508Y020790D01*
X001508Y021283D01*
X001118Y021283D01*
X001088Y021275D01*
X001061Y021259D01*
X001038Y021237D01*
X001022Y021210D01*
X001014Y021179D01*
X001014Y020790D01*
X001508Y020790D01*
X001508Y020710D01*
X001588Y020710D01*
X001588Y020217D01*
X001977Y020217D01*
X002007Y020225D01*
X002035Y020241D01*
X002057Y020263D01*
X002073Y020290D01*
X002081Y020321D01*
X002081Y020710D01*
X002081Y020638D02*
X003200Y020638D01*
X003200Y020716D02*
X001588Y020716D01*
X001588Y020638D02*
X001508Y020638D01*
X001508Y020710D02*
X001508Y020217D01*
X001118Y020217D01*
X001088Y020225D01*
X001061Y020241D01*
X001038Y020263D01*
X001022Y020290D01*
X001014Y020321D01*
X001014Y020710D01*
X001508Y020710D01*
X001508Y020716D02*
X000545Y020716D01*
X000545Y020638D02*
X001014Y020638D01*
X001014Y020559D02*
X000545Y020559D01*
X000545Y020481D02*
X001014Y020481D01*
X001014Y020402D02*
X000545Y020402D01*
X000545Y020324D02*
X001014Y020324D01*
X001056Y020245D02*
X000545Y020245D01*
X000545Y020167D02*
X003749Y020167D01*
X003828Y020088D02*
X000545Y020088D01*
X000545Y020010D02*
X003906Y020010D01*
X003985Y019931D02*
X000545Y019931D01*
X000545Y019853D02*
X004063Y019853D01*
X004142Y019774D02*
X000545Y019774D01*
X000545Y019696D02*
X004220Y019696D01*
X004168Y019610D02*
X004226Y019551D01*
X004226Y018642D01*
X004168Y018583D01*
X003258Y018583D01*
X003200Y018642D01*
X003200Y019551D01*
X003258Y019610D01*
X004168Y019610D01*
X004226Y019539D02*
X004377Y019539D01*
X004299Y019617D02*
X000545Y019617D01*
X000545Y019539D02*
X001034Y019539D01*
X001034Y019460D02*
X000545Y019460D01*
X000545Y019382D02*
X001034Y019382D01*
X001034Y019303D02*
X000545Y019303D01*
X000545Y019225D02*
X001034Y019225D01*
X001034Y019146D02*
X000545Y019146D01*
X000545Y019068D02*
X001034Y019068D01*
X001034Y018989D02*
X000545Y018989D01*
X000545Y018911D02*
X001034Y018911D01*
X001034Y018832D02*
X000545Y018832D01*
X000545Y018754D02*
X001034Y018754D01*
X001034Y018675D02*
X000545Y018675D01*
X000545Y018597D02*
X001079Y018597D01*
X000545Y018518D02*
X001899Y018518D01*
X001978Y018440D02*
X000545Y018440D01*
X000545Y018361D02*
X002056Y018361D01*
X002135Y018283D02*
X000545Y018283D01*
X000545Y018204D02*
X002213Y018204D01*
X002292Y018126D02*
X000545Y018126D01*
X000545Y017890D02*
X001034Y017890D01*
X001034Y017812D02*
X000545Y017812D01*
X000545Y017733D02*
X001034Y017733D01*
X001034Y017655D02*
X000545Y017655D01*
X000545Y017576D02*
X001034Y017576D01*
X001034Y017498D02*
X000545Y017498D01*
X000545Y017419D02*
X001034Y017419D01*
X001034Y017341D02*
X000545Y017341D01*
X000545Y017262D02*
X001034Y017262D01*
X001034Y017184D02*
X000545Y017184D01*
X000545Y017105D02*
X001034Y017105D01*
X001034Y017027D02*
X000545Y017027D01*
X000545Y016948D02*
X001074Y016948D01*
X000545Y016870D02*
X001852Y016870D01*
X001930Y016791D02*
X000545Y016791D01*
X000545Y016713D02*
X002009Y016713D01*
X002087Y016634D02*
X000545Y016634D01*
X000545Y016556D02*
X002166Y016556D01*
X002244Y016477D02*
X000545Y016477D01*
X000545Y016399D02*
X004181Y016399D01*
X003200Y017027D02*
X002232Y017027D01*
X002154Y017105D02*
X003200Y017105D01*
X003200Y017184D02*
X002075Y017184D01*
X002061Y017262D02*
X003200Y017262D01*
X003200Y017341D02*
X002061Y017341D01*
X002061Y017419D02*
X003200Y017419D01*
X003200Y017498D02*
X002061Y017498D01*
X002061Y017576D02*
X003200Y017576D01*
X003200Y017655D02*
X002061Y017655D01*
X002061Y017733D02*
X003200Y017733D01*
X003200Y017812D02*
X002061Y017812D01*
X002061Y017890D02*
X003200Y017890D01*
X003244Y018597D02*
X002273Y018597D01*
X002195Y018675D02*
X003200Y018675D01*
X003200Y018754D02*
X002116Y018754D01*
X002061Y018832D02*
X003200Y018832D01*
X003200Y018911D02*
X002061Y018911D01*
X002061Y018989D02*
X003200Y018989D01*
X003200Y019068D02*
X002061Y019068D01*
X002061Y019146D02*
X003200Y019146D01*
X003200Y019225D02*
X002061Y019225D01*
X002061Y019303D02*
X003200Y019303D01*
X003200Y019382D02*
X002061Y019382D01*
X002061Y019460D02*
X003200Y019460D01*
X003200Y019539D02*
X002061Y019539D01*
X002040Y020245D02*
X003249Y020245D01*
X003200Y020324D02*
X002081Y020324D01*
X002081Y020402D02*
X003200Y020402D01*
X003200Y020481D02*
X002081Y020481D01*
X002081Y020559D02*
X003200Y020559D01*
X004226Y019460D02*
X004456Y019460D01*
X004534Y019382D02*
X004226Y019382D01*
X004226Y019303D02*
X004613Y019303D01*
X004691Y019225D02*
X004226Y019225D01*
X004226Y019146D02*
X004770Y019146D01*
X004818Y019068D02*
X004226Y019068D01*
X004226Y018989D02*
X004818Y018989D01*
X004818Y018911D02*
X004226Y018911D01*
X004226Y018832D02*
X004818Y018832D01*
X004818Y018754D02*
X004226Y018754D01*
X004226Y018675D02*
X004818Y018675D01*
X004818Y018597D02*
X004182Y018597D01*
X004818Y018518D02*
X002352Y018518D01*
X001588Y020245D02*
X001508Y020245D01*
X001508Y020324D02*
X001588Y020324D01*
X001588Y020402D02*
X001508Y020402D01*
X001508Y020481D02*
X001588Y020481D01*
X001588Y020559D02*
X001508Y020559D01*
X001508Y020795D02*
X001588Y020795D01*
X001588Y020873D02*
X001508Y020873D01*
X001508Y020952D02*
X001588Y020952D01*
X001588Y021030D02*
X001508Y021030D01*
X001508Y021109D02*
X001588Y021109D01*
X001588Y021187D02*
X001508Y021187D01*
X001508Y021266D02*
X001588Y021266D01*
X001072Y021266D02*
X000578Y021266D01*
X000553Y021187D02*
X001017Y021187D01*
X001014Y021109D02*
X000547Y021109D01*
X000545Y021030D02*
X001014Y021030D01*
X001014Y020952D02*
X000545Y020952D01*
X000545Y020873D02*
X001014Y020873D01*
X001014Y020795D02*
X000545Y020795D01*
X000604Y021344D02*
X019842Y021344D01*
X019796Y021423D02*
X000649Y021423D01*
X000706Y021501D02*
X019739Y021501D01*
X019650Y021580D02*
X000796Y021580D01*
X000927Y021658D02*
X019519Y021658D01*
X015028Y013038D02*
X015028Y012695D01*
X015068Y012655D01*
X017755Y012655D01*
X017443Y012093D02*
X018130Y011405D01*
X018130Y009718D01*
X019068Y008780D01*
X018318Y009280D02*
X017943Y009655D01*
X017943Y011343D01*
X017443Y011843D01*
X016755Y011843D01*
X016941Y011689D02*
X017399Y011689D01*
X017443Y012093D02*
X014693Y012093D01*
X014098Y012688D01*
X014098Y013038D01*
X013788Y013038D02*
X013788Y012185D01*
X014444Y011530D01*
X014444Y011467D01*
X014693Y011468D01*
X015381Y011468D01*
X015737Y011532D02*
X015753Y011532D01*
X015753Y011610D02*
X015737Y011610D01*
X015737Y011689D02*
X015753Y011689D01*
X015753Y011767D02*
X015737Y011767D01*
X015696Y011846D02*
X015786Y011846D01*
X016089Y011846D02*
X016169Y011846D01*
X016169Y011767D02*
X016089Y011767D01*
X016089Y011689D02*
X016169Y011689D01*
X016169Y011610D02*
X016089Y011610D01*
X015735Y010742D02*
X015735Y010545D01*
X015743Y010545D01*
X015807Y010609D01*
X015895Y010645D01*
X015991Y010645D01*
X016079Y010609D01*
X016146Y010541D01*
X016150Y010531D01*
X016150Y010590D02*
X016098Y010590D01*
X016150Y010668D02*
X015735Y010668D01*
X015735Y010590D02*
X015788Y010590D01*
X015943Y010405D02*
X015379Y010405D01*
X015023Y010433D02*
X014987Y010433D01*
X014987Y010511D02*
X015023Y010511D01*
X015023Y010590D02*
X014987Y010590D01*
X014987Y010668D02*
X015023Y010668D01*
X015028Y010747D02*
X014982Y010747D01*
X014987Y010354D02*
X015023Y010354D01*
X015023Y010276D02*
X014987Y010276D01*
X015379Y009530D02*
X015943Y009530D01*
X016272Y009098D02*
X017990Y009098D01*
X017990Y009020D02*
X017609Y009020D01*
X017630Y008941D02*
X017990Y008941D01*
X017990Y008863D02*
X017630Y008863D01*
X017630Y008784D02*
X017990Y008784D01*
X017990Y008706D02*
X017630Y008706D01*
X017630Y008549D02*
X017990Y008549D01*
X017990Y008627D02*
X017294Y008627D01*
X017294Y008549D02*
X017214Y008549D01*
X017214Y008627D02*
X016862Y008627D01*
X016878Y008695D02*
X017214Y008695D01*
X017214Y009071D01*
X016983Y009071D01*
X016952Y009063D01*
X016925Y009047D01*
X016902Y009024D01*
X016887Y008997D01*
X016878Y008967D01*
X016878Y008695D01*
X016878Y008706D02*
X016862Y008706D01*
X016862Y008784D02*
X016878Y008784D01*
X016878Y008863D02*
X016862Y008863D01*
X016862Y008941D02*
X016878Y008941D01*
X016900Y009020D02*
X016834Y009020D01*
X016925Y009139D02*
X016952Y009123D01*
X016983Y009115D01*
X017214Y009115D01*
X017214Y009490D01*
X016878Y009490D01*
X016878Y009219D01*
X016887Y009189D01*
X016902Y009161D01*
X016925Y009139D01*
X016893Y009177D02*
X016845Y009177D01*
X016862Y009255D02*
X016878Y009255D01*
X016878Y009334D02*
X016862Y009334D01*
X016862Y009412D02*
X016878Y009412D01*
X016862Y009491D02*
X017214Y009491D01*
X017214Y009569D02*
X016862Y009569D01*
X016862Y009648D02*
X016878Y009648D01*
X017020Y009946D02*
X017020Y009990D01*
X017214Y009990D01*
X017214Y010365D01*
X017294Y010365D01*
X017294Y009990D01*
X017526Y009990D01*
X017557Y009998D01*
X017584Y010014D01*
X017606Y010036D01*
X017615Y010052D01*
X017615Y009884D01*
X017606Y009899D01*
X017584Y009922D01*
X017557Y009938D01*
X017526Y009946D01*
X017294Y009946D01*
X017294Y009570D01*
X017214Y009570D01*
X017214Y009946D01*
X017020Y009946D01*
X017020Y009962D02*
X017615Y009962D01*
X017609Y010040D02*
X017615Y010040D01*
X017294Y010040D02*
X017214Y010040D01*
X017214Y010119D02*
X017294Y010119D01*
X017294Y010197D02*
X017214Y010197D01*
X017214Y010276D02*
X017294Y010276D01*
X017294Y010354D02*
X017214Y010354D01*
X017214Y009883D02*
X017294Y009883D01*
X017294Y009805D02*
X017214Y009805D01*
X017214Y009726D02*
X017294Y009726D01*
X017294Y009648D02*
X017214Y009648D01*
X017294Y009569D02*
X017615Y009569D01*
X017659Y009491D02*
X017294Y009491D01*
X017294Y009412D02*
X017214Y009412D01*
X017214Y009334D02*
X017294Y009334D01*
X017294Y009255D02*
X017214Y009255D01*
X017214Y009177D02*
X017294Y009177D01*
X017294Y009020D02*
X017214Y009020D01*
X017214Y008941D02*
X017294Y008941D01*
X017294Y008863D02*
X017214Y008863D01*
X017214Y008784D02*
X017294Y008784D01*
X017294Y008706D02*
X017214Y008706D01*
X017214Y008470D02*
X017294Y008470D01*
X017294Y008392D02*
X017214Y008392D01*
X017214Y008313D02*
X017294Y008313D01*
X017294Y008156D02*
X017214Y008156D01*
X017214Y008078D02*
X017294Y008078D01*
X017294Y007999D02*
X017214Y007999D01*
X017214Y007921D02*
X017294Y007921D01*
X017294Y007842D02*
X017214Y007842D01*
X017294Y007764D02*
X018150Y007764D01*
X018150Y007842D02*
X017630Y007842D01*
X017630Y007921D02*
X018150Y007921D01*
X018150Y007999D02*
X017630Y007999D01*
X017630Y008078D02*
X018174Y008078D01*
X018290Y008235D02*
X017020Y008235D01*
X016878Y008549D02*
X016862Y008549D01*
X017630Y008470D02*
X018055Y008470D01*
X018133Y008392D02*
X017630Y008392D01*
X017622Y008313D02*
X018212Y008313D01*
X018366Y008156D02*
X017599Y008156D01*
X017630Y007685D02*
X018150Y007685D01*
X018150Y007607D02*
X017630Y007607D01*
X017630Y007528D02*
X018150Y007528D01*
X018150Y007450D02*
X017625Y007450D01*
X017550Y007371D02*
X018160Y007371D01*
X017294Y007371D02*
X017214Y007371D01*
X017214Y007450D02*
X017294Y007450D01*
X017294Y007528D02*
X017214Y007528D01*
X017214Y007607D02*
X017294Y007607D01*
X017294Y007685D02*
X017214Y007685D01*
X016898Y007057D02*
X016862Y007057D01*
X016862Y006979D02*
X016898Y006979D01*
X016646Y006429D02*
X019365Y006429D01*
X019365Y006351D02*
X016646Y006351D01*
X016646Y006272D02*
X019365Y006272D01*
X019365Y006194D02*
X016665Y006194D01*
X016743Y006115D02*
X019365Y006115D01*
X019365Y006037D02*
X016822Y006037D01*
X016900Y005958D02*
X019365Y005958D01*
X019365Y005880D02*
X016979Y005880D01*
X017057Y005801D02*
X019365Y005801D01*
X019365Y005723D02*
X017136Y005723D01*
X017214Y005644D02*
X019365Y005644D01*
X018953Y003760D02*
X015808Y003760D01*
X015808Y003839D02*
X016232Y003839D01*
X015078Y005173D02*
X014937Y005173D01*
X014987Y006586D02*
X015023Y006586D01*
X015023Y006665D02*
X014987Y006665D01*
X014987Y006743D02*
X015023Y006743D01*
X015023Y006822D02*
X014987Y006822D01*
X014987Y006900D02*
X015023Y006900D01*
X015023Y006979D02*
X014987Y006979D01*
X014987Y007057D02*
X015023Y007057D01*
X015379Y007780D02*
X015943Y007780D01*
X016069Y008218D02*
X015069Y008218D01*
X014631Y008655D01*
X014255Y009031D01*
X014255Y009655D01*
X013880Y010030D01*
X012405Y010904D02*
X012296Y010904D01*
X012296Y010982D02*
X012355Y010982D01*
X012355Y011061D02*
X012296Y011061D01*
X011490Y010825D02*
X011458Y010825D01*
X011108Y010825D02*
X011028Y010825D01*
X011028Y010781D02*
X011028Y011116D01*
X010653Y011116D01*
X010653Y010885D01*
X010661Y010854D01*
X010677Y010827D01*
X010699Y010804D01*
X010726Y010789D01*
X010757Y010781D01*
X011028Y010781D01*
X011028Y010904D02*
X011108Y010904D01*
X011108Y010982D02*
X011028Y010982D01*
X011028Y011061D02*
X011108Y011061D01*
X011028Y011139D02*
X010528Y011139D01*
X010450Y011061D02*
X010653Y011061D01*
X010653Y010982D02*
X010371Y010982D01*
X010293Y010904D02*
X010653Y010904D01*
X010678Y010825D02*
X010013Y010825D01*
X010607Y011218D02*
X010653Y011218D01*
X011852Y006900D02*
X011932Y006900D01*
X011932Y006822D02*
X011852Y006822D01*
X011852Y006743D02*
X011932Y006743D01*
X011932Y006665D02*
X011852Y006665D01*
X011852Y006586D02*
X011932Y006586D01*
X011932Y006508D02*
X011852Y006508D01*
X012857Y005723D02*
X012950Y005723D01*
X011824Y005173D02*
X011623Y005173D01*
X011623Y005095D02*
X011824Y005095D01*
X011824Y005016D02*
X011597Y005016D01*
X011836Y004702D02*
X008867Y004702D01*
X008867Y004624D02*
X008905Y004624D01*
X008898Y004545D02*
X008867Y004545D01*
X008867Y004467D02*
X008898Y004467D01*
X008898Y004388D02*
X008867Y004388D01*
X008867Y004310D02*
X008898Y004310D01*
X008898Y004231D02*
X008867Y004231D01*
X008867Y004153D02*
X008898Y004153D01*
X008898Y004074D02*
X008867Y004074D01*
X008867Y003996D02*
X008898Y003996D01*
X008925Y003917D02*
X008867Y003917D01*
X008867Y003839D02*
X010326Y003839D01*
X010326Y003760D02*
X008867Y003760D01*
X008867Y003682D02*
X010326Y003682D01*
X010326Y003603D02*
X008867Y003603D01*
X008867Y003525D02*
X010091Y003525D01*
X010084Y003446D02*
X008867Y003446D01*
X008867Y003368D02*
X010084Y003368D01*
X010084Y003289D02*
X008867Y003289D01*
X008867Y003211D02*
X010084Y003211D01*
X010084Y003132D02*
X008867Y003132D01*
X008867Y003054D02*
X010084Y003054D01*
X010180Y002897D02*
X008864Y002897D01*
X008867Y002975D02*
X011445Y002975D01*
X010928Y002897D02*
X010832Y002897D01*
X010862Y002818D02*
X010898Y002818D01*
X010898Y002740D02*
X010862Y002740D01*
X010862Y002661D02*
X010898Y002661D01*
X010898Y002583D02*
X010862Y002583D01*
X010862Y002504D02*
X010898Y002504D01*
X010898Y002426D02*
X010862Y002426D01*
X010862Y002347D02*
X010898Y002347D01*
X010898Y002269D02*
X010862Y002269D01*
X010859Y002190D02*
X010902Y002190D01*
X010154Y002190D02*
X005670Y002190D01*
X005591Y002112D02*
X019894Y002112D01*
X019900Y002190D02*
X014882Y002190D01*
X014937Y002269D02*
X019900Y002269D01*
X019900Y002347D02*
X014937Y002347D01*
X014937Y002426D02*
X019900Y002426D01*
X019900Y002504D02*
X014937Y002504D01*
X011824Y004467D02*
X011610Y004467D01*
X011610Y004545D02*
X011824Y004545D01*
X011824Y004624D02*
X011603Y004624D01*
X011513Y003603D02*
X010686Y003603D01*
X010177Y003917D02*
X009584Y003917D01*
X009610Y003996D02*
X010150Y003996D01*
X010150Y004074D02*
X009610Y004074D01*
X009610Y004467D02*
X010150Y004467D01*
X010150Y004545D02*
X009610Y004545D01*
X009603Y004624D02*
X010157Y004624D01*
X010150Y002818D02*
X005517Y002818D01*
X005438Y002740D02*
X010150Y002740D01*
X010150Y002347D02*
X005827Y002347D01*
X005748Y002269D02*
X010150Y002269D01*
X008506Y004280D02*
X006877Y004280D01*
X005632Y002661D02*
X005360Y002661D01*
X005281Y002583D02*
X005553Y002583D01*
X005475Y002504D02*
X005203Y002504D01*
X005124Y002426D02*
X005396Y002426D01*
X005318Y002347D02*
X005046Y002347D01*
X004967Y002269D02*
X005239Y002269D01*
X005161Y002190D02*
X004889Y002190D01*
X004810Y002112D02*
X005082Y002112D01*
X005004Y002033D02*
X004705Y002033D01*
X004847Y001876D02*
X002487Y001876D01*
X002408Y001955D02*
X004925Y001955D01*
X005199Y001719D02*
X019672Y001719D01*
X019751Y001798D02*
X005277Y001798D01*
X005356Y001876D02*
X019808Y001876D01*
X019847Y001955D02*
X005434Y001955D01*
X005513Y002033D02*
X019873Y002033D01*
X019564Y001641D02*
X005120Y001641D01*
X003525Y003132D02*
X000545Y003132D01*
X000545Y003839D02*
X001034Y003839D01*
X001034Y003917D02*
X000545Y003917D01*
X000545Y003996D02*
X001034Y003996D01*
X001034Y004074D02*
X000545Y004074D01*
X000545Y004153D02*
X001034Y004153D01*
X001034Y004231D02*
X000545Y004231D01*
X000545Y004310D02*
X001034Y004310D01*
X001034Y004388D02*
X000545Y004388D01*
X000545Y004467D02*
X001034Y004467D01*
X001034Y004545D02*
X000545Y004545D01*
X000545Y004624D02*
X001034Y004624D01*
X001067Y004702D02*
X000545Y004702D01*
X000545Y005409D02*
X001039Y005409D01*
X001034Y005487D02*
X000545Y005487D01*
X000545Y005566D02*
X001034Y005566D01*
X001034Y005644D02*
X000545Y005644D01*
X000545Y005723D02*
X001034Y005723D01*
X001034Y005801D02*
X000545Y005801D01*
X000545Y005880D02*
X001034Y005880D01*
X001034Y005958D02*
X000545Y005958D01*
X000545Y006037D02*
X001034Y006037D01*
X001034Y006115D02*
X000545Y006115D01*
X000545Y006194D02*
X001034Y006194D01*
X001034Y006272D02*
X000545Y006272D01*
X000545Y006351D02*
X001062Y006351D01*
X001548Y005868D02*
X002880Y007201D01*
X002880Y007905D01*
X002382Y006900D02*
X000545Y006900D01*
X000545Y006822D02*
X002304Y006822D01*
X002225Y006743D02*
X000545Y006743D01*
X000545Y006665D02*
X002147Y006665D01*
X002068Y006586D02*
X000545Y006586D01*
X000545Y006508D02*
X001990Y006508D01*
X001911Y006429D02*
X000545Y006429D01*
X002061Y005801D02*
X003180Y005801D01*
X003180Y005723D02*
X002061Y005723D01*
X002061Y005644D02*
X003180Y005644D01*
X003180Y005566D02*
X002061Y005566D01*
X002061Y005487D02*
X003180Y005487D01*
X003188Y005409D02*
X002057Y005409D01*
X002028Y004702D02*
X003233Y004702D01*
X003200Y004624D02*
X002061Y004624D01*
X002061Y004545D02*
X003200Y004545D01*
X003200Y004467D02*
X002061Y004467D01*
X002061Y004388D02*
X003200Y004388D01*
X003200Y004310D02*
X002061Y004310D01*
X002061Y004231D02*
X003200Y004231D01*
X003200Y004153D02*
X002061Y004153D01*
X002061Y004074D02*
X003200Y004074D01*
X003200Y003996D02*
X002061Y003996D01*
X002061Y003917D02*
X003200Y003917D01*
X003200Y003839D02*
X002061Y003839D01*
X002061Y003760D02*
X003200Y003760D01*
X003238Y003054D02*
X002023Y003054D01*
X002061Y002975D02*
X003200Y002975D01*
X003200Y002897D02*
X002061Y002897D01*
X002061Y002818D02*
X003170Y002818D01*
X003138Y002740D02*
X002061Y002740D01*
X002061Y002661D02*
X003113Y002661D01*
X003113Y002583D02*
X002061Y002583D01*
X002061Y002504D02*
X003113Y002504D01*
X003119Y002426D02*
X002061Y002426D01*
X002061Y002347D02*
X003152Y002347D01*
X003185Y002269D02*
X002094Y002269D01*
X002173Y002190D02*
X003200Y002190D01*
X003200Y002112D02*
X002251Y002112D01*
X002330Y002033D02*
X003419Y002033D01*
X003673Y005409D02*
X003753Y005409D01*
X003753Y005487D02*
X003673Y005487D01*
X003673Y005566D02*
X003753Y005566D01*
X003753Y005644D02*
X003673Y005644D01*
X003673Y005723D02*
X003753Y005723D01*
X003753Y005801D02*
X003673Y005801D01*
X003673Y006037D02*
X003753Y006037D01*
X003753Y006115D02*
X003673Y006115D01*
X003673Y006194D02*
X003753Y006194D01*
X003753Y006272D02*
X003673Y006272D01*
X003673Y006351D02*
X003753Y006351D01*
X003200Y015378D02*
X002227Y015378D01*
X005218Y017693D02*
X005218Y017780D01*
X007288Y015928D02*
X007364Y015928D01*
X009090Y020088D02*
X009170Y020088D01*
X009170Y020167D02*
X009090Y020167D01*
X009090Y020245D02*
X009170Y020245D01*
X009170Y020324D02*
X009090Y020324D01*
X009090Y020402D02*
X009170Y020402D01*
X009170Y020481D02*
X009090Y020481D01*
X009090Y020559D02*
X009170Y020559D01*
X009170Y020795D02*
X009090Y020795D01*
X009090Y020873D02*
X009170Y020873D01*
X009170Y020952D02*
X009090Y020952D01*
X009090Y021030D02*
X009170Y021030D01*
X009170Y021109D02*
X009090Y021109D01*
X009090Y021187D02*
X009170Y021187D01*
X017626Y010982D02*
X017803Y010982D01*
X017803Y010904D02*
X017705Y010904D01*
X017783Y010825D02*
X017803Y010825D01*
X017738Y009412D02*
X017630Y009412D01*
X017630Y009334D02*
X017816Y009334D01*
X017895Y009255D02*
X017630Y009255D01*
X017615Y009177D02*
X017973Y009177D01*
X015943Y008655D02*
X015379Y008655D01*
D38*
X013630Y007468D03*
X011318Y005280D03*
X010880Y005280D03*
X010380Y005280D03*
X009005Y008093D03*
X005943Y009405D03*
X007755Y014155D03*
X008255Y014155D03*
X008255Y014655D03*
X007755Y014655D03*
X007755Y015155D03*
X008255Y015155D03*
X008255Y015655D03*
X007755Y015655D03*
X007755Y016155D03*
X008255Y016155D03*
X006255Y016593D03*
D39*
X008193Y019905D03*
X008193Y020655D03*
X008193Y021405D03*
X008943Y021405D03*
X009693Y021405D03*
X010443Y021405D03*
X011193Y021405D03*
X011943Y021405D03*
X012693Y021405D03*
X013443Y021405D03*
X014193Y021405D03*
X014943Y021405D03*
X015693Y021405D03*
X016443Y021405D03*
X017318Y021405D03*
X018068Y021405D03*
X018068Y020655D03*
X018818Y020655D03*
X018818Y019905D03*
X019568Y020655D03*
X019568Y021405D03*
X018818Y021405D03*
X017755Y018218D03*
X017755Y017843D03*
X016005Y017593D03*
X016005Y018155D03*
X014505Y018155D03*
X014255Y018655D03*
X013880Y018655D03*
X014443Y019593D03*
X014505Y020405D03*
X015880Y019905D03*
X013255Y016780D03*
X012568Y016780D03*
X012068Y016905D03*
X011818Y017405D03*
X012505Y017530D03*
X012505Y017905D03*
X012505Y018280D03*
X012505Y018655D03*
X011818Y018530D03*
X011005Y018905D03*
X010318Y017718D03*
X011630Y015405D03*
X012005Y015405D03*
X012505Y015905D03*
X013255Y014530D03*
X013568Y014280D03*
X012755Y014405D03*
X012818Y013780D03*
X012005Y013780D03*
X012005Y014405D03*
X010755Y013405D03*
X011005Y012593D03*
X009880Y011030D03*
X008568Y009530D03*
X008193Y009530D03*
X007693Y009155D03*
X008505Y008780D03*
X008005Y008093D03*
X008630Y007780D03*
X008880Y007468D03*
X008630Y006843D03*
X008255Y006468D03*
X009005Y006468D03*
X009255Y005968D03*
X010943Y006968D03*
X011318Y007343D03*
X011880Y007905D03*
X012630Y007905D03*
X013193Y008155D03*
X013505Y008655D03*
X013818Y009218D03*
X013693Y009593D03*
X013193Y010718D03*
X012818Y010718D03*
X012443Y010718D03*
X011130Y009218D03*
X013693Y006530D03*
X014068Y006843D03*
X013568Y005655D03*
X015318Y006343D03*
X015755Y006030D03*
X015943Y005593D03*
X016380Y005030D03*
X016818Y004655D03*
X016380Y004030D03*
X016693Y003405D03*
X017693Y003468D03*
X018443Y003405D03*
X018568Y006530D03*
X019068Y006530D03*
X018568Y007030D03*
X015943Y007780D03*
X015943Y008655D03*
X015943Y009530D03*
X015943Y010405D03*
X016693Y011280D03*
X016755Y011843D03*
X017193Y011280D03*
X018193Y012218D03*
X017255Y013343D03*
X017505Y013593D03*
X017693Y013905D03*
X018005Y013655D03*
X018943Y015780D03*
X019693Y015780D03*
X015880Y014905D03*
X013130Y012530D03*
X012818Y012280D03*
X010318Y015093D03*
X010005Y014343D03*
X009693Y014093D03*
X009505Y013405D03*
X006505Y009093D03*
X004880Y009405D03*
X004943Y008155D03*
X004818Y007405D03*
X005193Y006905D03*
X005568Y006530D03*
X005193Y006218D03*
X005818Y002030D03*
X006568Y002030D03*
X007318Y002030D03*
X008068Y002030D03*
X008818Y002030D03*
X009568Y002030D03*
X013005Y002905D03*
X013568Y002780D03*
X013568Y003530D03*
X015568Y003280D03*
X013818Y008155D03*
X007443Y021405D03*
X006693Y021405D03*
X005943Y021405D03*
X005193Y021405D03*
D40*
X004255Y018280D02*
X002364Y018280D01*
X001548Y019096D01*
X003713Y017443D02*
X003780Y017443D01*
X005443Y015780D01*
X006883Y015795D01*
X006883Y016051D02*
X005505Y016030D01*
X004505Y017030D01*
X004505Y018030D01*
X004255Y018280D01*
X001548Y014136D02*
X002630Y013053D01*
X002630Y012030D01*
X003068Y011593D01*
X004193Y011593D01*
X004943Y010843D01*
X007318Y010843D01*
X007505Y011030D01*
X009880Y011030D01*
X010193Y011030D01*
X010568Y011405D01*
X010630Y011467D01*
X011068Y011904D01*
X011068Y012029D01*
X011506Y012468D01*
X012568Y012468D01*
X012858Y012758D01*
X012858Y013038D01*
X012858Y013383D01*
X013068Y013593D01*
X016255Y013593D01*
X017005Y012843D01*
X018005Y012843D01*
X018568Y012280D01*
X019505Y012280D01*
X019818Y011968D01*
X019818Y008281D01*
X019254Y007718D01*
X019818Y007154D01*
X019818Y004468D01*
X019630Y004280D01*
X019318Y004280D01*
X018005Y012843D02*
X018880Y013780D01*
X019068Y013780D01*
X015880Y014905D02*
X014880Y015905D01*
X012505Y015905D01*
X012380Y017218D02*
X012197Y017401D01*
X012193Y019030D01*
X012238Y019075D01*
X012238Y019148D01*
X012238Y019736D01*
X011943Y020031D01*
X011618Y019706D01*
X011618Y019148D01*
X011630Y019135D01*
X012380Y017218D02*
X012630Y017218D01*
X013568Y018155D01*
X014505Y018155D01*
X014880Y018155D01*
X015338Y018613D01*
X015338Y019148D01*
X015338Y019864D01*
X015130Y020031D01*
X007505Y012280D02*
X007005Y012780D01*
X007505Y012280D02*
X007505Y011030D01*
D41*
X006883Y014772D02*
X005005Y014780D01*
X004755Y015030D01*
X002306Y015030D01*
X001548Y015789D01*
X002338Y016652D02*
X001548Y017443D01*
X002338Y016652D02*
X004196Y016652D01*
X005318Y015530D01*
X006883Y015539D01*
X006883Y015027D02*
X005130Y015030D01*
X004371Y015789D01*
X003713Y015789D01*
D42*
X005218Y019193D02*
X005505Y019256D01*
D43*
X006877Y004280D02*
X005880Y004030D01*
X004411Y002561D01*
X003713Y002561D01*
M02*
