M48
;GenerationSoftware,Autodesk,EAGLE,9.5.1*%
;CreationDate,2019-11-10T19:13:17Z*%
FMAT,2
ICI,OFF
METRIC,TZ,000.000
T7C0.305
T6C0.508
T5C0.800
T4C1.016
T3C1.100
T2C1.400
T1C3.000
%
G90
M71
T1
X3425Y53835
X3425Y-1765
T2
X8465Y23935
X8465Y28135
X8465Y32335
X8465Y36535
X8465Y44935
X2965Y2935
X2965Y7135
X2965Y19735
X8465Y2935
X2965Y11335
X2965Y15535
X2965Y23935
X2965Y28135
X2965Y32335
X2965Y36535
X2965Y40735
X2965Y44935
X8465Y40735
X2965Y49135
X8465Y7135
X8465Y11335
X8465Y15535
X8465Y49135
X8465Y19735
T3
X48579Y45727
X48579Y38728
T4
X21907Y28892
X19368Y28892
X47466Y19050
X24447Y26352
X24447Y28892
X47466Y24130
X47466Y26670
X47466Y29210
X47466Y31750
X47466Y34290
X21907Y26352
X47466Y16510
X47466Y21590
X16828Y26352
X16828Y28892
X19368Y26352
T5
X45879Y44727
X45879Y39728
T6
X21907Y16986
X14922Y38576
X18733Y37465
X20003Y37465
X26670Y9843
X25400Y9843
X33655Y15399
X18733Y32385
X20003Y32385
X20003Y34925
X20003Y33655
X18733Y33655
X18733Y34925
X20003Y36195
X18733Y36195
X27781Y9843
X14129Y20320
T7
X25559Y50800
X12224Y50800
X29369Y50800
X31274Y50800
X33179Y50800
X35084Y50800
X36989Y50800
X38894Y50800
X40799Y50800
X27464Y50800
X43021Y50800
X44926Y50800
X46831Y50800
X19844Y48895
X19844Y46990
X48736Y50800
X44926Y48895
X46831Y48895
X48736Y48895
X46831Y46990
X29686Y39370
X26352Y30480
X29527Y33020
X29527Y31432
X33814Y13017
X34766Y13811
X33496Y10795
X33496Y5398
X33496Y3492
X40958Y32067
X35878Y42545
X24130Y24447
X35243Y43815
X39529Y22860
X31115Y23495
X39529Y16192
X30797Y40958
X39529Y18415
X30797Y41910
X34290Y43815
X41593Y26511
X29527Y35560
X28575Y35560
X24606Y37306
X39529Y20638
X30797Y42863
X44767Y31115
X43974Y5239
X23654Y32226
X24447Y32861
X25241Y34766
X23177Y30480
X32067Y3810
X44132Y42704
X44132Y41751
X39370Y46990
X39370Y34290
X30797Y36830
X45244Y27464
X32702Y39053
X39688Y42545
X29051Y43498
X43974Y31591
X40640Y6667
X19844Y20638
X11430Y20320
X21590Y15399
X20955Y16192
X20796Y20638
X20638Y18733
X25241Y41434
X15557Y19526
X19368Y16986
X33496Y32702
X27305Y19844
X33814Y20796
X18574Y19685
X32702Y33338
X34131Y19844
X27146Y28575
X35719Y46196
X43498Y30797
X40640Y9208
X30956Y39053
X39053Y11747
X41434Y25082
X46831Y12541
X41434Y5080
X41751Y8255
X22542Y11589
X26829Y14129
X31115Y16510
X42704Y25082
X32385Y28257
X12224Y13970
X13176Y13017
X11271Y15240
X32544Y17145
X15716Y1587
X17621Y1587
X19526Y1587
X21431Y1587
X23336Y1587
X38576Y4763
X31432Y33020
X39688Y41116
X26987Y44450
X30797Y43815
X35878Y48260
X37941Y12541
X29210Y16510
X27781Y15081
X34131Y17145
X33338Y18415
X45879Y5080
X20955Y13811
X21907Y12859
X20003Y12859
X39529Y10636
X11589Y17145
X49054Y36513
X47149Y36513
X31591Y27622
X32385Y23495
X13811Y1587
X14129Y50800
X16034Y50800
X17939Y50800
X19844Y50800
X21749Y50800
X23654Y50800
X42863Y30162
M30