G04 EAGLE Gerber RS-274X export*
G75*
%MOMM*%
%FSLAX34Y34*%
%LPD*%
%INSilkscreen Bottom*%
%IPPOS*%
%AMOC8*
5,1,8,0,0,1.08239X$1,22.5*%
G01*
%ADD10C,0.101600*%
%ADD11C,0.152400*%
%ADD12C,0.076200*%
%ADD13C,0.203200*%
%ADD14R,0.762000X0.863600*%


D10*
X423496Y251553D02*
X425445Y253502D01*
X429343Y253502D01*
X431292Y251553D01*
X431292Y243757D01*
X429343Y241808D01*
X425445Y241808D01*
X423496Y243757D01*
X419598Y251553D02*
X417649Y253502D01*
X413751Y253502D01*
X411802Y251553D01*
X411802Y249604D01*
X413751Y247655D01*
X415700Y247655D01*
X413751Y247655D02*
X411802Y245706D01*
X411802Y243757D01*
X413751Y241808D01*
X417649Y241808D01*
X419598Y243757D01*
X407904Y243757D02*
X405955Y241808D01*
X402057Y241808D01*
X400108Y243757D01*
X400108Y251553D01*
X402057Y253502D01*
X405955Y253502D01*
X407904Y251553D01*
X407904Y249604D01*
X405955Y247655D01*
X400108Y247655D01*
X423496Y229328D02*
X425445Y231277D01*
X429343Y231277D01*
X431292Y229328D01*
X431292Y221532D01*
X429343Y219583D01*
X425445Y219583D01*
X423496Y221532D01*
X413751Y219583D02*
X413751Y231277D01*
X419598Y225430D01*
X411802Y225430D01*
X407904Y221532D02*
X407904Y229328D01*
X405955Y231277D01*
X402057Y231277D01*
X400108Y229328D01*
X400108Y221532D01*
X402057Y219583D01*
X405955Y219583D01*
X407904Y221532D01*
X400108Y229328D01*
X423496Y207103D02*
X425445Y209052D01*
X429343Y209052D01*
X431292Y207103D01*
X431292Y199307D01*
X429343Y197358D01*
X425445Y197358D01*
X423496Y199307D01*
X413751Y197358D02*
X413751Y209052D01*
X419598Y203205D01*
X411802Y203205D01*
X407904Y205154D02*
X404006Y209052D01*
X404006Y197358D01*
X407904Y197358D02*
X400108Y197358D01*
X423496Y184878D02*
X425445Y186827D01*
X429343Y186827D01*
X431292Y184878D01*
X431292Y177082D01*
X429343Y175133D01*
X425445Y175133D01*
X423496Y177082D01*
X413751Y175133D02*
X413751Y186827D01*
X419598Y180980D01*
X411802Y180980D01*
X407904Y175133D02*
X400108Y175133D01*
X407904Y175133D02*
X400108Y182929D01*
X400108Y184878D01*
X402057Y186827D01*
X405955Y186827D01*
X407904Y184878D01*
X358277Y246414D02*
X346583Y246414D01*
X358277Y246414D02*
X358277Y252261D01*
X356328Y254210D01*
X352430Y254210D01*
X350481Y252261D01*
X350481Y246414D01*
X350481Y250312D02*
X346583Y254210D01*
X356328Y258108D02*
X358277Y260056D01*
X358277Y263954D01*
X356328Y265903D01*
X354379Y265903D01*
X352430Y263954D01*
X352430Y262005D01*
X352430Y263954D02*
X350481Y265903D01*
X348532Y265903D01*
X346583Y263954D01*
X346583Y260056D01*
X348532Y258108D01*
X346583Y269801D02*
X346583Y277597D01*
X346583Y269801D02*
X354379Y277597D01*
X356328Y277597D01*
X358277Y275648D01*
X358277Y271750D01*
X356328Y269801D01*
X378553Y272254D02*
X380502Y270305D01*
X380502Y266407D01*
X378553Y264458D01*
X370757Y264458D01*
X368808Y266407D01*
X368808Y270305D01*
X370757Y272254D01*
X380502Y276152D02*
X380502Y283947D01*
X380502Y276152D02*
X374655Y276152D01*
X376604Y280049D01*
X376604Y281998D01*
X374655Y283947D01*
X370757Y283947D01*
X368808Y281998D01*
X368808Y278100D01*
X370757Y276152D01*
X396377Y309567D02*
X394428Y311516D01*
X396377Y309567D02*
X396377Y305669D01*
X394428Y303721D01*
X386632Y303721D01*
X384683Y305669D01*
X384683Y309567D01*
X386632Y311516D01*
X392479Y315414D02*
X396377Y319312D01*
X384683Y319312D01*
X384683Y315414D02*
X384683Y323210D01*
X394428Y331006D02*
X396377Y334904D01*
X394428Y331006D02*
X390530Y327108D01*
X386632Y327108D01*
X384683Y329057D01*
X384683Y332955D01*
X386632Y334904D01*
X388581Y334904D01*
X390530Y332955D01*
X390530Y327108D01*
X246717Y329702D02*
X246717Y318008D01*
X246717Y329702D02*
X240871Y329702D01*
X238922Y327753D01*
X238922Y323855D01*
X240871Y321906D01*
X246717Y321906D01*
X242820Y321906D02*
X238922Y318008D01*
X231126Y327753D02*
X227228Y329702D01*
X231126Y327753D02*
X235024Y323855D01*
X235024Y319957D01*
X233075Y318008D01*
X229177Y318008D01*
X227228Y319957D01*
X227228Y321906D01*
X229177Y323855D01*
X235024Y323855D01*
X354667Y375158D02*
X354667Y386852D01*
X354667Y375158D02*
X348821Y375158D01*
X346872Y377107D01*
X346872Y384903D01*
X348821Y386852D01*
X354667Y386852D01*
X342974Y384903D02*
X341025Y386852D01*
X337127Y386852D01*
X335178Y384903D01*
X335178Y382954D01*
X337127Y381005D01*
X339076Y381005D01*
X337127Y381005D02*
X335178Y379056D01*
X335178Y377107D01*
X337127Y375158D01*
X341025Y375158D01*
X342974Y377107D01*
X469392Y136027D02*
X469392Y124333D01*
X469392Y136027D02*
X463545Y136027D01*
X461596Y134078D01*
X461596Y130180D01*
X463545Y128231D01*
X469392Y128231D01*
X465494Y128231D02*
X461596Y124333D01*
X457698Y136027D02*
X449902Y136027D01*
X457698Y136027D02*
X457698Y130180D01*
X453800Y132129D01*
X451851Y132129D01*
X449902Y130180D01*
X449902Y126282D01*
X451851Y124333D01*
X455749Y124333D01*
X457698Y126282D01*
X446004Y124333D02*
X438208Y124333D01*
X446004Y124333D02*
X438208Y132129D01*
X438208Y134078D01*
X440157Y136027D01*
X444055Y136027D01*
X446004Y134078D01*
X459867Y113802D02*
X459867Y102108D01*
X459867Y113802D02*
X454020Y113802D01*
X452071Y111853D01*
X452071Y107955D01*
X454020Y106006D01*
X459867Y106006D01*
X455969Y106006D02*
X452071Y102108D01*
X448173Y113802D02*
X440377Y113802D01*
X448173Y113802D02*
X448173Y107955D01*
X444275Y109904D01*
X442326Y109904D01*
X440377Y107955D01*
X440377Y104057D01*
X442326Y102108D01*
X446224Y102108D01*
X448173Y104057D01*
X436479Y111853D02*
X434530Y113802D01*
X430632Y113802D01*
X428683Y111853D01*
X428683Y109904D01*
X430632Y107955D01*
X428683Y106006D01*
X428683Y104057D01*
X430632Y102108D01*
X434530Y102108D01*
X436479Y104057D01*
X436479Y106006D01*
X434530Y107955D01*
X436479Y109904D01*
X436479Y111853D01*
X434530Y107955D02*
X430632Y107955D01*
X362463Y323088D02*
X358566Y323088D01*
X360515Y323088D02*
X360515Y334782D01*
X362463Y334782D02*
X358566Y334782D01*
X348821Y334782D02*
X346872Y332833D01*
X348821Y334782D02*
X352719Y334782D01*
X354668Y332833D01*
X354668Y325037D01*
X352719Y323088D01*
X348821Y323088D01*
X346872Y325037D01*
X339076Y332833D02*
X335178Y334782D01*
X339076Y332833D02*
X342974Y328935D01*
X342974Y325037D01*
X341025Y323088D01*
X337127Y323088D01*
X335178Y325037D01*
X335178Y326986D01*
X337127Y328935D01*
X342974Y328935D01*
X430003Y454753D02*
X431952Y456702D01*
X435850Y456702D01*
X437799Y454753D01*
X437799Y446957D01*
X435850Y445008D01*
X431952Y445008D01*
X430003Y446957D01*
X420258Y445008D02*
X420258Y456702D01*
X426105Y450855D01*
X418309Y450855D01*
X414411Y456702D02*
X406615Y456702D01*
X406615Y454753D01*
X414411Y446957D01*
X414411Y445008D01*
X416653Y311516D02*
X418602Y309567D01*
X418602Y305669D01*
X416653Y303721D01*
X408857Y303721D01*
X406908Y305669D01*
X406908Y309567D01*
X408857Y311516D01*
X414704Y315414D02*
X418602Y319312D01*
X406908Y319312D01*
X406908Y315414D02*
X406908Y323210D01*
X414704Y327108D02*
X418602Y331006D01*
X406908Y331006D01*
X406908Y327108D02*
X406908Y334904D01*
X421767Y360871D02*
X421767Y372564D01*
X415920Y372564D01*
X413971Y370615D01*
X413971Y366717D01*
X415920Y364768D01*
X421767Y364768D01*
X417869Y364768D02*
X413971Y360871D01*
X404226Y360871D02*
X404226Y372564D01*
X410073Y366717D01*
X402277Y366717D01*
X432455Y355102D02*
X432455Y343408D01*
X432455Y355102D02*
X426608Y355102D01*
X424659Y353153D01*
X424659Y349255D01*
X426608Y347306D01*
X432455Y347306D01*
X428557Y347306D02*
X424659Y343408D01*
X420761Y353153D02*
X418812Y355102D01*
X414914Y355102D01*
X412965Y353153D01*
X412965Y351204D01*
X414914Y349255D01*
X412965Y347306D01*
X412965Y345357D01*
X414914Y343408D01*
X418812Y343408D01*
X420761Y345357D01*
X420761Y347306D01*
X418812Y349255D01*
X420761Y351204D01*
X420761Y353153D01*
X418812Y349255D02*
X414914Y349255D01*
X459296Y351346D02*
X470989Y351346D01*
X470989Y357192D01*
X469040Y359141D01*
X465142Y359141D01*
X463193Y357192D01*
X463193Y351346D01*
X463193Y355243D02*
X459296Y359141D01*
X461244Y363039D02*
X459296Y364988D01*
X459296Y368886D01*
X461244Y370835D01*
X469040Y370835D01*
X470989Y368886D01*
X470989Y364988D01*
X469040Y363039D01*
X467091Y363039D01*
X465142Y364988D01*
X465142Y370835D01*
X378333Y407474D02*
X378333Y411372D01*
X378333Y409423D02*
X390027Y409423D01*
X390027Y407474D02*
X390027Y411372D01*
X390027Y421117D02*
X388078Y423066D01*
X390027Y421117D02*
X390027Y417219D01*
X388078Y415270D01*
X380282Y415270D01*
X378333Y417219D01*
X378333Y421117D01*
X380282Y423066D01*
X390027Y426964D02*
X390027Y434760D01*
X390027Y426964D02*
X384180Y426964D01*
X386129Y430862D01*
X386129Y432811D01*
X384180Y434760D01*
X380282Y434760D01*
X378333Y432811D01*
X378333Y428913D01*
X380282Y426964D01*
X147216Y168145D02*
X147216Y165389D01*
X147216Y168145D02*
X149972Y170901D01*
X152728Y170901D01*
X158241Y165389D01*
X158241Y162632D01*
X155485Y159876D01*
X152728Y159876D01*
X145838Y161254D02*
X140325Y161254D01*
X148594Y152985D01*
X145838Y150229D02*
X151350Y155742D01*
X141703Y148851D02*
X136191Y154363D01*
X133434Y154363D01*
X130678Y151607D01*
X130678Y148851D01*
X136191Y143338D01*
X138947Y143338D01*
X141703Y146095D01*
X141703Y148851D01*
X130678Y148851D01*
X263553Y136938D02*
X263553Y134182D01*
X263553Y136938D02*
X266309Y139694D01*
X269065Y139694D01*
X274578Y134182D01*
X274578Y131425D01*
X271822Y128669D01*
X269065Y128669D01*
X267687Y124534D02*
X262175Y119022D01*
X267687Y124534D02*
X256662Y124534D01*
X255284Y125913D01*
X255284Y128669D01*
X258040Y131425D01*
X260797Y131425D01*
X251149Y124534D02*
X245637Y119022D01*
X251149Y124534D02*
X255284Y120400D01*
X251150Y119022D01*
X249771Y117644D01*
X249771Y114887D01*
X252528Y112131D01*
X255284Y112131D01*
X258040Y114887D01*
X258040Y117644D01*
X292459Y258338D02*
X292459Y261094D01*
X295216Y263851D01*
X297972Y263851D01*
X303484Y258338D01*
X303484Y255582D01*
X300728Y252825D01*
X297972Y252825D01*
X291081Y254203D02*
X285568Y254203D01*
X293837Y245935D01*
X296594Y248691D02*
X291081Y243178D01*
X286947Y241800D02*
X281434Y247313D01*
X278678Y247313D01*
X275921Y244556D01*
X275921Y241800D01*
X281434Y236288D01*
X284190Y236288D01*
X286947Y239044D01*
X286947Y241800D01*
X275921Y241800D01*
X271787Y240422D02*
X266274Y234909D01*
X267653Y233531D01*
X278678Y233531D01*
X280056Y232153D01*
X149069Y149766D02*
X140800Y141497D01*
X149069Y149766D02*
X144935Y153901D01*
X142178Y153901D01*
X139422Y151144D01*
X139422Y148388D01*
X143556Y144254D01*
X140800Y147010D02*
X135287Y147010D01*
X138044Y155279D02*
X138044Y160791D01*
X129775Y152522D01*
X132531Y149766D02*
X127019Y155279D01*
X125640Y159413D02*
X131153Y164926D01*
X131153Y167682D01*
X128397Y170438D01*
X125640Y170438D01*
X120128Y164926D01*
X120128Y162170D01*
X122884Y159413D01*
X125640Y159413D01*
X125640Y170438D01*
X115993Y166304D02*
X110481Y171817D01*
X115993Y166304D02*
X115993Y177329D01*
X117372Y178707D01*
X120128Y178707D01*
X122884Y175951D01*
X122884Y173195D01*
X213771Y150656D02*
X222040Y142387D01*
X213771Y150656D02*
X209637Y146522D01*
X209637Y143766D01*
X212393Y141009D01*
X215149Y141009D01*
X219284Y145144D01*
X216528Y142387D02*
X216528Y136875D01*
X208259Y139631D02*
X202746Y139631D01*
X211015Y131362D01*
X208259Y128606D02*
X213771Y134119D01*
X204124Y127228D02*
X198612Y132740D01*
X195855Y132740D01*
X193099Y129984D01*
X193099Y127228D01*
X198612Y121715D01*
X201368Y121715D01*
X204124Y124471D01*
X204124Y127228D01*
X193099Y127228D01*
X184830Y121715D02*
X193099Y113446D01*
X193099Y121715D02*
X184830Y121715D01*
X187587Y116203D02*
X193099Y121715D01*
X157933Y232221D02*
X166202Y240490D01*
X162067Y244624D01*
X159311Y244624D01*
X156555Y241868D01*
X156555Y239112D01*
X160689Y234977D01*
X157933Y237734D02*
X152420Y237734D01*
X155177Y246002D02*
X155177Y251515D01*
X146908Y243246D01*
X149664Y240490D02*
X144152Y246002D01*
X142773Y250137D02*
X148286Y255649D01*
X148286Y258406D01*
X145530Y261162D01*
X142773Y261162D01*
X137261Y255649D01*
X137261Y252893D01*
X140017Y250137D01*
X142773Y250137D01*
X142773Y261162D01*
X141395Y265297D02*
X135883Y270809D01*
X141395Y265297D02*
X137261Y261162D01*
X135883Y265296D01*
X134504Y266675D01*
X131748Y266675D01*
X128992Y263918D01*
X128992Y261162D01*
X131748Y258406D01*
X134504Y258406D01*
X179676Y256009D02*
X182433Y256009D01*
X185189Y253253D01*
X185189Y250497D01*
X179676Y244984D01*
X176920Y244984D01*
X174164Y247740D01*
X174164Y250497D01*
X174164Y261522D02*
X172786Y265656D01*
X174164Y261522D02*
X174164Y256009D01*
X171407Y253253D01*
X168651Y253253D01*
X165895Y256009D01*
X165895Y258765D01*
X167273Y260144D01*
X170029Y260144D01*
X174164Y256009D01*
X170029Y268413D02*
X164517Y273925D01*
X170029Y268413D02*
X165895Y264278D01*
X164517Y268412D01*
X163138Y269791D01*
X160382Y269791D01*
X157626Y267034D01*
X157626Y264278D01*
X160382Y261522D01*
X163138Y261522D01*
X261160Y188427D02*
X269429Y180158D01*
X261160Y188427D02*
X257026Y184292D01*
X257026Y181536D01*
X259782Y178780D01*
X262538Y178780D01*
X266673Y182914D01*
X263916Y180158D02*
X263916Y174645D01*
X255648Y177402D02*
X250135Y177402D01*
X258404Y169133D01*
X261160Y171889D02*
X255648Y166376D01*
X251513Y164998D02*
X246001Y170511D01*
X243244Y170511D01*
X240488Y167754D01*
X240488Y164998D01*
X246001Y159486D01*
X248757Y159486D01*
X251513Y162242D01*
X251513Y164998D01*
X240488Y164998D01*
X236354Y163620D02*
X230841Y158107D01*
X232219Y156729D01*
X243244Y156729D01*
X244622Y155351D01*
X290091Y214601D02*
X290091Y217357D01*
X292847Y220114D01*
X295603Y220114D01*
X301116Y214601D01*
X301116Y211845D01*
X298360Y209089D01*
X295603Y209089D01*
X284578Y209089D02*
X280444Y207710D01*
X284578Y209089D02*
X290091Y209088D01*
X292847Y206332D01*
X292847Y203576D01*
X290091Y200820D01*
X287335Y200820D01*
X285956Y202198D01*
X285956Y204954D01*
X290091Y209088D01*
X276309Y200820D02*
X272175Y199441D01*
X276309Y200820D02*
X281822Y200820D01*
X284578Y198063D01*
X284578Y195307D01*
X281822Y192551D01*
X279066Y192551D01*
X277688Y193929D01*
X277688Y196685D01*
X281822Y200820D01*
X331246Y236381D02*
X339515Y228112D01*
X331246Y236381D02*
X327112Y232247D01*
X327112Y229491D01*
X329868Y226734D01*
X332624Y226734D01*
X336759Y230869D01*
X334003Y228112D02*
X334003Y222600D01*
X325734Y225356D02*
X320221Y225356D01*
X328490Y217087D01*
X325734Y214331D02*
X331246Y219844D01*
X321599Y212953D02*
X316087Y218465D01*
X313330Y218465D01*
X310574Y215709D01*
X310574Y212953D01*
X316087Y207440D01*
X318843Y207440D01*
X321599Y210196D01*
X321599Y212953D01*
X310574Y212953D01*
X307818Y210196D02*
X305062Y210196D01*
X302305Y207440D01*
X302305Y204684D01*
X303683Y203306D01*
X306440Y203306D01*
X306440Y200549D01*
X307818Y199171D01*
X310574Y199171D01*
X313330Y201928D01*
X313330Y204684D01*
X311952Y206062D01*
X309196Y206062D01*
X309196Y208818D01*
X307818Y210196D01*
X309196Y206062D02*
X306440Y203306D01*
X323640Y243987D02*
X315371Y252256D01*
X311237Y248122D01*
X311237Y245366D01*
X313993Y242609D01*
X316749Y242609D01*
X320884Y246744D01*
X318128Y243987D02*
X318128Y238475D01*
X309859Y241231D02*
X304346Y241231D01*
X312615Y232962D01*
X309859Y230206D02*
X315371Y235719D01*
X305724Y228828D02*
X300212Y234340D01*
X297455Y234340D01*
X294699Y231584D01*
X294699Y228828D01*
X300212Y223315D01*
X302968Y223315D01*
X305724Y226071D01*
X305724Y228828D01*
X294699Y228828D01*
X297455Y220559D02*
X297455Y217803D01*
X294699Y215046D01*
X291943Y215046D01*
X286430Y220559D01*
X286430Y223315D01*
X289187Y226071D01*
X291943Y226071D01*
X293321Y224693D01*
X293321Y221937D01*
X289187Y217803D01*
D11*
X262293Y193675D02*
X212725Y243243D01*
X163157Y193675D01*
X210215Y146617D01*
X215235Y146617D02*
X262293Y193675D01*
X215235Y146617D02*
X210215Y146617D01*
X209133Y154880D02*
X209135Y154999D01*
X209141Y155119D01*
X209151Y155238D01*
X209165Y155356D01*
X209183Y155474D01*
X209204Y155592D01*
X209230Y155708D01*
X209259Y155824D01*
X209293Y155939D01*
X209330Y156052D01*
X209371Y156164D01*
X209415Y156275D01*
X209463Y156385D01*
X209515Y156492D01*
X209570Y156598D01*
X209629Y156702D01*
X209692Y156804D01*
X209757Y156903D01*
X209826Y157001D01*
X209898Y157096D01*
X209973Y157189D01*
X210052Y157279D01*
X210133Y157367D01*
X210217Y157451D01*
X210304Y157533D01*
X210393Y157612D01*
X210485Y157688D01*
X210580Y157761D01*
X210677Y157831D01*
X210776Y157897D01*
X210878Y157960D01*
X210981Y158020D01*
X211086Y158076D01*
X211193Y158129D01*
X211302Y158178D01*
X211413Y158224D01*
X211525Y158265D01*
X211638Y158303D01*
X211752Y158338D01*
X211868Y158368D01*
X211984Y158395D01*
X212101Y158417D01*
X212219Y158436D01*
X212338Y158451D01*
X212457Y158462D01*
X212576Y158469D01*
X212695Y158472D01*
X212815Y158471D01*
X212934Y158466D01*
X213053Y158457D01*
X213172Y158444D01*
X213290Y158427D01*
X213407Y158407D01*
X213524Y158382D01*
X213640Y158353D01*
X213755Y158321D01*
X213869Y158285D01*
X213982Y158245D01*
X214093Y158201D01*
X214202Y158154D01*
X214310Y158103D01*
X214417Y158049D01*
X214521Y157991D01*
X214623Y157929D01*
X214724Y157865D01*
X214822Y157796D01*
X214918Y157725D01*
X215011Y157651D01*
X215102Y157573D01*
X215190Y157493D01*
X215275Y157409D01*
X215358Y157323D01*
X215438Y157234D01*
X215515Y157143D01*
X215588Y157049D01*
X215659Y156952D01*
X215726Y156854D01*
X215790Y156753D01*
X215851Y156650D01*
X215908Y156545D01*
X215961Y156439D01*
X216011Y156330D01*
X216058Y156220D01*
X216100Y156109D01*
X216139Y155996D01*
X216175Y155882D01*
X216206Y155766D01*
X216233Y155650D01*
X216257Y155533D01*
X216277Y155415D01*
X216293Y155297D01*
X216305Y155178D01*
X216313Y155059D01*
X216317Y154940D01*
X216317Y154820D01*
X216313Y154701D01*
X216305Y154582D01*
X216293Y154463D01*
X216277Y154345D01*
X216257Y154227D01*
X216233Y154110D01*
X216206Y153994D01*
X216175Y153878D01*
X216139Y153764D01*
X216100Y153651D01*
X216058Y153540D01*
X216011Y153430D01*
X215961Y153321D01*
X215908Y153215D01*
X215851Y153110D01*
X215790Y153007D01*
X215726Y152906D01*
X215659Y152808D01*
X215588Y152711D01*
X215515Y152617D01*
X215438Y152526D01*
X215358Y152437D01*
X215275Y152351D01*
X215190Y152267D01*
X215102Y152187D01*
X215011Y152109D01*
X214918Y152035D01*
X214822Y151964D01*
X214724Y151895D01*
X214623Y151831D01*
X214521Y151769D01*
X214417Y151711D01*
X214310Y151657D01*
X214202Y151606D01*
X214093Y151559D01*
X213982Y151515D01*
X213869Y151475D01*
X213755Y151439D01*
X213640Y151407D01*
X213524Y151378D01*
X213407Y151353D01*
X213290Y151333D01*
X213172Y151316D01*
X213053Y151303D01*
X212934Y151294D01*
X212815Y151289D01*
X212695Y151288D01*
X212576Y151291D01*
X212457Y151298D01*
X212338Y151309D01*
X212219Y151324D01*
X212101Y151343D01*
X211984Y151365D01*
X211868Y151392D01*
X211752Y151422D01*
X211638Y151457D01*
X211525Y151495D01*
X211413Y151536D01*
X211302Y151582D01*
X211193Y151631D01*
X211086Y151684D01*
X210981Y151740D01*
X210878Y151800D01*
X210776Y151863D01*
X210677Y151929D01*
X210580Y151999D01*
X210485Y152072D01*
X210393Y152148D01*
X210304Y152227D01*
X210217Y152309D01*
X210133Y152393D01*
X210052Y152481D01*
X209973Y152571D01*
X209898Y152664D01*
X209826Y152759D01*
X209757Y152857D01*
X209692Y152956D01*
X209629Y153058D01*
X209570Y153162D01*
X209515Y153268D01*
X209463Y153375D01*
X209415Y153485D01*
X209371Y153596D01*
X209330Y153708D01*
X209293Y153821D01*
X209259Y153936D01*
X209230Y154052D01*
X209204Y154168D01*
X209183Y154286D01*
X209165Y154404D01*
X209151Y154522D01*
X209141Y154641D01*
X209135Y154761D01*
X209133Y154880D01*
D12*
X246652Y144804D02*
X248390Y146542D01*
X247521Y145673D02*
X242308Y150886D01*
X243177Y151755D02*
X241439Y150017D01*
X237042Y145620D02*
X237042Y143883D01*
X237042Y145620D02*
X238780Y147358D01*
X240518Y147358D01*
X243993Y143883D01*
X243993Y142145D01*
X242255Y140407D01*
X240518Y140407D01*
X234357Y142935D02*
X230881Y139459D01*
X231750Y138590D01*
X238701Y138590D01*
X239570Y137722D01*
D10*
X239214Y408339D02*
X227521Y408339D01*
X239214Y408339D02*
X239214Y414186D01*
X237265Y416135D01*
X233367Y416135D01*
X231418Y414186D01*
X231418Y408339D01*
X231418Y412237D02*
X227521Y416135D01*
X239214Y420033D02*
X239214Y427828D01*
X237265Y427828D01*
X229469Y420033D01*
X227521Y420033D01*
X237265Y431726D02*
X239214Y433675D01*
X239214Y437573D01*
X237265Y439522D01*
X235316Y439522D01*
X233367Y437573D01*
X231418Y439522D01*
X229469Y439522D01*
X227521Y437573D01*
X227521Y433675D01*
X229469Y431726D01*
X231418Y431726D01*
X233367Y433675D01*
X235316Y431726D01*
X237265Y431726D01*
X233367Y433675D02*
X233367Y437573D01*
X116977Y328964D02*
X105283Y328964D01*
X116977Y328964D02*
X116977Y334811D01*
X115028Y336760D01*
X111130Y336760D01*
X109181Y334811D01*
X109181Y328964D01*
X109181Y332862D02*
X105283Y336760D01*
X116977Y340658D02*
X116977Y348453D01*
X115028Y348453D01*
X107232Y340658D01*
X105283Y340658D01*
X107232Y352351D02*
X105283Y354300D01*
X105283Y358198D01*
X107232Y360147D01*
X115028Y360147D01*
X116977Y358198D01*
X116977Y354300D01*
X115028Y352351D01*
X113079Y352351D01*
X111130Y354300D01*
X111130Y360147D01*
X244983Y430721D02*
X256677Y430721D01*
X256677Y436567D01*
X254728Y438516D01*
X250830Y438516D01*
X248881Y436567D01*
X248881Y430721D01*
X248881Y434618D02*
X244983Y438516D01*
X254728Y442414D02*
X256677Y444363D01*
X256677Y448261D01*
X254728Y450210D01*
X252779Y450210D01*
X250830Y448261D01*
X248881Y450210D01*
X246932Y450210D01*
X244983Y448261D01*
X244983Y444363D01*
X246932Y442414D01*
X248881Y442414D01*
X250830Y444363D01*
X252779Y442414D01*
X254728Y442414D01*
X250830Y444363D02*
X250830Y448261D01*
X246932Y454108D02*
X254728Y454108D01*
X256677Y456057D01*
X256677Y459955D01*
X254728Y461904D01*
X246932Y461904D01*
X244983Y459955D01*
X244983Y456057D01*
X246932Y454108D01*
X254728Y461904D01*
X355092Y489458D02*
X355092Y501152D01*
X355092Y489458D02*
X349245Y489458D01*
X347296Y491407D01*
X347296Y499203D01*
X349245Y501152D01*
X355092Y501152D01*
X337551Y501152D02*
X337551Y489458D01*
X343398Y495305D02*
X337551Y501152D01*
X335602Y495305D02*
X343398Y495305D01*
X387858Y457708D02*
X399552Y457708D01*
X399552Y463555D01*
X397603Y465504D01*
X393705Y465504D01*
X391756Y463555D01*
X391756Y457708D01*
X391756Y461606D02*
X387858Y465504D01*
X399552Y469402D02*
X399552Y477198D01*
X397603Y477198D01*
X389807Y469402D01*
X387858Y469402D01*
X397603Y481096D02*
X399552Y483045D01*
X399552Y486943D01*
X397603Y488892D01*
X395654Y488892D01*
X393705Y486943D01*
X393705Y484994D01*
X393705Y486943D02*
X391756Y488892D01*
X389807Y488892D01*
X387858Y486943D01*
X387858Y483045D01*
X389807Y481096D01*
X175340Y170962D02*
X183609Y162694D01*
X175340Y170962D02*
X171205Y166828D01*
X171205Y164072D01*
X173962Y161315D01*
X176718Y161315D01*
X180853Y165450D01*
X178096Y162694D02*
X178096Y157181D01*
X169827Y159937D02*
X164315Y159937D01*
X172584Y151668D01*
X175340Y154425D02*
X169827Y148912D01*
X161558Y151668D02*
X156046Y151668D01*
X164315Y143399D01*
X167071Y146156D02*
X161558Y140643D01*
D13*
X183515Y389505D02*
X123571Y389509D01*
X183515Y389505D02*
X183515Y455045D01*
X123571Y455041D01*
D14*
X188341Y422275D03*
D10*
X182919Y460883D02*
X182919Y472577D01*
X186817Y472577D02*
X179021Y472577D01*
X169276Y472577D02*
X169276Y460883D01*
X175123Y466730D02*
X169276Y472577D01*
X167327Y466730D02*
X175123Y466730D01*
X272542Y53477D02*
X272542Y41783D01*
X272542Y53477D02*
X266695Y53477D01*
X264746Y51528D01*
X264746Y47630D01*
X266695Y45681D01*
X272542Y45681D01*
X268644Y45681D02*
X264746Y41783D01*
X260848Y49579D02*
X256950Y53477D01*
X256950Y41783D01*
X260848Y41783D02*
X253052Y41783D01*
X243307Y41783D02*
X243307Y53477D01*
X249154Y47630D01*
X241358Y47630D01*
X447324Y86233D02*
X447324Y97927D01*
X441477Y97927D01*
X439528Y95978D01*
X439528Y92080D01*
X441477Y90131D01*
X447324Y90131D01*
X443426Y90131D02*
X439528Y86233D01*
X435630Y94029D02*
X431732Y97927D01*
X431732Y86233D01*
X435630Y86233D02*
X427834Y86233D01*
X423936Y97927D02*
X416140Y97927D01*
X423936Y97927D02*
X423936Y92080D01*
X420038Y94029D01*
X418089Y94029D01*
X416140Y92080D01*
X416140Y88182D01*
X418089Y86233D01*
X421987Y86233D01*
X423936Y88182D01*
X447324Y114808D02*
X447324Y126502D01*
X441477Y126502D01*
X439528Y124553D01*
X439528Y120655D01*
X441477Y118706D01*
X447324Y118706D01*
X443426Y118706D02*
X439528Y114808D01*
X435630Y122604D02*
X431732Y126502D01*
X431732Y114808D01*
X435630Y114808D02*
X427834Y114808D01*
X420038Y124553D02*
X416140Y126502D01*
X420038Y124553D02*
X423936Y120655D01*
X423936Y116757D01*
X421987Y114808D01*
X418089Y114808D01*
X416140Y116757D01*
X416140Y118706D01*
X418089Y120655D01*
X423936Y120655D01*
D13*
X377054Y126484D02*
X351909Y151629D01*
X305571Y105291D01*
X330716Y80146D01*
X377054Y126484D01*
D10*
X324125Y157378D02*
X322447Y157378D01*
X320769Y155700D01*
X320769Y154022D01*
X321608Y153183D01*
X323286Y153183D01*
X324125Y154022D01*
X323286Y153183D02*
X323286Y151505D01*
X324125Y150667D01*
X325802Y150667D01*
X327480Y152344D01*
X327480Y154022D01*
X375515Y113459D02*
X380548Y108425D01*
X380548Y113459D02*
X375515Y113459D01*
X377192Y110103D02*
X380548Y113459D01*
X293332Y124907D02*
X289976Y124907D01*
X295009Y119874D01*
X296687Y121551D02*
X293332Y118196D01*
X308553Y133550D02*
X311908Y136906D01*
X305197Y136906D01*
X304359Y137744D01*
X304359Y139422D01*
X306036Y141100D01*
X307714Y141100D01*
X359536Y116150D02*
X362292Y118907D01*
X360914Y117529D02*
X352645Y125798D01*
X354024Y127176D02*
X351267Y124419D01*
X344377Y117529D02*
X344377Y114772D01*
X344377Y117529D02*
X347133Y120285D01*
X349889Y120285D01*
X355402Y114772D01*
X355402Y112016D01*
X352645Y109260D01*
X349889Y109260D01*
X342998Y110638D02*
X337486Y110638D01*
X345755Y102369D01*
X348511Y105125D02*
X342998Y99613D01*
X338864Y98234D02*
X333351Y103747D01*
X330595Y103747D01*
X327839Y100991D01*
X327839Y98234D01*
X333351Y92722D01*
X336108Y92722D01*
X338864Y95478D01*
X338864Y98234D01*
X327839Y98234D01*
X280566Y166976D02*
X280566Y169732D01*
X283322Y172489D01*
X286078Y172489D01*
X291591Y166976D01*
X291591Y164220D01*
X288835Y161464D01*
X286078Y161464D01*
X283322Y158707D02*
X283322Y155951D01*
X280566Y153195D01*
X277810Y153195D01*
X272297Y158707D01*
X272297Y161464D01*
X275053Y164220D01*
X277810Y164220D01*
X279188Y162842D01*
X279188Y160085D01*
X275053Y155951D01*
M02*
