G04 EAGLE Gerber RS-274X export*
G75*
%MOMM*%
%FSLAX34Y34*%
%LPD*%
%INSilkscreen Top*%
%IPPOS*%
%AMOC8*
5,1,8,0,0,1.08239X$1,22.5*%
G01*
%ADD10C,0.101600*%
%ADD11C,0.127000*%
%ADD12R,3.810000X0.635000*%
%ADD13C,0.076200*%
%ADD14C,0.203200*%
%ADD15R,0.762000X0.863600*%
%ADD16R,2.799800X0.900200*%
%ADD17C,0.152400*%
%ADD18C,0.254000*%

G36*
X159940Y396302D02*
X159940Y396302D01*
X160006Y396304D01*
X160049Y396322D01*
X160096Y396330D01*
X160153Y396364D01*
X160213Y396389D01*
X160248Y396420D01*
X160289Y396445D01*
X160331Y396496D01*
X160379Y396540D01*
X160401Y396582D01*
X160430Y396619D01*
X160451Y396681D01*
X160482Y396740D01*
X160490Y396794D01*
X160502Y396831D01*
X160501Y396871D01*
X160509Y396925D01*
X160509Y434925D01*
X160498Y434990D01*
X160496Y435056D01*
X160478Y435099D01*
X160470Y435146D01*
X160436Y435203D01*
X160411Y435263D01*
X160380Y435298D01*
X160355Y435339D01*
X160304Y435381D01*
X160260Y435429D01*
X160218Y435451D01*
X160181Y435480D01*
X160119Y435501D01*
X160060Y435532D01*
X160006Y435540D01*
X159969Y435552D01*
X159929Y435551D01*
X159875Y435559D01*
X153875Y435559D01*
X153810Y435548D01*
X153744Y435546D01*
X153701Y435528D01*
X153654Y435520D01*
X153597Y435486D01*
X153537Y435461D01*
X153502Y435430D01*
X153461Y435405D01*
X153420Y435354D01*
X153371Y435310D01*
X153349Y435268D01*
X153320Y435231D01*
X153299Y435169D01*
X153268Y435110D01*
X153260Y435056D01*
X153248Y435019D01*
X153249Y434979D01*
X153241Y434925D01*
X153241Y396925D01*
X153252Y396860D01*
X153254Y396794D01*
X153272Y396751D01*
X153280Y396704D01*
X153314Y396647D01*
X153339Y396587D01*
X153370Y396552D01*
X153395Y396511D01*
X153446Y396470D01*
X153490Y396421D01*
X153532Y396399D01*
X153569Y396370D01*
X153631Y396349D01*
X153690Y396318D01*
X153744Y396310D01*
X153781Y396298D01*
X153821Y396299D01*
X153875Y396291D01*
X159875Y396291D01*
X159940Y396302D01*
G37*
G36*
X116940Y403302D02*
X116940Y403302D01*
X117006Y403304D01*
X117049Y403322D01*
X117096Y403330D01*
X117153Y403364D01*
X117213Y403389D01*
X117248Y403420D01*
X117289Y403445D01*
X117331Y403496D01*
X117379Y403540D01*
X117401Y403582D01*
X117430Y403619D01*
X117451Y403681D01*
X117482Y403740D01*
X117490Y403794D01*
X117502Y403831D01*
X117501Y403871D01*
X117509Y403925D01*
X117509Y427925D01*
X117498Y427990D01*
X117496Y428056D01*
X117478Y428099D01*
X117470Y428146D01*
X117436Y428203D01*
X117411Y428263D01*
X117380Y428298D01*
X117355Y428339D01*
X117304Y428381D01*
X117260Y428429D01*
X117218Y428451D01*
X117181Y428480D01*
X117119Y428501D01*
X117060Y428532D01*
X117006Y428540D01*
X116969Y428552D01*
X116929Y428551D01*
X116875Y428559D01*
X114875Y428559D01*
X114810Y428548D01*
X114744Y428546D01*
X114701Y428528D01*
X114654Y428520D01*
X114597Y428486D01*
X114537Y428461D01*
X114502Y428430D01*
X114461Y428405D01*
X114420Y428354D01*
X114371Y428310D01*
X114349Y428268D01*
X114320Y428231D01*
X114299Y428169D01*
X114268Y428110D01*
X114260Y428056D01*
X114248Y428019D01*
X114249Y427979D01*
X114241Y427925D01*
X114241Y403925D01*
X114252Y403860D01*
X114254Y403794D01*
X114272Y403751D01*
X114280Y403704D01*
X114314Y403647D01*
X114339Y403587D01*
X114370Y403552D01*
X114395Y403511D01*
X114446Y403470D01*
X114490Y403421D01*
X114532Y403399D01*
X114569Y403370D01*
X114631Y403349D01*
X114690Y403318D01*
X114744Y403310D01*
X114781Y403298D01*
X114821Y403299D01*
X114875Y403291D01*
X116875Y403291D01*
X116940Y403302D01*
G37*
G36*
X170940Y403302D02*
X170940Y403302D01*
X171006Y403304D01*
X171049Y403322D01*
X171096Y403330D01*
X171153Y403364D01*
X171213Y403389D01*
X171248Y403420D01*
X171289Y403445D01*
X171331Y403496D01*
X171379Y403540D01*
X171401Y403582D01*
X171430Y403619D01*
X171451Y403681D01*
X171482Y403740D01*
X171490Y403794D01*
X171502Y403831D01*
X171501Y403871D01*
X171509Y403925D01*
X171509Y427925D01*
X171498Y427990D01*
X171496Y428056D01*
X171478Y428099D01*
X171470Y428146D01*
X171436Y428203D01*
X171411Y428263D01*
X171380Y428298D01*
X171355Y428339D01*
X171304Y428381D01*
X171260Y428429D01*
X171218Y428451D01*
X171181Y428480D01*
X171119Y428501D01*
X171060Y428532D01*
X171006Y428540D01*
X170969Y428552D01*
X170929Y428551D01*
X170875Y428559D01*
X168875Y428559D01*
X168810Y428548D01*
X168744Y428546D01*
X168701Y428528D01*
X168654Y428520D01*
X168597Y428486D01*
X168537Y428461D01*
X168502Y428430D01*
X168461Y428405D01*
X168420Y428354D01*
X168371Y428310D01*
X168349Y428268D01*
X168320Y428231D01*
X168299Y428169D01*
X168268Y428110D01*
X168260Y428056D01*
X168248Y428019D01*
X168249Y427979D01*
X168241Y427925D01*
X168241Y403925D01*
X168252Y403860D01*
X168254Y403794D01*
X168272Y403751D01*
X168280Y403704D01*
X168314Y403647D01*
X168339Y403587D01*
X168370Y403552D01*
X168395Y403511D01*
X168446Y403470D01*
X168490Y403421D01*
X168532Y403399D01*
X168569Y403370D01*
X168631Y403349D01*
X168690Y403318D01*
X168744Y403310D01*
X168781Y403298D01*
X168821Y403299D01*
X168875Y403291D01*
X170875Y403291D01*
X170940Y403302D01*
G37*
D10*
X54326Y132852D02*
X54326Y121158D01*
X54326Y125056D02*
X62122Y132852D01*
X56275Y127005D02*
X62122Y121158D01*
X66020Y121158D02*
X66020Y132852D01*
X66020Y121158D02*
X73816Y121158D01*
X77714Y128954D02*
X81612Y132852D01*
X81612Y121158D01*
X77714Y121158D02*
X85510Y121158D01*
D11*
X116875Y396925D02*
X116875Y434925D01*
X116875Y396925D02*
X168875Y396925D01*
X168875Y434925D01*
X116875Y434925D01*
X142875Y423925D02*
X142875Y407925D01*
X153875Y415925D01*
X142875Y423925D01*
D10*
X190650Y447500D02*
X190650Y492300D01*
X152250Y492300D02*
X152250Y447500D01*
D12*
X171450Y460375D03*
D11*
X171450Y463550D02*
X184150Y476250D01*
X158750Y476250D01*
X171450Y463550D01*
D10*
X145542Y451358D02*
X133848Y451358D01*
X145542Y451358D02*
X145542Y457205D01*
X143593Y459154D01*
X135797Y459154D01*
X133848Y457205D01*
X133848Y451358D01*
X145542Y463052D02*
X145542Y470848D01*
X145542Y463052D02*
X137746Y470848D01*
X135797Y470848D01*
X133848Y468899D01*
X133848Y465001D01*
X135797Y463052D01*
X145673Y455326D02*
X157367Y455326D01*
X145673Y455326D02*
X145673Y461173D01*
X147622Y463122D01*
X151520Y463122D01*
X153469Y461173D01*
X153469Y455326D01*
X153469Y459224D02*
X157367Y463122D01*
X157367Y467020D02*
X157367Y474816D01*
X157367Y467020D02*
X149571Y474816D01*
X147622Y474816D01*
X145673Y472867D01*
X145673Y468969D01*
X147622Y467020D01*
X147622Y478714D02*
X145673Y480663D01*
X145673Y484561D01*
X147622Y486510D01*
X149571Y486510D01*
X151520Y484561D01*
X151520Y482612D01*
X151520Y484561D02*
X153469Y486510D01*
X155418Y486510D01*
X157367Y484561D01*
X157367Y480663D01*
X155418Y478714D01*
D13*
X188631Y438452D02*
X187063Y436884D01*
X187063Y433749D01*
X188631Y432181D01*
X194901Y432181D01*
X196469Y433749D01*
X196469Y436884D01*
X194901Y438452D01*
X196469Y441536D02*
X196469Y447807D01*
X196469Y441536D02*
X190198Y447807D01*
X188631Y447807D01*
X187063Y446239D01*
X187063Y443104D01*
X188631Y441536D01*
X187063Y450891D02*
X187063Y457162D01*
X188631Y457162D01*
X194901Y450891D01*
X196469Y450891D01*
D10*
X354945Y148727D02*
X354945Y137033D01*
X354945Y148727D02*
X360792Y148727D01*
X362741Y146778D01*
X362741Y142880D01*
X360792Y140931D01*
X354945Y140931D01*
X358843Y140931D02*
X362741Y137033D01*
X366639Y148727D02*
X374435Y148727D01*
X366639Y148727D02*
X366639Y142880D01*
X370537Y144829D01*
X372486Y144829D01*
X374435Y142880D01*
X374435Y138982D01*
X372486Y137033D01*
X368588Y137033D01*
X366639Y138982D01*
X343251Y159258D02*
X343251Y170952D01*
X349098Y170952D01*
X351047Y169003D01*
X351047Y165105D01*
X349098Y163156D01*
X343251Y163156D01*
X347149Y163156D02*
X351047Y159258D01*
X354945Y167054D02*
X358843Y170952D01*
X358843Y159258D01*
X354945Y159258D02*
X362741Y159258D01*
X366639Y169003D02*
X368588Y170952D01*
X372486Y170952D01*
X374435Y169003D01*
X374435Y167054D01*
X372486Y165105D01*
X370537Y165105D01*
X372486Y165105D02*
X374435Y163156D01*
X374435Y161207D01*
X372486Y159258D01*
X368588Y159258D01*
X366639Y161207D01*
X343251Y181483D02*
X343251Y193177D01*
X349098Y193177D01*
X351047Y191228D01*
X351047Y187330D01*
X349098Y185381D01*
X343251Y185381D01*
X347149Y185381D02*
X351047Y181483D01*
X354945Y189279D02*
X358843Y193177D01*
X358843Y181483D01*
X354945Y181483D02*
X362741Y181483D01*
X366639Y191228D02*
X368588Y193177D01*
X372486Y193177D01*
X374435Y191228D01*
X374435Y189279D01*
X372486Y187330D01*
X374435Y185381D01*
X374435Y183432D01*
X372486Y181483D01*
X368588Y181483D01*
X366639Y183432D01*
X366639Y185381D01*
X368588Y187330D01*
X366639Y189279D01*
X366639Y191228D01*
X368588Y187330D02*
X372486Y187330D01*
X343251Y203708D02*
X343251Y215402D01*
X349098Y215402D01*
X351047Y213453D01*
X351047Y209555D01*
X349098Y207606D01*
X343251Y207606D01*
X347149Y207606D02*
X351047Y203708D01*
X354945Y213453D02*
X356894Y215402D01*
X360792Y215402D01*
X362741Y213453D01*
X362741Y211504D01*
X360792Y209555D01*
X358843Y209555D01*
X360792Y209555D02*
X362741Y207606D01*
X362741Y205657D01*
X360792Y203708D01*
X356894Y203708D01*
X354945Y205657D01*
X366639Y205657D02*
X366639Y213453D01*
X368588Y215402D01*
X372486Y215402D01*
X374435Y213453D01*
X374435Y205657D01*
X372486Y203708D01*
X368588Y203708D01*
X366639Y205657D01*
X374435Y213453D01*
X403073Y215402D02*
X405022Y213453D01*
X403073Y215402D02*
X399175Y215402D01*
X397226Y213453D01*
X397226Y205657D01*
X399175Y203708D01*
X403073Y203708D01*
X405022Y205657D01*
X408920Y203708D02*
X416716Y203708D01*
X408920Y203708D02*
X416716Y211504D01*
X416716Y213453D01*
X414767Y215402D01*
X410869Y215402D01*
X408920Y213453D01*
X420614Y213453D02*
X422563Y215402D01*
X426461Y215402D01*
X428410Y213453D01*
X428410Y211504D01*
X426461Y209555D01*
X428410Y207606D01*
X428410Y205657D01*
X426461Y203708D01*
X422563Y203708D01*
X420614Y205657D01*
X420614Y207606D01*
X422563Y209555D01*
X420614Y211504D01*
X420614Y213453D01*
X422563Y209555D02*
X426461Y209555D01*
X403073Y170952D02*
X405022Y169003D01*
X403073Y170952D02*
X399175Y170952D01*
X397226Y169003D01*
X397226Y161207D01*
X399175Y159258D01*
X403073Y159258D01*
X405022Y161207D01*
X408920Y169003D02*
X410869Y170952D01*
X414767Y170952D01*
X416716Y169003D01*
X416716Y167054D01*
X414767Y165105D01*
X412818Y165105D01*
X414767Y165105D02*
X416716Y163156D01*
X416716Y161207D01*
X414767Y159258D01*
X410869Y159258D01*
X408920Y161207D01*
X420614Y161207D02*
X420614Y169003D01*
X422563Y170952D01*
X426461Y170952D01*
X428410Y169003D01*
X428410Y161207D01*
X426461Y159258D01*
X422563Y159258D01*
X420614Y161207D01*
X428410Y169003D01*
X405022Y146778D02*
X403073Y148727D01*
X399175Y148727D01*
X397226Y146778D01*
X397226Y138982D01*
X399175Y137033D01*
X403073Y137033D01*
X405022Y138982D01*
X408920Y146778D02*
X410869Y148727D01*
X414767Y148727D01*
X416716Y146778D01*
X416716Y144829D01*
X414767Y142880D01*
X412818Y142880D01*
X414767Y142880D02*
X416716Y140931D01*
X416716Y138982D01*
X414767Y137033D01*
X410869Y137033D01*
X408920Y138982D01*
X424512Y146778D02*
X428410Y148727D01*
X424512Y146778D02*
X420614Y142880D01*
X420614Y138982D01*
X422563Y137033D01*
X426461Y137033D01*
X428410Y138982D01*
X428410Y140931D01*
X426461Y142880D01*
X420614Y142880D01*
X343251Y126502D02*
X343251Y114808D01*
X343251Y126502D02*
X349098Y126502D01*
X351047Y124553D01*
X351047Y120655D01*
X349098Y118706D01*
X343251Y118706D01*
X347149Y118706D02*
X351047Y114808D01*
X354945Y124553D02*
X356894Y126502D01*
X360792Y126502D01*
X362741Y124553D01*
X362741Y122604D01*
X360792Y120655D01*
X358843Y120655D01*
X360792Y120655D02*
X362741Y118706D01*
X362741Y116757D01*
X360792Y114808D01*
X356894Y114808D01*
X354945Y116757D01*
X372486Y114808D02*
X372486Y126502D01*
X366639Y120655D01*
X374435Y120655D01*
X413258Y152908D02*
X413258Y164602D01*
X419105Y164602D01*
X421054Y162653D01*
X421054Y158755D01*
X419105Y156806D01*
X413258Y156806D01*
X417156Y156806D02*
X421054Y152908D01*
X424952Y162653D02*
X426901Y164602D01*
X430799Y164602D01*
X432748Y162653D01*
X432748Y160704D01*
X430799Y158755D01*
X428850Y158755D01*
X430799Y158755D02*
X432748Y156806D01*
X432748Y154857D01*
X430799Y152908D01*
X426901Y152908D01*
X424952Y154857D01*
X436646Y164602D02*
X444442Y164602D01*
X436646Y164602D02*
X436646Y158755D01*
X440544Y160704D01*
X442493Y160704D01*
X444442Y158755D01*
X444442Y154857D01*
X442493Y152908D01*
X438595Y152908D01*
X436646Y154857D01*
X345567Y454376D02*
X333873Y454376D01*
X333873Y460223D01*
X335822Y462172D01*
X339720Y462172D01*
X341669Y460223D01*
X341669Y454376D01*
X341669Y458274D02*
X345567Y462172D01*
X335822Y466070D02*
X333873Y468019D01*
X333873Y471917D01*
X335822Y473866D01*
X337771Y473866D01*
X339720Y471917D01*
X339720Y469968D01*
X339720Y471917D02*
X341669Y473866D01*
X343618Y473866D01*
X345567Y471917D01*
X345567Y468019D01*
X343618Y466070D01*
X333873Y477764D02*
X333873Y485560D01*
X335822Y485560D01*
X343618Y477764D01*
X345567Y477764D01*
X329692Y476758D02*
X317998Y476758D01*
X317998Y482605D01*
X319947Y484554D01*
X323845Y484554D01*
X325794Y482605D01*
X325794Y476758D01*
X325794Y480656D02*
X329692Y484554D01*
X329692Y494299D02*
X317998Y494299D01*
X323845Y488452D01*
X323845Y496248D01*
X317998Y500146D02*
X317998Y507942D01*
X319947Y507942D01*
X327743Y500146D01*
X329692Y500146D01*
X387848Y478267D02*
X389797Y480216D01*
X387848Y478267D02*
X387848Y474369D01*
X389797Y472420D01*
X397593Y472420D01*
X399542Y474369D01*
X399542Y478267D01*
X397593Y480216D01*
X391746Y484114D02*
X387848Y488012D01*
X399542Y488012D01*
X399542Y484114D02*
X399542Y491910D01*
X308835Y480216D02*
X306886Y478267D01*
X306886Y474369D01*
X308835Y472420D01*
X316631Y472420D01*
X318580Y474369D01*
X318580Y478267D01*
X316631Y480216D01*
X318580Y484114D02*
X318580Y491910D01*
X318580Y484114D02*
X310784Y491910D01*
X308835Y491910D01*
X306886Y489961D01*
X306886Y486063D01*
X308835Y484114D01*
X248510Y252779D02*
X246561Y250830D01*
X246561Y246932D01*
X248510Y244983D01*
X256306Y244983D01*
X258255Y246932D01*
X258255Y250830D01*
X256306Y252779D01*
X248510Y256677D02*
X246561Y258626D01*
X246561Y262524D01*
X248510Y264473D01*
X250459Y264473D01*
X252408Y262524D01*
X252408Y260575D01*
X252408Y262524D02*
X254357Y264473D01*
X256306Y264473D01*
X258255Y262524D01*
X258255Y258626D01*
X256306Y256677D01*
X258255Y274218D02*
X246561Y274218D01*
X252408Y268371D01*
X252408Y276167D01*
X269147Y252779D02*
X267198Y250830D01*
X267198Y246932D01*
X269147Y244983D01*
X276943Y244983D01*
X278892Y246932D01*
X278892Y250830D01*
X276943Y252779D01*
X278892Y256677D02*
X278892Y264473D01*
X278892Y256677D02*
X271096Y264473D01*
X269147Y264473D01*
X267198Y262524D01*
X267198Y258626D01*
X269147Y256677D01*
X269147Y268371D02*
X276943Y268371D01*
X269147Y268371D02*
X267198Y270320D01*
X267198Y274218D01*
X269147Y276167D01*
X276943Y276167D01*
X278892Y274218D01*
X278892Y270320D01*
X276943Y268371D01*
X269147Y276167D01*
X374498Y242389D02*
X376447Y240440D01*
X374498Y242389D02*
X370600Y242389D01*
X368651Y240440D01*
X368651Y232644D01*
X370600Y230696D01*
X374498Y230696D01*
X376447Y232644D01*
X380345Y230696D02*
X388141Y230696D01*
X388141Y238491D02*
X380345Y230696D01*
X388141Y238491D02*
X388141Y240440D01*
X386192Y242389D01*
X382294Y242389D01*
X380345Y240440D01*
X392039Y240440D02*
X393988Y242389D01*
X397886Y242389D01*
X399835Y240440D01*
X399835Y238491D01*
X397886Y236542D01*
X395937Y236542D01*
X397886Y236542D02*
X399835Y234593D01*
X399835Y232644D01*
X397886Y230696D01*
X393988Y230696D01*
X392039Y232644D01*
D14*
X218415Y122195D02*
X128375Y122195D01*
X218415Y122195D02*
X218415Y23855D01*
X128375Y23855D01*
D15*
X222641Y73025D03*
D16*
X233425Y47625D03*
X233425Y98425D03*
D10*
X245549Y22733D02*
X249447Y22733D01*
X247498Y22733D02*
X247498Y34427D01*
X245549Y34427D02*
X249447Y34427D01*
X259192Y34427D02*
X261141Y32478D01*
X259192Y34427D02*
X255294Y34427D01*
X253345Y32478D01*
X253345Y24682D01*
X255294Y22733D01*
X259192Y22733D01*
X261141Y24682D01*
X270886Y22733D02*
X270886Y34427D01*
X265039Y28580D01*
X272835Y28580D01*
D11*
X213675Y306250D02*
X213675Y392250D01*
X213675Y306250D02*
X173675Y306250D01*
X173675Y392250D01*
X213675Y392250D01*
X176847Y386250D02*
X176849Y386356D01*
X176855Y386461D01*
X176865Y386567D01*
X176879Y386671D01*
X176896Y386776D01*
X176918Y386879D01*
X176943Y386982D01*
X176973Y387084D01*
X177006Y387184D01*
X177042Y387283D01*
X177083Y387381D01*
X177127Y387477D01*
X177175Y387571D01*
X177226Y387664D01*
X177280Y387755D01*
X177338Y387843D01*
X177400Y387929D01*
X177464Y388013D01*
X177531Y388095D01*
X177602Y388174D01*
X177675Y388250D01*
X177751Y388323D01*
X177830Y388394D01*
X177912Y388461D01*
X177996Y388525D01*
X178082Y388587D01*
X178170Y388645D01*
X178261Y388699D01*
X178354Y388750D01*
X178448Y388798D01*
X178544Y388842D01*
X178642Y388883D01*
X178741Y388919D01*
X178841Y388952D01*
X178943Y388982D01*
X179046Y389007D01*
X179149Y389029D01*
X179254Y389046D01*
X179358Y389060D01*
X179464Y389070D01*
X179569Y389076D01*
X179675Y389078D01*
X179781Y389076D01*
X179886Y389070D01*
X179992Y389060D01*
X180096Y389046D01*
X180201Y389029D01*
X180304Y389007D01*
X180407Y388982D01*
X180509Y388952D01*
X180609Y388919D01*
X180708Y388883D01*
X180806Y388842D01*
X180902Y388798D01*
X180996Y388750D01*
X181089Y388699D01*
X181180Y388645D01*
X181268Y388587D01*
X181354Y388525D01*
X181438Y388461D01*
X181520Y388394D01*
X181599Y388323D01*
X181675Y388250D01*
X181748Y388174D01*
X181819Y388095D01*
X181886Y388013D01*
X181950Y387929D01*
X182012Y387843D01*
X182070Y387755D01*
X182124Y387664D01*
X182175Y387571D01*
X182223Y387477D01*
X182267Y387381D01*
X182308Y387283D01*
X182344Y387184D01*
X182377Y387084D01*
X182407Y386982D01*
X182432Y386879D01*
X182454Y386776D01*
X182471Y386671D01*
X182485Y386567D01*
X182495Y386461D01*
X182501Y386356D01*
X182503Y386250D01*
X182501Y386144D01*
X182495Y386039D01*
X182485Y385933D01*
X182471Y385829D01*
X182454Y385724D01*
X182432Y385621D01*
X182407Y385518D01*
X182377Y385416D01*
X182344Y385316D01*
X182308Y385217D01*
X182267Y385119D01*
X182223Y385023D01*
X182175Y384929D01*
X182124Y384836D01*
X182070Y384745D01*
X182012Y384657D01*
X181950Y384571D01*
X181886Y384487D01*
X181819Y384405D01*
X181748Y384326D01*
X181675Y384250D01*
X181599Y384177D01*
X181520Y384106D01*
X181438Y384039D01*
X181354Y383975D01*
X181268Y383913D01*
X181180Y383855D01*
X181089Y383801D01*
X180996Y383750D01*
X180902Y383702D01*
X180806Y383658D01*
X180708Y383617D01*
X180609Y383581D01*
X180509Y383548D01*
X180407Y383518D01*
X180304Y383493D01*
X180201Y383471D01*
X180096Y383454D01*
X179992Y383440D01*
X179886Y383430D01*
X179781Y383424D01*
X179675Y383422D01*
X179569Y383424D01*
X179464Y383430D01*
X179358Y383440D01*
X179254Y383454D01*
X179149Y383471D01*
X179046Y383493D01*
X178943Y383518D01*
X178841Y383548D01*
X178741Y383581D01*
X178642Y383617D01*
X178544Y383658D01*
X178448Y383702D01*
X178354Y383750D01*
X178261Y383801D01*
X178170Y383855D01*
X178082Y383913D01*
X177996Y383975D01*
X177912Y384039D01*
X177830Y384106D01*
X177751Y384177D01*
X177675Y384250D01*
X177602Y384326D01*
X177531Y384405D01*
X177464Y384487D01*
X177400Y384571D01*
X177338Y384657D01*
X177280Y384745D01*
X177226Y384836D01*
X177175Y384929D01*
X177127Y385023D01*
X177083Y385119D01*
X177042Y385217D01*
X177006Y385316D01*
X176973Y385416D01*
X176943Y385518D01*
X176918Y385621D01*
X176896Y385724D01*
X176879Y385829D01*
X176865Y385933D01*
X176855Y386039D01*
X176849Y386144D01*
X176847Y386250D01*
D10*
X200523Y399395D02*
X212217Y399395D01*
X200523Y399395D02*
X200523Y405242D01*
X202472Y407191D01*
X206370Y407191D01*
X208319Y405242D01*
X208319Y399395D01*
X208319Y403293D02*
X212217Y407191D01*
X204421Y411089D02*
X200523Y414987D01*
X212217Y414987D01*
X212217Y411089D02*
X212217Y418885D01*
X228605Y424952D02*
X230554Y423003D01*
X228605Y424952D02*
X224707Y424952D01*
X222758Y423003D01*
X222758Y415207D01*
X224707Y413258D01*
X228605Y413258D01*
X230554Y415207D01*
X234452Y423003D02*
X236401Y424952D01*
X240299Y424952D01*
X242248Y423003D01*
X242248Y421054D01*
X240299Y419105D01*
X238350Y419105D01*
X240299Y419105D02*
X242248Y417156D01*
X242248Y415207D01*
X240299Y413258D01*
X236401Y413258D01*
X234452Y415207D01*
X283073Y478267D02*
X285022Y480216D01*
X283073Y478267D02*
X283073Y474369D01*
X285022Y472420D01*
X292818Y472420D01*
X294767Y474369D01*
X294767Y478267D01*
X292818Y480216D01*
X294767Y489961D02*
X283073Y489961D01*
X288920Y484114D01*
X288920Y491910D01*
X238476Y15377D02*
X238476Y3683D01*
X238476Y15377D02*
X244323Y15377D01*
X246272Y13428D01*
X246272Y9530D01*
X244323Y7581D01*
X238476Y7581D01*
X242374Y7581D02*
X246272Y3683D01*
X250170Y3683D02*
X257966Y3683D01*
X250170Y3683D02*
X257966Y11479D01*
X257966Y13428D01*
X256017Y15377D01*
X252119Y15377D01*
X250170Y13428D01*
X267711Y15377D02*
X267711Y3683D01*
X261864Y9530D02*
X267711Y15377D01*
X269660Y9530D02*
X261864Y9530D01*
X310354Y122965D02*
X308405Y124914D01*
X304507Y124914D01*
X302558Y122965D01*
X302558Y115169D01*
X304507Y113221D01*
X308405Y113221D01*
X310354Y115169D01*
X318149Y122965D02*
X322047Y124914D01*
X318149Y122965D02*
X314252Y119067D01*
X314252Y115169D01*
X316200Y113221D01*
X320098Y113221D01*
X322047Y115169D01*
X322047Y117118D01*
X320098Y119067D01*
X314252Y119067D01*
X318574Y5588D02*
X322472Y5588D01*
X320523Y5588D02*
X320523Y17282D01*
X318574Y17282D02*
X322472Y17282D01*
X332217Y17282D02*
X334166Y15333D01*
X332217Y17282D02*
X328319Y17282D01*
X326370Y15333D01*
X326370Y7537D01*
X328319Y5588D01*
X332217Y5588D01*
X334166Y7537D01*
X338064Y15333D02*
X340013Y17282D01*
X343911Y17282D01*
X345860Y15333D01*
X345860Y13384D01*
X343911Y11435D01*
X341962Y11435D01*
X343911Y11435D02*
X345860Y9486D01*
X345860Y7537D01*
X343911Y5588D01*
X340013Y5588D01*
X338064Y7537D01*
X199370Y48133D02*
X199370Y59827D01*
X205217Y59827D01*
X207166Y57878D01*
X207166Y53980D01*
X205217Y52031D01*
X199370Y52031D01*
X203268Y52031D02*
X207166Y48133D01*
X211064Y48133D02*
X218860Y48133D01*
X211064Y48133D02*
X218860Y55929D01*
X218860Y57878D01*
X216911Y59827D01*
X213013Y59827D01*
X211064Y57878D01*
D17*
X414848Y302703D02*
X414848Y443423D01*
X414848Y302703D02*
X274128Y302703D01*
X274128Y439103D01*
X278448Y443423D02*
X414848Y443423D01*
X278448Y443423D02*
X274128Y439103D01*
X280098Y431864D02*
X280100Y432013D01*
X280106Y432163D01*
X280116Y432312D01*
X280130Y432461D01*
X280148Y432609D01*
X280170Y432757D01*
X280196Y432904D01*
X280225Y433050D01*
X280259Y433196D01*
X280297Y433341D01*
X280338Y433484D01*
X280383Y433627D01*
X280432Y433768D01*
X280485Y433908D01*
X280541Y434046D01*
X280602Y434183D01*
X280665Y434318D01*
X280733Y434451D01*
X280804Y434583D01*
X280878Y434712D01*
X280956Y434840D01*
X281037Y434965D01*
X281122Y435088D01*
X281210Y435209D01*
X281301Y435328D01*
X281395Y435444D01*
X281492Y435557D01*
X281592Y435668D01*
X281696Y435776D01*
X281802Y435882D01*
X281910Y435984D01*
X282022Y436083D01*
X282136Y436180D01*
X282253Y436273D01*
X282372Y436364D01*
X282493Y436451D01*
X282617Y436534D01*
X282743Y436615D01*
X282871Y436692D01*
X283001Y436765D01*
X283133Y436835D01*
X283267Y436902D01*
X283402Y436965D01*
X283540Y437024D01*
X283678Y437080D01*
X283818Y437131D01*
X283960Y437179D01*
X284103Y437224D01*
X284246Y437264D01*
X284391Y437301D01*
X284537Y437333D01*
X284684Y437362D01*
X284831Y437387D01*
X284979Y437408D01*
X285128Y437425D01*
X285276Y437438D01*
X285426Y437447D01*
X285575Y437452D01*
X285724Y437453D01*
X285874Y437450D01*
X286023Y437443D01*
X286172Y437432D01*
X286321Y437417D01*
X286469Y437398D01*
X286617Y437375D01*
X286764Y437348D01*
X286910Y437318D01*
X287055Y437283D01*
X287200Y437244D01*
X287343Y437202D01*
X287485Y437156D01*
X287626Y437106D01*
X287765Y437052D01*
X287903Y436995D01*
X288040Y436934D01*
X288174Y436869D01*
X288307Y436801D01*
X288438Y436729D01*
X288567Y436654D01*
X288694Y436575D01*
X288819Y436493D01*
X288942Y436407D01*
X289062Y436319D01*
X289180Y436227D01*
X289295Y436132D01*
X289408Y436034D01*
X289518Y435933D01*
X289626Y435829D01*
X289730Y435722D01*
X289832Y435613D01*
X289931Y435501D01*
X290027Y435386D01*
X290119Y435269D01*
X290209Y435149D01*
X290295Y435027D01*
X290378Y434903D01*
X290457Y434776D01*
X290533Y434648D01*
X290606Y434517D01*
X290675Y434385D01*
X290741Y434250D01*
X290803Y434114D01*
X290861Y433977D01*
X290916Y433838D01*
X290967Y433697D01*
X291014Y433556D01*
X291057Y433413D01*
X291097Y433268D01*
X291132Y433123D01*
X291164Y432977D01*
X291192Y432830D01*
X291216Y432683D01*
X291236Y432535D01*
X291252Y432386D01*
X291264Y432237D01*
X291272Y432088D01*
X291276Y431939D01*
X291276Y431789D01*
X291272Y431640D01*
X291264Y431491D01*
X291252Y431342D01*
X291236Y431193D01*
X291216Y431045D01*
X291192Y430898D01*
X291164Y430751D01*
X291132Y430605D01*
X291097Y430460D01*
X291057Y430315D01*
X291014Y430172D01*
X290967Y430031D01*
X290916Y429890D01*
X290861Y429751D01*
X290803Y429614D01*
X290741Y429478D01*
X290675Y429343D01*
X290606Y429211D01*
X290533Y429080D01*
X290457Y428952D01*
X290378Y428825D01*
X290295Y428701D01*
X290209Y428579D01*
X290119Y428459D01*
X290027Y428342D01*
X289931Y428227D01*
X289832Y428115D01*
X289730Y428006D01*
X289626Y427899D01*
X289518Y427795D01*
X289408Y427694D01*
X289295Y427596D01*
X289180Y427501D01*
X289062Y427409D01*
X288942Y427321D01*
X288819Y427235D01*
X288694Y427153D01*
X288567Y427074D01*
X288438Y426999D01*
X288307Y426927D01*
X288174Y426859D01*
X288040Y426794D01*
X287903Y426733D01*
X287765Y426676D01*
X287626Y426622D01*
X287485Y426572D01*
X287343Y426526D01*
X287200Y426484D01*
X287055Y426445D01*
X286910Y426410D01*
X286764Y426380D01*
X286617Y426353D01*
X286469Y426330D01*
X286321Y426311D01*
X286172Y426296D01*
X286023Y426285D01*
X285874Y426278D01*
X285724Y426275D01*
X285575Y426276D01*
X285426Y426281D01*
X285276Y426290D01*
X285128Y426303D01*
X284979Y426320D01*
X284831Y426341D01*
X284684Y426366D01*
X284537Y426395D01*
X284391Y426427D01*
X284246Y426464D01*
X284103Y426504D01*
X283960Y426549D01*
X283818Y426597D01*
X283678Y426648D01*
X283540Y426704D01*
X283402Y426763D01*
X283267Y426826D01*
X283133Y426893D01*
X283001Y426963D01*
X282871Y427036D01*
X282743Y427113D01*
X282617Y427194D01*
X282493Y427277D01*
X282372Y427364D01*
X282253Y427455D01*
X282136Y427548D01*
X282022Y427645D01*
X281910Y427744D01*
X281802Y427846D01*
X281696Y427952D01*
X281592Y428060D01*
X281492Y428171D01*
X281395Y428284D01*
X281301Y428400D01*
X281210Y428519D01*
X281122Y428640D01*
X281037Y428763D01*
X280956Y428888D01*
X280878Y429016D01*
X280804Y429145D01*
X280733Y429277D01*
X280665Y429410D01*
X280602Y429545D01*
X280541Y429682D01*
X280485Y429820D01*
X280432Y429960D01*
X280383Y430101D01*
X280338Y430244D01*
X280297Y430387D01*
X280259Y430532D01*
X280225Y430678D01*
X280196Y430824D01*
X280170Y430971D01*
X280148Y431119D01*
X280130Y431267D01*
X280116Y431416D01*
X280106Y431565D01*
X280100Y431715D01*
X280098Y431864D01*
D10*
X287846Y462598D02*
X291743Y462598D01*
X289794Y462598D02*
X289794Y474291D01*
X287846Y474291D02*
X291743Y474291D01*
X301488Y474291D02*
X303437Y472342D01*
X301488Y474291D02*
X297590Y474291D01*
X295641Y472342D01*
X295641Y464546D01*
X297590Y462598D01*
X301488Y462598D01*
X303437Y464546D01*
X307335Y470393D02*
X311233Y474291D01*
X311233Y462598D01*
X307335Y462598D02*
X315131Y462598D01*
X129379Y299178D02*
X127430Y301127D01*
X123532Y301127D01*
X121583Y299178D01*
X121583Y291382D01*
X123532Y289433D01*
X127430Y289433D01*
X129379Y291382D01*
X133277Y301127D02*
X141072Y301127D01*
X141072Y299178D01*
X133277Y291382D01*
X133277Y289433D01*
X133848Y266045D02*
X145542Y266045D01*
X133848Y266045D02*
X133848Y271892D01*
X135797Y273841D01*
X139695Y273841D01*
X141644Y271892D01*
X141644Y266045D01*
X141644Y269943D02*
X145542Y273841D01*
X135797Y277739D02*
X133848Y279688D01*
X133848Y283586D01*
X135797Y285535D01*
X137746Y285535D01*
X139695Y283586D01*
X139695Y281637D01*
X139695Y283586D02*
X141644Y285535D01*
X143593Y285535D01*
X145542Y283586D01*
X145542Y279688D01*
X143593Y277739D01*
X156073Y266045D02*
X167767Y266045D01*
X156073Y266045D02*
X156073Y271892D01*
X158022Y273841D01*
X161920Y273841D01*
X163869Y271892D01*
X163869Y266045D01*
X163869Y269943D02*
X167767Y273841D01*
X156073Y277739D02*
X156073Y285535D01*
X158022Y285535D01*
X165818Y277739D01*
X167767Y277739D01*
X420233Y467340D02*
X431927Y467340D01*
X431927Y475136D01*
X424131Y479034D02*
X420233Y482932D01*
X431927Y482932D01*
X431927Y479034D02*
X431927Y486830D01*
X408847Y478204D02*
X406898Y476255D01*
X406898Y472357D01*
X408847Y470408D01*
X416643Y470408D01*
X418592Y472357D01*
X418592Y476255D01*
X416643Y478204D01*
X406898Y482102D02*
X406898Y489898D01*
X406898Y482102D02*
X412745Y482102D01*
X410796Y486000D01*
X410796Y487949D01*
X412745Y489898D01*
X416643Y489898D01*
X418592Y487949D01*
X418592Y484051D01*
X416643Y482102D01*
X416643Y493796D02*
X408847Y493796D01*
X406898Y495745D01*
X406898Y499643D01*
X408847Y501592D01*
X416643Y501592D01*
X418592Y499643D01*
X418592Y495745D01*
X416643Y493796D01*
X408847Y501592D01*
D17*
X250825Y301625D02*
X257175Y295275D01*
X238125Y301625D02*
X231775Y295275D01*
X225425Y301625D01*
X212725Y301625D02*
X206375Y295275D01*
X200025Y301625D01*
X187325Y301625D02*
X180975Y295275D01*
X257175Y295275D02*
X257175Y257175D01*
X250825Y250825D01*
X238125Y250825D01*
X231775Y257175D01*
X225425Y250825D01*
X212725Y250825D01*
X206375Y257175D01*
X200025Y250825D01*
X187325Y250825D01*
X180975Y257175D01*
X231775Y257175D02*
X231775Y295275D01*
X206375Y295275D02*
X206375Y257175D01*
X180975Y257175D02*
X180975Y295275D01*
X187325Y301625D02*
X200025Y301625D01*
X212725Y301625D02*
X225425Y301625D01*
X238125Y301625D02*
X250825Y301625D01*
X180975Y295275D02*
X174625Y301625D01*
X161925Y301625D02*
X155575Y295275D01*
X180975Y257175D02*
X174625Y250825D01*
X161925Y250825D01*
X155575Y257175D01*
X155575Y295275D01*
X161925Y301625D02*
X174625Y301625D01*
D11*
X222728Y234317D02*
X224635Y232410D01*
X226541Y232410D01*
X228448Y234317D01*
X228448Y243850D01*
X226541Y243850D02*
X230355Y243850D01*
X234422Y243850D02*
X234422Y232410D01*
X234422Y243850D02*
X240142Y243850D01*
X242049Y241943D01*
X242049Y238130D01*
X240142Y236223D01*
X234422Y236223D01*
X246116Y232410D02*
X253742Y232410D01*
X246116Y232410D02*
X253742Y240037D01*
X253742Y241943D01*
X251836Y243850D01*
X248023Y243850D01*
X246116Y241943D01*
D10*
X238476Y59827D02*
X238476Y48133D01*
X238476Y59827D02*
X244323Y59827D01*
X246272Y57878D01*
X246272Y53980D01*
X244323Y52031D01*
X238476Y52031D01*
X242374Y52031D02*
X246272Y48133D01*
X250170Y55929D02*
X254068Y59827D01*
X254068Y48133D01*
X250170Y48133D02*
X257966Y48133D01*
X261864Y50082D02*
X261864Y57878D01*
X263813Y59827D01*
X267711Y59827D01*
X269660Y57878D01*
X269660Y50082D01*
X267711Y48133D01*
X263813Y48133D01*
X261864Y50082D01*
X269660Y57878D01*
X414767Y193177D02*
X416716Y191228D01*
X414767Y193177D02*
X410869Y193177D01*
X408920Y191228D01*
X408920Y183432D01*
X410869Y181483D01*
X414767Y181483D01*
X416716Y183432D01*
X420614Y191228D02*
X422563Y193177D01*
X426461Y193177D01*
X428410Y191228D01*
X428410Y189279D01*
X426461Y187330D01*
X428410Y185381D01*
X428410Y183432D01*
X426461Y181483D01*
X422563Y181483D01*
X420614Y183432D01*
X420614Y185381D01*
X422563Y187330D01*
X420614Y189279D01*
X420614Y191228D01*
X422563Y187330D02*
X426461Y187330D01*
X245555Y181483D02*
X233861Y181483D01*
X233861Y187330D01*
X235810Y189279D01*
X239708Y189279D01*
X241657Y187330D01*
X241657Y181483D01*
X241657Y185381D02*
X245555Y189279D01*
X237759Y193177D02*
X233861Y197075D01*
X245555Y197075D01*
X245555Y193177D02*
X245555Y200973D01*
X243606Y204871D02*
X235810Y204871D01*
X233861Y206820D01*
X233861Y210718D01*
X235810Y212667D01*
X243606Y212667D01*
X245555Y210718D01*
X245555Y206820D01*
X243606Y204871D01*
X235810Y212667D01*
X235810Y216565D02*
X233861Y218514D01*
X233861Y222412D01*
X235810Y224361D01*
X237759Y224361D01*
X239708Y222412D01*
X239708Y220463D01*
X239708Y222412D02*
X241657Y224361D01*
X243606Y224361D01*
X245555Y222412D01*
X245555Y218514D01*
X243606Y216565D01*
X249736Y147407D02*
X261430Y147407D01*
X249736Y147407D02*
X249736Y153254D01*
X251685Y155203D01*
X255583Y155203D01*
X257532Y153254D01*
X257532Y147407D01*
X257532Y151305D02*
X261430Y155203D01*
X253634Y159101D02*
X249736Y162999D01*
X261430Y162999D01*
X261430Y159101D02*
X261430Y166897D01*
X253634Y170795D02*
X249736Y174693D01*
X261430Y174693D01*
X261430Y170795D02*
X261430Y178591D01*
X259481Y182489D02*
X251685Y182489D01*
X249736Y184438D01*
X249736Y188336D01*
X251685Y190285D01*
X259481Y190285D01*
X261430Y188336D01*
X261430Y184438D01*
X259481Y182489D01*
X251685Y190285D01*
X231623Y143964D02*
X233572Y142015D01*
X231623Y143964D02*
X227725Y143964D01*
X225776Y142015D01*
X225776Y134219D01*
X227725Y132271D01*
X231623Y132271D01*
X233572Y134219D01*
X237470Y140066D02*
X241368Y143964D01*
X241368Y132271D01*
X237470Y132271D02*
X245266Y132271D01*
X255011Y132271D02*
X255011Y143964D01*
X249164Y138117D01*
X256960Y138117D01*
X284661Y180980D02*
X286610Y182929D01*
X284661Y180980D02*
X284661Y177082D01*
X286610Y175133D01*
X294406Y175133D01*
X296355Y177082D01*
X296355Y180980D01*
X294406Y182929D01*
X286610Y186827D02*
X284661Y188776D01*
X284661Y192674D01*
X286610Y194623D01*
X288559Y194623D01*
X290508Y192674D01*
X292457Y194623D01*
X294406Y194623D01*
X296355Y192674D01*
X296355Y188776D01*
X294406Y186827D01*
X292457Y186827D01*
X290508Y188776D01*
X288559Y186827D01*
X286610Y186827D01*
X290508Y188776D02*
X290508Y192674D01*
X296355Y198521D02*
X296355Y206317D01*
X296355Y198521D02*
X288559Y206317D01*
X286610Y206317D01*
X284661Y204368D01*
X284661Y200470D01*
X286610Y198521D01*
X264385Y182929D02*
X262436Y180980D01*
X262436Y177082D01*
X264385Y175133D01*
X272181Y175133D01*
X274130Y177082D01*
X274130Y180980D01*
X272181Y182929D01*
X274130Y192674D02*
X262436Y192674D01*
X268283Y186827D01*
X268283Y194623D01*
X262436Y198521D02*
X262436Y206317D01*
X262436Y198521D02*
X268283Y198521D01*
X266334Y202419D01*
X266334Y204368D01*
X268283Y206317D01*
X272181Y206317D01*
X274130Y204368D01*
X274130Y200470D01*
X272181Y198521D01*
D17*
X461963Y311150D02*
X461963Y323850D01*
X468313Y330200D01*
X481013Y330200D01*
X487363Y323850D01*
X461963Y285750D02*
X468313Y279400D01*
X461963Y285750D02*
X461963Y298450D01*
X468313Y304800D01*
X481013Y304800D01*
X487363Y298450D01*
X487363Y285750D01*
X481013Y279400D01*
X468313Y304800D02*
X461963Y311150D01*
X481013Y304800D02*
X487363Y311150D01*
X487363Y323850D01*
X461963Y247650D02*
X461963Y234950D01*
X461963Y247650D02*
X468313Y254000D01*
X481013Y254000D01*
X487363Y247650D01*
X468313Y254000D02*
X461963Y260350D01*
X461963Y273050D01*
X468313Y279400D01*
X481013Y279400D01*
X487363Y273050D01*
X487363Y260350D01*
X481013Y254000D01*
X481013Y228600D02*
X468313Y228600D01*
X461963Y234950D01*
X481013Y228600D02*
X487363Y234950D01*
X487363Y247650D01*
X461963Y336550D02*
X461963Y349250D01*
X468313Y355600D01*
X481013Y355600D01*
X487363Y349250D01*
X468313Y330200D02*
X461963Y336550D01*
X481013Y330200D02*
X487363Y336550D01*
X487363Y349250D01*
D11*
X455740Y230380D02*
X453833Y228473D01*
X455740Y230380D02*
X455740Y232286D01*
X453833Y234193D01*
X444300Y234193D01*
X444300Y232286D02*
X444300Y236100D01*
X444300Y240167D02*
X455740Y240167D01*
X444300Y240167D02*
X444300Y245887D01*
X446206Y247793D01*
X450020Y247793D01*
X451926Y245887D01*
X451926Y240167D01*
X446206Y251861D02*
X444300Y253768D01*
X444300Y257581D01*
X446206Y259487D01*
X448113Y259487D01*
X450020Y257581D01*
X450020Y255674D01*
X450020Y257581D02*
X451926Y259487D01*
X453833Y259487D01*
X455740Y257581D01*
X455740Y253768D01*
X453833Y251861D01*
D10*
X322472Y59563D02*
X318574Y59563D01*
X320523Y59563D02*
X320523Y71257D01*
X318574Y71257D02*
X322472Y71257D01*
X332217Y71257D02*
X334166Y69308D01*
X332217Y71257D02*
X328319Y71257D01*
X326370Y69308D01*
X326370Y61512D01*
X328319Y59563D01*
X332217Y59563D01*
X334166Y61512D01*
X338064Y61512D02*
X340013Y59563D01*
X343911Y59563D01*
X345860Y61512D01*
X345860Y69308D01*
X343911Y71257D01*
X340013Y71257D01*
X338064Y69308D01*
X338064Y67359D01*
X340013Y65410D01*
X345860Y65410D01*
X238476Y92583D02*
X238476Y104277D01*
X244323Y104277D01*
X246272Y102328D01*
X246272Y98430D01*
X244323Y96481D01*
X238476Y96481D01*
X242374Y96481D02*
X246272Y92583D01*
X250170Y100379D02*
X254068Y104277D01*
X254068Y92583D01*
X250170Y92583D02*
X257966Y92583D01*
X261864Y104277D02*
X269660Y104277D01*
X269660Y102328D01*
X261864Y94532D01*
X261864Y92583D01*
X446439Y114808D02*
X446439Y126502D01*
X452286Y126502D01*
X454235Y124553D01*
X454235Y120655D01*
X452286Y118706D01*
X446439Y118706D01*
X450337Y118706D02*
X454235Y114808D01*
X458133Y122604D02*
X462030Y126502D01*
X462030Y114808D01*
X458133Y114808D02*
X465928Y114808D01*
X469826Y114808D02*
X477622Y114808D01*
X469826Y114808D02*
X477622Y122604D01*
X477622Y124553D01*
X475673Y126502D01*
X471775Y126502D01*
X469826Y124553D01*
D18*
X12150Y3350D02*
X12150Y517350D01*
X79150Y517350D01*
X90150Y517350D02*
X106150Y517350D01*
X106150Y3350D01*
X12150Y3350D01*
X25150Y-3650D02*
X24812Y-3874D01*
X24479Y-4106D01*
X24151Y-4345D01*
X23830Y-4593D01*
X23515Y-4848D01*
X23206Y-5111D01*
X22904Y-5382D01*
X22608Y-5660D01*
X22319Y-5945D01*
X22037Y-6236D01*
X21763Y-6535D01*
X21495Y-6840D01*
X21236Y-7152D01*
X20984Y-7470D01*
X20739Y-7794D01*
X20503Y-8124D01*
X20275Y-8459D01*
X20055Y-8800D01*
X19844Y-9146D01*
X19641Y-9497D01*
X19446Y-9854D01*
X19260Y-10214D01*
X19084Y-10579D01*
X18916Y-10949D01*
X18757Y-11322D01*
X18607Y-11699D01*
X18467Y-12080D01*
X18336Y-12464D01*
X18214Y-12851D01*
X18102Y-13241D01*
X17999Y-13633D01*
X17906Y-14028D01*
X17822Y-14425D01*
X17749Y-14824D01*
X17685Y-15224D01*
X17630Y-15626D01*
X17586Y-16030D01*
X17551Y-16434D01*
X17527Y-16839D01*
X17512Y-17244D01*
X17507Y-17650D01*
X17512Y-18056D01*
X17527Y-18461D01*
X17551Y-18866D01*
X17586Y-19270D01*
X17630Y-19674D01*
X17685Y-20076D01*
X17749Y-20476D01*
X17822Y-20875D01*
X17906Y-21272D01*
X17999Y-21667D01*
X18102Y-22059D01*
X18214Y-22449D01*
X18336Y-22836D01*
X18467Y-23220D01*
X18607Y-23601D01*
X18757Y-23978D01*
X18916Y-24351D01*
X19084Y-24721D01*
X19260Y-25086D01*
X19446Y-25446D01*
X19641Y-25803D01*
X19844Y-26154D01*
X20055Y-26500D01*
X20275Y-26841D01*
X20503Y-27176D01*
X20739Y-27506D01*
X20984Y-27830D01*
X21236Y-28148D01*
X21495Y-28460D01*
X21763Y-28765D01*
X22037Y-29064D01*
X22319Y-29355D01*
X22608Y-29640D01*
X22904Y-29918D01*
X23206Y-30189D01*
X23515Y-30452D01*
X23830Y-30707D01*
X24151Y-30955D01*
X24479Y-31194D01*
X24812Y-31426D01*
X25150Y-31650D01*
X43150Y-31650D02*
X43488Y-31426D01*
X43821Y-31194D01*
X44149Y-30955D01*
X44470Y-30707D01*
X44785Y-30452D01*
X45094Y-30189D01*
X45396Y-29918D01*
X45692Y-29640D01*
X45981Y-29355D01*
X46263Y-29064D01*
X46537Y-28765D01*
X46805Y-28460D01*
X47064Y-28148D01*
X47316Y-27830D01*
X47561Y-27506D01*
X47797Y-27176D01*
X48025Y-26841D01*
X48245Y-26500D01*
X48456Y-26154D01*
X48659Y-25803D01*
X48854Y-25446D01*
X49040Y-25086D01*
X49216Y-24721D01*
X49384Y-24351D01*
X49543Y-23978D01*
X49693Y-23601D01*
X49833Y-23220D01*
X49964Y-22836D01*
X50086Y-22449D01*
X50198Y-22059D01*
X50301Y-21667D01*
X50394Y-21272D01*
X50478Y-20875D01*
X50551Y-20476D01*
X50615Y-20076D01*
X50670Y-19674D01*
X50714Y-19270D01*
X50749Y-18866D01*
X50773Y-18461D01*
X50788Y-18056D01*
X50793Y-17650D01*
X50788Y-17244D01*
X50773Y-16839D01*
X50749Y-16434D01*
X50714Y-16030D01*
X50670Y-15626D01*
X50615Y-15224D01*
X50551Y-14824D01*
X50478Y-14425D01*
X50394Y-14028D01*
X50301Y-13633D01*
X50198Y-13241D01*
X50086Y-12851D01*
X49964Y-12464D01*
X49833Y-12080D01*
X49693Y-11699D01*
X49543Y-11322D01*
X49384Y-10949D01*
X49216Y-10579D01*
X49040Y-10214D01*
X48854Y-9854D01*
X48659Y-9497D01*
X48456Y-9146D01*
X48245Y-8800D01*
X48025Y-8459D01*
X47797Y-8124D01*
X47561Y-7794D01*
X47316Y-7470D01*
X47064Y-7152D01*
X46805Y-6840D01*
X46537Y-6535D01*
X46263Y-6236D01*
X45981Y-5945D01*
X45692Y-5660D01*
X45396Y-5382D01*
X45094Y-5111D01*
X44785Y-4848D01*
X44470Y-4593D01*
X44149Y-4345D01*
X43821Y-4106D01*
X43488Y-3874D01*
X43150Y-3650D01*
X43150Y-31650D02*
X25150Y-31650D01*
X24150Y-4650D02*
X24150Y2350D01*
X44150Y2350D02*
X44150Y-4650D01*
X43150Y524350D02*
X43488Y524574D01*
X43821Y524806D01*
X44149Y525045D01*
X44470Y525293D01*
X44785Y525548D01*
X45094Y525811D01*
X45396Y526082D01*
X45692Y526360D01*
X45981Y526645D01*
X46263Y526936D01*
X46537Y527235D01*
X46805Y527540D01*
X47064Y527852D01*
X47316Y528170D01*
X47561Y528494D01*
X47797Y528824D01*
X48025Y529159D01*
X48245Y529500D01*
X48456Y529846D01*
X48659Y530197D01*
X48854Y530554D01*
X49040Y530914D01*
X49216Y531279D01*
X49384Y531649D01*
X49543Y532022D01*
X49693Y532399D01*
X49833Y532780D01*
X49964Y533164D01*
X50086Y533551D01*
X50198Y533941D01*
X50301Y534333D01*
X50394Y534728D01*
X50478Y535125D01*
X50551Y535524D01*
X50615Y535924D01*
X50670Y536326D01*
X50714Y536730D01*
X50749Y537134D01*
X50773Y537539D01*
X50788Y537944D01*
X50793Y538350D01*
X50788Y538756D01*
X50773Y539161D01*
X50749Y539566D01*
X50714Y539970D01*
X50670Y540374D01*
X50615Y540776D01*
X50551Y541176D01*
X50478Y541575D01*
X50394Y541972D01*
X50301Y542367D01*
X50198Y542759D01*
X50086Y543149D01*
X49964Y543536D01*
X49833Y543920D01*
X49693Y544301D01*
X49543Y544678D01*
X49384Y545051D01*
X49216Y545421D01*
X49040Y545786D01*
X48854Y546146D01*
X48659Y546503D01*
X48456Y546854D01*
X48245Y547200D01*
X48025Y547541D01*
X47797Y547876D01*
X47561Y548206D01*
X47316Y548530D01*
X47064Y548848D01*
X46805Y549160D01*
X46537Y549465D01*
X46263Y549764D01*
X45981Y550055D01*
X45692Y550340D01*
X45396Y550618D01*
X45094Y550889D01*
X44785Y551152D01*
X44470Y551407D01*
X44149Y551655D01*
X43821Y551894D01*
X43488Y552126D01*
X43150Y552350D01*
X25150Y552350D02*
X24812Y552126D01*
X24479Y551894D01*
X24151Y551655D01*
X23830Y551407D01*
X23515Y551152D01*
X23206Y550889D01*
X22904Y550618D01*
X22608Y550340D01*
X22319Y550055D01*
X22037Y549764D01*
X21763Y549465D01*
X21495Y549160D01*
X21236Y548848D01*
X20984Y548530D01*
X20739Y548206D01*
X20503Y547876D01*
X20275Y547541D01*
X20055Y547200D01*
X19844Y546854D01*
X19641Y546503D01*
X19446Y546146D01*
X19260Y545786D01*
X19084Y545421D01*
X18916Y545051D01*
X18757Y544678D01*
X18607Y544301D01*
X18467Y543920D01*
X18336Y543536D01*
X18214Y543149D01*
X18102Y542759D01*
X17999Y542367D01*
X17906Y541972D01*
X17822Y541575D01*
X17749Y541176D01*
X17685Y540776D01*
X17630Y540374D01*
X17586Y539970D01*
X17551Y539566D01*
X17527Y539161D01*
X17512Y538756D01*
X17507Y538350D01*
X17512Y537944D01*
X17527Y537539D01*
X17551Y537134D01*
X17586Y536730D01*
X17630Y536326D01*
X17685Y535924D01*
X17749Y535524D01*
X17822Y535125D01*
X17906Y534728D01*
X17999Y534333D01*
X18102Y533941D01*
X18214Y533551D01*
X18336Y533164D01*
X18467Y532780D01*
X18607Y532399D01*
X18757Y532022D01*
X18916Y531649D01*
X19084Y531279D01*
X19260Y530914D01*
X19446Y530554D01*
X19641Y530197D01*
X19844Y529846D01*
X20055Y529500D01*
X20275Y529159D01*
X20503Y528824D01*
X20739Y528494D01*
X20984Y528170D01*
X21236Y527852D01*
X21495Y527540D01*
X21763Y527235D01*
X22037Y526936D01*
X22319Y526645D01*
X22608Y526360D01*
X22904Y526082D01*
X23206Y525811D01*
X23515Y525548D01*
X23830Y525293D01*
X24151Y525045D01*
X24479Y524806D01*
X24812Y524574D01*
X25150Y524350D01*
X25150Y552350D02*
X43150Y552350D01*
X44150Y525350D02*
X44150Y518350D01*
X24150Y518350D02*
X24150Y525350D01*
X79150Y517350D02*
X79152Y517498D01*
X79158Y517645D01*
X79168Y517793D01*
X79182Y517940D01*
X79199Y518086D01*
X79221Y518232D01*
X79247Y518378D01*
X79276Y518522D01*
X79310Y518666D01*
X79347Y518809D01*
X79388Y518951D01*
X79433Y519092D01*
X79482Y519231D01*
X79534Y519369D01*
X79590Y519506D01*
X79650Y519641D01*
X79713Y519774D01*
X79780Y519906D01*
X79850Y520036D01*
X79924Y520164D01*
X80001Y520290D01*
X80082Y520413D01*
X80166Y520535D01*
X80253Y520654D01*
X80343Y520771D01*
X80437Y520885D01*
X80533Y520997D01*
X80633Y521106D01*
X80735Y521213D01*
X80840Y521317D01*
X80948Y521417D01*
X81058Y521515D01*
X81172Y521610D01*
X81287Y521702D01*
X81405Y521791D01*
X81526Y521876D01*
X81648Y521959D01*
X81773Y522038D01*
X81900Y522113D01*
X82029Y522185D01*
X82160Y522254D01*
X82292Y522319D01*
X82426Y522380D01*
X82562Y522438D01*
X82700Y522493D01*
X82838Y522543D01*
X82979Y522590D01*
X83120Y522633D01*
X83262Y522672D01*
X83406Y522707D01*
X83550Y522739D01*
X83695Y522766D01*
X83841Y522790D01*
X83987Y522810D01*
X84134Y522826D01*
X84281Y522838D01*
X84429Y522846D01*
X84576Y522850D01*
X84724Y522850D01*
X84871Y522846D01*
X85019Y522838D01*
X85166Y522826D01*
X85313Y522810D01*
X85459Y522790D01*
X85605Y522766D01*
X85750Y522739D01*
X85894Y522707D01*
X86038Y522672D01*
X86180Y522633D01*
X86321Y522590D01*
X86462Y522543D01*
X86600Y522493D01*
X86738Y522438D01*
X86874Y522380D01*
X87008Y522319D01*
X87140Y522254D01*
X87271Y522185D01*
X87400Y522113D01*
X87527Y522038D01*
X87652Y521959D01*
X87774Y521876D01*
X87895Y521791D01*
X88013Y521702D01*
X88128Y521610D01*
X88242Y521515D01*
X88352Y521417D01*
X88460Y521317D01*
X88565Y521213D01*
X88667Y521106D01*
X88767Y520997D01*
X88863Y520885D01*
X88957Y520771D01*
X89047Y520654D01*
X89134Y520535D01*
X89218Y520413D01*
X89299Y520290D01*
X89376Y520164D01*
X89450Y520036D01*
X89520Y519906D01*
X89587Y519774D01*
X89650Y519641D01*
X89710Y519506D01*
X89766Y519369D01*
X89818Y519231D01*
X89867Y519092D01*
X89912Y518951D01*
X89953Y518809D01*
X89990Y518666D01*
X90024Y518522D01*
X90053Y518378D01*
X90079Y518232D01*
X90101Y518086D01*
X90118Y517940D01*
X90132Y517793D01*
X90142Y517645D01*
X90148Y517498D01*
X90150Y517350D01*
D10*
X126492Y471854D02*
X114798Y464058D01*
X114798Y471854D02*
X126492Y464058D01*
X118696Y475752D02*
X114798Y479650D01*
X126492Y479650D01*
X126492Y475752D02*
X126492Y483548D01*
D17*
X487363Y222250D02*
X487363Y209550D01*
X481013Y203200D01*
X468313Y203200D01*
X461963Y209550D01*
X481013Y203200D02*
X487363Y196850D01*
X487363Y184150D01*
X481013Y177800D01*
X468313Y177800D01*
X461963Y184150D01*
X461963Y196850D01*
X468313Y203200D01*
X468313Y228600D02*
X481013Y228600D01*
X487363Y222250D01*
X468313Y228600D02*
X461963Y222250D01*
X461963Y209550D01*
X481013Y177800D02*
X487363Y171450D01*
X487363Y158750D01*
X481013Y152400D01*
X468313Y152400D01*
X461963Y158750D01*
X461963Y171450D01*
X468313Y177800D01*
D11*
X503109Y194915D02*
X505016Y196822D01*
X505016Y198728D01*
X503109Y200635D01*
X493576Y200635D01*
X493576Y198728D02*
X493576Y202542D01*
X493576Y206609D02*
X505016Y206609D01*
X493576Y206609D02*
X493576Y212329D01*
X495482Y214236D01*
X499296Y214236D01*
X501202Y212329D01*
X501202Y206609D01*
X497389Y218303D02*
X493576Y222116D01*
X505016Y222116D01*
X505016Y218303D02*
X505016Y225929D01*
M02*
