G04 EAGLE Gerber RS-274X export*
G75*
%MOMM*%
%FSLAX34Y34*%
%LPD*%
%INSolderpaste Bottom*%
%IPPOS*%
%AMOC8*
5,1,8,0,0,1.08239X$1,22.5*%
G01*
%ADD10R,1.300000X1.500000*%
%ADD11R,1.500000X1.300000*%
%ADD12R,2.200000X0.600000*%
%ADD13R,0.600000X2.200000*%
%ADD14R,1.270000X0.558800*%
%ADD15R,0.558800X1.270000*%
%ADD16R,0.700000X1.000000*%
%ADD17R,6.200000X5.400000*%
%ADD18R,1.600000X1.000000*%
%ADD19R,1.219200X2.235200*%
%ADD20R,3.600000X2.200000*%


D10*
X428600Y228600D03*
X409600Y228600D03*
X428600Y206375D03*
X409600Y206375D03*
X428600Y184150D03*
X409600Y184150D03*
X428600Y161925D03*
X409600Y161925D03*
D11*
X371475Y284138D03*
X371475Y265138D03*
X393700Y284138D03*
X393700Y265138D03*
X371475Y306413D03*
X371475Y325413D03*
D10*
X220688Y342900D03*
X239688Y342900D03*
D12*
X324838Y412750D03*
X376838Y412750D03*
X324838Y400050D03*
X324838Y425450D03*
X324838Y438150D03*
X376838Y400050D03*
X376838Y425450D03*
X376838Y438150D03*
D10*
X473050Y111125D03*
X454050Y111125D03*
X463525Y88900D03*
X444525Y88900D03*
D12*
X324838Y355600D03*
X376838Y355600D03*
X324838Y342900D03*
X324838Y368300D03*
X324838Y381000D03*
X376838Y342900D03*
X376838Y368300D03*
X376838Y381000D03*
D10*
X406425Y469900D03*
X425425Y469900D03*
D11*
X393700Y306413D03*
X393700Y325413D03*
D10*
X425425Y347663D03*
X406425Y347663D03*
X406425Y368300D03*
X425425Y368300D03*
D11*
X446088Y347688D03*
X446088Y366688D03*
D13*
X415925Y445100D03*
X415925Y393100D03*
X403225Y445100D03*
X428625Y445100D03*
X441325Y445100D03*
X403225Y393100D03*
X428625Y393100D03*
X441325Y393100D03*
D10*
G36*
X157156Y153475D02*
X166348Y162667D01*
X176954Y152061D01*
X167762Y142869D01*
X157156Y153475D01*
G37*
G36*
X143721Y140039D02*
X152913Y149231D01*
X163519Y138625D01*
X154327Y129433D01*
X143721Y140039D01*
G37*
G36*
X246069Y127513D02*
X236877Y118321D01*
X226271Y128927D01*
X235463Y138119D01*
X246069Y127513D01*
G37*
G36*
X259504Y140948D02*
X250312Y131756D01*
X239706Y142362D01*
X248898Y151554D01*
X259504Y140948D01*
G37*
G36*
X266707Y243400D02*
X257515Y234208D01*
X246909Y244814D01*
X256101Y254006D01*
X266707Y243400D01*
G37*
G36*
X280142Y256836D02*
X270950Y247644D01*
X260344Y258250D01*
X269536Y267442D01*
X280142Y256836D01*
G37*
G36*
X122751Y184144D02*
X113559Y193336D01*
X124165Y203942D01*
X133357Y194750D01*
X122751Y184144D01*
G37*
G36*
X136186Y170708D02*
X126994Y179900D01*
X137600Y190506D01*
X146792Y181314D01*
X136186Y170708D01*
G37*
G36*
X179394Y124338D02*
X170202Y115146D01*
X159596Y125752D01*
X168788Y134944D01*
X179394Y124338D01*
G37*
G36*
X192829Y137773D02*
X183637Y128581D01*
X173031Y139187D01*
X182223Y148379D01*
X192829Y137773D01*
G37*
G36*
X151887Y230194D02*
X161079Y221002D01*
X150473Y210396D01*
X141281Y219588D01*
X151887Y230194D01*
G37*
G36*
X138452Y243629D02*
X147644Y234437D01*
X137038Y223831D01*
X127846Y233023D01*
X138452Y243629D01*
G37*
G36*
X167762Y246069D02*
X176954Y236877D01*
X166348Y226271D01*
X157156Y235463D01*
X167762Y246069D01*
G37*
G36*
X154327Y259504D02*
X163519Y250312D01*
X152913Y239706D01*
X143721Y248898D01*
X154327Y259504D01*
G37*
G36*
X271456Y174112D02*
X280648Y183304D01*
X291254Y172698D01*
X282062Y163506D01*
X271456Y174112D01*
G37*
G36*
X258021Y160677D02*
X267213Y169869D01*
X277819Y159263D01*
X268627Y150071D01*
X258021Y160677D01*
G37*
G36*
X300031Y202687D02*
X309223Y211879D01*
X319829Y201273D01*
X310637Y192081D01*
X300031Y202687D01*
G37*
G36*
X286596Y189252D02*
X295788Y198444D01*
X306394Y187838D01*
X297202Y178646D01*
X286596Y189252D01*
G37*
G36*
X296869Y210063D02*
X287677Y200871D01*
X277071Y211477D01*
X286263Y220669D01*
X296869Y210063D01*
G37*
G36*
X310304Y223498D02*
X301112Y214306D01*
X290506Y224912D01*
X299698Y234104D01*
X310304Y223498D01*
G37*
G36*
X280994Y225938D02*
X271802Y216746D01*
X261196Y227352D01*
X270388Y236544D01*
X280994Y225938D01*
G37*
G36*
X294429Y239373D02*
X285237Y230181D01*
X274631Y240787D01*
X283823Y249979D01*
X294429Y239373D01*
G37*
D14*
G36*
X208636Y146037D02*
X199657Y137058D01*
X195706Y141009D01*
X204685Y149988D01*
X208636Y146037D01*
G37*
G36*
X202979Y151694D02*
X194000Y142715D01*
X190049Y146666D01*
X199028Y155645D01*
X202979Y151694D01*
G37*
G36*
X197322Y157350D02*
X188343Y148371D01*
X184392Y152322D01*
X193371Y161301D01*
X197322Y157350D01*
G37*
G36*
X191665Y163007D02*
X182686Y154028D01*
X178735Y157979D01*
X187714Y166958D01*
X191665Y163007D01*
G37*
G36*
X186008Y168664D02*
X177029Y159685D01*
X173078Y163636D01*
X182057Y172615D01*
X186008Y168664D01*
G37*
G36*
X180351Y174321D02*
X171372Y165342D01*
X167421Y169293D01*
X176400Y178272D01*
X180351Y174321D01*
G37*
G36*
X174695Y179978D02*
X165716Y170999D01*
X161765Y174950D01*
X170744Y183929D01*
X174695Y179978D01*
G37*
G36*
X169038Y185635D02*
X160059Y176656D01*
X156108Y180607D01*
X165087Y189586D01*
X169038Y185635D01*
G37*
D15*
G36*
X169038Y201715D02*
X165087Y197764D01*
X156108Y206743D01*
X160059Y210694D01*
X169038Y201715D01*
G37*
G36*
X174695Y207372D02*
X170744Y203421D01*
X161765Y212400D01*
X165716Y216351D01*
X174695Y207372D01*
G37*
G36*
X180351Y213029D02*
X176400Y209078D01*
X167421Y218057D01*
X171372Y222008D01*
X180351Y213029D01*
G37*
G36*
X186008Y218686D02*
X182057Y214735D01*
X173078Y223714D01*
X177029Y227665D01*
X186008Y218686D01*
G37*
G36*
X191665Y224343D02*
X187714Y220392D01*
X178735Y229371D01*
X182686Y233322D01*
X191665Y224343D01*
G37*
G36*
X197322Y230000D02*
X193371Y226049D01*
X184392Y235028D01*
X188343Y238979D01*
X197322Y230000D01*
G37*
G36*
X202979Y235656D02*
X199028Y231705D01*
X190049Y240684D01*
X194000Y244635D01*
X202979Y235656D01*
G37*
G36*
X208636Y241313D02*
X204685Y237362D01*
X195706Y246341D01*
X199657Y250292D01*
X208636Y241313D01*
G37*
D14*
G36*
X229744Y246341D02*
X220765Y237362D01*
X216814Y241313D01*
X225793Y250292D01*
X229744Y246341D01*
G37*
G36*
X235401Y240684D02*
X226422Y231705D01*
X222471Y235656D01*
X231450Y244635D01*
X235401Y240684D01*
G37*
G36*
X241058Y235028D02*
X232079Y226049D01*
X228128Y230000D01*
X237107Y238979D01*
X241058Y235028D01*
G37*
G36*
X246715Y229371D02*
X237736Y220392D01*
X233785Y224343D01*
X242764Y233322D01*
X246715Y229371D01*
G37*
G36*
X252372Y223714D02*
X243393Y214735D01*
X239442Y218686D01*
X248421Y227665D01*
X252372Y223714D01*
G37*
G36*
X258029Y218057D02*
X249050Y209078D01*
X245099Y213029D01*
X254078Y222008D01*
X258029Y218057D01*
G37*
G36*
X263685Y212400D02*
X254706Y203421D01*
X250755Y207372D01*
X259734Y216351D01*
X263685Y212400D01*
G37*
G36*
X269342Y206743D02*
X260363Y197764D01*
X256412Y201715D01*
X265391Y210694D01*
X269342Y206743D01*
G37*
D15*
G36*
X269342Y180607D02*
X265391Y176656D01*
X256412Y185635D01*
X260363Y189586D01*
X269342Y180607D01*
G37*
G36*
X263685Y174950D02*
X259734Y170999D01*
X250755Y179978D01*
X254706Y183929D01*
X263685Y174950D01*
G37*
G36*
X258029Y169293D02*
X254078Y165342D01*
X245099Y174321D01*
X249050Y178272D01*
X258029Y169293D01*
G37*
G36*
X252372Y163636D02*
X248421Y159685D01*
X239442Y168664D01*
X243393Y172615D01*
X252372Y163636D01*
G37*
G36*
X246715Y157979D02*
X242764Y154028D01*
X233785Y163007D01*
X237736Y166958D01*
X246715Y157979D01*
G37*
G36*
X241058Y152322D02*
X237107Y148371D01*
X228128Y157350D01*
X232079Y161301D01*
X241058Y152322D01*
G37*
G36*
X235401Y146666D02*
X231450Y142715D01*
X222471Y151694D01*
X226422Y155645D01*
X235401Y146666D01*
G37*
G36*
X229744Y141009D02*
X225793Y137058D01*
X216814Y146037D01*
X220765Y149988D01*
X229744Y141009D01*
G37*
D11*
X252413Y446063D03*
X252413Y427063D03*
X130175Y366688D03*
X130175Y347688D03*
X231775Y427063D03*
X231775Y446063D03*
D16*
X336550Y480900D03*
X327050Y458900D03*
X346050Y458900D03*
D11*
X374650Y454050D03*
X374650Y473050D03*
D10*
G36*
X149232Y152913D02*
X140040Y143721D01*
X129434Y154327D01*
X138626Y163519D01*
X149232Y152913D01*
G37*
G36*
X162667Y166348D02*
X153475Y157156D01*
X142869Y167762D01*
X152061Y176954D01*
X162667Y166348D01*
G37*
D17*
X136925Y422275D03*
D18*
X209925Y445075D03*
X209925Y399475D03*
D10*
X276200Y28575D03*
X257200Y28575D03*
X409600Y111125D03*
X428600Y111125D03*
X409600Y139700D03*
X428600Y139700D03*
D19*
G36*
X315270Y117863D02*
X306649Y109242D01*
X290844Y125047D01*
X299465Y133668D01*
X315270Y117863D01*
G37*
G36*
X331614Y134207D02*
X322993Y125586D01*
X307188Y141391D01*
X315809Y150012D01*
X331614Y134207D01*
G37*
G36*
X347958Y150551D02*
X339337Y141930D01*
X323532Y157735D01*
X332153Y166356D01*
X347958Y150551D01*
G37*
D20*
G36*
X383732Y98923D02*
X358277Y73468D01*
X342720Y89025D01*
X368175Y114480D01*
X383732Y98923D01*
G37*
D10*
G36*
X290506Y155062D02*
X299698Y164254D01*
X310304Y153648D01*
X301112Y144456D01*
X290506Y155062D01*
G37*
G36*
X277071Y141627D02*
X286263Y150819D01*
X296869Y140213D01*
X287677Y131021D01*
X277071Y141627D01*
G37*
M02*
